<?xml version="1.0" encoding="UTF-8" standalone="no"?>
<svg
   xmlns:dc="http://purl.org/dc/elements/1.1/"
   xmlns:cc="http://creativecommons.org/ns#"
   xmlns:rdf="http://www.w3.org/1999/02/22-rdf-syntax-ns#"
   xmlns:svg="http://www.w3.org/2000/svg"
   xmlns="http://www.w3.org/2000/svg"
   xmlns:sodipodi="http://sodipodi.sourceforge.net/DTD/sodipodi-0.dtd"
   xmlns:inkscape="http://www.inkscape.org/namespaces/inkscape"
   sodipodi:docname="drawing.svg"
   inkscape:version="1.0 (6e3e5246a0, 2020-05-07)"
   id="svg8"
   version="1.1"
   viewBox="0 0 158.75 109.71589"
   height="414.67419"
   width="600">
  <title
     id="title2308">shareable.theater description</title>
  <defs
     id="defs2">
    <marker
       inkscape:isstock="true"
       style="overflow:visible"
       id="marker2201"
       refX="0"
       refY="0"
       orient="auto"
       inkscape:stockid="Arrow1Lend">
      <path
         transform="matrix(-0.8,0,0,-0.8,-10,0)"
         style="fill-rule:evenodd;stroke:#000000;stroke-width:1pt"
         d="M 0,0 5,-5 -12.5,0 5,5 Z"
         id="path2199" />
    </marker>
    <marker
       inkscape:isstock="true"
       style="overflow:visible"
       id="Arrow1Lend"
       refX="0"
       refY="0"
       orient="auto"
       inkscape:stockid="Arrow1Lend">
      <path
         transform="matrix(-0.8,0,0,-0.8,-10,0)"
         style="fill-rule:evenodd;stroke:#000000;stroke-width:1pt"
         d="M 0,0 5,-5 -12.5,0 5,5 Z"
         id="path1932" />
    </marker>
    <inkscape:perspective
       id="perspective1888"
       inkscape:persp3d-origin="53.609958 : 53.100899 : 1"
       inkscape:vp_z="91.895624 : 59.826911 : 1"
       inkscape:vp_y="0 : 277.77842 : 0"
       inkscape:vp_x="91.732269 : 59.934222 : 1"
       sodipodi:type="inkscape:persp3d" />
    <filter
       height="1"
       y="-3.1482669e-22"
       width="1"
       x="-2.3096562e-22"
       id="filter1884"
       style="color-interpolation-filters:sRGB"
       inkscape:collect="always">
      <feGaussianBlur
         id="feGaussianBlur1886"
         stdDeviation="7.7170685e-20"
         inkscape:collect="always" />
    </filter>
  </defs>
  <sodipodi:namedview
     fit-margin-bottom="0"
     fit-margin-right="0"
     fit-margin-left="0"
     fit-margin-top="0"
     inkscape:window-maximized="1"
     inkscape:window-y="0"
     inkscape:window-x="0"
     inkscape:window-height="699"
     inkscape:window-width="1360"
     guidetolerance="10.2"
     gridtolerance="10"
     objecttolerance="6.4"
     units="px"
     showgrid="false"
     inkscape:document-rotation="0"
     inkscape:current-layer="g2288"
     inkscape:document-units="px"
     inkscape:cy="276.05641"
     inkscape:cx="552.87279"
     inkscape:zoom="1.4"
     inkscape:pageshadow="2"
     inkscape:pageopacity="0.0"
     borderopacity="1.0"
     bordercolor="#666666"
     pagecolor="#ffffff"
     id="base" />
  <metadata
     id="metadata5">
    <rdf:RDF>
      <cc:Work
         rdf:about="">
        <dc:format>image/svg+xml</dc:format>
        <dc:type
           rdf:resource="http://purl.org/dc/dcmitype/StillImage" />
        <dc:title>shareable.theater description</dc:title>
        <dc:creator>
          <cc:Agent>
            <dc:title>LoveIsGrief</dc:title>
          </cc:Agent>
        </dc:creator>
        <dc:rights>
          <cc:Agent>
            <dc:title></dc:title>
          </cc:Agent>
        </dc:rights>
        <dc:description>All clipart from https://openclipart.org</dc:description>
        <dc:language>English</dc:language>
        <dc:subject>
          <rdf:Bag>
            <rdf:li>network</rdf:li>
            <rdf:li>webrtc</rdf:li>
            <rdf:li>sharing</rdf:li>
            <rdf:li>diagram</rdf:li>
          </rdf:Bag>
        </dc:subject>
        <cc:license
           rdf:resource="http://creativecommons.org/publicdomain/zero/1.0/" />
      </cc:Work>
      <cc:License
         rdf:about="http://creativecommons.org/publicdomain/zero/1.0/">
        <cc:permits
           rdf:resource="http://creativecommons.org/ns#Reproduction" />
        <cc:permits
           rdf:resource="http://creativecommons.org/ns#Distribution" />
        <cc:permits
           rdf:resource="http://creativecommons.org/ns#DerivativeWorks" />
      </cc:License>
    </rdf:RDF>
  </metadata>
  <g
     transform="translate(-2.9429272,-147.34409)"
     id="layer1"
     inkscape:groupmode="layer"
     inkscape:label="Layer 1">
    <g
       transform="matrix(0.45833872,0,0,0.45833872,1.5940696,138.51824)"
       inkscape:label="Viewer lines"
       style="stroke:#000000;stroke-width:1.32292;stroke-miterlimit:4;stroke-dasharray:31.75, 1.32292;stroke-dashoffset:0;stroke-opacity:1;paint-order:fill markers stroke"
       id="g2218">
      <path
         style="fill:none;fill-rule:evenodd;stroke:#000000;stroke-width:1.32292;stroke-linecap:butt;stroke-linejoin:miter;stroke-miterlimit:4;stroke-dasharray:31.75, 1.32292;stroke-dashoffset:0;stroke-opacity:1;paint-order:fill markers stroke"
         d="m 175.16761,134.26088 -95.263288,6.61509"
         id="path1917" />
      <path
         style="fill:none;fill-rule:evenodd;stroke:#000000;stroke-width:1.32292;stroke-linecap:butt;stroke-linejoin:miter;stroke-miterlimit:4;stroke-dasharray:31.75, 1.32292;stroke-dashoffset:0;stroke-opacity:1;paint-order:fill markers stroke"
         d="M 174.96614,115.92292 78.129354,100.60329"
         id="path1919" />
      <path
         style="fill:none;fill-rule:evenodd;stroke:#000000;stroke-width:1.32292;stroke-linecap:butt;stroke-linejoin:miter;stroke-miterlimit:4;stroke-dasharray:31.75, 1.32292;stroke-dashoffset:0;stroke-opacity:1;paint-order:fill markers stroke"
         d="M 174.9079,93.761538 82.230695,49.435686"
         id="path1921" />
    </g>
    <g
       inkscape:label="Projection"
       inkscape:corner7="0.57333622 : 0.020542508 : 0.30045055 : 1"
       inkscape:corner0="13.429994 : 0.13138058 : 0 : 1"
       inkscape:perspectiveID="#perspective1888"
       style="opacity:1;fill:#00ffff;fill-opacity:1;fill-rule:nonzero;stroke:#c83737;stroke-width:37.7953;stroke-linecap:square;stroke-linejoin:miter;stroke-miterlimit:4;stroke-dasharray:none;stroke-opacity:1"
       id="g1890"
       sodipodi:type="inkscape:box3d">
      <path
         points="70.444961,178.27323 70.444961,197.8421 92.03332,197.20386 92.03332,195.07022 "
         d="M 92.03332,195.07022 70.444961,178.27323 v 19.56887 l 21.588359,-0.63824 z"
         inkscape:box3dsidetype="3"
         style="fill:#8686bf;fill-rule:evenodd;stroke:none;stroke-width:0.277785px;stroke-linecap:butt;stroke-linejoin:round;stroke-opacity:1"
         id="path1896"
         sodipodi:type="inkscape:box3dside" />
      <path
         points="70.444961,197.8421 74.356329,197.74445 92.090537,197.20446 92.03332,197.20386 "
         d="m 92.03332,197.20386 -21.588359,0.63824 3.911368,-0.0976 17.734208,-0.53999 z"
         inkscape:box3dsidetype="13"
         style="fill:#afafde;fill-rule:evenodd;stroke:none;stroke-width:0.277785px;stroke-linecap:butt;stroke-linejoin:round;stroke-opacity:1"
         id="path1900"
         sodipodi:type="inkscape:box3dside" />
      <path
         points="92.03332,197.20386 92.090537,197.20446 92.090537,195.11433 92.03332,195.07022 "
         d="m 92.03332,195.07022 v 2.13364 l 0.05722,6e-4 v -2.09013 z"
         inkscape:box3dsidetype="6"
         style="fill:#353564;fill-rule:evenodd;stroke:none;stroke-width:0.277785px;stroke-linecap:butt;stroke-linejoin:round;stroke-opacity:1"
         id="path1892"
         sodipodi:type="inkscape:box3dside" />
      <path
         points="70.444961,178.27323 74.356329,181.31332 92.090537,195.11433 92.03332,195.07022 "
         d="m 92.03332,195.07022 -21.588359,-16.79699 3.911368,3.04009 17.734208,13.80101 z"
         inkscape:box3dsidetype="5"
         style="fill:#4d4d9f;fill-rule:evenodd;stroke:none;stroke-width:0.277785px;stroke-linecap:butt;stroke-linejoin:round;stroke-opacity:1"
         id="path1894"
         sodipodi:type="inkscape:box3dside" />
      <path
         points="70.444961,197.8421 74.356329,197.74445 74.356329,181.31332 70.444961,178.27323 "
         d="m 70.444961,178.27323 v 19.56887 l 3.911368,-0.0976 v -16.43113 z"
         inkscape:box3dsidetype="14"
         style="fill:#d7d7ff;fill-rule:evenodd;stroke:none;stroke-width:0.277785px;stroke-linecap:butt;stroke-linejoin:round;stroke-opacity:1"
         id="path1898"
         sodipodi:type="inkscape:box3dside" />
      <path
         points="74.356329,181.31332 74.356329,197.74445 92.090537,197.20446 92.090537,195.11433 "
         d="M 92.090537,195.11433 74.356329,181.31332 v 16.43113 l 17.734208,-0.53999 z"
         inkscape:box3dsidetype="11"
         style="fill:#e9e9ff;fill-rule:evenodd;stroke:none;stroke-width:0.277785px;stroke-linecap:butt;stroke-linejoin:round;stroke-opacity:1"
         id="path1902"
         sodipodi:type="inkscape:box3dside" />
    </g>
    <g
       inkscape:label="Projectionist"
       transform="matrix(0.81398005,0,0,0.81398005,78.344257,179.04014)"
       style="fill:#f4f6f8;stroke:#0f2d59;stroke-linecap:round;stroke-linejoin:round"
       id="g20">
      <path
         d="m 7.75,36.5 c -1.25,0 -2,0.3 -2.5,1.5 l -2.5,6 C 1.9,46 3,46.5 4,46.5 h 40 c 1,0 2.1,-0.5 1.25,-2.5 l -2.5,-6 c -0.5,-1.2 -1.25,-1.5 -2.5,-1.5 z"
         inkscape:connector-curvature="0"
         id="path22" />
      <path
         d="m 14.5,29.5 -1,3 c -0.5,1.5 0,2 1.5,2 h 18 c 1.5,0 2,-0.5 1.5,-2 l -1,-3 z"
         inkscape:connector-curvature="0"
         id="path24" />
      <path
         d="m 8,38.5 -2,6 h 36 l -2,-6 z"
         inkscape:connector-curvature="0"
         id="path26" />
      <path
         d="m 37.5,38.5 v 6 m -3,-6 v 6 m -3,-6 v 6 m -3,-6 v 3 m -3,-3 v 3 m -3,-3 v 3 m -3,-3 v 3 m -3,-3 v 3 m -3,-3 v 6 m -3,-6 v 6 M 7,41.5 h 34"
         inkscape:connector-curvature="0"
         id="path28" />
      <rect
         width="9"
         height="4"
         x="19.5"
         y="28.5"
         id="rect30" />
      <path
         transform="matrix(0.14898249,0,0,0.14898249,-94.290008,-49.782334)"
         d="m 676.52344,344.2168 c -7.43712,0 -13.42578,5.98671 -13.42578,13.42382 v 167.80665 c 0,7.43711 5.98866,13.42382 13.42578,13.42382 h 234.92578 c 7.43711,0 13.42383,-5.98671 13.42383,-13.42382 V 357.64062 c 0,-7.43711 -5.98672,-13.42382 -13.42383,-13.42382 z m 13.42383,20.13672 h 208.07812 c 3.71856,0 6.71094,2.99433 6.71094,6.71289 v 134.24414 c 0,3.71855 -2.99238,6.71093 -6.71094,6.71093 H 689.94727 c -3.71856,0 -6.71289,-2.99238 -6.71289,-6.71093 V 371.06641 c 0,-3.71856 2.99433,-6.71289 6.71289,-6.71289 z"
         style="stroke-width:6.7122"
         id="rect32" />
    </g>
    <g
       inkscape:label="Projector"
       style="filter:url(#filter1884)"
       transform="matrix(-0.02551959,0,0,0.02551959,111.51421,178.4758)"
       id="g1211">
      <g
         id="_x23_ffffffff">
	<path
   fill="#ffffff"
   stroke="#ffffff"
   stroke-width="0.0938"
   d="m 646.19,239.89 c 39.59,-22.54 86.95,-29.09 131.72,-22.74 23.78,3.42 47,11.11 67.89,23.05 29.7,17.13 55.46,41.62 72.82,71.28 16.26,27.79 23.46,60.36 22.22,92.42 -0.77,33.19 -11.52,66.12 -30.9301,93.1 -18.39,25.54 -42.8,46.81 -70.73,61.32 -31.02,16.17 -66.42,22.48 -101.18,21.84 -8.3,-0.52 -16.65,-0.81 -24.84,-2.2599 -2.03,-0.31 -4.1,-0.33 -6.04,-1 -3.34,-0.53 -6.73,-0.96 -9.94,-2.03 -0.9,-0.15 -2.7,-0.46 -3.61,-0.61 0,13.11 0.19,26.23 0.07,39.35 1.07,0.03 2.15,0.08 3.23,0.14 0.6,0.04 1.79,0.1 2.39,0.14 0.04,-6.99 -0.14,-13.98 0.02,-20.97 -0.05,-1.8 1.4399,-3.06 2.31,-4.46 20.45,-0.07 40.9,-0.05 61.35,-0.01 2.86,-0.16 5.06,2.8 4.57,5.53 0.1,46.34 0.19,92.67 0.23,139.01 0.4,2.76 -1.82,5.66 -4.72,5.46 -19.99,-0.04 -39.99,0.15 -59.97,-0.09 -1.95,-0.76 -5.12,-2.7 -4.32,-5.17 l -1.17,0.5 c -0.02,-5.63 -0.02,-11.26 -0.02,-16.88 -0.94,0 -2.82,-0.01 -3.7599,-0.01 0.02,9.73 0.1,19.48 0,29.21 0.04,2.49 -2.2401,4.68 -4.72,4.52 -19.2,0.0699 -38.4,0.04 -57.6,0.01 0.04,15.84 0,31.69 0.07,47.53 0.2,2.94 -2.5601,5.42 -5.48,5.03 -99.34,0 -198.68,-0.24 -298.02,-0.12 -3.05,0.55 -6.54,-1.58 -6.33,-4.93 -0.02,-15.87 -0.01,-31.74 0.04,-47.61 -10.93,0.03 -21.85,0.02 -32.77,0.01 -3.06,0.41 -5.88,-2.39 -5.42,-5.45 0.02,-47.04 0.19,-94.07 0.25,-141.1 -19.48,-2.21 -38.65,-7.6 -56.21,-16.36 -15.74,-7.79 -30.09,-18.3 -42.58,-30.63 -14.64,-14.4 -26.86,-31.44 -34.8,-50.44 -12.04,-28.69 -14.05,-61.2 -7.28,-91.45 6.22,-27.88 21.69,-53.19 42.19,-72.89 23.04,-22.67 52.58,-38.82 84.4,-44.89 23.87,-4.65 48.67,-4.74 72.53,0.04 39.17,7.91 75.78,29.82 99.76,61.99 4.75,6.35 8.95,13.09 12.74,20.06 32.28,-0.06 64.55,-0.01 96.83,-0.05 1.96,-21.5 8.08,-42.62 18.01,-61.79 17.14,-32.75 44.86,-59.35 76.8,-77.6 m 0.3,4.76 c -30.09,17.75 -56.29,43.04 -72.66,74.1 -10.56,20.04 -16.52,42.34 -18.26,64.88 -34.67,-0.01 -69.33,0 -104,0 -15.18,-30.11 -40.89,-54.43 -71.24,-68.92 -30.85,-15.14 -66.3,-19.65 -100.2,-15.03 -31.79,4.14 -62.09,18.21 -85.92,39.62 -22.2,19.42 -39.55,44.99 -46.58,73.84 -7.26,29.7 -5.67,61.83 5.88,90.25 6.76,16.65 16.96,31.79 29.22,44.89 13.04,14.0099 28.43,25.91 45.55,34.52 18.6,9.51 39.13,14.83 59.86,16.9 -0.02,48.73 -0.24,97.45 -0.26,146.17 12.75,0 25.49,0 38.24,0.01 0.02,17.54 -0.02,35.09 0.03,52.63 61.62,-0.03 123.24,0 184.87,-0.01 38.63,0.12 77.28,-0.25 115.91,0.18 0.16,-17.56 0.02,-35.12 0.07,-52.68 20.79,0 41.58,0 62.38,0 -0.01,-11.3 0.01,-22.59 -0.02,-33.88 4.87,0.09 9.75,0.18 14.62,0.11 0.04,7.22 0.22,14.43 0.15,21.65 19.75,-0.01 39.49,-0.01 59.24,-0.01 -0.02,-46.95 -0.12,-93.91 -0.25,-140.87 -19.75,0 -39.5,0 -59.25,0 0,8.46 0,16.92 0,25.37 -4.88,0 -9.75,0.01 -14.62,0 0.11,-17.07 -0.17,-34.13 -0.11,-51.19 17.19,4.91 35.02,7.56 52.89,7.85 35.6299,0.85 71.81,-7.05 102.77,-25.02 26.15,-15.19 48.98,-36.3 65.65,-61.57 17.37,-26.35 26.32,-57.91 26.31,-89.41 0.31,-22.63 -3.63,-45.41 -12.27,-66.36 -12.13,-29.69 -33.52,-54.93 -58.78,-74.38 -25.63,-19.86 -56.54,-32.71 -88.65,-37.13 -44.47,-6.2 -91.55,0.57 -130.57,23.49 M 454.24,380.69 c 32.46,-0.23 65.06,-0.27 97.52,0 -1.32,-1.93 -3.92,-0.08 -5.77,-0.3 -25.3,0.17 -50.62,-0.02 -75.92,0.08 -4.44,-0.11 -8.92,0.34 -13.3,-0.5 -1.09,-0.44 -1.94,-0.2 -2.53,0.72 z"
   id="path1017" />

	<path
   fill="#ffffff"
   stroke="#ffffff"
   stroke-width="0.0938"
   d="m 679.06,262.39 c 14.41,-5.18 30.21,-6.82 45.26,-3.66 2.14,20.4 4.36,40.79 6.4,61.2 1.04,11.14 -5.28,21.35 -12.9399,28.87 -7.94,8.48 -19.04,14.39 -30.83,14.4 -8.25,0.34 -15.85,-3.22 -23.47,-5.85 -20.6,-7.44 -41.25,-14.78 -61.69,-22.66 5.42,-17.69 17.52,-32.52 31.33,-44.47 C 646.78,278.56 662.06,268.45 679.06,262.39 m 3.26,3.94 c -5.48,1.88 -10.82,4.16 -16.02,6.7 v 0.23 c -9,4.48 -17.4,10.14 -25.25,16.4 -14.36,11.42 -27.8,25.43 -33.91,43.06 2.33,0.85 4.66,1.71 7.12,2.13 18.46,6.99 37.06,13.57 55.62,20.28 8.82,3.84 19.02,5.18 28.2,1.71 9.49,-3.47 17.05,-10.85 22.81,-18.95 4.01,-5.33 5.96,-12.28 5.03,-18.9 -1.88,-18.67 -4.03,-37.31 -5.79,-55.98 -12.62,-1.96 -25.7,-0.73 -37.81,3.32 z"
   id="path1019" />

	<path
   fill="#ffffff"
   stroke="#ffffff"
   stroke-width="0.0938"
   d="m 765.66,257.5 c 8.4,-1.56 17.04,-1.62 25.3701,0.46 20.4399,4.7 38.55,16.15 54.9399,28.87 14.3,11.43 28,25.26 33.67,43.12 -18.8,9.07 -37.23,18.97 -56.55,26.92 -5.13,1.9 -10.42,4.46 -16.03,3.62 -10.39,-1.09 -19.94,-6.13 -28.23,-12.25 -7.99,-5.96 -14.4,-14.95 -14.77,-25.19 -0.4,-21.86 -0.16,-43.75 1.6,-65.55 m 3.59,4.37 c -1.44,19.67 -1.6,39.41 -1.43,59.13 0.03,2.17 0.12,4.43 1.16,6.4 2.79,11.5 13.05,19.05 23.06,24.13 7.31,3.48 16.08,6.75 23.9901,3.28 18.04,-6.83 35.12,-15.88 52.3799,-24.43 l 0.19,0.38 c 1.7,-0.91 3.4301,-1.75 5.2,-2.54 -0.9,-3.71 -3,-6.97 -4.89,-10.23 -8.3,-13.2 -20.37,-23.41 -32.83,-32.52 -7.28,-5.38 -15.06,-10.06 -23.09,-14.22 -5.41,-2.78 -11.08,-5.02 -16.88,-6.85 -8.64,-2.73 -17.86,-3.93 -26.86,-2.53 z"
   id="path1021" />

	<path
   fill="#ffffff"
   stroke="#ffffff"
   stroke-width="0.0938"
   d="m 268.92,334.08 c 7.2,-0.07 14.33,-1.34 21.53,-1.37 1.03,16.99 1.95,34.01 2.19,51.04 -1.33,-0.01 -2.67,-0.01 -4,-0.01 -0.15,4.93 0.21,9.88 -0.17,14.79 -4.27,8.52 -11.23,16.11 -20.21,19.7 -8.1,3.17 -17.43,3.25 -25.51,0 -18.06,-6.89 -36.2,-13.58 -54.12,-20.83 6.78,-21.35 22.91,-38.5 41.38,-50.52 11.6,-7.47 25.06,-12.31 38.91,-12.8 m -10.47,6.2 c -6.77,1.44 -13.38,3.72 -19.47,7.02 -6.42,3.5 -12.62,7.48 -18.07,12.39 -11.53,9.51 -21.29,21.52 -26.68,35.58 16.41,6.41 32.88,12.65 49.36,18.88 7.36,3.19 16.28,3.43 23.57,-0.05 7.41,-3.1 13.13,-9.34 16.93,-16.29 0.36,-4.88 -0.04,-9.8 0.3,-14.69 0.17,-2.07 2.16,-3.11 3.83,-3.88 -0.25,-10.37 -0.65,-20.74 -1.24,-31.1 0.24,-3.53 -0.01,-7.07 -0.53,-10.57 -9.29,1.46 -18.8,0.73 -28,2.71 z"
   id="path1023" />

	<path
   fill="#ffffff"
   stroke="#ffffff"
   stroke-width="0.0938"
   d="m 322.43,332.74 c 6.52,0.21 13.07,-0.52 19.56,0.32 14.96,1.7 28.88,8.37 41.26,16.68 13.14,8.73 24.89,19.98 32.49,33.94 -31.58,-0.21 -63.15,0.12 -94.73,0.08 -0.12,-17.02 -0.02,-34.05 1.42,-51.02 m 3.86,4.68 c -0.56,7.62 -1.17,15.31 -0.61,22.95 -0.27,6.4 -0.04,12.82 -0.19,19.24 27.52,-0.11 55.04,-0.04 82.56,-0.05 -0.65,-0.86 -1.33,-1.69 -2.13,-2.39 -0.2,-0.24 -0.6,-0.72 -0.81,-0.96 -2.1,-4.91 -6.59,-8.29 -10.29,-11.98 -11.11,-9.72 -23.81,-17.83 -37.75,-22.84 -9.82,-3.77 -20.4,-4.1 -30.78,-3.97 z"
   id="path1025" />

	<path
   fill="#ffffff"
   stroke="#ffffff"
   stroke-width="0.0938"
   d="m 720.49,375.67 c 2.51,-2.37 5.04,-4.73 7.57,-7.09 2.95,2.62 5.91,5.23 8.86,7.85 6.71,-3.07 14.49,-3.68 21.62,-1.8 6.64,1.77 11.88,7.08 14.56,13.27 3.4,8.12 1.63,18.21 -4.61,24.48 -8.53,9.22 -23.81,9.96 -34.1,3.37 -6.02,-3.7 -8.8,-10.92 -8.9,-17.74 -0.25,-4.79 0.35,-9.9 3.4,-13.8 -2.85,-2.8 -5.56,-5.73 -8.4,-8.54 m 6.56,-0.71 c 0.31,3.53 4.09,5.31 6.03,7.99 l -0.82,1.3 1.43,0.47 c -1.05,2.82 -3.46,5.06 -3.61,8.2 -0.66,5.18 -0.16,10.84 2.67,15.35 3.37,4.9 9.52,7.16 15.28,7.33 5.65,0.33 11.92,-1.05 15.84,-5.41 5.94,-4.22 7.11,-12.54 5.5,-19.23 -1.39,-3.92 -4.09,-7.14 -7.28,-9.72 -4.84,-2.79 -10.63,-3.24 -16.06,-2.6 -3.76,0.36 -7.1,2.37 -10.86,2.66 -2.57,-2.24 -4.77,-5.26 -8.12,-6.34 z"
   id="path1027" />

	<path
   fill="#ffffff"
   stroke="#ffffff"
   stroke-width="0.0938"
   d="m 852.2,380.15 c 14.81,-3.67 29.71,-6.97 44.57,-10.38 7.95,12.47 8.09,27.98 7.09,42.25 -1.64,18.72 -6.99,37.03 -14.81,54.08 -6.03,12.62 -14.24,25.15 -26.83,32.01 -11.72,-11.06 -23.64,-21.91 -35.55,-32.77 -11.14,-10.43 -18.81,-24.95 -19.27,-40.38 -0.86,-9.21 6.0699,-16.44 11.99,-22.55 9.67,-9.01 20.11,-17.97 32.81,-22.26 m 41.14,-4.43 c -8.82,1.22 -17.39,3.88 -26.1,5.68 -7.71,1.93 -15.85,2.91 -22.78,7.09 -2.22,1.48 -5.17,2.35 -6.48,4.84 -7.12,4.55 -13.5,10.23 -19.24,16.43 -3.6,4.24 -7.75,9.17 -7.05,15.14 0.45,14.55 7.86,28.15 18.46,37.87 10.55,9.49 20.95,19.15 31.36,28.8 -0.23,0.97 1.16,1.27 1.72,0.69 5.85,-4.12 10.6,-9.64 14.51,-15.58 7.32,-11.25 12.11,-23.92 15.91,-36.72 4.91,-17.16 7.39,-35.34 4.63,-53.09 -0.8,-4.08 -2.11,-8.03 -3.79,-11.82 -0.29,0.17 -0.86,0.5 -1.15,0.67 z"
   id="path1029" />

	<path
   fill="#ffffff"
   stroke="#ffffff"
   stroke-width="0.0938"
   d="m 592.89,374.06 c 23.39,3.28 46.77,6.65 70.16,9.96 1.98,0.28 3.99,0.28 6,0.43 -14.65,0.74 -29.36,0 -44.03,0.39 -11.15,0.08 -22.3,0.01 -33.45,0.03 0.44,-3.6 0.89,-7.21 1.32,-10.81 z"
   id="path1031" />

	<path
   fill="#ffffff"
   stroke="#ffffff"
   stroke-width="0.0938"
   d="m 689.04,414.24 c 4.67,1.13 9.34,2.22 14.04,3.26 -4.28,10.42 -9.87,20.29 -13.9,30.82 -0.38,-11.36 -0.13,-22.73 -0.14,-34.08 m 4.27,5.98 c -0.28,2.62 -0.43,5.28 0.16,7.88 1.07,-2.36 2.09,-4.74 3.14,-7.1 -1.11,-0.27 -2.21,-0.53 -3.3,-0.78 z"
   id="path1033" />

	<path
   fill="#ffffff"
   stroke="#ffffff"
   stroke-width="0.0938"
   d="m 180.02,433.93 c 16.34,2.07 32.68,4.18 49.02,6.23 5.19,0.46 10.46,1.94 14.48,5.39 6.97,6.03 9.34,15.55 10.24,24.37 0.99,11.01 0.76,23.34 -6.5,32.37 -9.93,11.51 -19.99,22.91 -30.13,34.23 -9.58,-5.34 -16.75,-14.02 -22.29,-23.32 -10.15,-17.25 -16.57,-37.01 -16.54,-57.15 0.15,-7.39 -0.13,-14.9 1.72,-22.12 m 3.3,5.05 c -1.24,12.73 -1.21,25.73 1.62,38.27 0.22,1.12 0.67,2.16 1.33,3.1 0.64,3.87 2.11,7.54 3.41,11.22 5.7,14.52 13.28,29.14 25.94,38.79 1.18,1.01 2.04,-1.05 2.91,-1.6 8.39,-10.01 17.33,-19.57 25.73,-29.58 6.49,-8.53 6,-19.96 5.1,-30.08 -0.99,-7.67 -3.12,-16.48 -10.11,-20.87 -1.8,-2 -4.58,-2.42 -7.08,-2.9 -16.27,-2.2 -32.59,-4.06 -48.85,-6.35 z"
   id="path1035" />

	<path
   fill="#ffffff"
   stroke="#ffffff"
   stroke-width="0.0938"
   d="m 723.95,456.11 c 8.73,-5.89 19.58,-7.91 29.97,-7.27 10.27,0.75 19.6,6.32 26.63,13.62 6.71,6.58 11.47,14.76 16.57,22.58 8.83,13.65 17.66,27.32 26.5,40.97 -12.5,10.97 -29.45,14.59 -45.53,16.39 -22.01,1.98 -44.46,1.5099 -66.06,-3.46 -7.92,-1.85 -15.6,-4.64 -22.8701,-8.27 0.01,-8.49 -0.18,-16.99 0.08,-25.47 6.8,-11.46 14.05,-22.67 21.01,-34.05 3.4901,-5.86 7.9701,-11.26 13.7001,-15.04 m 8.66,0.48 c -3.08,1.48 -6.81,2.6 -8.7,5.65 -3.66,2.55 -6.47,6.1 -8.84,9.83 -6.64,10.63 -13.2,21.32 -19.88,31.92 -0.67,0.91 -1.9,1.64 -1.85,2.91 -0.1201,7.13 -0.04,14.27 0.03,21.41 8.5,3.78 17.44,6.59 26.61,8.18 19.8,3.43 40.1,3.78 60.05,1.5 13.17,-1.72 26.74,-4.8 37.62,-12.81 -10.45,-15.87 -20.63,-31.92 -31.01,-47.83 -4.47,-6.75 -9.91,-12.92 -16.5,-17.66 -2.49,-1.72 -5.21,-3.07 -8,-4.24 -9.52,-3.33 -20.18,-2.3 -29.53,1.14 z"
   id="path1037" />

	<path
   fill="#ffffff"
   stroke="#ffffff"
   stroke-width="0.0938"
   d="m 275.23,514.28 c 3.26,-5.48 7.95,-10.11 13.5,-13.25 -0.87,23.56 -0.34,47.19 -0.46,70.78 -13.88,-1.58 -28.48,-4.91 -39.16,-14.51 8.68,-14.36 17.42,-28.67 26.12,-43.02 m -1.16,10.73 c -6.28,10.59 -13.01,20.91 -19,31.66 7.66,5.39 16.75,8.37 25.92,9.88 1.01,0.09 2.03,0.08 3.04,-0.02 -0.27,-16.19 -0.11,-32.4 -0.06,-48.59 0.4,-2.43 0.09,-4.93 0.07,-7.37 -4.33,4.05 -6.79,9.54 -9.97,14.44 z"
   id="path1039" />

</g>
      <g
         id="_x23_030303ff">
	<path
   fill="#030303"
   stroke="#030303"
   stroke-width="0.0938"
   d="m 646.49,244.65 c 39.02,-22.92 86.1,-29.69 130.57,-23.49 32.11,4.42 63.02,17.27 88.65,37.13 25.2599,19.45 46.65,44.69 58.78,74.38 8.64,20.95 12.58,43.73 12.27,66.36 0.01,31.5 -8.94,63.06 -26.31,89.41 -16.67,25.27 -39.5,46.38 -65.65,61.57 -30.96,17.97 -67.14,25.87 -102.77,25.02 -17.8701,-0.29 -35.7,-2.94 -52.89,-7.85 -0.06,17.06 0.22,34.12 0.11,51.19 4.87,0.01 9.74,0 14.62,0 0,-8.45 0,-16.91 0,-25.37 19.75,0 39.5,0 59.25,0 0.13,46.96 0.23,93.92 0.25,140.87 -19.75,0 -39.49,0 -59.24,0.01 0.07,-7.22 -0.11,-14.43 -0.15,-21.65 -4.87,0.07 -9.75,-0.02 -14.62,-0.11 0.03,11.29 0.01,22.58 0.02,33.88 -20.8,0 -41.59,0 -62.38,0 -0.05,17.56 0.09,35.12 -0.07,52.68 -38.63,-0.43 -77.28,-0.06 -115.91,-0.18 -61.63,0.01 -123.25,-0.02 -184.87,0.01 -0.05,-17.54 -0.01,-35.09 -0.03,-52.63 -12.75,-0.01 -25.49,-0.01 -38.24,-0.01 0.02,-48.72 0.24,-97.44 0.26,-146.17 -20.73,-2.07 -41.26,-7.39 -59.86,-16.9 -17.12,-8.61 -32.51,-20.51 -45.55,-34.52 -12.26,-13.1 -22.46,-28.2401 -29.22,-44.89 -11.55,-28.42 -13.14,-60.55 -5.88,-90.25 7.03,-28.85 24.38,-54.42 46.58,-73.84 23.83,-21.41 54.13,-35.48 85.92,-39.62 33.9,-4.62 69.35,-0.11 100.2,15.03 30.35,14.49 56.06,38.81 71.24,68.92 34.67,0 69.33,-0.01 104,0 1.74,-22.54 7.7,-44.84 18.26,-64.88 16.37,-31.06 42.57,-56.35 72.66,-74.1 m 32.57,17.74 c -17,6.06 -32.28,16.17 -45.94,27.83 -13.81,11.95 -25.91,26.78 -31.33,44.47 20.44,7.88 41.09,15.22 61.69,22.66 7.62,2.63 15.22,6.19 23.47,5.85 11.79,-0.01 22.89,-5.92 30.83,-14.4 7.66,-7.52 13.98,-17.73 12.9399,-28.87 -2.04,-20.41 -4.2599,-40.8 -6.4,-61.2 -15.0499,-3.16 -30.8499,-1.52 -45.2599,3.66 m 86.6,-4.89 c -1.7599,21.8 -2,43.69 -1.6,65.55 0.37,10.24 6.78,19.23 14.77,25.19 8.29,6.12 17.84,11.16 28.23,12.25 5.61,0.84 10.9,-1.72 16.03,-3.62 19.3199,-7.95 37.75,-17.85 56.55,-26.92 -5.67,-17.86 -19.37,-31.69 -33.67,-43.12 -16.39,-12.72 -34.5,-24.17 -54.9399,-28.87 C 782.7,255.88 774.06,255.94 765.66,257.5 m -496.74,76.58 c -13.85,0.49 -27.31,5.33 -38.91,12.8 -18.47,12.02 -34.6,29.17 -41.38,50.52 17.92,7.25 36.06,13.94 54.12,20.83 8.08,3.25 17.41,3.17 25.51,0 8.98,-3.59 15.94,-11.18 20.21,-19.7 0.38,-4.91 0.02,-9.86 0.17,-14.79 1.33,0 2.67,0 4,0.01 -0.24,-17.03 -1.16,-34.05 -2.19,-51.04 -7.2,0.03 -14.33,1.3 -21.53,1.37 m 53.51,-1.34 c -1.44,16.97 -1.54,34 -1.42,51.02 31.58,0.04 63.15,-0.29 94.73,-0.08 -7.6,-13.96 -19.35,-25.21 -32.49,-33.94 -12.38,-8.31 -26.3,-14.98 -41.26,-16.68 -6.49,-0.84 -13.04,-0.11 -19.56,-0.32 m 398.06,42.93 c 2.84,2.81 5.55,5.74 8.4,8.54 -3.05,3.9 -3.65,9.01 -3.4,13.8 0.1,6.82 2.88,14.04 8.9,17.74 10.29,6.59 25.57,5.85 34.1,-3.37 6.24,-6.27 8.01,-16.36 4.61,-24.48 -2.68,-6.19 -7.92,-11.5 -14.56,-13.27 -7.13,-1.88 -14.91,-1.27 -21.62,1.8 -2.95,-2.62 -5.91,-5.23 -8.86,-7.85 -2.53,2.36 -5.06,4.72 -7.57,7.09 m 131.71,4.48 c -12.7,4.29 -23.14,13.25 -32.81,22.26 -5.92,6.11 -12.85,13.34 -11.99,22.55 0.46,15.43 8.13,29.95 19.27,40.38 11.91,10.86 23.83,21.71 35.55,32.77 12.59,-6.86 20.8,-19.39 26.83,-32.01 7.82,-17.05 13.17,-35.36 14.81,-54.08 1,-14.27 0.86,-29.78 -7.09,-42.25 -14.86,3.41 -29.76,6.71 -44.57,10.38 m -259.31,-6.09 c -0.43,3.6 -0.88,7.21 -1.32,10.81 11.15,-0.02 22.3,0.05 33.45,-0.03 14.67,-0.39 29.38,0.35 44.03,-0.39 -2.01,-0.15 -4.02,-0.15 -6,-0.43 -23.39,-3.31 -46.77,-6.68 -70.16,-9.96 m 96.15,40.18 c 0.01,11.35 -0.24,22.72 0.14,34.08 4.03,-10.53 9.62,-20.4 13.9,-30.82 -4.7,-1.04 -9.37,-2.13 -14.04,-3.26 m -509.02,19.69 c -1.85,7.22 -1.57,14.73 -1.72,22.12 -0.03,20.14 6.39,39.9 16.54,57.15 5.54,9.3 12.71,17.98 22.29,23.32 10.14,-11.32 20.2,-22.72 30.13,-34.23 7.26,-9.03 7.49,-21.36 6.5,-32.37 -0.9,-8.82 -3.27,-18.34 -10.24,-24.37 -4.02,-3.45 -9.29,-4.93 -14.48,-5.39 -16.34,-2.05 -32.68,-4.16 -49.02,-6.23 m 543.93,22.18 c -5.73,3.78 -10.21,9.18 -13.7,15.04 -6.96,11.38 -14.21,22.59 -21.01,34.05 -0.26,8.48 -0.07,16.98 -0.08,25.47 7.27,3.63 14.95,6.42 22.8701,8.27 21.6,4.97 44.05,5.44 66.06,3.46 16.08,-1.8 33.03,-5.42 45.53,-16.39 -8.84,-13.65 -17.67,-27.32 -26.5,-40.97 -5.1,-7.82 -9.86,-16 -16.57,-22.58 -7.03,-7.3 -16.36,-12.87 -26.63,-13.62 -10.3901,-0.64 -21.2401,1.38 -29.9701,7.27 m -448.72,58.17 c -8.7,14.35 -17.44,28.66 -26.12,43.02 10.68,9.6 25.28,12.93 39.16,14.51 0.12,-23.59 -0.41,-47.22 0.46,-70.78 -5.55,3.14 -10.24,7.77 -13.5,13.25 z"
   id="path1042" />

</g>
      <g
         id="_x23_a7a7a7ff">
	<path
   fill="#a7a7a7"
   stroke="#a7a7a7"
   stroke-width="0.0938"
   d="m 769.25,261.87 c 9,-1.4 18.22,-0.2 26.86,2.53 -1.16,1.72 -2.33,3.44 -3.49,5.16 -7.45,-2.22 -15.29,-3.76 -23.08,-2.9 -0.95,14.08 -1.09,28.19 -1.17,42.29 0.18,6.15 -0.13,12.33 0.61,18.45 -1.04,-1.97 -1.13,-4.23 -1.16,-6.4 -0.17,-19.72 -0.01,-39.46 1.43,-59.13 z"
   id="path1045" />

	<path
   fill="#a7a7a7"
   stroke="#a7a7a7"
   stroke-width="0.0938"
   d="m 682.32,266.33 c 12.11,-4.05 25.19,-5.28 37.81,-3.32 -0.9,1.65 -1.79,3.31 -2.56,5.03 -11.59,-1.69 -23.52,-0.71 -34.7,2.76 -0.19,-1.49 -0.38,-2.98 -0.55,-4.47 z"
   id="path1047" />

	<path
   fill="#a7a7a7"
   stroke="#a7a7a7"
   stroke-width="0.0938"
   d="m 183.32,438.98 c 16.26,2.29 32.58,4.15 48.85,6.35 2.5,0.48 5.28,0.9 7.08,2.9 -16.49,-2.42 -33.09,-4.09 -49.56,-6.54 -1.87,-0.61 -3.71,-1.26 -5.56,-1.87 -0.94,11.36 -1.23,22.92 1.08,34.14 0.42,2.12 0.75,4.25 1.06,6.39 -0.66,-0.94 -1.11,-1.98 -1.33,-3.1 -2.83,-12.54 -2.86,-25.54 -1.62,-38.27 z"
   id="path1049" />

</g>
      <g
         id="_x23_606060ff">
	<path
   fill="#606060"
   stroke="#606060"
   stroke-width="0.0938"
   d="m 717.57,268.04 c 0.77,-1.72 1.66,-3.38 2.56,-5.03 1.76,18.67 3.91,37.31 5.79,55.98 0.93,6.62 -1.02,13.57 -5.03,18.9 2.07,-4.63 3.13,-9.73 2.44,-14.79 -1.91,-18.36 -3.91,-36.71 -5.76,-55.06 z"
   id="path1052" />

</g>
      <g
         id="_x23_9b9b9bff">
	<path
   fill="#9b9b9b"
   stroke="#9b9b9b"
   stroke-width="0.0938"
   d="m 792.62,269.56 c 1.16,-1.72 2.33,-3.44 3.49,-5.16 5.8,1.83 11.47,4.07 16.88,6.85 -1.28,1.69 -2.53,3.39 -3.75,5.11 -5.34,-2.72 -10.9,-5.02 -16.62,-6.8 z"
   id="path1055" />

</g>
      <g
         id="_x23_9c9c9cff">
	<path
   fill="#9c9c9c"
   stroke="#9c9c9c"
   stroke-width="0.0938"
   d="m 666.3,273.03 c 5.2,-2.54 10.54,-4.82 16.02,-6.7 0.17,1.49 0.36,2.98 0.55,4.47 -5.66,1.76 -11.17,3.98 -16.45,6.66 -0.05,-1.4 -0.08,-2.8 -0.12,-4.2 z"
   id="path1058" />

</g>
      <g
         id="_x23_8e8e8eff">
	<path
   fill="#8e8e8e"
   stroke="#8e8e8e"
   stroke-width="0.0938"
   d="m 809.24,276.36 c 1.22,-1.72 2.47,-3.42 3.75,-5.11 8.03,4.16 15.81,8.84 23.09,14.22 -1.68,1.44 -3.38,2.85 -5.11,4.21 -6.9,-4.97 -14.15,-9.47 -21.73,-13.32 z"
   id="path1061" />

</g>
      <g
         id="_x23_8f8f8fff">
	<path
   fill="#8f8f8f"
   stroke="#8f8f8f"
   stroke-width="0.0938"
   d="m 641.05,289.66 c 7.85,-6.26 16.25,-11.92 25.25,-16.4 0.04,1.4 0.07,2.8 0.12,4.2 -7.75,3.88 -15.07,8.57 -22.01,13.75 -1.13,-0.52 -2.25,-1.04 -3.36,-1.55 z"
   id="path1064" />

</g>
      <g
         id="_x23_7e7e7eff">
	<path
   fill="#7e7e7e"
   stroke="#7e7e7e"
   stroke-width="0.0938"
   d="m 830.97,289.68 c 1.73,-1.36 3.4301,-2.77 5.11,-4.21 12.46,9.11 24.53,19.32 32.83,32.52 1.89,3.26 3.9901,6.52 4.89,10.23 -1.77,0.79 -3.5,1.63 -5.2,2.54 l -0.19,-0.38 c -7.88,-17.1 -22.45,-29.87 -37.44,-40.7 z"
   id="path1067" />

	<path
   fill="#7e7e7e"
   stroke="#7e7e7e"
   stroke-width="0.0938"
   d="m 727.05,374.96 c 3.35,1.08 5.55,4.1 8.12,6.34 -0.73,0.51 -1.43,1.06 -2.09,1.65 -1.94,-2.68 -5.72,-4.46 -6.03,-7.99 z"
   id="path1069" />

</g>
      <g
         id="_x23_848484ff">
	<path
   fill="#848484"
   stroke="#848484"
   stroke-width="0.0938"
   d="m 607.14,332.72 c 6.11,-17.63 19.55,-31.64 33.91,-43.06 1.11,0.51 2.23,1.03 3.36,1.55 -14.64,11 -28.35,24.36 -35.77,41.39 1.88,0.71 3.76,1.46 5.62,2.25 -2.46,-0.42 -4.79,-1.28 -7.12,-2.13 z"
   id="path1072" />

	<path
   fill="#848484"
   stroke="#848484"
   stroke-width="0.0938"
   d="m 693.31,420.22 c 1.09,0.25 2.19,0.51 3.3,0.78 -1.05,2.36 -2.07,4.74 -3.14,7.1 -0.59,-2.6 -0.44,-5.26 -0.16,-7.88 z"
   id="path1074" />

</g>
      <g
         id="_x23_a8a8a8ff">
	<path
   fill="#a8a8a8"
   stroke="#a8a8a8"
   stroke-width="0.0938"
   d="m 326.29,337.42 c 10.38,-0.13 20.96,0.2 30.78,3.97 -1.14,0.72 -2.29,1.45 -3.43,2.17 -7.52,-2.11 -15.37,-2.05 -23.12,-1.94 -1.14,-1.24 -2.27,-2.47 -3.41,-3.7 -0.62,7.47 -0.66,14.98 -1.43,22.45 -0.56,-7.64 0.05,-15.33 0.61,-22.95 z"
   id="path1077" />

	<path
   fill="#a8a8a8"
   stroke="#a8a8a8"
   stroke-width="0.0938"
   d="m 258.45,340.28 c 9.2,-1.98 18.71,-1.25 28,-2.71 0.52,3.5 0.77,7.04 0.53,10.57 -0.15,-2.02 -0.32,-4.06 -0.47,-6.08 -8.34,1.14 -16.87,0.48 -25.08,2.56 -1,-1.45 -2,-2.9 -2.98,-4.34 z"
   id="path1079" />

</g>
      <g
         id="_x23_5a5a5aff">
	<path
   fill="#5a5a5a"
   stroke="#5a5a5a"
   stroke-width="0.0938"
   d="m 327.11,337.92 c 1.14,1.23 2.27,2.46 3.41,3.7 -0.86,12.52 -1.11,25.08 -1.15,37.63 25.91,-0.02 51.81,0.04 77.71,-0.03 -0.29,-0.52 -0.87,-1.54 -1.16,-2.05 0.8,0.7 1.48,1.53 2.13,2.39 -27.52,0.01 -55.04,-0.06 -82.56,0.05 0.15,-6.42 -0.08,-12.84 0.19,-19.24 0.77,-7.47 0.81,-14.98 1.43,-22.45 z"
   id="path1082" />

</g>
      <g
         id="_x23_9e9e9eff">
	<path
   fill="#9e9e9e"
   stroke="#9e9e9e"
   stroke-width="0.0938"
   d="m 238.98,347.3 c 6.09,-3.3 12.7,-5.58 19.47,-7.02 0.98,1.44 1.98,2.89 2.98,4.34 -5.54,1.31 -10.9,3.28 -15.99,5.82 -2.13,-1.09 -4.29,-2.14 -6.46,-3.14 z"
   id="path1085" />

	<path
   fill="#9e9e9e"
   stroke="#9e9e9e"
   stroke-width="0.0938"
   d="m 353.64,343.56 c 1.14,-0.72 2.29,-1.45 3.43,-2.17 13.94,5.01 26.64,13.12 37.75,22.84 3.7,3.69 8.19,7.07 10.29,11.98 -13.92,-15.03 -31.58,-27.17 -51.47,-32.65 z"
   id="path1087" />

	<path
   fill="#9e9e9e"
   stroke="#9e9e9e"
   stroke-width="0.0938"
   d="m 454.24,380.69 c 0.59,-0.92 1.44,-1.16 2.53,-0.72 4.38,0.84 8.86,0.39 13.3,0.5 25.3,-0.1 50.62,0.09 75.92,-0.08 1.85,0.22 4.45,-1.63 5.77,0.3 -32.46,-0.27 -65.06,-0.23 -97.52,0 z"
   id="path1089" />

</g>
      <g
         id="_x23_8c8c8cff">
	<path
   fill="#8c8c8c"
   stroke="#8c8c8c"
   stroke-width="0.0938"
   d="m 220.91,359.69 c 5.45,-4.91 11.65,-8.89 18.07,-12.39 2.17,1 4.33,2.05 6.46,3.14 -6.48,3.31 -12.56,7.36 -18.14,12.03 -1.17,-0.97 -2.33,-1.93 -3.49,-2.89 -0.97,0.03 -1.93,0.07 -2.9,0.11 z"
   id="path1092" />

</g>
      <g
         id="_x23_757575ff">
	<path
   fill="#757575"
   stroke="#757575"
   stroke-width="0.0938"
   d="m 220.91,359.69 c 0.97,-0.04 1.93,-0.08 2.9,-0.11 1.16,0.96 2.32,1.92 3.49,2.89 -11.31,9.31 -21.04,20.89 -26.59,34.56 14.95,6 30.06,11.57 45.12,17.29 6.84,2.66 14.48,2.11 21.33,-0.22 -7.29,3.48 -16.21,3.24 -23.57,0.05 -16.48,-6.23 -32.95,-12.47 -49.36,-18.88 5.39,-14.06 15.15,-26.07 26.68,-35.58 z"
   id="path1095" />

</g>
      <g
         id="_x23_717171ff">
	<path
   fill="#717171"
   stroke="#717171"
   stroke-width="0.0938"
   d="m 893.34,375.72 c 0.29,-0.17 0.86,-0.5 1.15,-0.67 1.68,3.79 2.99,7.74 3.79,11.82 -0.59,-0.16 -1.79,-0.47 -2.39,-0.63 -1.09,0.57 -2.18,1.13 -3.25,1.71 -0.73,-3.2 -1.95,-6.26 -3.34,-9.22 1.36,-0.97 2.66,-2.04 4.04,-3.01 z"
   id="path1098" />

</g>
      <g
         id="_x23_a4a4a4ff">
	<path
   fill="#a4a4a4"
   stroke="#a4a4a4"
   stroke-width="0.0938"
   d="m 867.24,381.4 c 8.71,-1.8 17.28,-4.46 26.1,-5.68 -1.38,0.97 -2.6801,2.04 -4.04,3.01 -7.08,1.73 -14.19,3.28 -21.28,4.95 -10.21,2.56 -21.02,3.79 -30.04,9.65 1.31,-2.49 4.26,-3.36 6.48,-4.84 6.93,-4.18 15.07,-5.16 22.78,-7.09 z"
   id="path1101" />

</g>
      <g
         id="_x23_a5a5a5ff">
	<path
   fill="#a5a5a5"
   stroke="#a5a5a5"
   stroke-width="0.0938"
   d="m 735.17,381.3 c 3.76,-0.29 7.1,-2.3 10.86,-2.66 5.43,-0.64 11.22,-0.19 16.06,2.6 -1.09,1.16 -2.16,2.33 -3.23,3.5 -4.77,-2.88 -10.6,-3.32 -16.01,-2.51 -3.16,0.44 -6,2.08 -9.16,2.49 l -1.43,-0.47 0.82,-1.3 c 0.66,-0.59 1.36,-1.14 2.09,-1.65 z"
   id="path1104" />

</g>
      <g
         id="_x23_7d7d7dff">
	<path
   fill="#7d7d7d"
   stroke="#7d7d7d"
   stroke-width="0.0938"
   d="m 758.86,384.74 c 1.07,-1.17 2.14,-2.34 3.23,-3.5 3.19,2.58 5.89,5.8 7.28,9.72 -1.42,0.41 -2.81,0.83 -4.2,1.24 -1.54,-2.91 -3.69,-5.47 -6.31,-7.46 z"
   id="path1107" />

</g>
      <g
         id="_x23_5f5f5fff">
	<path
   fill="#5f5f5f"
   stroke="#5f5f5f"
   stroke-width="0.0938"
   d="m 892.64,387.95 c 1.07,-0.58 2.16,-1.14 3.25,-1.71 0.6,0.16 1.8,0.47 2.39,0.63 2.7599,17.75 0.28,35.93 -4.63,53.09 -3.8,12.8 -8.59,25.47 -15.91,36.72 -3.91,5.94 -8.66,11.46 -14.51,15.58 -0.56,0.58 -1.95,0.28 -1.72,-0.69 12.9,-11.07 19.84,-27.21 25.19,-42.96 6.27,-19.41 9.99,-40.41 5.94,-60.66 z"
   id="path1110" />

	<path
   fill="#5f5f5f"
   stroke="#5f5f5f"
   stroke-width="0.0938"
   d="m 765.17,392.2 c 1.39,-0.41 2.78,-0.83 4.2,-1.24 1.61,6.69 0.44,15.01 -5.5,19.23 3.17,-5.4 4,-12.22 1.3,-17.99 z"
   id="path1112" />

</g>
      <g
         id="_x23_5b5b5bff">
	<path
   fill="#5b5b5b"
   stroke="#5b5b5b"
   stroke-width="0.0938"
   d="m 184.13,439.82 c 1.85,0.61 3.69,1.26 5.56,1.87 -1.02,11.83 -1.23,23.89 1.21,35.57 2.55,12.36 7.38,24.2 13.78,35.07 3.83,6.02 7.84,12.35 13.85,16.43 -0.87,0.55 -1.73,2.61 -2.91,1.6 -12.66,-9.65 -20.24,-24.27 -25.94,-38.79 -1.3,-3.68 -2.77,-7.35 -3.41,-11.22 -0.31,-2.14 -0.64,-4.27 -1.06,-6.39 -2.31,-11.22 -2.02,-22.78 -1.08,-34.14 z"
   id="path1115" />

</g>
      <g
         id="_x23_a6a6a6ff">
	<path
   fill="#a6a6a6"
   stroke="#a6a6a6"
   stroke-width="0.0938"
   d="m 732.61,456.59 c 9.35,-3.44 20.01,-4.47 29.53,-1.14 -1.21,0.74 -2.42,1.47 -3.62,2.21 -11.43,-3.71 -24.39,-1.54 -34.61,4.58 1.89,-3.05 5.62,-4.17 8.7,-5.65 z"
   id="path1118" />

</g>
      <g
         id="_x23_979797ff">
	<path
   fill="#979797"
   stroke="#979797"
   stroke-width="0.0938"
   d="m 758.52,457.66 c 1.2,-0.74 2.41,-1.47 3.62,-2.21 2.79,1.17 5.51,2.52 8,4.24 -1.43,0.55 -2.86,1.1 -4.28,1.65 -2.32,-1.47 -4.78,-2.69 -7.34,-3.68 z"
   id="path1121" />

</g>
      <g
         id="_x23_7b7b7bff">
	<path
   fill="#7b7b7b"
   stroke="#7b7b7b"
   stroke-width="0.0938"
   d="m 765.86,461.34 c 1.42,-0.55 2.85,-1.1 4.28,-1.65 6.59,4.74 12.03,10.91 16.5,17.66 10.38,15.91 20.56,31.96 31.01,47.83 -10.88,8.01 -24.45,11.09 -37.62,12.81 -19.95,2.28 -40.25,1.93 -60.05,-1.5 -9.17,-1.59 -18.11,-4.4 -26.61,-8.18 -0.07,-7.14 -0.15,-14.28 -0.03,-21.41 -0.05,-1.27 1.18,-2 1.85,-2.91 -0.83,1.54 -1.59,3.17 -1.45,4.97 -0.02,6.27 0.01,12.53 0.03,18.8 18.16,8.38 38.42,10.58 58.21,10.96 14.32,0.11 28.79,-0.56 42.76,-3.98 6.66,-1.63 13,-4.52 18.65,-8.41 -6.78,-10.46 -13.55,-20.94 -20.32,-31.41 -8,-11.94 -14.81,-25.5 -27.21,-33.58 z"
   id="path1124" />

</g>
      <g
         id="_x23_747474ff">
	<path
   fill="#747474"
   stroke="#747474"
   stroke-width="0.0938"
   d="m 274.07,525.01 c 3.18,-4.9 5.64,-10.39 9.97,-14.44 0.02,2.44 0.33,4.94 -0.07,7.37 -8.11,12.96 -15.92,26.1 -23.89,39.15 7.09,5.1 15.61,7.37 23.95,9.44 -1.01,0.1 -2.03,0.11 -3.04,0.02 -9.17,-1.51 -18.26,-4.49 -25.92,-9.88 5.99,-10.75 12.72,-21.07 19,-31.66 z"
   id="path1127" />

</g>
      <g
         id="_x23_5e5e5efc">
	<path
   fill="#5e5e5e"
   stroke="#5e5e5e"
   stroke-width="0.0938"
   d="m 697.07,592.81 c 0.04,-2.39 2.24,-4.17 4.52,-4.35 -0.8701,1.4 -2.36,2.66 -2.31,4.46 -0.16,6.99 0.02,13.98 -0.02,20.97 -0.6,-0.04 -1.79,-0.1 -2.39,-0.14 0.34,-6.98 -0.06,-13.97 0.2,-20.94 z"
   id="path1130" />

</g>
    </g>
    <g
       inkscape:label="WebRTC server"
       transform="matrix(0.71904593,0,0,0.71904593,39.551534,223.26482)"
       style="fill:#f4f6f8;stroke:#0f2d59;stroke-linecap:round;stroke-linejoin:round"
       id="g84">
      <path
         d="m 16.5,1.5 -5,6 v 39 h 24 v -39 l -5,-6 z"
         inkscape:connector-curvature="0"
         id="path86" />
      <path
         d="m 14.5,9.5 v 24 h 18 v -24 z"
         inkscape:connector-curvature="0"
         id="path88" />
      <path
         d="m 14.5,31.5 h 18 m -18,-4 h 18 m -18,-2 h 18 m -18,-10 h 18 m -18,4 h 18 m -18,2 h 18 m -18,-8 h 18"
         inkscape:connector-curvature="0"
         id="path90" />
      <path
         d="m 30.5,43.5 v -7 m -2,7 v -7 m -2,7 v -7 m -2,7 v -7 m -2,7 v -7 m -2,7 v -7 m -2,7 v -7 m -2,7 v -7"
         inkscape:connector-curvature="0"
         id="path92" />
      <path
         d="m 16.5,29.5 h 2 m -2,-6 h 2 m -2,-6 h 2 m -2,-6 h 2"
         inkscape:connector-curvature="0"
         id="path94" />
    </g>
    <g
       id="layer1-6"
       inkscape:label="Viewer 3"
       transform="matrix(0.07446971,0,0,0.07446971,18.39984,151.10177)">
      <circle
         r="18.940361"
         cy="50.038319"
         cx="67.427681"
         id="path1872"
         style="stroke-dasharray:1, 2"
         transform="matrix(1.0559,0,0,1.0559,-5.7431,12.545)" />
      <rect
         id="rect1874"
         style="stroke-dasharray:1, 2"
         rx="17.173"
         ry="17.173"
         height="114.7"
         width="48.992001"
         y="87.667"
         x="40" />
      <rect
         id="rect1880"
         style="stroke-dasharray:1, 2"
         rx="14.647"
         ry="14.647"
         height="29.294001"
         width="110.11"
         y="173.78999"
         x="40.405998" />
      <rect
         id="rect1884"
         style="stroke-dasharray:1, 2"
         rx="11.112"
         ry="11.112"
         height="92.933998"
         width="22.223"
         y="179.35001"
         x="128.28999" />
      <rect
         id="rect1890"
         style="stroke-dasharray:1, 2"
         rx="7.8287001"
         ry="7.8287001"
         height="16.162001"
         width="145.97"
         y="142.98"
         x="100.09" />
      <rect
         id="rect1892"
         style="stroke-dasharray:1, 2"
         rx="8.3554001"
         ry="7.8287001"
         height="14.647"
         width="37.881001"
         y="127.04"
         x="108.09" />
      <rect
         id="rect1900"
         style="stroke-dasharray:1, 2"
         transform="rotate(44.49)"
         rx="10.376"
         ry="6.9960999"
         height="15.152"
         width="64.650002"
         y="6.8154998"
         x="117.04" />
      <rect
         id="rect1906"
         style="stroke-dasharray:1, 2"
         rx="5.0507998"
         ry="11.112"
         height="13.637"
         width="28.789"
         y="127.55"
         x="147.5" />
      <rect
         id="rect1910"
         style="stroke-dasharray:1, 2"
         rx="1.5152"
         ry="9.5964003"
         height="9.5964003"
         width="45.962002"
         y="132.07001"
         x="193.77" />
      <rect
         id="rect1912"
         style="stroke-dasharray:1, 2"
         rx="1.5152"
         ry="9.5964003"
         height="17.422001"
         width="18.183001"
         y="118.94"
         x="208.5" />
      <rect
         id="rect1914"
         style="stroke-dasharray:1, 2"
         rx="1.5152"
         ry="9.5964003"
         height="69.700996"
         width="10.607"
         y="63.661999"
         x="179.75" />
      <path
         id="path1938"
         sodipodi:nodetypes="ccccc"
         style="fill:#000000;fill-rule:evenodd;stroke:#000000;stroke-width:1px"
         d="m 187.83,70.816 59.28,16.163 V 118.8 l -58.77,8.58 z" />
      <rect
         id="rect2827"
         style="fill:#000000;stroke-dasharray:1, 2"
         rx="1.5152"
         ry="9.5964003"
         height="11.112"
         width="66.669998"
         y="205.87"
         x="42.910999" />
      <rect
         id="rect2829"
         style="fill:#000000;stroke-dasharray:1, 2"
         rx="1.5152"
         ry="9.5964003"
         height="60.104"
         width="11.617"
         y="211.42999"
         x="70.225998" />
    </g>
    <g
       transform="matrix(0.07446971,0,0,0.07446971,18.260653,171.3441)"
       inkscape:label="Viewer 2"
       id="g1722">
      <circle
         transform="matrix(1.0559,0,0,1.0559,-5.7431,12.545)"
         style="stroke-dasharray:1, 2"
         id="circle1694"
         cx="67.427681"
         cy="50.038319"
         r="18.940361" />
      <rect
         x="40"
         y="87.667"
         width="48.992001"
         height="114.7"
         ry="17.173"
         rx="17.173"
         style="stroke-dasharray:1, 2"
         id="rect1696" />
      <rect
         x="40.405998"
         y="173.78999"
         width="110.11"
         height="29.294001"
         ry="14.647"
         rx="14.647"
         style="stroke-dasharray:1, 2"
         id="rect1698" />
      <rect
         x="128.28999"
         y="179.35001"
         width="22.223"
         height="92.933998"
         ry="11.112"
         rx="11.112"
         style="stroke-dasharray:1, 2"
         id="rect1700" />
      <rect
         x="100.09"
         y="142.98"
         width="145.97"
         height="16.162001"
         ry="7.8287001"
         rx="7.8287001"
         style="stroke-dasharray:1, 2"
         id="rect1702" />
      <rect
         x="108.09"
         y="127.04"
         width="37.881001"
         height="14.647"
         ry="7.8287001"
         rx="8.3554001"
         style="stroke-dasharray:1, 2"
         id="rect1704" />
      <rect
         x="117.04"
         y="6.8154998"
         width="64.650002"
         height="15.152"
         ry="6.9960999"
         rx="10.376"
         transform="rotate(44.49)"
         style="stroke-dasharray:1, 2"
         id="rect1706" />
      <rect
         x="147.5"
         y="127.55"
         width="28.789"
         height="13.637"
         ry="11.112"
         rx="5.0507998"
         style="stroke-dasharray:1, 2"
         id="rect1708" />
      <rect
         x="193.77"
         y="132.07001"
         width="45.962002"
         height="9.5964003"
         ry="9.5964003"
         rx="1.5152"
         style="stroke-dasharray:1, 2"
         id="rect1710" />
      <rect
         x="208.5"
         y="118.94"
         width="18.183001"
         height="17.422001"
         ry="9.5964003"
         rx="1.5152"
         style="stroke-dasharray:1, 2"
         id="rect1712" />
      <rect
         x="179.75"
         y="63.661999"
         width="10.607"
         height="69.700996"
         ry="9.5964003"
         rx="1.5152"
         style="stroke-dasharray:1, 2"
         id="rect1714" />
      <path
         d="m 187.83,70.816 59.28,16.163 V 118.8 l -58.77,8.58 z"
         style="fill:#000000;fill-rule:evenodd;stroke:#000000;stroke-width:1px"
         sodipodi:nodetypes="ccccc"
         id="path1716" />
      <rect
         x="42.910999"
         y="205.87"
         width="66.669998"
         height="11.112"
         ry="9.5964003"
         rx="1.5152"
         style="fill:#000000;stroke-dasharray:1, 2"
         id="rect1718" />
      <rect
         x="70.225998"
         y="211.42999"
         width="11.617"
         height="60.104"
         ry="9.5964003"
         rx="1.5152"
         style="fill:#000000;stroke-dasharray:1, 2"
         id="rect1720" />
    </g>
    <g
       id="g1752"
       inkscape:label="Viewer 1"
       transform="matrix(0.07446971,0,0,0.07446971,18.260653,190.58448)">
      <circle
         r="18.940361"
         cy="50.038319"
         cx="67.427681"
         id="circle1724"
         style="stroke-dasharray:1, 2"
         transform="matrix(1.0559,0,0,1.0559,-5.7431,12.545)" />
      <rect
         id="rect1726"
         style="stroke-dasharray:1, 2"
         rx="17.173"
         ry="17.173"
         height="114.7"
         width="48.992001"
         y="87.667"
         x="40" />
      <rect
         id="rect1728"
         style="stroke-dasharray:1, 2"
         rx="14.647"
         ry="14.647"
         height="29.294001"
         width="110.11"
         y="173.78999"
         x="40.405998" />
      <rect
         id="rect1730"
         style="stroke-dasharray:1, 2"
         rx="11.112"
         ry="11.112"
         height="92.933998"
         width="22.223"
         y="179.35001"
         x="128.28999" />
      <rect
         id="rect1732"
         style="stroke-dasharray:1, 2"
         rx="7.8287001"
         ry="7.8287001"
         height="16.162001"
         width="145.97"
         y="142.98"
         x="100.09" />
      <rect
         id="rect1734"
         style="stroke-dasharray:1, 2"
         rx="8.3554001"
         ry="7.8287001"
         height="14.647"
         width="37.881001"
         y="127.04"
         x="108.09" />
      <rect
         id="rect1736"
         style="stroke-dasharray:1, 2"
         transform="rotate(44.49)"
         rx="10.376"
         ry="6.9960999"
         height="15.152"
         width="64.650002"
         y="6.8154998"
         x="117.04" />
      <rect
         id="rect1738"
         style="stroke-dasharray:1, 2"
         rx="5.0507998"
         ry="11.112"
         height="13.637"
         width="28.789"
         y="127.55"
         x="147.5" />
      <rect
         id="rect1740"
         style="stroke-dasharray:1, 2"
         rx="1.5152"
         ry="9.5964003"
         height="9.5964003"
         width="45.962002"
         y="132.07001"
         x="193.77" />
      <rect
         id="rect1742"
         style="stroke-dasharray:1, 2"
         rx="1.5152"
         ry="9.5964003"
         height="17.422001"
         width="18.183001"
         y="118.94"
         x="208.5" />
      <rect
         id="rect1744"
         style="stroke-dasharray:1, 2"
         rx="1.5152"
         ry="9.5964003"
         height="69.700996"
         width="10.607"
         y="63.661999"
         x="179.75" />
      <path
         id="path1746"
         sodipodi:nodetypes="ccccc"
         style="fill:#000000;fill-rule:evenodd;stroke:#000000;stroke-width:1px"
         d="m 187.83,70.816 59.28,16.163 V 118.8 l -58.77,8.58 z" />
      <rect
         id="rect1748"
         style="fill:#000000;stroke-dasharray:1, 2"
         rx="1.5152"
         ry="9.5964003"
         height="11.112"
         width="66.669998"
         y="205.87"
         x="42.910999" />
      <rect
         id="rect1750"
         style="fill:#000000;stroke-dasharray:1, 2"
         rx="1.5152"
         ry="9.5964003"
         height="60.104"
         width="11.617"
         y="211.42999"
         x="70.225998" />
    </g>
    <g
       transform="matrix(0.45833872,0,0,0.45833872,1.5940696,138.51824)"
       style="stroke:#000000;stroke-width:1.32292;stroke-linecap:butt;stroke-linejoin:miter;stroke-miterlimit:4.1;stroke-dasharray:3.96875, 1.32292;stroke-dashoffset:0;stroke-opacity:1"
       inkscape:label="RTC connections"
       id="g1927">
      <path
         style="fill:none;fill-rule:evenodd;stroke:#000000;stroke-width:1.32292;stroke-linecap:butt;stroke-linejoin:miter;stroke-miterlimit:4.1;stroke-dasharray:3.96875, 1.32292;stroke-dashoffset:0;stroke-opacity:1"
         d="m 42.701747,138.13112 c -33.1855594,-2.37695 -7.399281,26.21425 1.182399,39.27389 16.83975,25.62681 54.137336,47.29583 56.796054,48.90856"
         id="path1907"
         sodipodi:nodetypes="csc" />
      <path
         style="fill:none;fill-rule:evenodd;stroke:#000000;stroke-width:1.32292;stroke-linecap:butt;stroke-linejoin:miter;stroke-miterlimit:4.1;stroke-dasharray:3.96875, 1.32292;stroke-dashoffset:0;stroke-opacity:1"
         d="M 42.467781,94.834108 C 21.284724,113.85797 8.9850552,124.09368 13.76229,151.09721 c 3.33582,18.85587 20.177489,44.804 86.91791,75.21636"
         id="path1909"
         sodipodi:nodetypes="csc" />
      <path
         style="fill:none;fill-rule:evenodd;stroke:#000000;stroke-width:1.32292;stroke-linecap:butt;stroke-linejoin:miter;stroke-miterlimit:4.1;stroke-dasharray:3.96875, 1.32292;stroke-dashoffset:0;stroke-opacity:1"
         d="m 41.299764,50.378259 c 0,0 -116.177788,181.791711 59.380436,175.935311"
         id="path1911" />
      <path
         style="fill:none;fill-rule:evenodd;stroke:#000000;stroke-width:1.32292;stroke-linecap:butt;stroke-linejoin:miter;stroke-miterlimit:4.1;stroke-dasharray:3.96875, 1.32292;stroke-dashoffset:0;stroke-opacity:1"
         d="m 139.6511,227.4032 c 0,0 70.39253,7.44967 72.71092,-55.70726"
         id="path1913" />
    </g>
    <text
       id="text2226"
       y="174.01654"
       x="83.323265"
       style="font-style:normal;font-variant:normal;font-weight:normal;font-stretch:normal;font-size:4.85071px;line-height:125%;font-family:'Arial Black';-inkscape-font-specification:'Arial Black, Normal';font-variant-ligatures:normal;font-variant-caps:normal;font-variant-numeric:normal;font-variant-east-asian:normal;letter-spacing:0px;word-spacing:0px;fill:#000000;fill-opacity:1;stroke:none;stroke-width:0.121273px;stroke-linecap:butt;stroke-linejoin:miter;stroke-opacity:1"
       xml:space="preserve"><tspan
         style="font-style:normal;font-variant:normal;font-weight:normal;font-stretch:normal;font-size:4.85071px;font-family:'Arial Black';-inkscape-font-specification:'Arial Black, Normal';font-variant-ligatures:normal;font-variant-caps:normal;font-variant-numeric:normal;font-variant-east-asian:normal;stroke-width:0.121273px"
         y="174.01654"
         x="83.323265"
         id="tspan2224"
         sodipodi:role="line">Projectionist</tspan></text>
    <text
       xml:space="preserve"
       style="font-style:normal;font-variant:normal;font-weight:normal;font-stretch:normal;font-size:4.85071px;line-height:125%;font-family:'Arial Black';-inkscape-font-specification:'Arial Black, Normal';font-variant-ligatures:normal;font-variant-caps:normal;font-variant-numeric:normal;font-variant-east-asian:normal;letter-spacing:0px;word-spacing:0px;fill:#000000;fill-opacity:1;stroke:none;stroke-width:0.121273px;stroke-linecap:butt;stroke-linejoin:miter;stroke-opacity:1"
       x="17.927103"
       y="150.81633"
       id="text2230"><tspan
         sodipodi:role="line"
         id="tspan2228"
         x="17.927103"
         y="150.81633"
         style="font-style:normal;font-variant:normal;font-weight:normal;font-stretch:normal;font-size:4.85071px;font-family:'Arial Black';-inkscape-font-specification:'Arial Black, Normal';font-variant-ligatures:normal;font-variant-caps:normal;font-variant-numeric:normal;font-variant-east-asian:normal;stroke-width:0.121273px">Viewers</tspan></text>
    <text
       xml:space="preserve"
       style="font-style:normal;font-variant:normal;font-weight:normal;font-stretch:normal;font-size:4.85071px;line-height:125%;font-family:'Arial Black';-inkscape-font-specification:'Arial Black, Normal';font-variant-ligatures:normal;font-variant-caps:normal;font-variant-numeric:normal;font-variant-east-asian:normal;letter-spacing:0px;word-spacing:0px;fill:#000000;fill-opacity:1;stroke:none;stroke-width:0.121273px;stroke-linecap:butt;stroke-linejoin:miter;stroke-opacity:1"
       x="46.895981"
       y="222.95366"
       id="text2234"><tspan
         sodipodi:role="line"
         id="tspan2232"
         x="46.895981"
         y="222.95366"
         style="font-style:normal;font-variant:normal;font-weight:normal;font-stretch:normal;font-size:4.85071px;font-family:'Arial Black';-inkscape-font-specification:'Arial Black, Normal';font-variant-ligatures:normal;font-variant-caps:normal;font-variant-numeric:normal;font-variant-east-asian:normal;stroke-width:0.121273px">WebRTC</tspan></text>
    <g
       transform="matrix(0.45833872,0,0,0.45833872,1.5940696,138.51824)"
       inkscape:label="Descriptions"
       id="g2288">
      <text
         xml:space="preserve"
         style="font-style:normal;font-weight:normal;font-size:10.5833px;line-height:125%;font-family:'Bitstream Vera Sans';letter-spacing:0px;word-spacing:0px;fill:#000000;fill-opacity:1;stroke:none;stroke-width:0.264583px;stroke-linecap:butt;stroke-linejoin:miter;stroke-opacity:1"
         x="253.04726"
         y="103.23904"
         id="text2238"><tspan
           sodipodi:role="line"
           id="tspan2236"
           x="253.04726"
           y="103.23904"
           style="stroke-width:0.264583px">1. Create room</tspan></text>
      <text
         xml:space="preserve"
         style="font-style:normal;font-weight:normal;font-size:10.5833px;line-height:125%;font-family:'Bitstream Vera Sans';letter-spacing:0px;word-spacing:0px;fill:#000000;fill-opacity:1;stroke:none;stroke-width:0.264583px;stroke-linecap:butt;stroke-linejoin:miter;stroke-opacity:1"
         x="252.66177"
         y="125.28387"
         id="text2242"><tspan
           sodipodi:role="line"
           id="tspan2240"
           x="252.66177"
           y="125.28387"
           style="stroke-width:0.264583px">2. Share screen </tspan><tspan
           sodipodi:role="line"
           x="252.66177"
           y="138.51299"
           style="stroke-width:0.264583px"
           id="tspan2244">or video file</tspan></text>
      <text
         id="text2258"
         y="239.32246"
         x="6.2867298"
         style="font-style:normal;font-weight:normal;font-size:10.5833px;line-height:125%;font-family:'Bitstream Vera Sans';letter-spacing:0px;word-spacing:0px;fill:#000000;fill-opacity:1;stroke:none;stroke-width:0.264583px;stroke-linecap:butt;stroke-linejoin:miter;stroke-opacity:1"
         xml:space="preserve"><tspan
           id="tspan2256"
           style="stroke-width:0.264583px"
           y="239.32246"
           x="6.2867298"
           sodipodi:role="line">3. Join room </tspan></text>
      <text
         xml:space="preserve"
         style="font-style:normal;font-weight:normal;font-size:10.5833px;line-height:125%;font-family:'Bitstream Vera Sans';letter-spacing:0px;word-spacing:0px;fill:#000000;fill-opacity:1;stroke:none;stroke-width:0.264583px;stroke-linecap:butt;stroke-linejoin:miter;stroke-opacity:1"
         x="185.41493"
         y="228.04373"
         id="text2264"><tspan
           sodipodi:role="line"
           x="185.41493"
           y="228.04373"
           style="stroke-width:0.264583px"
           id="tspan2262">4. Send viewer IP-addresses</tspan><tspan
           sodipodi:role="line"
           x="185.41493"
           y="241.27286"
           style="stroke-width:0.264583px"
           id="tspan2266">    to projectionist</tspan></text>
      <text
         id="text2272"
         y="40.797428"
         x="111.47497"
         style="font-style:normal;font-weight:normal;font-size:10.5833px;line-height:125%;font-family:'Bitstream Vera Sans';letter-spacing:0px;word-spacing:0px;fill:#000000;fill-opacity:1;stroke:none;stroke-width:0.264583px;stroke-linecap:butt;stroke-linejoin:miter;stroke-opacity:1"
         xml:space="preserve"><tspan
           id="tspan2270"
           style="stroke-width:0.264583px"
           y="40.797428"
           x="111.47497"
           sodipodi:role="line">5. Project video to viewers</tspan></text>
    </g>
  </g>
</svg>
