<?xml version="1.0" standalone="no"?>
<!DOCTYPE svg PUBLIC "-//W3C//DTD SVG 1.1//EN" "http://www.w3.org/Graphics/SVG/1.1/DTD/svg11.dtd" >
<svg xmlns="http://www.w3.org/2000/svg">
<metadata>
This is a custom SVG webfont generated by Font Squirrel.
Copyright   : Copyright  2012 by Tony Thomas All rights reserved
Designer    : Tony Thomas
Foundry     : MediaLoot
Foundry URL : httpwwwmedialootcom
</metadata>
<defs>
<font id="AwakeLightItalic" horiz-adv-x="301" >
<font-face units-per-em="2048" ascent="1526" descent="-522" />
<missing-glyph horiz-adv-x="778" />
<glyph unicode=" "  horiz-adv-x="778" />
<glyph unicode="&#x09;" horiz-adv-x="778" />
<glyph unicode="&#xa0;" horiz-adv-x="778" />
<glyph unicode="!" horiz-adv-x="372" d="M-33 0l27 123h119l-27 -123h-119zM51 315l203 1190h184l-303 -1190h-84z" />
<glyph unicode="&#x22;" horiz-adv-x="567" d="M59 1024l86 485h115l-123 -485h-78zM326 1024l86 485h114l-123 -485h-77z" />
<glyph unicode="#" horiz-adv-x="1327" d="M23 438l24 113h215l172 426h-297l25 113h317l178 442h97l-179 -442h435l176 442h98l-178 -442h199l-25 -113h-215l-172 -426h297l-25 -113h-315l-176 -438h-99l177 438h-435l-176 -438h-98l174 438h-194zM360 551h437l168 426h-433z" />
<glyph unicode="$" horiz-adv-x="876" d="M-51 4l26 129h283l121 569l-43 35q-115 96 -150 174q-35 82 -10 189q33 164 156 262q80 66 209 96l26 123h117l-27 -119h236l-27 -129h-235l-115 -532l49 -41q197 -158 148 -387q-33 -164 -154 -269q-88 -72 -211 -96l-37 -172h-116l36 168h-282zM297 1130 q-18 -74 20 -143q16 -33 99 -115l96 455q-74 -23 -113 -47q-84 -62 -102 -150zM375 131q88 41 110 59q88 66 107 164q27 115 -111 275z" />
<glyph unicode="%" horiz-adv-x="1378" d="M53 0l1184 1505h80l-1184 -1505h-80zM184 1190q27 129 129 221q102 90 213 90q113 0 172 -90q61 -94 33 -221q-25 -125 -125 -217q-102 -94 -212.5 -94t-172.5 92t-37 219zM266 1190q-16 -86 25 -146q43 -61 121 -61q80 0 147 61q70 61 86 146q18 84 -22 147 q-43 61 -123 62q-74 0 -146 -62q-70 -63 -88 -147zM643 311q29 129 127 217q96 90 213 90q115 0 174 -90q63 -90 35 -217q-27 -123 -127 -217q-100 -88 -211 -88q-115 0 -176 88q-62 90 -35 217zM729 309q-18 -84 23 -145q43 -63 118 -64q82 0 150 62q66 61 84 147 q18 88 -23 146q-43 61 -120 61q-80 0 -148 -61q-66 -60 -84 -146z" />
<glyph unicode="&#x26;" horiz-adv-x="1349" d="M16 227q-16 76 7 172q10 68 49 127.5t90 106.5q43 41 117 86q96 59 129 72l51 20l-21 41q-2 4 -17 32.5t-24 43.5q-10 20 -26 69q-8 23 -13 76q-2 37 7 80q14 70 51 127q37 59 86 98q106 86 237 86q63 0 117 -20q57 -20 88 -58q31 -33 47 -98q14 -55 -4 -137 q-12 -61 -41 -107q-53 -96 -158 -170q-57 -41 -108 -63l-47 -23l213 -370l41 63q16 29 41 86q16 35 37 90h118q-20 -61 -59 -139q-45 -92 -106 -166l-15 -26l170 -295h-176l-109 190l-36 -41q-82 -88 -193 -139q-98 -41 -215 -41q-182 0 -272 104q-44 49 -56 123zM168 395 q-29 -139 31 -215q63 -76 178 -76q66 0 123 23q96 33 166 109q20 20 49 53q6 16 -46.5 125.5t-107.5 212.5l-53 100q-25 -14 -51 -29q-41 -20 -62 -32q-106 -55 -172 -142q-39 -51 -55 -129zM487 1079q12 -45 23 -69q4 -6 14.5 -29t16.5 -33l30 -55l21 -29l31 21 q14 8 39.5 24.5t35.5 22.5q10 8 35 26.5t37 30.5q33 31 59 76q27 43 37 94q18 86 -18 148q-37 63 -123 63q-78 0 -145 -55q-68 -57 -88 -150q-13 -53 -5 -86z" />
<glyph unicode="'" d="M59 1024l86 485h115l-123 -485h-78z" />
<glyph unicode="(" horiz-adv-x="618" d="M74 96q-33 236 18 482q51 244 187 483q127 221 393 508h41q-133 -166 -217 -301q-90 -154 -156 -334q-63 -168 -104 -363q-121 -569 53 -981h-37l-14 27q-98 201 -113 240q-26 71 -51 239z" />
<glyph unicode=")" horiz-adv-x="616" d="M-94 -410q143 184 221 320q92 154 154 330q63 168 100 344q41 182 47 370q6 186 -20 342q-20 133 -78 273h37l14 -27q47 -94 68 -133q33 -66 45 -100q33 -100 51 -244q33 -229 -21 -485q-53 -248 -172 -461q-63 -115 -141 -219q-72 -98 -264 -310h-41z" />
<glyph unicode="*" horiz-adv-x="872" d="M68 1051l309 176l-234 178l56 68l211 -187l59 307h88l-72 -307l293 184l27 -67l-311 -176l237 -176l-55 -68l-217 193l-60 -316h-86l70 305l-289 -182z" />
<glyph unicode="+" horiz-adv-x="1071" d="M80 530l24 123h392l96 447h104l-96 -447h391l-24 -123h-392l-96 -448h-104l96 448h-391z" />
<glyph unicode="," horiz-adv-x="333" d="M49 -307l160 356h-59l28 135h117l-35 -155l-201 -336h-10z" />
<glyph unicode="-" horiz-adv-x="1069" d="M74 532l37 177h884l-37 -177h-884z" />
<glyph unicode="." d="M74 0l37 178h116l-37 -178h-116z" />
<glyph unicode="/" horiz-adv-x="657" d="M-59 -164l698 1507h78l-699 -1507h-77z" />
<glyph unicode="0" horiz-adv-x="1003" d="M92 180q-72 211 0 551q70 336 238 551q156 203 338 203q170 0 241 -205q72 -213 2 -545q-70 -340 -235 -549q-156 -203 -334 -202q-184 -1 -250 196zM201 295q37 -174 168 -174q133 0 243 174q104 164 160 432q59 272 27 436q-31 178 -160 178h-8q-131 0 -246 -174 q-102 -162 -160 -434q-57 -276 -24 -438z" />
<glyph unicode="1" d="M-63 0l311 1468h117l-312 -1468h-116z" />
<glyph unicode="2" horiz-adv-x="989" d="M-104 0l34 -45l2 16l99 101q193 201 405 456q156 186 213 287q59 104 78 199q31 145 -22 231q-57 88 -181 88q-147 0 -307 -145l37 170q172 129 326 129q166 0 245 -125q82 -119 43 -318q-18 -88 -67 -188q-47 -96 -150 -233q-127 -164 -325 -367l-107 -109h555l-31 -147 h-847z" />
<glyph unicode="3" horiz-adv-x="843" d="M-53 72l35 161q119 -82 254 -81q113 0 194 73q88 78 113 197q23 102 -21 178q-18 39 -59 68q-39 18 -148 34l29 142q125 4 211 67q92 66 121 197q25 113 -35 188q-57 72 -178 72q-94 0 -217 -53l30 137q119 53 240 53q176 0 254 -102q80 -100 43 -279q-25 -109 -78 -180 q-57 -74 -209 -153q117 -55 140 -103q25 -47 28 -113q6 -66 -10 -143q-43 -195 -178 -311q-133 -121 -303 -121q-143 0 -256 72z" />
<glyph unicode="4" horiz-adv-x="1208" d="M41 504l12 53l873 930h32l-182 -858h316l-27 -125h-315l-107 -504h-129l107 504h-580zM258 629h389l117 549z" />
<glyph unicode="5" horiz-adv-x="901" d="M-49 78l31 147q117 -82 241 -82q133 0 246 90q115 92 141 222q29 139 -53 227q-76 88 -227 88q-94 0 -144 -10l154 727h571l-28 -135h-443l-96 -457q49 6 74 6q184 0 278 -125q94 -127 52 -321q-43 -203 -189 -330q-139 -125 -332 -125q-153 0 -276 78z" />
<glyph unicode="6" horiz-adv-x="966" d="M43 516q41 184 137 358q96 178 242 332q139 150 336 283l57 -113q-158 -102 -291 -235q-133 -137 -270 -400q193 96 289 97q147 0 223 -119q78 -117 41 -291q-35 -176 -176 -303q-139 -125 -297 -125q-178 0 -258 139q-82 139 -33 377zM166 465q-29 -141 24 -234 q57 -94 177 -94q109 0 196 84q84 80 109 199q29 125 -28.5 202.5t-178.5 77.5q-63 0 -117 -22q-43 -14 -143 -78q-21 -55 -39 -135z" />
<glyph unicode="7" horiz-adv-x="1007" d="M0 0l827 1339h-608l31 146h809l-909 -1485h-150z" />
<glyph unicode="8" horiz-adv-x="995" d="M18 408q45 215 291 354q-92 102 -110 176q-23 72 0 168q33 164 172 280q135 117 297 117q160 0 241 -114q86 -115 52 -283q-41 -188 -267 -342q182 -137 135 -358q-37 -172 -176 -291q-137 -115 -313 -115t-264 117q-95 119 -58 291zM157.5 415.5 q-24.5 -116.5 35.5 -194.5q61 -78 180 -78q115 0 205 70q92 72 114 184l4 21q27 117 -34 194q-61 76 -181 76q-117 0 -207 -76q-92 -80 -116.5 -196.5zM330 1100q-23 -109 35 -185q59 -78 159 -77q102 0 191 77q90 80 110 183q25 113 -30 186q-55 76 -162 76t-192.5 -73.5 t-110.5 -186.5z" />
<glyph unicode="9" horiz-adv-x="974" d="M152 119q170 113 297 248q154 164 266 405q-178 -104 -291 -104q-143 0 -221 120q-78 123 -41 293q39 180 174 299q135 123 295 123q182 0 264 -143q84 -147 35 -385q-59 -270 -268 -545q-199 -262 -449 -420zM295 1083q-25 -117 35 -196q59 -82 166 -82q119 0 262 96 q37 102 43 133q29 143 -23 236q-55 96 -174 96q-113 0 -198 -84q-86 -80 -111 -199z" />
<glyph unicode=":" d="M-8 84l26 125h117l-26 -125h-117zM166 895l27 125h116l-26 -125h-117z" />
<glyph unicode=";" horiz-adv-x="333" d="M-31 -225l154 329h-62l27 123h117l-31 -143l-197 -309h-8zM215 901l27 123h116l-26 -123h-117z" />
<glyph unicode="&#x3c;" horiz-adv-x="1073" d="M78 571l31 150l978 426l-26 -129l-879 -373l719 -375l-27 -129z" />
<glyph unicode="=" horiz-adv-x="1069" d="M25 328l26 127h885l-27 -127h-884zM133 844l27 127h884l-26 -127h-885z" />
<glyph unicode="&#x3e;" horiz-adv-x="1073" d="M-14 141l26 129l879 375l-719 373l27 129l798 -426l-30 -150z" />
<glyph unicode="?" horiz-adv-x="763" d="M127 0l23 104h100l-23 -104h-100zM193 309l22 101q16 174 193 350q193 184 221 315q20 100 -27 158.5t-156 60.5q-106 0 -202 -51l-13 76q121 68 273 67q156 0 217 -82.5t37 -203.5q-20 -90 -77.5 -168t-168.5 -187q-162 -162 -199 -339l-20 -97h-100z" />
<glyph unicode="@" horiz-adv-x="1474" d="M82 365q47 221 174 405q133 188 297 279q166 92 362 92q252 0 377 -166q129 -170 74 -424q-27 -127 -113 -258q-86 -125 -196 -203q-113 -76 -211 -76q-63 0 -90 27q-12 16 -21 96q-66 -61 -114 -90q-61 -31 -113 -31q-100 0 -152 97q-49 96 -18 237q25 119 98 230 q74 109 170 182q94 68 180 67q53 0 93.5 -29.5t85.5 -109.5l47 117h114l-225 -555q-20 -51 -24 -68q-4 -18 6 -37q12 -16 32 -16q49 0 129 64q86 70 146 161q59 96 80 199q45 205 -66 344q-109 139 -319 139q-242 0 -445 -186q-199 -184 -262 -473q-59 -279 64 -428 q123 -156 403 -156q166 0 299 64q55 27 109 61q59 37 114 103h121l-2 6l-2 -2q-61 -90 -169.5 -172t-229.5 -123q-117 -39 -264 -39q-315 0 -461 180q-146 179 -78 492zM453 338q-20 -90 8 -158q33 -61 94 -61q96 0 199 119q100 115 131 266q23 102 -8 162q-31 61 -105 61 q-92 0 -190 -118.5t-129 -270.5z" />
<glyph unicode="A" horiz-adv-x="1462" d="M-49 0l874 1468h97l276 -1468h-133l-98 504h-582l-299 -504h-135zM467 637h475l-117 612z" />
<glyph unicode="B" horiz-adv-x="1058" d="M-63 0l311 1468h432q152 0 235 -53q90 -57 119 -137q18 -47 18 -103q0 -41 -10 -88q-31 -137 -131 -231q-59 -57 -213 -125q125 -59 162 -119q41 -66 41 -146q0 -41 -10 -85q-20 -104 -88 -191q-66 -80 -176 -137q-106 -53 -258 -53h-432zM98 129h224q164 0 237 31 q72 31 125 98q55 72 70 141q7 30 7 60q0 45 -18 88q-31 66 -98 96.5t-217 30.5h-213zM240 795h213q150 0 231 30q84 31 139 99q55 63 74 145q5 27 5 53q0 45 -15 86q-25 70 -84 101q-57 31 -223 30h-224z" />
<glyph unicode="C" horiz-adv-x="1517" d="M90 727q70 322 307.5 530.5t532.5 208.5t448 -209q72 -100 95 -227h-150q-23 70 -61 127q-121 170 -353 170q-242 0 -436 -170q-193 -168 -248 -430q-16 -77 -16 -147q0 -160 86 -277q121 -170 354 -170q236 0 430 172q66 57 119 133h152q-78 -131 -197 -231 q-242 -207 -545 -207q-289 0 -436 207q-103 142 -103 335q0 87 21 185z" />
<glyph unicode="D" horiz-adv-x="1298" d="M-63 0l311 1466h348q272 0 409.5 -90t188.5 -262q31 -100 31 -209q0 -85 -19 -174q-29 -141 -110 -280q-80 -137 -195 -238q-117 -102 -256 -158q-92 -37 -145 -45q-53 -10 -242 -10h-321zM98 131h199q150 0 244 25q78 18 155 61q49 25 125 88q190 176 246 438 q17 80 17 152q0 158 -85 272q-45 63 -112 103q-57 35 -131 53q-53 10 -209 10h-193z" />
<glyph unicode="E" horiz-adv-x="917" d="M-63 0l311 1468h715l-29 -133h-580l-147 -698h559l-29 -133h-559l-78 -371h598l-28 -133h-733z" />
<glyph unicode="F" horiz-adv-x="851" d="M-63 0l311 1468h667l-28 -133h-533l-147 -698h532l-28 -133h-533l-106 -504h-135z" />
<glyph unicode="G" horiz-adv-x="1525" d="M90 727q70 322 307.5 530.5t532.5 208.5t448 -209q74 -100 97 -235h-152q-16 63 -61 133q-123 172 -353 172q-242 0 -436 -170q-193 -170 -248 -430q-16 -77 -16 -147q0 -160 86 -277q121 -170 354 -170q240 0 430 172q63 55 160 199h-326l29 133h471l-37 -174 q-20 -43 -86.5 -122t-136.5 -134q-254 -207 -545 -207q-289 0 -436 207q-103 141 -103 334q0 88 21 186z" />
<glyph unicode="H" horiz-adv-x="1282" d="M-63 0l311 1468h135l-141 -661h829l141 661h134l-312 -1468h-133l141 668h-829l-141 -668h-135z" />
<glyph unicode="I" horiz-adv-x="319" d="M-63 0l311 1468h135l-311 -1468h-135z" />
<glyph unicode="J" horiz-adv-x="710" d="M-117 -496l27 129q168 10 297 109q80 63 123 141q39 74 82 262l280 1323h135l-280 -1323q-33 -158 -76 -254q-33 -70 -84 -141q-51 -61 -98 -98q-177 -140 -406 -148z" />
<glyph unicode="K" horiz-adv-x="1284" d="M-76 -10l316 1489h155l-153 -729l-15 -64l-147 -696h-156zM213 672l20 90l580 -762h180l-549 731l725 737h-165l-740 -747z" />
<glyph unicode="L" horiz-adv-x="825" d="M-63 0l311 1468h135l-283 -1333h506l-28 -135h-641z" />
<glyph unicode="M" horiz-adv-x="1390" d="M-59 0l303 1427l477 -591l729 591l-303 -1427h-123l231 1090l-579 -461l-381 463l-232 -1092h-122z" />
<glyph unicode="N" horiz-adv-x="1390" d="M-63 0l303 1425l856 -1060l233 1103h125l-303 -1427l-860 1053l-232 -1094h-122z" />
<glyph unicode="O" horiz-adv-x="1556" d="M90 727q72 326 307 530q242 211 533 211q297 0 448 -211q106 -147 106 -345q0 -86 -20 -181q-68 -315 -309 -524q-244 -207 -547 -207q-289 0 -436 207q-103 142 -103 335q0 87 21 185zM225 727q-16 -78 -16 -147q0 -158 84 -277q123 -170 356.5 -170t431.5 174 q193 170 248 428q16 78 16 148q0 158 -83 274q-125 172 -353 172q-242 0 -436 -170q-193 -172 -248 -432z" />
<glyph unicode="P" horiz-adv-x="985" d="M-63 0l311 1468h403q180 0 267 -110q57 -74 57 -184q0 -51 -12 -109q-27 -123 -103 -221q-68 -92 -178 -137q-109 -45 -293 -45h-176l-141 -662h-135zM240 793h245q129 0 222 73q88 70 116 203q9 43 9 78q0 188 -244 188h-234z" />
<glyph unicode="Q" horiz-adv-x="1556" d="M109 729q68 319 305 531q244 209 532 208q295 0 449 -208q106 -147 105 -346q0 -86 -19 -181q-68 -317 -310 -522q-199 -168 -469 -203l-34 -162h-123l35 162q-264 27 -392 203q-101 140 -101 332q1 88 22 186zM244 729q-17 -78 -17 -147q0 -156 84 -275 q94 -131 295 -166l31 140h123l-31 -140q213 37 369 170q197 174 248 426q17 78 17 148q0 156 -85 274q-123 170 -352 170q-244 0 -437 -168q-194 -176 -245 -432z" />
<glyph unicode="R" horiz-adv-x="985" d="M-63 0l311 1470h403q180 0 267 -110q57 -73 57 -183q0 -51 -12 -110q-23 -121 -101 -221q-72 -92 -180.5 -137t-296.5 -45q-2 -3 -2 -10q0 -24 30 -97q38 -92 102.5 -218t107.5 -207t71 -132h-159l-336 600l-127 -600h-135zM240 795h245q129 0 222 73q88 70 116 203 q9 43 9 79q0 188 -242 187h-234z" />
<glyph unicode="S" horiz-adv-x="876" d="M-57 0l26 131h328q109 0 182 59q90 70 107 162q5 27 5 53q0 129 -136 236l-123 98q-115 86 -150 174q-21 47 -21 108q0 39 9 83q35 162 158 264q121 102 284 102h277l-27 -133h-280q-113 0 -187 -51q-82 -55 -102 -149q-6 -25 -6 -49q0 -51 26 -97q35 -66 123 -131 l125 -96q157 -121 157 -298q0 -44 -9 -91q-37 -170 -156 -271q-119 -104 -281 -104h-329z" />
<glyph unicode="T" horiz-adv-x="1265" d="M221 1337l27 133h1081l-26 -133h-478l-284 -1337h-135l284 1337h-469z" />
<glyph unicode="U" horiz-adv-x="1300" d="M39 387v17q0 86 35 245l174 821h135l-174 -823q-29 -139 -29 -226q0 -53 10 -87q31 -94 113 -150q86 -55 217 -55q186 0 328 111q80 63 123 143q45 86 84 264l174 823h135l-174 -823q-37 -170 -78 -256q-41 -88 -84 -143q-33 -47 -98 -101q-188 -147 -434 -147 q-256 0 -379 147q-31 35 -56 101q-20 59 -22 139z" />
<glyph unicode="V" horiz-adv-x="1335" d="M258 1468h129l193 -1130l671 1130h127l-864 -1417z" />
<glyph unicode="W" horiz-adv-x="1986" d="M258 1468h129l193 -1130l409 688l-80 442h129l47 -276l166 276h127l-266 -436l119 -694l670 1130h129l-865 -1417l-149 823l-502 -823z" />
<glyph unicode="X" horiz-adv-x="1533" d="M-31 0l719 737l-366 731h161l312 -630l575 630h160l-680 -731l403 -737h-157l-348 631l-617 -631h-162z" />
<glyph unicode="Y" horiz-adv-x="1333" d="M219 1468h162l309 -630l578 630h157l-690 -723l-157 -745h-140l158 745z" />
<glyph unicode="Z" horiz-adv-x="1357" d="M-37 0l1159 1337h-846l27 133h1092l-1159 -1339h901l-27 -131h-1147z" />
<glyph unicode="[" horiz-adv-x="589" d="M-115 -332l414 1942h406l-25 -115h-274l-365 -1712h274l-24 -115h-406z" />
<glyph unicode="\" horiz-adv-x="657" d="M262 1343h80l53 -1507h-78z" />
<glyph unicode="]" horiz-adv-x="587" d="M-115 -332l25 115h272l365 1712h-273l25 115h403l-413 -1942h-404z" />
<glyph unicode="^" horiz-adv-x="1165" d="M0 563l692 1039l252 -1039h-119l-174 848l-532 -848h-119z" />
<glyph unicode="_" horiz-adv-x="1288" d="M78 -227l28 137h1104l-28 -137h-1104z" />
<glyph unicode="`" horiz-adv-x="456" d="M154 1401h120l41 -316h-47z" />
<glyph unicode="a" horiz-adv-x="829" d="M53 281q12 57 51 116q37 55 86 95q51 43 117 67q68 23 131 23h203l8 39q8 39 8 73q0 52 -18 94q-33 74 -109 74q-13 0 -24 1q-61 0 -109 -9q-4 -2 -24.5 -7t-30.5 -9l-8 94q2 0 10 4q14 4 18 6q57 16 89 25q35 8 104 8q59 0 107 -27q51 -31 75 -74q47 -71 47 -157 q0 -35 -8 -72l-137 -643h-164l33 -47l20 96q-76 -41 -108 -51q-53 -16 -109 -16q-70 0 -121 24q-47 20 -88 66q-35 41 -47 94q-8 29 -7 59q-1 27 5 54zM176 209q8 -33 33 -57q18 -23 53 -39q27 -12 74 -13q88 0 153 52q31 20 58 57q18 27 31 74l38 182h-204q-49 0 -78 -12 q-80 -31 -127 -101q-25 -33 -31 -71q-5 -18 -5 -36.5t5 -35.5z" />
<glyph unicode="b" horiz-adv-x="991" d="M-61 0l311 1468h121l-133 -622q184 121 354 121q156 0 229 -131q44 -83 44 -197q0 -72 -17 -156q-49 -229 -201 -366q-150 -133 -352 -133q-66 0 -229 47l-7 -31h-120zM90 143q111 -37 260 -37q133 0 237.5 104.5t139.5 264.5q13 63 13 116q0 85 -33 146 q-53 106 -187 107q-59 0 -147 -29t-158 -82z" />
<glyph unicode="c" horiz-adv-x="1064" d="M92 475q45 211 203 352q160 141 354.5 141.5t290.5 -141.5q41 -63 57 -143h-133q-12 33 -30 59q-74 106 -220 107q-139 0 -256 -107q-111 -100 -147 -266q-10 -51 -11 -96q0 -97 48 -168q70 -104 217 -104q141 0 260 106q41 37 66 76h133q-53 -98 -138 -170 q-156 -137 -354 -137q-186 0 -289 141q-66 93 -65 222q0 60 14 128z" />
<glyph unicode="d" horiz-adv-x="991" d="M43 483q45 211 178 353q125 131 283 131q172 0 303 -121l131 622h121l-311 -1468h-164l34 -43l15 74q-188 -47 -250 -47q-207 0 -297 133q-60 87 -60 216q0 69 17 150zM160 475q-12 -58 -12 -107q0 -91 38 -157q61 -104 195 -105q150 0 276 37l125 590q-47 53 -122.5 82 t-137.5 29q-129 0 -229 -107q-98 -98 -133 -262z" />
<glyph unicode="e" horiz-adv-x="933" d="M90 225q-14 52 -14 116q0 67 16 146q47 221 187 361q139 135 309 135q178 0 248 -129q30 -57 30 -156q0 -96 -28 -231h-633q-9 -66 -9 -111q0 -29 4 -48q9 -50 44 -103q72 -96 209 -96q160 0 315 94l-25 -119q-82 -49 -159 -76q-80 -25 -185 -24q-139 0 -209 63 q-71 63 -100 178zM229 582h521q8 61 7 98q0 22 -2 37q-7 39 -34 78q-49 76 -157.5 75.5t-194.5 -73.5q-33 -29 -51.5 -49.5t-43.5 -63.5t-45 -102z" />
<glyph unicode="f" horiz-adv-x="698" d="M63 0l177 829h-129l24 115h129l19 92q51 238 159 342q106 109 222 109q43 0 98 -12l-27 -127q-25 6 -51 6q-123 0 -186 -78q-59 -68 -99 -240l-18 -92h162l-25 -115h-162l-176 -829h-117z" />
<glyph unicode="g" horiz-adv-x="901" d="M-4 -225q20 96 90 155.5t258 110.5q-139 31 -175 56q-29 21 -29 53q0 7 1 16q4 31 41 61q20 14 23 17q8 8 28 18q33 18 125 45q-123 70 -159 143q-24 47 -24 106q0 33 7 71q37 164 150 252q119 86 286 86h345l-25 -111h-215q61 -96 72 -158q4 -15 3 -36q0 -26 -5 -60 q-14 -70 -68 -141q-57 -74 -115 -107q-80 -41 -164 -57q-31 -6 -66.5 -17.5t-77.5 -37t-48 -56.5q-1 -6 -2 -11q0 -26 31 -50q8 -8 16 -12q23 -18 76 -31q14 -4 51 -12.5t51 -12.5q100 -29 162 -63q33 -20 55 -60q25 -40 26 -96q0 -30 -7 -63q-27 -125 -140 -205 q-113 -78 -278.5 -78t-247.5 78q-58 58 -58 144q0 30 7 63zM90 -227q-5 -24 -5 -45q0 -61 45 -97q60 -47 183 -47q113 0 195 45q84 51 102 138q4 17 4 33q0 67 -63 108q-70 49 -203 49q-98 0 -164 -49q-76 -51 -94 -135zM281 616q-5 -26 -6 -49q0 -58 32 -102 q45 -59 135 -59t162 63q72 61 92 149q5 25 6 49q0 60 -34 107q-45 59 -135.5 59.5t-159.5 -63.5q-72 -60 -92 -154z" />
<glyph unicode="h" horiz-adv-x="880" d="M-125 0l311 1468h121l-141 -669q76 78 136 115.5t93 44t86 6.5q98 0 152 -45q55 -43 74 -119q6 -25 5 -61q0 -75 -26 -195l-115 -545h-116l114 543q18 82 18 143q0 57 -16 94q-33 80 -147 80q-141 0 -281 -162l-147 -698h-121z" />
<glyph unicode="i" d="M-51 0l201 948h116l-200 -948h-117zM209 1229l27 125h116l-26 -125h-117z" />
<glyph unicode="j" horiz-adv-x="434" d="M-63 -387q53 29 90 76q55 68 73 153l236 1114h117l-236 -1114q-49 -223 -213 -325zM395 1233l25 121h117l-25 -121h-117z" />
<glyph unicode="k" horiz-adv-x="944" d="M-76 -10l316 1489h137l-207 -981l-8 -29l-101 -479h-137zM150 453l12 59l340 -512h153l-329 481l458 463h-131l-473 -461z" />
<glyph unicode="l" d="M-63 0l311 1468h117l-312 -1468h-116z" />
<glyph unicode="m" horiz-adv-x="1431" d="M-12 0l205 965h116l-30 -142q80 74 139 111t86.5 44t64.5 7q143 0 199 -194q190 197 365 196q66 0 128 -25.5t87 -70.5q30 -58 30 -148q0 -73 -20 -168l-123 -575h-117l123 580q13 62 13 111q0 61 -19 104q-35 80 -139 79q-125 0 -271 -147l-153 -727h-117l115 541 q22 100 21 167q0 54 -13 89q-29 84 -148 84q-68 0 -124 -35q-51 -27 -148 -117l-154 -729h-116z" />
<glyph unicode="n" horiz-adv-x="880" d="M-74 0l205 965h121l-31 -148q76 80 137.5 118t92 44t86.5 6q98 0 151 -45q55 -43 74 -121q6 -26 6 -63q0 -77 -27 -199l-118 -557h-117l117 555q20 86 19 148q0 56 -15 94q-33 84 -148 84q-141 0 -280 -168l-152 -713h-121z" />
<glyph unicode="o" horiz-adv-x="1083" d="M92 492q45 211 203 352q160 141 354.5 141t290.5 -141q64 -96 64 -226q0 -62 -15 -133q-43 -211 -203 -348q-156 -137 -354 -137q-186 0 -289 141q-66 93 -65 222q0 61 14 129zM211 494q-10 -51 -11 -97q0 -97 48 -168q70 -104 217 -104q141 0 260 106q113 100 147 265 q11 51 12 96q0 96 -50 168q-74 106 -220 106q-139 0 -256 -106q-110 -100 -147 -266z" />
<glyph unicode="p" horiz-adv-x="991" d="M-66 -492l312 1469h121l-7 -31q188 47 250 47q201 0 295 -135q61 -91 61 -221q0 -67 -16 -143q-45 -219 -176 -353q-127 -133 -285 -133q-168 0 -301 123l-133 -623h-121zM211 244q49 -53 125 -82t135 -29q131 0 231 107q98 104 132 262q13 57 12 107q0 89 -39 157 q-61 104 -195 104q-145 0 -276 -36z" />
<glyph unicode="q" horiz-adv-x="991" d="M143 494q49 229 199 364t354 135q66 0 230 -47l6 31h121l-312 -1469h-120l133 623q-188 -123 -355 -123q-156 0 -229 133q-44 84 -44 198q0 72 17 155zM264 502q-13 -63 -13 -116q0 -85 34 -146q57 -106 184 -107q61 0 149.5 28.5t157.5 82.5l125 590q-111 37 -260 36 q-133 0 -237.5 -104t-139.5 -264z" />
<glyph unicode="r" horiz-adv-x="659" d="M-12 0l205 967h126l-20 -99q162 117 262 117h111l-23 -113h-110q-129 0 -260 -98l-86 -407l-78 -367h-127z" />
<glyph unicode="s" horiz-adv-x="733" d="M-14 0l24 113h256q68 0 121 37q63 39 76 100q4 17 4 32q0 34 -18 64q-31 41 -101 92q-139 102 -178 178q-21 47 -21 100q0 24 5 50q25 106 106 170q88 66 203 65h239l-24 -112h-227q-63 0 -109 -29q-53 -39 -66 -94q-2 -11 -1 -22q0 -35 20 -68q25 -37 92 -84l53 -41 q154 -119 154 -250q0 -22 -4 -45q-23 -109 -115 -184q-96 -72 -219 -72h-270z" />
<glyph unicode="t" horiz-adv-x="849" d="M180 193v11q0 48 27 169l102 483h-119l295 277l-34 -160h286l-24 -117h-287l-113 -532q-9 -41 -8 -75q0 -45 16 -77q28 -55 107 -55q88 0 182 49l-22 -115q-100 -51 -205 -51q-111 0 -168 72q-18 23 -25 49q-10 19 -10 72z" />
<glyph unicode="u" horiz-adv-x="878" d="M55 145q-5 23 -5 56q0 77 28 209l119 557h116l-118 -555q-19 -93 -20 -158q0 -53 13 -88q33 -78 152 -78q141 0 283 166l151 713h117l-205 -965h-117l41 191q-133 -133 -211 -175q-72 -35 -139 -34q-80 0 -131 43q-56 42 -74 118z" />
<glyph unicode="v" horiz-adv-x="989" d="M209 967h125l119 -688l401 688h127l-582 -934z" />
<glyph unicode="w" horiz-adv-x="1566" d="M207 967h123l114 -680l396 680h90l100 -682l404 682h125l-580 -934l-141 719l-447 -719z" />
<glyph unicode="x" horiz-adv-x="1126" d="M20 0l461 489l-254 478h148l203 -375l350 375h151l-448 -478l268 -489h-151l-216 389l-366 -389h-146z" />
<glyph unicode="y" horiz-adv-x="1001" d="M-6 -494l440 701l-170 760h135l131 -619l385 619h134l-924 -1461h-131z" />
<glyph unicode="z" horiz-adv-x="911" d="M12 0l654 842h-478l27 125h684l-657 -842h501l-26 -125h-705z" />
<glyph unicode="{" horiz-adv-x="690" d="M80 539l24 118q61 6 117 43q66 45 105 131q33 80 77 273q49 229 76 299q29 70 76 123q43 43 90 63q49 16 143 17h25l-22 -107q-119 0 -173 -53q-49 -51 -81 -201l-33 -160q-31 -143 -68 -229q-35 -84 -82 -135q-51 -53 -204 -125q152 -74 169 -172q20 -98 -24 -315 l-33 -158q-33 -145 -4 -201q31 -53 148 -53l-23 -107h-25q-96 0 -135 19q-37 18 -63 65q-25 53 -21 123q4 84 47 293q43 207 41 277q-4 88 -55 131q-41 35 -92 41z" />
<glyph unicode="|" horiz-adv-x="276" d="M-117 -328l418 1962h92l-418 -1962h-92z" />
<glyph unicode="}" horiz-adv-x="690" d="M-123 -410l23 107q121 0 174 53q49 49 80 201l32 158q45 205 111 315q59 96 238 172q-117 72 -144 115q-25 41 -26 133q0 102 30 241l33 160q35 150 6 201q-29 53 -149 53l22 107h25q88 0 135 -19q43 -20 61 -63q27 -55 23 -125q-4 -96 -45 -295q-43 -205 -41 -273 q0 -84 47 -131q41 -37 98 -43l-24 -118q-55 -6 -113 -41q-72 -45 -111 -136q-31 -72 -77 -272q-49 -227 -74 -295q-23 -63 -76 -123q-47 -51 -88 -65q-49 -16 -145 -17h-25z" />
<glyph unicode="~" horiz-adv-x="1126" d="M68 502l32 160q125 131 271 131q51 0 116.5 -26t92 -42t98.5 -63q61 -41 133 -41q115 0 248 120l-35 -163q-133 -125 -266 -125q-98 0 -213 73q-4 2 -21.5 14.5t-23.5 15.5t-22.5 13.5t-25 14.5t-23.5 12t-27.5 11t-27 7t-28.5 6.5t-29 2.5q-78 0 -145 -41 q-45 -25 -104 -80z" />
<glyph unicode="&#xa1;" horiz-adv-x="372" d="M-66 -389l304 1190h84l-203 -1190h-185zM260 993l27 123h119l-27 -123h-119z" />
<glyph unicode="&#xa2;" horiz-adv-x="925" d="M90 729q45 209 189.5 350.5t355.5 175.5l47 220h74l-47 -220q129 -2 217 -43l-43 -86q-82 43 -197 43q-170 0 -299 -125.5t-168 -308.5q-41 -193 39 -308.5t240 -115.5q123 0 231 43l2 -80q-104 -43 -242 -51l-49 -223h-73l49 223q-203 20 -287 150q-86 131 -39 356z" />
<glyph unicode="&#xa3;" horiz-adv-x="1015" d="M-59 0l299 659h-154l29 132h184q104 229 221 403q111 166 217 240q102 70 195 69h151l-30 -143h-111q-123 0 -237 -119q-109 -113 -226 -342l-55 -108h164l-29 -132h-197l-223 -497q47 10 645 10l-36 -172h-807z" />
<glyph unicode="&#xa4;" horiz-adv-x="1392" d="M0 223l270 232q-51 125 -24 254q27 131 141 262l-178 239l100 86l176 -237q156 100 312 100q158 0 260 -96l272 233l64 -86l-275 -235q55 -117 25 -254q-29 -143 -133 -264l172 -234l-99 -86l-174 234q-147 -102 -311 -103q-162 0 -264 101l-271 -232zM365 711 q-35 -172 47 -265.5t204 -93.5q133 0 251 92.5t157 274.5q31 143 -34.5 249.5t-219.5 106.5q-150 0 -261 -105t-144 -259z" />
<glyph unicode="&#xa5;" horiz-adv-x="1232" d="M63 356l21 99h408l45 209h-408l21 100h356l-230 776h125l158 -549q31 -111 45 -233q33 47 84 123.5t82 119.5l375 539h139l-561 -776h352l-20 -100h-402l-45 -209h402l-21 -99h-401l-76 -356h-117l76 356h-408z" />
<glyph unicode="&#xa6;" horiz-adv-x="276" d="M-117 -328l170 799h92l-170 -799h-92zM131 836l170 798h92l-170 -798h-92z" />
<glyph unicode="&#xa7;" horiz-adv-x="882" d="M-68 -246l23 109h256q63 0 123 37q61 41 74 98q12 55 -15 94q-31 43 -100 90q-76 57 -117 94h-10q-6 10 -31 48q-14 20 -20 34q-35 68 -17 146q20 100 105 166q88 66 203 65h96q-111 111 -127 144q-33 66 -17 147q20 102 107 166q88 66 201 65h241l-22 -108h-230 q-61 0 -108 -33q-51 -31 -64 -90q-8 -49 19 -88q23 -31 90 -82l53 -41q182 -133 150 -289q-25 -109 -113 -178q-86 -63 -260 -78q78 -88 101.5 -147.5t11.5 -118.5q-27 -113 -115 -178q-90 -72 -217 -72h-271zM221 504q-12 -49 19 -88q2 -4 10 -13l2 -2q2 -2 5 -6t7 -10h209 q66 0 121 37q61 41 76 98q10 61 -23 105h-254q-63 0 -106 -29q-52 -33 -66 -92z" />
<glyph unicode="&#xa8;" horiz-adv-x="669" d="M74 1296l37 179h116l-37 -179h-116zM442 1296l37 179h117l-37 -179h-117z" />
<glyph unicode="&#xa9;" horiz-adv-x="1556" d="M90 707q72 326 307 530q240 209 533 209q299 0 448 -209q152 -211 86 -526q-68 -315 -309 -525q-244 -207 -547 -206q-289 0 -436 206q-150 208 -82 521zM225 707q-53 -256 70 -424q121 -170 354 -170q236 0 430 172q197 172 250 430q53 254 -67 422q-123 170 -353 170 q-242 0 -436 -170q-193 -168 -248 -430zM455 709q31 150 149 254q111 98 256 98q143 0 213 -100q25 -37 43 -113h-108q-12 29 -25 43q-51 72 -152 72q-96 0 -176 -72q-80 -76 -100 -182q-25 -106 25 -179q49 -70 151 -69q100 0 178 69q39 39 52 58h159l-26 51l-15 -33 q-49 -94 -114 -151q-113 -98 -260 -99q-135 0 -211 101q-72 102 -39 252z" />
<glyph unicode="&#xaa;" horiz-adv-x="829" d="M53 281q12 57 51 116q37 55 86 95q51 43 117 67q68 23 131 23h203l8 39q20 96 -10 167q-33 74 -109 74q-76 2 -133 -8q-4 -2 -24.5 -7t-30.5 -9l-8 94q2 0 10 4q14 4 18 6q57 16 89 25q35 8 104 8q59 0 107 -27q51 -31 75 -74q66 -100 39 -229l-137 -643h-164l33 -47 l20 96q-76 -41 -108 -51q-53 -16 -109 -16q-70 0 -121 24q-47 20 -88 66q-35 41 -47 94q-14 54 -2 113zM176 209q8 -33 33 -57q18 -23 53 -39q27 -12 74 -13q88 0 153 52q31 20 58 57q18 27 31 74l38 182h-204q-49 0 -78 -12q-80 -31 -127 -101q-25 -33 -31 -71 q-10 -37 0 -72z" />
<glyph unicode="&#xab;" horiz-adv-x="901" d="M98 649l381 481h101l-379 -481l174 -485h-103zM406 649l380 481h101l-379 -481l174 -485h-102z" />
<glyph unicode="&#xac;" horiz-adv-x="1263" d="M117 700l28 131h1080l-107 -495h-114l77 364h-964z" />
<glyph unicode="&#xad;" horiz-adv-x="1069" d="M74 532l37 177h884l-37 -177h-884z" />
<glyph unicode="&#xae;" horiz-adv-x="862" d="M61 1133q33 166 162 274q127 109 287 109t244 -109q82 -104 47 -272q-33 -162 -164 -271q-131 -106 -293 -106q-156 0 -235 106q-83 107 -48 269zM164 1133q-29 -121 33 -199q57 -78 173.5 -78t209.5 80q96 80 120 201q25 119 -34 198q-61 80 -172 80q-119 0 -211 -80 q-94 -77 -119 -202zM291 958l80 385h121q55 0 79 -30q27 -33 15 -86q-6 -35 -29 -64q-18 -25 -55 -41q-29 -8 -49 -10l94 -154h-101l-57 95l-18 -95h-80zM418 1188h35q25 0 34 10q12 10 19 31q2 12 1 18t-11.5 12.5t-28.5 6.5h-33z" />
<glyph unicode="&#xaf;" horiz-adv-x="1069" d="M74 1448l37 176h884l-37 -176h-884z" />
<glyph unicode="&#xb0;" horiz-adv-x="733" d="M92 1325q27 133 131 231q98 96 213 97q111 0 172 -97q59 -94 33 -231q-31 -133 -129 -229q-102 -92 -215 -92q-111 0 -172 92q-64 100 -33 229zM180 1325q-20 -86 21 -153.5t116 -67.5q78 0 148 65q68 61 90 156q18 88 -23 154q-43 66 -122 65q-78 0 -144 -65 q-68 -62 -86 -154z" />
<glyph unicode="&#xb1;" horiz-adv-x="1071" d="M-53 0l26 121h887l-26 -121h-887zM119 807l24 119h392l94 440h104l-94 -440h391l-24 -119h-392l-94 -442h-104l94 442h-391z" />
<glyph unicode="&#xb2;" horiz-adv-x="989" d="M-104 0l34 -45l2 16l99 101q193 201 405 456q156 186 213 287q59 104 78 199q31 145 -22 231q-57 88 -181 88q-147 0 -307 -145l37 170q172 129 326 129q166 0 245 -125q82 -119 43 -318q-18 -88 -67 -188q-47 -96 -150 -233q-127 -164 -325 -367l-107 -109h555l-31 -147 h-847z" />
<glyph unicode="&#xb3;" horiz-adv-x="843" d="M-53 72l35 161q119 -82 254 -81q113 0 194 73q88 78 113 197q23 102 -21 178q-18 39 -59 68q-39 18 -148 34l29 142q125 4 211 67q92 66 121 197q25 113 -35 188q-57 72 -178 72q-94 0 -217 -53l30 137q119 53 240 53q176 0 254 -102q80 -100 43 -279q-25 -109 -78 -180 q-57 -74 -209 -153q117 -55 140 -103q25 -47 28 -113q6 -66 -10 -143q-43 -195 -178 -311q-133 -121 -303 -121q-143 0 -256 72z" />
<glyph unicode="&#xb4;" horiz-adv-x="456" d="M74 1106l176 315h121l-248 -315h-49z" />
<glyph unicode="&#xb6;" horiz-adv-x="1167" d="M170 975q20 104 69.5 193t136.5 172t234.5 131.5t337.5 48.5q227 0 318 -17l-385 -1810h-131l368 1732h-219l-369 -1732h-137l174 817h-47q-162 0 -277.5 124t-72.5 341z" />
<glyph unicode="&#xb7;" d="M74 451l37 178h116l-37 -178h-116z" />
<glyph unicode="&#xb8;" horiz-adv-x="559" d="M51 -481l31 59q57 -27 113 -27q53 0 102 28t63 95q23 121 -147 148l125 178h65l-108 -145q92 -12 133 -56.5t27 -111.5q-43 -199 -277 -199q-70 0 -127 31z" />
<glyph unicode="&#xb9;" d="M-63 0l311 1468h117l-312 -1468h-116z" />
<glyph unicode="&#xba;" horiz-adv-x="1083" d="M92 492q45 211 203 352q160 141 354.5 141t290.5 -141q94 -141 49 -359q-43 -211 -203 -348q-156 -137 -354 -137q-186 0 -289 141q-96 138 -51 351zM211 494q-33 -160 36.5 -264.5t217.5 -104.5q141 0 260 106q113 100 147 265q35 158 -38.5 264t-219.5 106 q-139 0 -256 -106q-110 -100 -147 -266z" />
<glyph unicode="&#xbb;" horiz-adv-x="921" d="M14 164l381 483l-176 483h103l174 -483l-381 -483h-101zM342 164l381 483l-176 483h102l174 -483l-381 -483h-100z" />
<glyph unicode="&#xbc;" horiz-adv-x="2822" d="M1655 504l12 53l873 930h32l-182 -858h316l-27 -125h-315l-107 -504h-129l107 504h-580zM1872 629h389l117 549zM250 -82l1347 1589h68l-1348 -1589h-67zM-63 0l311 1468h117l-312 -1468h-116z" />
<glyph unicode="&#xbd;" horiz-adv-x="2603" d="M1510 0l34 -45l2 16l99 101q193 201 405 456q156 186 213 287q59 104 78 199q31 145 -22 231q-57 88 -181 88q-147 0 -307 -145l37 170q172 129 326 129q166 0 245 -125q82 -119 43 -318q-18 -88 -67 -188q-47 -96 -150 -233q-127 -164 -325 -367l-107 -109h555l-31 -147 h-847zM250 -82l1347 1589h68l-1348 -1589h-67zM-63 0l311 1468h117l-312 -1468h-116z" />
<glyph unicode="&#xbe;" horiz-adv-x="3364" d="M2198 504l12 53l873 930h32l-182 -858h316l-27 -125h-315l-107 -504h-129l107 504h-580zM2415 629h389l117 549zM793 -82l1347 1589h68l-1348 -1589h-67zM-53 72l35 161q119 -82 254 -81q113 0 194 73q88 78 113 197q23 102 -21 178q-18 39 -59 68q-39 18 -148 34l29 142 q125 4 211 67q92 66 121 197q25 113 -35 188q-57 72 -178 72q-94 0 -217 -53l30 137q119 53 240 53q176 0 254 -102q80 -100 43 -279q-25 -109 -78 -180q-57 -74 -209 -153q117 -55 140 -103q25 -47 28 -113q6 -66 -10 -143q-43 -195 -178 -311q-133 -121 -303 -121 q-143 0 -256 72z" />
<glyph unicode="&#xbf;" horiz-adv-x="763" d="M6 -125q20 92 76.5 169t169.5 187q158 156 197 340l20 97h102l-20 -101q-20 -176 -199 -352q-188 -184 -217 -315q-20 -98 27 -156.5t155 -60.5q104 0 203 51l12 -76q-125 -68 -274 -68q-156 0 -216.5 82t-35.5 203zM514 870l23 107h100l-23 -107h-100z" />
<glyph unicode="&#xc0;" horiz-adv-x="1462" d="M-94 0l872 1454h94l281 -1454h-135l-98 500h-582l-299 -500h-133zM420 631h477l-121 606zM690 1898h121l51 -262h-47z" />
<glyph unicode="&#xc1;" horiz-adv-x="1462" d="M-100 0l872 1452h94l281 -1452h-133l-101 500h-581l-299 -500h-133zM414 631h477l-121 606zM850 1692l164 262h119l-236 -262h-47z" />
<glyph unicode="&#xc2;" horiz-adv-x="1462" d="M-88 0l872 1456h97l278 -1456h-133l-98 500h-582l-299 -500h-135zM428 631h475l-119 608zM582 1585l237 248h189l135 -248h-74l-160 217l-258 -217h-69z" />
<glyph unicode="&#xc3;" horiz-adv-x="1462" d="M-80 0l875 1458h96l278 -1458h-135l-98 502h-582l-299 -502h-135zM436 633h475l-118 608zM582 1624l12 57q68 68 162 68q63 0 151 -45q86 -51 140 -51q68 0 143 53l-12 -61q-76 -61 -158 -62q-66 0 -137 39l-35 20q-66 35 -121 35q-49 0 -98 -24q-27 -15 -47 -29z" />
<glyph unicode="&#xc4;" horiz-adv-x="1462" d="M-76 0l873 1458h96l278 -1458h-135l-98 502h-582l-299 -502h-133zM438 633h477l-118 608zM627 1604l24 120h117l-25 -120h-116zM995 1604l25 120h117l-25 -120h-117z" />
<glyph unicode="&#xc5;" horiz-adv-x="1462" d="M-96 0l872 1454h96l279 -1454h-133l-100 500h-582l-299 -500h-133zM418 631h477l-121 606zM723 1731q18 78 77.5 131t127.5 53q66 0 104 -53q39 -55 21 -131q-16 -76 -76 -129q-57 -51 -125 -52q-70 0 -107 52q-36 57 -22 129zM757.5 1730.5q-12.5 -59.5 16.5 -100.5 q31 -43 82 -43q53 0 105 41q47 41 59 102.5t-19 100.5q-33 43 -83 43q-49 0 -101 -43q-47 -41 -59.5 -100.5z" />
<glyph unicode="&#xc6;" horiz-adv-x="2172" d="M-31 0l1428 1468h821l-29 -133h-579l-148 -700h559l-28 -131h-559l-78 -371h598l-29 -133h-831l106 504h-543l-491 -504h-197zM733 635h488l131 622z" />
<glyph unicode="&#xc7;" horiz-adv-x="1517" d="M152 735q68 315 305 527q236 205 532.5 204.5t448.5 -206.5q72 -98 96 -226h-152q-23 70 -61 127q-123 168 -354 168q-242 0 -435 -168q-190 -166 -245 -426q-53 -252 69 -418q121 -170 355 -170q236 0 430 172q70 61 119 132h151q-76 -127 -197 -230 q-242 -205 -544 -205q-287 0 -437 205q-149 207 -81 514zM354 -522l29 53q51 -25 113 -25q53 0 102 26t61 87q12 59 -30.5 91t-118.5 42l121 162h65l-106 -131q92 -12 134 -52t30 -102q-37 -180 -273 -180q-70 0 -127 29z" />
<glyph unicode="&#xc8;" horiz-adv-x="917" d="M-111 0l310 1454h714l-26 -131h-580l-147 -692h559l-29 -131h-559l-78 -369h598l-28 -131h-734zM461 1901h121l51 -263h-47z" />
<glyph unicode="&#xc9;" horiz-adv-x="917" d="M-115 0l308 1452h714l-26 -131h-580l-147 -690h559l-27 -131h-559l-80 -369h598l-27 -131h-733zM551 1690l164 262h119l-236 -262h-47z" />
<glyph unicode="&#xca;" horiz-adv-x="917" d="M-104 0l309 1456h715l-27 -133h-580l-147 -692h559l-29 -131h-559l-78 -369h598l-28 -131h-733zM293 1597l237 248h187l135 -248h-74l-157 218l-259 -218h-69z" />
<glyph unicode="&#xcb;" horiz-adv-x="917" d="M-66 0l316 1475h117l-2 -7h251l2 7h117l-2 -7h230l-29 -133h-580l-147 -698h559l-29 -133h-559l-80 -371h598l-28 -133h-734z" />
<glyph unicode="&#xcc;" horiz-adv-x="319" d="M-111 0l310 1454h135l-309 -1454h-136zM154 1901h120l52 -263h-47z" />
<glyph unicode="&#xcd;" horiz-adv-x="319" d="M-115 0l308 1452h135l-308 -1452h-135zM305 1692l164 262h119l-236 -262h-47z" />
<glyph unicode="&#xce;" horiz-adv-x="319" d="M-104 0l309 1456h135l-309 -1456h-135zM72 1597l237 248h187l135 -248h-74l-158 218l-258 -218h-69z" />
<glyph unicode="&#xcf;" horiz-adv-x="319" d="M-100 0l309 1456h135l-309 -1456h-135zM109 1698l24 121h117l-25 -121h-116zM477 1698l25 121h116l-24 -121h-117z" />
<glyph unicode="&#xd0;" horiz-adv-x="1298" d="M-63 0l311 1466h348q272 0 409.5 -90t188.5 -262q55 -178 12 -383q-29 -141 -110 -280q-80 -137 -195 -238q-117 -102 -256 -158q-92 -37 -145 -45q-53 -10 -242 -10h-321zM98 131h199q150 0 244 25q78 18 155 61q49 25 125 88q147 135 226 363h-834zM240 786h835 q29 240 -76 381q-45 63 -112 103q-57 35 -131 53q-53 10 -209 10h-193z" />
<glyph unicode="&#xd1;" horiz-adv-x="1390" d="M-96 0l301 1415l856 -1055l233 1098h125l-301 -1417l-860 1044l-231 -1085h-123zM518 1649l12 57q68 68 162 68q68 0 152 -45q86 -51 139 -52q70 0 145 54l-14 -62q-74 -61 -158 -61q-66 0 -137 39l-35 20q-63 35 -118 35q-51 0 -101 -25q-20 -8 -47 -28z" />
<glyph unicode="&#xd2;" horiz-adv-x="1556" d="M47 721q68 319 305 526q242 207 533 207q297 0 448 -207q154 -213 86 -522q-68 -317 -307 -520q-242 -205 -547 -205q-289 0 -436 205q-150 207 -82 516zM182 721q-53 -254 68 -422q125 -168 356 -168q233 0 432 174q190 168 248 424q53 248 -69.5 418t-352.5 170 q-244 0 -436 -168q-191 -168 -246 -428zM743 1868h121l51 -262h-47z" />
<glyph unicode="&#xd3;" horiz-adv-x="1556" d="M37 719q68 322 307 526q238 207 530 207q297 0 449 -207t88 -522q-68 -315 -309 -518q-238 -205 -545 -205q-293 0 -436 205q-150 201 -84 514zM172 719q-53 -252 70 -420q121 -168 354 -168q231 0 432 172q195 170 248 424q53 250 -70 418q-123 170 -352 170 q-242 0 -434.5 -168t-247.5 -428zM891 1692l164 262h119l-236 -262h-47z" />
<glyph unicode="&#xd4;" horiz-adv-x="1556" d="M49 721q68 322 307 526q240 209 533 209t446 -209q156 -211 88 -522q-68 -315 -309.5 -520t-546.5 -205q-289 0 -436 205q-145 205 -82 516zM184 721q-53 -252 70 -420q121 -170 354.5 -170t431.5 174q195 170 248 424q53 250 -69 418q-123 170 -353 170 q-242 0 -434.5 -168t-247.5 -428zM639 1593l240 248h186l135 -248h-74l-159 217l-256 -217h-72z" />
<glyph unicode="&#xd5;" horiz-adv-x="1556" d="M59 721q68 322 306 528q244 209 532 209q295 0 449 -209q154 -211 86 -524t-308 -520q-242 -205 -546 -205q-289 0 -437 205q-150 207 -82 516zM195 721q-53 -250 67 -420q123 -170 356.5 -170t432.5 174q193 170 247 424q53 250 -69.5 420t-351.5 170q-246 0 -435 -168 q-192 -168 -247 -430zM600 1628l12 58q68 68 162 67q68 0 152 -45q86 -51 139 -51q70 0 145 53l-14 -61q-74 -61 -158 -62q-66 0 -137 39l-35 21q-63 35 -121 34q-49 0 -98 -24q-37 -21 -47 -29z" />
<glyph unicode="&#xd6;" horiz-adv-x="1556" d="M63 723q68 322 308 526q240 211 532 211q295 0 447 -211q154 -205 86 -522q-63 -313 -308 -522q-242 -205 -546 -205q-289 0 -437 205q-150 207 -82 518zM199 723q-53 -252 67 -422q123 -170 356.5 -170t432.5 174q193 172 248 426q53 252 -70 418q-123 172 -352 172 q-244 0 -435 -170q-192 -168 -247 -428zM668 1593l26 121h117l-27 -121h-116zM1036 1593l27 121h117l-27 -121h-117z" />
<glyph unicode="&#xd7;" horiz-adv-x="960" d="M35 276l368 324l-213 299l101 88l213 -299l362 320l58 -80l-365 -320l215 -297l-102 -88l-213 297l-367 -321z" />
<glyph unicode="&#xd8;" horiz-adv-x="1556" d="M94 727q68 322 307 530q240 211 533 211q49 0 119 -10l6 12h78l-15 -28q168 -55 258 -185q156 -211 88 -526q-68 -313 -309 -524q-242 -205 -547 -205q-57 0 -149 14l-25 -53h-78l35 74q-143 63 -219 170q-150 211 -82 520zM229 727q-53 -256 68 -424q55 -74 160 -133 l534 1151q-49 8 -78 8q-242 0 -436 -170q-193 -168 -248 -432zM526 150q70 -14 127 -15q238 0 430 174q193 170 250 426q53 254 -69 422q-70 96 -203 152z" />
<glyph unicode="&#xd9;" horiz-adv-x="1300" d="M2 383q-4 82 33 262l174 813h135l-174 -815q-47 -219 -16 -313q27 -90 112 -148q86 -55 217 -55q184 0 326 111q78 59 123 143q49 92 84 262l174 815h135l-174 -815q-35 -162 -78 -256q-49 -100 -82 -141q-43 -55 -100 -101q-186 -145 -434 -145q-256 0 -377 145 q-37 47 -55 101q-19 49 -23 137zM625 1823h120l52 -262h-47z" />
<glyph unicode="&#xda;" horiz-adv-x="1300" d="M-12 383q-4 80 32 260l175 811h135l-174 -813q-47 -217 -17 -311q27 -90 113 -148q86 -55 217 -55q184 0 326 111q78 57 123 141q49 90 83 262l175 813h135l-174 -813q-35 -166 -78 -254q-37 -86 -82 -143q-43 -51 -98 -99q-190 -145 -435 -145q-258 0 -378 145 q-35 41 -56 99q-18 49 -22 139zM702 1692l164 262h119l-235 -262h-48z" />
<glyph unicode="&#xdb;" horiz-adv-x="1300" d="M-2 383q-4 86 35 260l172 815h135l-174 -817q-45 -223 -16 -311q27 -90 112 -148q86 -55 217 -55q184 0 326 111q76 57 123 141q47 86 84 262l174 817h135l-174 -817q-35 -166 -78 -254q-41 -92 -82 -141q-33 -47 -98 -101q-190 -145 -434 -145q-256 0 -379 145 q-37 47 -56 101q-20 55 -22 137zM485 1608l240 247h186l136 -247h-74l-160 217l-258 -217h-70z" />
<glyph unicode="&#xdc;" horiz-adv-x="1300" d="M12 383q-4 90 35 262l174 817h135l-174 -819q-47 -219 -18 -311q31 -96 115 -150q86 -55 215 -55q186 0 327 111q80 63 123 143t84 262l174 819h135l-174 -819q-35 -166 -78 -254q-45 -94 -81 -143q-47 -57 -101 -99q-184 -147 -434 -147q-256 0 -379 147q-33 43 -55 99 q-21 59 -23 137zM543 1593l26 121h117l-27 -121h-116zM911 1593l27 121h117l-27 -121h-117z" />
<glyph unicode="&#xdd;" horiz-adv-x="1333" d="M164 1452h162l311 -625l575 625h158l-688 -715l-156 -737h-139l156 737zM741 1692l164 262h119l-236 -262h-47z" />
<glyph unicode="&#xde;" horiz-adv-x="991" d="M-61 -2l307 1436h121l-64 -293q188 47 250 47q201 0 295 -135q92 -137 45 -367q-45 -215 -176 -352q-133 -133 -285 -133q-170 0 -303 123l-70 -326h-120zM154 436q49 -53 124.5 -81.5t135.5 -28.5q127 0 231 106q98 106 131 264q35 158 -26 265q-63 104 -195 104 q-145 0 -276 -37z" />
<glyph unicode="&#xdf;" horiz-adv-x="1191" d="M-61 8l206 977q47 217 109.5 344t157.5 201q160 125 372 125q178 0 274.5 -108.5t55.5 -301.5q-23 -106 -88 -188q-209 -86 -242 -238q-14 -66 7.5 -118t78.5 -130q78 -109 101 -163q39 -102 14 -215q-37 -172 -172 -277.5t-330 -105.5h-237l24 114h222q129 0 218 71 t113 179q18 86 -4 151.5t-80 139.5q-25 33 -40 52.5t-34.5 50t-26.5 51t-17.5 53.5t-7.5 56.5t8 62.5q39 186 284 296q43 74 56 136q31 145 -32 230t-194 85q-168 0 -279.5 -132t-170.5 -411l-209 -987h-137z" />
<glyph unicode="&#xe0;" horiz-adv-x="829" d="M6 274q10 53 51 115q33 49 86 94q49 39 117 64q63 25 131 24h203l8 37q18 96 -12 164q-31 70 -109 74q-76 2 -133 -8q-4 -2 -24.5 -7.5t-30.5 -9.5l-8 92q2 0 10 5l18 6q14 4 44 12t44 12q35 8 105 8q59 0 106 -26q49 -31 76 -72q66 -100 39 -225l-133 -633h-164l33 -43 l20 92q-86 -45 -108 -49q-53 -16 -109 -16q-70 0 -121 24q-45 18 -88 64q-33 39 -49 92q-12 59 -2 110zM129 274q-8 -43 2 -69q8 -35 31 -58q20 -20 53 -36q29 -12 76 -13q84 0 153 49q41 37 56 58q25 33 30 71l39 181h-204q-43 0 -78 -13q-78 -31 -127 -98q-21 -27 -31 -72 zM416 1401h121l51 -266h-47z" />
<glyph unicode="&#xe1;" horiz-adv-x="829" d="M4 274q12 55 51 115q29 47 86 92q51 41 117 66q57 23 131 22h203l8 39q18 94 -12 164q-33 72 -109 74q-82 2 -133 -10q-14 -4 -55 -17l-8 92q2 2 5 4.5t5 2.5q10 0 18 6q49 12 88 24q39 6 104.5 6t106.5 -26q49 -29 76 -72q66 -98 39 -223l-133 -633h-164l33 -43l20 92 q-86 -45 -108 -49q-53 -16 -109 -16q-68 0 -121 24q-45 18 -88 64q-33 35 -49 92q-14 57 -2 110zM127 205q12 -37 32.5 -57.5t53.5 -36.5q29 -12 76 -13q84 0 153 49q35 27 56 58q25 33 30 71l39 181h-205q-45 0 -77 -15q-78 -29 -127 -96q-25 -33 -31 -72q-8 -40 0 -69z M444 1155l166 266h119l-235 -266h-50z" />
<glyph unicode="&#xe2;" horiz-adv-x="829" d="M2 274q12 55 51 115q29 47 86 92q47 39 117 66q63 23 131 22h203l8 39q18 94 -12 164q-33 72 -109 74q-92 0 -133 -10q-16 -4 -55 -17l-8 92q2 2 5 2t5 2l18 7q57 16 88 24q35 8 105 8q66 0 106 -26q47 -27 76 -72q66 -96 39 -225l-133 -631h-164l33 -43l20 92 q-86 -45 -108 -49q-53 -16 -109 -16q-70 0 -121 24q-45 18 -88 64q-33 39 -49 92q-14 57 -2 110zM125 205q12 -37 32.5 -57.5t53.5 -36.5q29 -12 76 -13q84 0 153 49q35 27 56 58q25 33 30 71l39 181h-205q-45 0 -77 -15q-82 -33 -127 -98q-23 -29 -31 -69.5t0 -69.5z M227 1190l240 250h188l133 -250h-73l-158 217l-258 -217h-72z" />
<glyph unicode="&#xe3;" horiz-adv-x="829" d="M10 274q12 57 49 117q37 53 88 92q59 45 115 64q66 25 133 24h203l8 39q18 94 -12 164q-33 72 -109 74q-92 0 -133 -10q-16 -2 -55 -17l-8 92q2 0 5 2.5t5 2.5q12 4 18 8q20 4 51 12t38 10q35 8 104 8q66 0 106 -26q47 -27 76 -72q66 -98 39 -225l-135 -633h-164l35 -43 l18 92q-84 -43 -106 -49q-55 -16 -109 -16q-68 0 -123 24q-49 20 -86 64q-37 41 -49 94q-14 57 -2 108zM133 205q14 -39 33 -58q20 -20 53 -36q29 -12 74 -13q88 0 153 49q37 29 58 58q20 27 31 71l38 181h-204q-45 0 -78 -13q-78 -31 -127 -98q-25 -33 -31 -72 q-10 -34 0 -69zM215 1241l12 59q70 68 162 68q70 0 152 -47q90 -49 139 -49q70 0 145 53l-14 -61q-76 -63 -158 -64q-66 0 -137 41l-35 19q-63 35 -119 34q-57 0 -100 -24q-20 -9 -47 -29z" />
<glyph unicode="&#xe4;" horiz-adv-x="829" d="M18.5 276.5q12.5 59.5 49.5 114.5q31 47 86 92q47 39 116 66q66 25 131 24h203l8 37q20 94 -10 166q-35 72 -110 74q-90 0 -132 -10q-8 -2 -57 -17l-6 92q4 4 10 5q12 4 19 8q35 8 88 24q37 6 102 6q68 0 109 -26q49 -29 75 -72q66 -102 39 -225l-135 -635h-164l33 -43 l21 92q-88 -45 -107 -49q-55 -16 -111 -16q-66 0 -120 24q-47 20 -88 64q-35 41 -48 94q-14 51 -1.5 110.5zM141 205q8 -29 33 -58q20 -20 53 -36q27 -12 74 -13q88 0 154 52q31 23 55 55q23 31 33 74l37 180h-205q-45 0 -78 -15q-80 -33 -125 -98q-25 -33 -31 -70 q-10 -36 0 -71zM305 1176l27 122h117l-27 -122h-117zM674 1176l26 122h117l-26 -122h-117z" />
<glyph unicode="&#xe5;" horiz-adv-x="829" d="M2 274q12 55 51 115q29 47 86 92q51 41 117 66q63 23 131 22h203l8 39q18 94 -12 164q-35 72 -109 74q-92 0 -133 -10q-8 -2 -57 -17l-6 92q2 2 4 2q4 2 6 2l18 7q68 20 88 24q33 8 105 8q59 0 106 -26.5t76 -71.5q66 -96 39 -225l-133 -631h-164l33 -43l20 92 q-86 -45 -108 -49q-55 -16 -109 -16q-70 0 -121 24q-51 20 -88 64q-33 35 -49 92q-14 57 -2 110zM125 205q12 -37 32.5 -57.5t53.5 -36.5q29 -12 76 -13q84 0 153 49q35 27 56 58q25 33 30 71l39 181h-205q-47 0 -77 -15q-82 -33 -127 -98q-23 -29 -31 -69.5t0 -69.5z M377 1255q14 80 75.5 133.5t129.5 53.5q66 0 104 -56q37 -49 21 -131q-14 -72 -78 -129q-55 -53 -125 -53q-72 0 -107 53q-36 51 -20 129zM412 1255q-12 -59 14 -100q33 -45 84 -45q53 0 102.5 43t61.5 102.5t-19 102.5q-33 43 -84 43t-100 -43q-45 -37 -59 -103z" />
<glyph unicode="&#xe6;" horiz-adv-x="1460" d="M49 297q12 57 51 117q37 55 86 94q47 39 117 65q66 25 131 25h203l8 39q20 96 -10 168q-33 72 -109 74q-82 2 -133 -11q-16 -4 -55 -16l-8 94q2 0 5 2t5 4q8 0 18 6q14 4 44 12.5t44 12.5q35 8 105 8q63 0 106 -26q59 -37 97 -109l43 14q-2 -2 -6 -20q152 150 323 149 q180 0 248 -129q59 -113 2 -387h-631l-12 -61q-12 -113 49 -201q72 -96 209 -96q160 0 315 94l-24 -119q-82 -49 -160 -75q-80 -25 -184 -25q-137 0 -211 63q-2 2 -6 7.5t-18 18.5l-34 34l-22 -105h-121l10 48q-76 -39 -106 -50q-55 -16 -111 -16q-66 0 -121 25 q-45 18 -88 65q-35 41 -47 94q-12 60 -2 113zM172 225q12 -37 33 -57q18 -23 53 -39q27 -12 74 -12q88 0 153 51q31 20 58 57q25 33 30 74l39 182h-204q-43 0 -78 -12q-80 -31 -127 -100q-25 -33 -31 -72q-10 -37 0 -72zM756 598h520q12 96 5 135t-34 78q-49 76 -157.5 76 t-194.5 -74q-33 -29 -51.5 -49.5t-43 -63.5t-44.5 -102z" />
<glyph unicode="&#xe7;" horiz-adv-x="1064" d="M-51 -483l28 53q59 -25 113 -25q55 0 103.5 26t60.5 89q12 59 -30 91t-120 44l123 164h64l-107 -133q92 -12 134 -53t30 -103q-37 -182 -272 -182q-70 0 -127 29zM147 485q43 207 201 346q158 137 354 138q193 0 291 -138q45 -68 58 -141h-133q-12 33 -31 60 q-72 102 -219 102q-141 0 -256 -102q-111 -100 -146 -263q-33 -156 37 -258t217 -102q139 0 260 104q39 33 66 74h133q-51 -94 -135 -166q-156 -135 -355 -135q-190 0 -288 139q-99 133 -54 342z" />
<glyph unicode="&#xe8;" horiz-adv-x="933" d="M45 221q-29 106 2 256q45 221 184 354q133 133 308 134q176 0 247 -127q59 -109 7 -379h-635q-14 -109 -5 -158t46 -100q72 -94 209 -95q158 0 315 93l-25 -117q-88 -53 -159 -74q-76 -25 -185 -24q-137 0 -209 61q-71 63 -100 176zM182 571h520q12 94 5 132t-33 77 q-49 74 -158 74q-113 0 -194 -74q-47 -39 -78 -81t-62 -128zM432 1401h121l49 -266h-45z" />
<glyph unicode="&#xe9;" horiz-adv-x="933" d="M41 221q-29 115 4 256q45 217 184 354q137 133 308 134q176 0 247 -127q59 -109 7 -379h-635q-14 -109 -5 -159t46 -99q70 -94 209 -95q160 0 315 93l-25 -117q-86 -53 -159 -74q-78 -25 -185 -24q-137 0 -209 61q-69 61 -102 176zM180 569h520q12 96 6 133t-34 78 q-49 74 -157.5 74t-197 -74t-137.5 -211zM500 1155l166 266h118l-237 -266h-47z" />
<glyph unicode="&#xea;" horiz-adv-x="933" d="M39 219q-29 117 4 258q45 217 184 354q133 131 308 132q178 0 247 -127q59 -106 6 -377h-634q-14 -109 -5 -159t46 -99q70 -94 208 -95q158 0 316 93l-25 -117q-86 -53 -159 -74q-76 -25 -185 -24q-137 0 -209 61q-69 61 -102 174zM178 569h520q12 94 5 132t-33 77 q-49 76 -158 76q-106 0 -197 -74q-88 -74 -137 -211zM225 1190l240 250h186l135 -250h-73l-160 217l-258 -217h-70z" />
<glyph unicode="&#xeb;" horiz-adv-x="933" d="M55 221q-29 113 2 258q49 221 187 357q133 131 307 131q178 0 248 -127q61 -113 4 -379h-633q-14 -109 -5 -158t46 -100q68 -96 209 -97q158 0 313 95l-24 -119q-72 -45 -158 -74q-80 -25 -184 -24q-141 0 -211 63q-74 68 -101 174zM193 573h522q10 96 4 132t-33 77 q-51 76 -159.5 76t-194.5 -74q-47 -43 -76.5 -84t-62.5 -127zM342 1176l27 122h116l-26 -122h-117zM711 1176l26 122h117l-27 -122h-116z" />
<glyph unicode="&#xec;" d="M-57 0l202 946h117l-203 -946h-116zM106 1401h121l52 -266h-48z" />
<glyph unicode="&#xed;" d="M-59 0l200 946h117l-201 -946h-116zM211 1155l166 266h119l-238 -266h-47z" />
<glyph unicode="&#xee;" d="M-61 0l200 946h117l-201 -946h-116zM-2 1190l240 250h186l135 -250h-74l-157 217l-258 -217h-72z" />
<glyph unicode="&#xef;" d="M-66 0l203 944h117l-203 -944h-117zM39 1352l27 123h116l-26 -123h-117zM408 1352l26 123h117l-27 -123h-116z" />
<glyph unicode="&#xf1;" horiz-adv-x="880" d="M-115 0l201 948h121l-31 -145q76 78 137.5 115.5t92 43t86.5 5.5q98 0 153 -43q57 -49 74 -121q18 -70 -21 -256l-116 -547h-117l117 545q31 162 2 237q-33 82 -148 82q-145 0 -280 -164l-150 -700h-121zM211 1241l12 59q68 68 162 68q70 0 152 -47q90 -49 139 -49 q70 0 145 53l-14 -61q-78 -63 -158 -64q-66 0 -137 41l-35 19q-66 35 -121 34.5t-98 -24.5q-20 -9 -47 -29z" />
<glyph unicode="&#xf2;" horiz-adv-x="1083" d="M45 481q45 211 203 346q162 139 354 140q195 0 289 -140q96 -135 53 -352q-47 -207 -201 -342q-154 -133 -356 -133q-188 0 -289 137q-96 137 -53 344zM166 483q-35 -156 37 -258q70 -102 217 -102q143 0 260 104q113 98 147 258q31 156 -41 260q-74 104 -219 105 q-141 0 -256 -105q-114 -102 -145 -262zM492 1401h120l52 -266h-48z" />
<glyph unicode="&#xf3;" horiz-adv-x="1083" d="M43 481q45 211 203 346q156 137 352 138q193 0 291 -138q96 -135 53 -352q-47 -207 -203 -342q-152 -133 -354 -133q-188 0 -289 137q-96 137 -53 344zM162 483q-33 -154 39 -258q70 -102 217 -102q143 0 260 104q113 98 147 258q31 158 -43 260q-70 104 -219 105 q-137 0 -254 -105q-112 -100 -147 -262zM557 1155l166 266h119l-238 -266h-47z" />
<glyph unicode="&#xf4;" horiz-adv-x="1083" d="M41 481q47 211 203 346q156 137 352 138q193 0 291 -138q96 -135 53 -352q-47 -207 -203 -342q-152 -133 -354 -133q-188 0 -289 137q-96 137 -53 344zM160 483q-31 -158 39 -258q70 -102 217 -102q141 0 260 102q113 100 147 260q31 156 -42.5 260.5t-219.5 104.5 q-137 0 -254 -105q-112 -100 -147 -262zM338 1190l240 250h186l135 -250h-74l-157 217l-258 -217h-72z" />
<glyph unicode="&#xf5;" horiz-adv-x="1083" d="M49 483q47 211 203 346q156 137 352 138q193 0 291 -138q96 -139 51 -354q-43 -207 -201 -342q-154 -133 -354 -133q-188 0 -289 137q-96 133 -53 346zM168 485q-33 -156 37 -260q70 -102 219 -102q141 0 258 104q115 100 149 260q31 154 -43 261q-74 104 -219 104 q-139 0 -256 -107q-110 -98 -145 -260zM319 1241l13 59q68 68 162 68q70 0 151 -47q90 -49 139 -49q70 0 146 53l-15 -61q-78 -63 -157 -64q-66 0 -137 41l-35 19q-66 35 -121 34.5t-98 -24.5q-21 -9 -48 -29z" />
<glyph unicode="&#xf6;" horiz-adv-x="1083" d="M57 483q43 209 203 348q156 137 352 138q193 0 291 -138q96 -139 51 -354q-43 -207 -200 -342q-154 -135 -355 -135q-193 0 -288 139q-99 135 -54 344zM176 485q-33 -156 37 -260q70 -102 217 -102q143 0 260 104q113 100 148 260q35 156 -41 263q-76 104 -219 104 q-139 0 -256 -106q-111 -99 -146 -263zM399 1176l25 122h117l-25 -122h-117zM768 1176l25 122h116l-24 -122h-117z" />
<glyph unicode="&#xf7;" horiz-adv-x="1071" d="M78 580l26 122h887l-26 -122h-887zM379 164l27 125h116l-26 -125h-117zM557 995l27 125h116l-26 -125h-117z" />
<glyph unicode="&#xf8;" horiz-adv-x="1083" d="M88 492q45 209 203 344q158 137 354 137q27 0 68 -4l135 291h78l-144 -308q104 -47 152 -116q98 -139 53 -351q-41 -203 -201 -342q-154 -133 -354 -133q-25 0 -82 8l-123 -266h-77l131 283q-86 45 -138 112q-98 136 -55 345zM209 494q-33 -156 37 -261q31 -43 92 -77 l324 702h-52q-139 0 -256 -104q-114 -104 -145 -260zM403 133h60q141 0 260 103q115 102 147.5 259.5t-41.5 258.5q-29 37 -98 84z" />
<glyph unicode="&#xf9;" horiz-adv-x="878" d="M10 143q-18 74 21 258l114 545h117l-115 -543q-37 -170 -4 -239q33 -78 150 -78q143 0 282 162l148 698h117l-201 -946h-117l41 188q-135 -135 -211 -170q-70 -35 -139 -34q-78 0 -131 41q-58 46 -72 118zM430 1401h121l49 -266h-45z" />
<glyph unicode="&#xfa;" horiz-adv-x="878" d="M6 143q-16 74 23 258l114 545h117l-115 -543q-37 -170 -4 -239q33 -78 150 -78q143 0 282 162l148 698h117l-201 -946h-117l41 188q-139 -137 -211 -170q-70 -35 -139 -34q-78 0 -131 41q-58 46 -74 118zM430 1155l166 266h119l-238 -266h-47z" />
<glyph unicode="&#xfb;" horiz-adv-x="878" d="M6 143q-18 72 21 258l114 545h117l-115 -543q-37 -170 -4 -239q33 -78 150 -78q143 0 282 162l148 698h117l-201 -946h-117l41 188q-135 -135 -211 -170q-70 -35 -139 -34q-78 0 -131 41q-58 44 -72 118zM225 1190l240 250h186l135 -250h-73l-160 217l-258 -217h-70z" />
<glyph unicode="&#xfc;" horiz-adv-x="878" d="M20 143q-16 80 21 260l117 547h116l-116 -544q-37 -170 -4 -242q33 -76 151 -76q143 0 281 162l149 700h117l-201 -950h-116l38 190q-133 -135 -208 -172q-72 -35 -140 -34q-78 0 -133 43q-54 44 -72 116zM324 1176l26 122h117l-27 -122h-116zM692 1176l27 122h117 l-27 -122h-117z" />
<glyph unicode="&#xfd;" horiz-adv-x="1001" d="M-55 -494l440 693l-172 753h135l131 -614l385 614h133l-919 -1446h-133zM567 1159l164 262h119l-236 -262h-47z" />
<glyph unicode="&#xfe;" horiz-adv-x="991" d="M-113 -492l410 1926h121l-107 -502q188 47 250 47q201 0 295 -133q92 -135 45 -363q-45 -215 -176 -348q-129 -131 -285 -131q-166 0 -301 121l-131 -617h-121zM164 236q47 -53 122.5 -81t135.5 -28q133 0 231 104q96 100 131 261q35 158 -26 262q-63 104 -195 104 q-145 0 -276 -37z" />
<glyph unicode="&#xff;" horiz-adv-x="1001" d="M-41 -494l438 695l-170 753h135l132 -614l383 614h133l-920 -1448h-131zM393 1178l27 120h117l-27 -120h-117zM762 1178l26 120h117l-26 -120h-117z" />
<glyph unicode="&#x152;" horiz-adv-x="2203" d="M90 727q72 326 307 530q242 211 533 211q297 0 448 -211q29 -45 82 -137l74 348h715l-29 -133h-580l-147 -700h561l-29 -131h-561l-78 -371h599l-29 -133h-733l73 344q-135 -131 -141 -137q-244 -207 -547 -207q-289 0 -436 207q-150 207 -82 520zM225 727 q-53 -254 68 -424q123 -170 356.5 -170t431.5 174q193 170 248 428q53 254 -67 422q-125 172 -353 172q-242 0 -436 -170q-193 -172 -248 -432z" />
<glyph unicode="&#x153;" horiz-adv-x="1742" d="M92 498q45 213 203 354q160 141 354 141q190 0 291 -143q14 -23 51 -100q66 86 94 114q135 135 310 135q178 0 250 -129q57 -117 2 -387h-637q-12 -111 -2 -160t45 -102q72 -96 207 -96q160 0 315 94l-25 -119q-84 -51 -157 -75q-80 -25 -187 -25q-139 0 -209 63 q-61 51 -106 193q-66 -76 -103 -111q-158 -137 -356 -137q-193 0 -289 139q-96 142 -51 351zM211 500q-35 -160 37 -262q72 -104 217 -105q143 0 260 105q113 104 147 264q33 156 -38 266q-74 106 -220 106q-143 0 -256 -106q-112 -104 -147 -268zM1036 598h523 q12 96 4.5 135t-33.5 78q-47 76 -160 76q-109 0 -194 -74q-33 -29 -51.5 -49.5t-43.5 -63.5t-45 -102z" />
<glyph unicode="&#x178;" horiz-adv-x="1333" d="M193 1460h161l310 -629l577 629h158l-688 -719l-158 -741h-139l157 741zM541 1575l26 121h117l-27 -121h-116zM909 1575l27 121h117l-27 -121h-117z" />
<glyph unicode="&#x2c6;" horiz-adv-x="808" d="M90 1139l252 301h186l125 -301h-73l-150 262l-268 -262h-72z" />
<glyph unicode="&#x2dc;" horiz-adv-x="776" d="M80 1202l16 78q76 88 166 88q68 0 148 -59q4 -2 17 -13.5t18.5 -14.5t17.5 -11t19 -11.5t18.5 -7.5t23 -6t23.5 -2q70 0 149 68l-18 -82q-80 -82 -162 -82q-66 0 -133 51l-35 27q-59 45 -119 45q-49 0 -100 -33q-22 -10 -49 -35z" />
<glyph unicode="&#x2000;" horiz-adv-x="976" />
<glyph unicode="&#x2001;" horiz-adv-x="1953" />
<glyph unicode="&#x2002;" horiz-adv-x="976" />
<glyph unicode="&#x2003;" horiz-adv-x="1953" />
<glyph unicode="&#x2004;" horiz-adv-x="651" />
<glyph unicode="&#x2005;" horiz-adv-x="487" />
<glyph unicode="&#x2006;" horiz-adv-x="325" />
<glyph unicode="&#x2007;" horiz-adv-x="325" />
<glyph unicode="&#x2008;" horiz-adv-x="243" />
<glyph unicode="&#x2009;" horiz-adv-x="389" />
<glyph unicode="&#x200a;" horiz-adv-x="108" />
<glyph unicode="&#x2010;" horiz-adv-x="1069" d="M74 532l37 177h884l-37 -177h-884z" />
<glyph unicode="&#x2011;" horiz-adv-x="1069" d="M74 532l37 177h884l-37 -177h-884z" />
<glyph unicode="&#x2012;" horiz-adv-x="1069" d="M74 532l37 177h884l-37 -177h-884z" />
<glyph unicode="&#x2013;" horiz-adv-x="987" d="M74 532l37 177h802l-36 -177h-803z" />
<glyph unicode="&#x2014;" horiz-adv-x="1540" d="M74 532l37 177h1355l-36 -177h-1356z" />
<glyph unicode="&#x2018;" horiz-adv-x="333" d="M39 1024l35 162l200 330h11l-160 -357h59l-28 -135h-117z" />
<glyph unicode="&#x2019;" horiz-adv-x="333" d="M49 1126l160 357h-59l28 135h117l-35 -156l-201 -336h-10z" />
<glyph unicode="&#x201a;" horiz-adv-x="333" d="M49 -307l160 356h-59l28 135h117l-35 -155l-201 -336h-10z" />
<glyph unicode="&#x201c;" horiz-adv-x="538" d="M39 1024l35 162l200 330h11l-160 -357h59l-28 -135h-117zM244 1024l35 162l200 330h10l-159 -357h59l-29 -135h-116z" />
<glyph unicode="&#x201d;" horiz-adv-x="538" d="M49 1126l160 357h-59l28 135h117l-35 -156l-201 -336h-10zM254 1126l160 357h-60l29 135h117l-35 -156l-201 -336h-10z" />
<glyph unicode="&#x201e;" horiz-adv-x="333" d="M49 -307l160 356h-59l28 135h117l-35 -155l-201 -336h-10z" />
<glyph unicode="&#x2022;" horiz-adv-x="700" d="M92 698q27 121 120 205t199.5 84t165 -85t31.5 -204q-27 -121 -120 -204.5t-199.5 -83.5t-165 84.5t-31.5 203.5z" />
<glyph unicode="&#x2026;" d="M74 0l37 178h116l-37 -178h-116z" />
<glyph unicode="&#x202f;" horiz-adv-x="389" />
<glyph unicode="&#x2039;" horiz-adv-x="593" d="M98 649l381 481h101l-379 -481l174 -485h-103z" />
<glyph unicode="&#x203a;" horiz-adv-x="593" d="M14 164l381 483l-176 483h103l174 -483l-381 -483h-101z" />
<glyph unicode="&#x2044;" horiz-adv-x="1312" d="M-51 -82l1347 1589h68l-1348 -1589h-67z" />
<glyph unicode="&#x205f;" horiz-adv-x="487" />
<glyph unicode="&#x20ac;" horiz-adv-x="1165" d="M63 567l11 49h123l14 66l33 131h-129l10 47h137q94 250 254 389q203 176 438 176q133 0 240 -57l-43 -84q-98 49 -213 49q-180 0 -334 -131q-121 -106 -215 -342h606l-10 -47h-614q-12 -37 -35 -125l-14 -72h622l-10 -49h-615q-14 -240 60 -346q94 -141 293 -141 q125 0 256 59l4 -82q-135 -74 -301 -73q-256 0 -373 188q-90 145 -65 395h-130z" />
<glyph unicode="&#x2122;" horiz-adv-x="2656" d="M1207 0l303 1427l477 -591l729 591l-303 -1427h-123l231 1090l-579 -461l-381 463l-232 -1092h-122zM221 1337l27 133h1081l-26 -133h-478l-284 -1337h-135l284 1337h-469z" />
<glyph unicode="&#xe000;" horiz-adv-x="965" d="M0 965h965v-965h-965v965z" />
<glyph unicode="&#xfb01;" horiz-adv-x="999" d="M63 0l177 829h-129l24 115h129l19 92q51 238 159 342q106 109 222 109q43 0 98 -12l-27 -127q-25 6 -51 6q-123 0 -186 -78q-59 -68 -99 -240l-18 -92h162l-25 -115h-162l-176 -829h-117zM633 0l201 944h116l-200 -944h-117zM893 1225l27 123h116l-26 -123h-117z" />
<glyph unicode="&#xfb02;" horiz-adv-x="999" d="M63 0l177 829h-129l24 115h129l19 92q51 238 159 342q106 109 222 109q43 0 98 -12l-27 -127q-25 6 -51 6q-123 0 -186 -78q-59 -68 -99 -240l-18 -92h162l-25 -115h-162l-176 -829h-117zM633 0l311 1468h117l-311 -1468h-117z" />
<glyph unicode="&#xfb03;" horiz-adv-x="1697" d="M1346 0l201 948h116l-200 -948h-117zM1606 1229l27 125h116l-26 -125h-117zM761 0l177 829h-129l24 115h129l19 92q51 238 159 342q106 109 222 109q43 0 98 -12l-27 -127q-25 6 -51 6q-123 0 -186 -78q-59 -68 -99 -240l-18 -92h162l-25 -115h-162l-176 -829h-117zM63 0 l177 829h-129l24 115h129l19 92q51 238 159 342q106 109 222 109q43 0 98 -12l-27 -127q-25 6 -51 6q-123 0 -186 -78q-59 -68 -99 -240l-18 -92h162l-25 -115h-162l-176 -829h-117z" />
<glyph unicode="&#xfb04;" horiz-adv-x="1697" d="M1334 0l311 1468h117l-312 -1468h-116zM761 0l177 829h-129l24 115h129l19 92q51 238 159 342q106 109 222 109q43 0 98 -12l-27 -127q-25 6 -51 6q-123 0 -186 -78q-59 -68 -99 -240l-18 -92h162l-25 -115h-162l-176 -829h-117zM63 0l177 829h-129l24 115h129l19 92 q51 238 159 342q106 109 222 109q43 0 98 -12l-27 -127q-25 6 -51 6q-123 0 -186 -78q-59 -68 -99 -240l-18 -92h162l-25 -115h-162l-176 -829h-117z" />
</font>
</defs>
</svg>
