<?xml version="1.0" standalone="no"?>
<!DOCTYPE svg PUBLIC "-//W3C//DTD SVG 1.1//EN" "http://www.w3.org/Graphics/SVG/1.1/DTD/svg11.dtd" >
<svg xmlns="http://www.w3.org/2000/svg">
<metadata>
This is a custom SVG webfont generated by Font Squirrel.
Copyright   : Copyright  2012 by Tony Thomas All rights reserved
Designer    : Tony Thomas
Foundry     : MediaLoot
Foundry URL : httpwwwmedialootcom
</metadata>
<defs>
<font id="AwakeBoldItalic" horiz-adv-x="301" >
<font-face units-per-em="2048" ascent="1526" descent="-522" />
<missing-glyph horiz-adv-x="778" />
<glyph unicode=" "  horiz-adv-x="778" />
<glyph unicode="&#x09;" horiz-adv-x="778" />
<glyph unicode="&#xa0;" horiz-adv-x="778" />
<glyph unicode="!" horiz-adv-x="372" d="M-90 0l47 221h231l-47 -221h-231zM-8 293l203 1212h303l-314 -1212h-192z" />
<glyph unicode="&#x22;" horiz-adv-x="567" d="M6 1024l80 485h231l-124 -485h-187zM272 1024l80 485h232l-125 -485h-187z" />
<glyph unicode="#" horiz-adv-x="1327" d="M-41 406l45 215h227l119 286h-284l45 215h329l170 410h213l-172 -410h320l168 410h215l-172 -410h184l-45 -215h-225l-119 -286h283l-46 -215h-325l-168 -406h-215l170 406h-320l-168 -406h-215l168 406h-182zM444 621h322l117 286h-320z" />
<glyph unicode="$" horiz-adv-x="876" d="M-111 -6l50 231h282l96 449l-22 16q-123 94 -164 178q-41 86 -18 207q39 174 180 287q80 63 190 92l27 127h229l-24 -111h235l-47 -231h-235l-90 -416l28 -20q219 -166 168 -408q-37 -182 -176 -291q-86 -72 -192 -96l-37 -172h-230l33 158h-283zM348 1104 q-16 -63 35 -125l47 229q-72 -41 -82 -104zM459 260l6 4q59 41 76 113q12 66 -29 131z" />
<glyph unicode="%" horiz-adv-x="1378" d="M-45 0l1249 1505h211l-1249 -1505h-211zM123 1157q27 139 147 244q119 100 256 100q135 0 211 -100q74 -96 45 -244q-33 -143 -147 -237q-119 -104 -254 -105q-137 0 -213 105q-76 100 -45 237zM317 1157q-12 -55 19 -98q31 -39 84 -39q55 0 102 39q49 47 62 98 q12 57 -21 100q-31 39 -84 39q-55 0 -102 -39q-48 -41 -60 -100zM594 344q31 141 145 238q121 102 258.5 102t210.5 -102q78 -100 47 -238q-31 -141 -147.5 -239.5t-253.5 -98.5q-141 0 -215 98q-76 101 -45 240zM792.5 342q-12.5 -57 16.5 -98q31 -41 84 -41q57 0 102 39 q47 41 60 100q12 57 -17 96q-33 41 -86 41q-55 0 -100 -39q-47 -41 -59.5 -98z" />
<glyph unicode="&#x26;" horiz-adv-x="1349" d="M-33 244q-18 80 4 180q14 76 58 139q47 68 100 113q49 45 127 90t117 63q-4 8 -14.5 25.5t-16.5 26.5q-18 33 -31 71q-10 31 -16 80q-4 45 6 88q14 76 57 142q45 66 105 108q121 94 276 94q74 0 135 -20q63 -23 105 -66q39 -39 59 -108q16 -57 0 -152q-16 -68 -47 -117 q-63 -104 -180 -182q-61 -37 -94 -53l141 -219q2 6 10.5 22.5t10.5 22.5q20 41 51 125h229q-29 -92 -80 -199q-41 -80 -102 -153l217 -336h-324l-90 141q-86 -80 -196 -127q-111 -43 -240 -43q-205 0 -309 111q-48 51 -68 133zM229 420q-23 -109 27 -160q47 -53 141 -53 q55 0 105 16q72 23 135 82l37 37l-211 340l51 -8l-18 -10q-12 -8 -39 -20.5t-41 -18.5q-94 -47 -146 -111q-29 -39 -41 -94zM539 1075.5q4 -18.5 20 -55.5q18 -37 29 -53l13 -19.5l13 -19.5q8 6 26.5 16t29.5 17q82 59 108 100q18 27 25 65q14 61 -15 103q-25 39 -83 39 q-55 0 -105 -37q-47 -35 -59 -98q-6 -39 -2 -57.5z" />
<glyph unicode="'" d="M6 1024l80 485h231l-124 -485h-187z" />
<glyph unicode="(" horiz-adv-x="618" d="M23 104q-37 231 12 474q51 238 188 475q133 225 420 516h170q-184 -213 -276 -361q-82 -127 -148 -303q-59 -162 -96 -334q-119 -549 104 -981h-174l-26 48q-104 195 -119 231q-32 90 -55 235z" />
<glyph unicode=")" horiz-adv-x="616" d="M-195 -410q199 240 283 375q94 162 143 301q57 158 95 318q35 174 39 340q6 170 -21 313t-121 332h172l27 -47q12 -23 34.5 -64t32.5 -61q41 -78 50 -103q37 -100 57 -237q37 -233 -14 -477q-55 -246 -174 -453q-59 -104 -144 -217q-84 -104 -289 -320h-170z" />
<glyph unicode="*" horiz-adv-x="872" d="M-4 1094l270 133l-209 135l133 149l181 -133l41 215h202l-51 -215l240 131l74 -149l-273 -133l215 -133l-137 -150l-184 137l-39 -221h-203l49 215l-235 -131z" />
<glyph unicode="+" horiz-adv-x="1071" d="M12 483l47 217h392l84 400h217l-84 -400h391l-47 -217h-391l-84 -401h-218l84 401h-391z" />
<glyph unicode="," horiz-adv-x="333" d="M-25 -307l146 282h-45l45 209h229l-45 -209h-45l55 29l-219 -311h-121z" />
<glyph unicode="-" horiz-adv-x="1069" d="M16 532l39 177h998l-39 -177h-998z" />
<glyph unicode="." d="M16 0l39 178h230l-39 -178h-230z" />
<glyph unicode="/" horiz-adv-x="657" d="M-131 -164l727 1507h192l-727 -1507h-192z" />
<glyph unicode="0" horiz-adv-x="1003" d="M35 731q72 330 244 539q174 215 389 215q203 0 286 -217q82 -211 15 -533q-72 -330 -242 -536q-174 -215 -385 -215q-213 0 -297 211q-80 206 -10 536zM262 350q33 -131 129 -131q94 0 182 131q90 133 144 377q51 242 20 385q-29 131 -119 131h-8q-96 0 -184 -131 q-92 -133 -145 -379q-52 -242 -19 -383z" />
<glyph unicode="1" d="M-121 0l314 1468h229l-313 -1468h-230z" />
<glyph unicode="2" horiz-adv-x="989" d="M-123 0l10 47l111 109q203 197 395 417q147 170 201 256q51 86 70 166q25 111 -23 176q-43 63 -141 64q-78 0 -160 -45q-84 -47 -225 -203l73 352q213 147 387 148q188 0 287 -133q94 -127 51 -332q-20 -92 -69 -188q-55 -109 -154 -230q-121 -152 -336 -358h494 l-53 -246h-918z" />
<glyph unicode="3" horiz-adv-x="843" d="M-104 90l59 281q156 -121 301 -121q86 0 150 51q66 55 86 145q14 76 -19 132q-18 31 -45 47q-45 18 -141 28l-37 4l49 234h37q117 0 190 51q68 45 88 139q14 82 -28 136q-47 53 -144 53q-98 0 -280 -86l53 250q152 72 301 71q199 0 291 -110q94 -111 55 -297 q-20 -106 -86 -195q-55 -66 -127 -108q49 -33 70 -70q31 -53 37 -120.5t-11 -149.5q-43 -201 -196 -326q-154 -129 -346 -129q-168 0 -307 90z" />
<glyph unicode="4" horiz-adv-x="1208" d="M-23 467l27 123l893 897h119l-170 -797h315l-47 -223h-315l-101 -467h-241l100 467h-580zM383 690h221l62 291z" />
<glyph unicode="5" horiz-adv-x="901" d="M-102 94l57 273q156 -125 289 -125q111 0 205 69q90 68 110 166q23 100 -45 168q-68 70 -197 70q-125 0 -204 -35l172 807h684l-51 -234h-443l-65 -309h18q207 4 315 -131q109 -137 66 -336q-47 -213 -207 -344q-160 -133 -375 -133q-173 0 -329 94z" />
<glyph unicode="6" horiz-adv-x="966" d="M-12 535q37 172 137 348q111 186 250 323q141 141 352 279l45 28l109 -194q-193 -115 -328 -240q-104 -100 -182 -227q90 33 178 33q174 0 264 -127q90 -123 53 -307q-39 -186 -196 -318q-156 -133 -340 -133q-199 0 -299 150q-92 143 -43 385zM223 485q-23 -113 25 -180 q43 -70 137 -69q80 0 150 59q66 55 83 149q20 94 -24 150q-45 55 -141 55q-55 0 -95 -16q-39 -12 -108 -53q-13 -38 -27 -95z" />
<glyph unicode="7" horiz-adv-x="1007" d="M-86 0l807 1241h-580l54 244h948l-957 -1485h-272z" />
<glyph unicode="8" horiz-adv-x="995" d="M-33 432q47 215 250 336q-55 66 -78 133q-25 76 -2 180q37 170 191 297q156 125 340 125q182 0 280 -123q100 -123 64 -299q-39 -184 -219 -313q145 -119 98 -338q-39 -184 -197 -307q-154 -123 -354 -123q-197 0 -303 123q-107 125 -70 309zM219 440q-18 -86 31 -141 q47 -57 143 -57q90 0 164 51q70 49 84 129l4 20q20 82 -29 142q-49 53 -145 53q-94 0 -164 -53q-70 -56 -88 -144zM381 1075q-16 -78 31 -133q45 -57 123 -57q76 0 145.5 57t83.5 131q16 80 -27 135q-43 53 -125 54q-84 0 -149 -54q-64 -49 -82 -133z" />
<glyph unicode="9" horiz-adv-x="974" d="M86 176q197 117 334 252q113 109 178 225q-84 -33 -182 -32q-170 0 -260 129q-92 131 -54 307q37 184 193 315t338 131q207 0 305 -153q96 -152 47 -389q-59 -266 -272 -535q-217 -268 -514 -434zM348 1059q-18 -82 29 -144q49 -59 131 -59q96 0 203 64q20 51 30 94 q25 111 -20 184q-45 70 -135 70q-82 0 -152 -60q-68 -61 -86 -149z" />
<glyph unicode=":" d="M-63 84l47 217h229l-47 -217h-229zM88 803l47 217h230l-48 -217h-229z" />
<glyph unicode=";" horiz-adv-x="333" d="M-104 -225l147 301h-43l47 221h229l-47 -221h-45l54 30l-224 -331h-118zM137 803l47 221h230l-47 -221h-230z" />
<glyph unicode="&#x3c;" horiz-adv-x="1073" d="M14 545l43 203l1094 432l-49 -234l-780 -301l651 -303l-49 -233z" />
<glyph unicode="=" horiz-adv-x="1069" d="M-33 328l45 211h998l-45 -211h-998zM59 760l45 211h998l-45 -211h-998z" />
<glyph unicode="&#x3e;" horiz-adv-x="1073" d="M-78 109l49 233l781 303l-652 301l50 234l909 -432l-43 -203z" />
<glyph unicode="?" horiz-adv-x="763" d="M72 0l43 205h213l-43 -205h-213zM131 285l31 143q20 186 209 360q94 88 138 144.5t56 114.5q31 145 -139 145q-111 4 -238 -76l-30 174q158 96 346 96q178 0 256 -93t47 -226q-20 -96 -84 -177t-176 -183q-139 -129 -172 -279l-31 -143h-213z" />
<glyph unicode="@" horiz-adv-x="1474" d="M25 369q47 219 180 399q143 190 319 281q180 92 391 92q274 0 416 -170q143 -168 88 -430q-27 -133 -119 -262q-96 -131 -213 -207q-129 -82 -245 -82q-88 0 -127 39q-10 14 -17 30q-31 -20 -53 -30q-74 -37 -141 -37q-131 0 -195 110q-57 102 -26 252q25 121 106 236 q82 117 184 186q113 76 218 76q102 0 161 -61l19 40h229q-115 -274 -244 -579q-4 -8 -7 -16.5t-5 -12.5l-4 -8q-2 -4 -2 -6q29 4 82 43q76 59 123 131q51 76 69 162q33 168 -61 278q-100 113 -287 113q-221 0 -397 -154q-178 -154 -231 -399q-49 -233 61 -358 q111 -127 369 -127q156 0 272 51q55 25 98 51q53 33 99 84l20 22h234l-54 -73q-66 -94 -184 -178q-113 -80 -248 -123q-125 -39 -282 -39q-338 0 -500 180q-162 183 -96 496zM510 344q-14 -70 8 -113q20 -37 53 -36q61 0 146 86q82 90 110 217q16 76 -6 116q-20 35 -65 35 q-59 0 -135 -84q-86 -98 -111 -221z" />
<glyph unicode="A" horiz-adv-x="1462" d="M-133 0l921 1468h173l323 -1468h-256l-106 467h-506l-293 -467h-256zM563 698h307l-82 369z" />
<glyph unicode="B" horiz-adv-x="1058" d="M-121 0l314 1468h487q166 0 262 -57q98 -53 137 -145q23 -51 23 -114q0 -43 -10 -91q-31 -150 -148 -250q-49 -43 -115 -78q53 -33 82 -76q52 -74 52 -167q0 -39 -9 -82q-27 -119 -102 -205q-76 -92 -197 -146q-123 -57 -286 -57h-490zM176 227h166q154 0 213 25 q59 23 94 70q45 51 53 102q4 22 5 41q0 36 -15 63q-23 47 -76 72q-61 23 -200 23h-156zM307 846h158q137 0 209 22q63 25 106 70q43 49 56 106q3 15 2 31q0 35 -13 72q-20 49 -65 70q-49 25 -201 24h-168z" />
<glyph unicode="C" horiz-adv-x="1517" d="M35 727q68 319 321 530q252 209 574 209q319 0 487 -209q96 -117 119 -303h-264q-27 84 -66 133q-109 141 -319 142q-219 0 -387 -142q-172 -145 -217 -360q-14 -62 -14 -118q0 -136 81 -236q111 -141 320 -142q211 0 385 144q66 57 123 139h268q-109 -193 -254 -307 q-260 -207 -584 -207q-313 0 -477 207q-116 149 -116 348q0 82 20 172z" />
<glyph unicode="D" horiz-adv-x="1298" d="M-121 0l314 1466h403q281 0 436 -90q150 -88 211 -264q36 -102 36 -216q0 -80 -17 -165q-31 -147 -115 -280q-86 -139 -205 -237.5t-276 -158.5q-92 -35 -156 -45q-76 -10 -252 -10h-379zM176 229h143q135 0 228 21q72 18 139 51q53 29 109 74q168 143 217 368 q13 61 13 116q0 138 -81 239q-47 57 -100 84q-53 29 -119 43q-45 10 -199 10h-135z" />
<glyph unicode="E" horiz-adv-x="917" d="M-121 0l314 1468h827l-49 -231h-580l-115 -539h560l-50 -231h-559l-51 -236h598l-49 -231h-846z" />
<glyph unicode="F" horiz-adv-x="851" d="M-121 0l314 1468h780l-49 -231h-533l-115 -539h533l-49 -231h-533l-100 -467h-248z" />
<glyph unicode="G" horiz-adv-x="1525" d="M35 727q68 319 321 530q252 209 574 209q319 0 487 -209q98 -125 119 -311h-264q-23 86 -66 139q-113 143 -319 144q-219 0 -387 -142q-172 -143 -217 -360q-13 -61 -13 -116q0 -138 80 -238q111 -141 320 -142q211 0 385 144q33 25 86 92h-291l49 231h584l-47 -221 q-23 -49 -95.5 -131t-148.5 -139q-270 -207 -584 -207q-311 0 -477 207q-116 146 -116 346q0 82 20 174z" />
<glyph unicode="H" horiz-adv-x="1282" d="M-121 0l314 1468h247l-131 -612h717l131 612h246l-313 -1468h-246l131 616h-717l-131 -616h-248z" />
<glyph unicode="I" horiz-adv-x="319" d="M-121 0l314 1468h247l-313 -1468h-248z" />
<glyph unicode="J" horiz-adv-x="710" d="M-172 -496l47 230q195 2 311 90q63 45 101 110q37 70 71 230l277 1304h248l-277 -1304q-33 -160 -78 -254q-35 -76 -90 -146q-53 -63 -110 -106q-207 -154 -500 -154z" />
<glyph unicode="K" horiz-adv-x="1284" d="M-121 0l314 1468h247l-137 -639l674 639h309l-766 -733l608 -735h-337l-529 631l-135 -631h-248z" />
<glyph unicode="L" horiz-adv-x="825" d="M-121 0l314 1468h247l-262 -1235h506l-51 -233h-754z" />
<glyph unicode="M" horiz-adv-x="1390" d="M-123 0l318 1501l532 -600l786 600l-317 -1501h-235l198 940l-504 -377l-344 377l-198 -940h-236z" />
<glyph unicode="N" horiz-adv-x="1390" d="M-121 0l320 1501l872 -983l203 950h237l-319 -1501l-877 975l-200 -942h-236z" />
<glyph unicode="O" horiz-adv-x="1556" d="M35 727q70 324 321 530q258 211 574 211q319 0 487 -211q122 -151 122 -355q0 -81 -19 -171q-70 -319 -326 -524q-256 -207 -586 -207q-313 0 -477 207q-116 149 -116 348q0 82 20 172zM283 727q-13 -61 -13 -116q0 -136 78 -238q115 -141 322 -142q209 0 385 146 q174 145 219 358q12 60 12 115q0 139 -80 237q-115 143 -317 144q-221 0 -389 -141q-172 -144 -217 -363z" />
<glyph unicode="P" horiz-adv-x="985" d="M-121 0l314 1468h458q205 0 305 -118q70 -83 71 -202q0 -51 -13 -108q-29 -133 -113 -233q-82 -98 -207 -148q-121 -45 -317 -45h-119l-131 -614h-248zM307 844h189q109 0 178 51q68 51 88 149q6 30 6 55q0 58 -33 91q-47 47 -168 47h-176z" />
<glyph unicode="Q" horiz-adv-x="1556" d="M51 725q68 324 322 530q256 213 573 213q319 0 488 -211q122 -152 121 -357q0 -81 -19 -171q-68 -317 -326 -526q-205 -162 -452 -199l-35 -158h-236l33 156q-240 31 -373 201q-116 146 -116 347q0 83 20 175zM299 725q-13 -61 -13 -117q0 -136 79 -239q78 -98 206 -127 l27 118h236l-27 -118q143 31 262 131q174 143 219 360q13 60 13 116q0 135 -78 238q-115 143 -320 144q-215 0 -387 -141q-172 -144 -217 -365z" />
<glyph unicode="R" horiz-adv-x="985" d="M-121 0l314 1470h458q205 0 305 -118q70 -83 71 -202q0 -51 -13 -108q-29 -133 -113 -233q-82 -100 -207 -147q-102 -39 -264 -46l383 -616h-305l-285 455l-96 -455h-248zM307 846h189q111 0 178 51t88 150q6 30 6 54q0 58 -33 91q-47 47 -168 47h-176z" />
<glyph unicode="S" horiz-adv-x="876" d="M-115 0l49 229h385q84 0 140 41q61 45 78 111q3 16 3 31q0 99 -124 190l-125 90q-123 88 -164 178q-27 56 -27 125q0 39 9 82q37 176 178 283q141 111 325 110h334l-49 -231h-338q-88 0 -147 -37q-57 -35 -70 -94q-4 -15 -3 -30q0 -37 21 -72q37 -55 113 -109l127 -90 q180 -124 180 -312q0 -45 -10 -94q-39 -180 -176 -288q-137 -113 -322 -113h-387z" />
<glyph unicode="T" horiz-adv-x="1265" d="M143 1239l50 231h1193l-49 -231h-477l-264 -1239h-248l264 1239h-469z" />
<glyph unicode="U" horiz-adv-x="1300" d="M-12 399q-1 12 -1 26q0 83 31 230l175 815h247l-174 -817q-25 -114 -25 -187q0 -47 11 -77q25 -74 98 -117q78 -45 191 -45q166 0 284 88q66 49 101 111q41 74 73 227l175 817h247l-174 -817q-31 -145 -78 -252q-47 -94 -90 -145q-41 -53 -110 -104q-205 -152 -473 -152 q-279 0 -416 152q-39 43 -66 104q-24 63 -26 143z" />
<glyph unicode="V" horiz-adv-x="1335" d="M184 1468h252l191 -954l596 954h250l-969 -1509z" />
<glyph unicode="W" horiz-adv-x="1986" d="M184 1468h252l191 -954l307 490l-98 464h251l31 -163l105 163h250l-295 -458l100 -496l594 954h252l-969 -1509l-162 762l-489 -762z" />
<glyph unicode="X" horiz-adv-x="1533" d="M-147 0l765 737l-409 731h301l301 -546l530 546h301l-720 -731l448 -737h-301l-338 551l-573 -551h-305z" />
<glyph unicode="Y" horiz-adv-x="1333" d="M104 1468h306l297 -546l532 546h301l-752 -741l-155 -727h-252l156 727z" />
<glyph unicode="Z" horiz-adv-x="1357" d="M-143 0l1138 1239h-796l49 231h1253l-1139 -1241h852l-49 -229h-1308z" />
<glyph unicode="[" horiz-adv-x="589" d="M-170 -332l412 1942h518l-45 -217h-275l-321 -1508h274l-45 -217h-518z" />
<glyph unicode="\" horiz-adv-x="657" d="M188 1343h197l84 -1507h-195z" />
<glyph unicode="]" horiz-adv-x="587" d="M-170 -332l45 217h272l322 1508h-272l45 217h516l-412 -1942h-516z" />
<glyph unicode="^" horiz-adv-x="1165" d="M-98 563l798 1114l326 -1114h-246l-172 684l-461 -684h-245z" />
<glyph unicode="_" horiz-adv-x="1288" d="M20 -227l31 137h1217l-31 -137h-1217z" />
<glyph unicode="`" horiz-adv-x="456" d="M45 1401h268l88 -316h-161z" />
<glyph unicode="a" horiz-adv-x="829" d="M-2 303q14 59 57 127q39 53 103 100q59 45 135 70q74 25 151 25h146q2 15 2 28q0 38 -17 70q-20 45 -69 45h-23q-56 0 -96 -8q-16 -2 -108 -29l-19 178l47 23q6 0 12 4v2q31 6 67 16.5t46 12.5q35 8 119 8q78 0 133 -31q57 -31 92 -76q56 -80 56 -174q0 -33 -7 -67 l-133 -627h-233l2 8q-74 -25 -152 -24q-76 0 -141 24q-55 20 -105 70q-45 45 -59 100q-11 34 -11 73q0 25 5 52zM233 303q-2 -10 -1 -18q0 -13 4 -23q4 -16 22 -35q14 -14 41 -24q18 -8 53 -8q68 0 115 32q23 16 39 35q14 20 16 41l25 111h-150q-33 0 -55 -8 q-57 -18 -90 -64q-13 -19 -19 -39z" />
<glyph unicode="b" horiz-adv-x="991" d="M-119 0l314 1468h233l-113 -528q135 63 285 64q184 0 270 -142q54 -89 54 -212q0 -69 -17 -148q-49 -238 -217 -377q-170 -141 -395 -141q-47 0 -178 28l-2 -12h-234zM164 227q90 -23 207 -22q104 0 190 80q84 78 113 209q11 46 11 88q0 68 -30 123q-43 76 -147 75 q-49 0 -120 -19.5t-122 -53.5z" />
<glyph unicode="c" horiz-adv-x="1064" d="M35 475q47 215 221 352q174 141 393 142q215 0 330 -142q68 -82 78 -219h-240q-23 51 -39 70q-61 78 -184 78q-115 0 -209 -78q-92 -76 -117 -201q-8 -37 -8 -69q0 -75 43 -129q57 -76 182 -76q117 0 213 78q33 27 72 81h242q-76 -154 -185 -241q-174 -137 -395 -137 q-215 0 -328 141q-82 99 -81 238q0 53 12 112z" />
<glyph unicode="d" horiz-adv-x="991" d="M-12 502q45 217 190 358q143 143 332 144q150 0 258 -64l113 528h233l-313 -1468h-234l2 12q-137 -29 -188 -28q-229 0 -338 141q-71 95 -71 235q0 66 16 142zM217 494q-9 -42 -9 -80q0 -75 36 -129q49 -80 155 -80q117 0 217 22l103 480q-39 35 -101.5 54t-111.5 19 q-102 0 -178 -75q-80 -76 -111 -211z" />
<glyph unicode="e" horiz-adv-x="933" d="M37 487q47 219 199 357q152 139 352 139q203 0 291 -135q40 -65 39 -177q0 -89 -25 -208l-8 -47h-631q-1 -10 -1 -21q0 -66 46 -123q57 -70 174 -69q168 0 381 139l-51 -244q-104 -59 -201 -90q-82 -25 -203 -24q-156 0 -241 67q-84 66 -119 178q-17 58 -17 125 q0 63 15 133zM305 625h393q0 5 1 10q0 47 -33 90q-39 51 -123 51q-86 0 -150 -51q-63 -49 -88 -100z" />
<glyph unicode="f" horiz-adv-x="698" d="M6 0l164 768h-129l45 217h129l8 29q51 240 172 352q125 121 269 121q59 0 151 -23l-51 -239q-70 31 -100 30q-90 0 -136 -49q-47 -53 -75 -192l-9 -29h162l-45 -217h-162l-163 -768h-230z" />
<glyph unicode="g" horiz-adv-x="901" d="M-53 -193q37 168 205 244q-69 29 -69 97q0 9 1 18q8 55 68 100q39 29 69 41q-110 78 -109 210q0 38 9 81q39 180 174 274q131 92 323 93h400l-45 -213h-152q6 -14 23 -68q6 -21 5 -46q0 -30 -7 -67q-14 -78 -78 -155q-63 -80 -135 -119q-78 -39 -230 -64q-82 -12 -90 -45 q0 -14 21 -28q10 -8 61 -19q14 -4 48 -11t48 -11q143 -37 191 -62q37 -18 72 -67q34 -48 33 -117q0 -32 -7 -68q-31 -141 -166 -231q-129 -84 -315 -84q-188 0 -281 84q-75 66 -75 167q1 31 8 66zM154 -195q-3 -13 -3 -24q0 -40 32 -64q42 -31 153 -30q96 0 162 32 q55 33 63 80q2 9 2 17q0 42 -45 69q-61 39 -178 39q-74 0 -125 -35q-51 -33 -61 -84zM332 588q-3 -17 -4 -32q0 -41 24 -71q33 -39 101 -39q61 0 114 41q53 45 66 103q4 19 4 35q0 40 -25 69q-35 41 -100 41q-66 0 -117 -43q-51 -41 -63 -104z" />
<glyph unicode="h" horiz-adv-x="880" d="M-182 0l313 1468h234l-113 -526q86 59 237 59q115 0 181 -49q72 -51 92 -133q8 -30 8 -73q0 -74 -25 -187l-118 -559h-230l119 557q15 68 15 117q0 45 -13 74q-23 49 -106 49q-111 0 -215 -113l-146 -684h-233z" />
<glyph unicode="i" d="M-109 0l209 981h230l-209 -981h-230zM133 1130l47 224h230l-48 -224h-229z" />
<glyph unicode="j" horiz-adv-x="434" d="M-143 -322q96 35 139 84.5t55 116.5l236 1100h229l-235 -1100q-53 -258 -287 -377zM317 1130l50 224h229l-49 -224h-230z" />
<glyph unicode="k" horiz-adv-x="944" d="M-121 0l314 1468h229l-180 -845l393 360h276l-505 -479l380 -504h-309l-284 389l-84 -389h-230z" />
<glyph unicode="l" d="M-121 0l314 1468h229l-313 -1468h-230z" />
<glyph unicode="m" horiz-adv-x="1431" d="M-70 0l207 967h230l-11 -49q96 68 213 67q156 0 222 -133q160 135 342 135q76 0 149.5 -27.5t106.5 -78.5q41 -61 40 -162q0 -67 -18 -152l-121 -567h-229l121 569q11 49 11 87q0 47 -17 75q-25 49 -101 49q-94 0 -203 -96l-145 -684h-229l114 537q16 80 16 133 q0 41 -10 65q-23 49 -108 49q-51 0 -94 -22q-49 -25 -111 -80l-145 -682h-230z" />
<glyph unicode="n" horiz-adv-x="880" d="M-131 0l207 967h233l-10 -41q86 59 238 59q117 0 182 -49q68 -49 92 -131q8 -29 8 -71q0 -72 -24 -183l-117 -551h-229l116 549q15 67 15 114q0 44 -13 72q-23 49 -108 49q-109 0 -213 -110l-144 -674h-233z" />
<glyph unicode="o" horiz-adv-x="1083" d="M35 492q47 215 221 352q174 141 393 141q215 0 330 -141q81 -100 81 -239q0 -57 -13 -120q-47 -209 -220 -348q-174 -137 -395 -137q-215 0 -328 141q-82 99 -81 239q0 53 12 112zM268 494q-8 -37 -8 -70q0 -75 43 -129q57 -76 182 -76q117 0 213 78q92 76 119 199 q7 33 7 63q0 78 -46 135q-61 78 -184 78q-115 0 -209 -78q-92 -75 -117 -200z" />
<glyph unicode="p" horiz-adv-x="991" d="M-123 -492l313 1469h234l-2 -12q137 29 188 28q225 0 334 -143q75 -96 75 -237q0 -64 -15 -138q-47 -221 -191 -360q-150 -143 -332 -144q-145 0 -258 66l-112 -529h-234zM272 270q39 -35 101.5 -54t109.5 -19q104 0 181 75q80 80 110 211q9 42 9 80q0 75 -35 129 q-49 80 -156 80q-117 0 -217 -22z" />
<glyph unicode="q" horiz-adv-x="991" d="M84 475q49 238 215 375q170 143 397 143q47 0 178 -28l3 12h233l-313 -1469h-234l113 529q-141 -66 -285 -66q-184 0 -270 146q-53 91 -53 214q0 67 16 144zM317 483q-11 -48 -10 -90q0 -69 29 -121q47 -76 145 -75q49 0 121 19.5t123 53.5l102 480q-90 23 -206 22 q-104 0 -191 -80q-84 -78 -113 -209z" />
<glyph unicode="r" horiz-adv-x="659" d="M-70 0l207 969h240l-8 -33q98 49 192 49h168l-45 -207h-166q-100 0 -194 -59l-72 -338l-82 -381h-240z" />
<glyph unicode="s" horiz-adv-x="733" d="M-70 0l43 207h312q47 0 88 22q35 20 39 47q6 29 -9 50q-29 33 -92 73q-154 96 -196 174q-28 52 -29 111q0 26 6 53q25 119 129 193q104 72 242 71h295l-43 -206h-283q-47 0 -74 -17q-25 -14 -30 -41q-4 -23 12 -43q20 -27 84 -65l55 -37q177 -121 177 -262q0 -24 -5 -47 q-29 -127 -139.5 -205t-255.5 -78h-326z" />
<glyph unicode="t" horiz-adv-x="849" d="M39 778l512 445l-49 -232h286l-45 -213h-286l-92 -430q-6 -29 -7 -51q0 -82 82 -82q88 0 246 84l-49 -229q-133 -70 -262 -70q-135 0 -207 80q-25 29 -33 55q-10 23 -14 80q-1 6 -1 14q0 52 25 162l82 387h-188z" />
<glyph unicode="u" horiz-adv-x="878" d="M8 160q-10 30 -9 75q0 72 24 181l118 551h230l-117 -549q-16 -74 -17 -123q0 -42 13 -66q25 -45 110 -45q111 0 215 111l144 672h229l-207 -967h-229l18 82q-137 -98 -270 -98q-96 0 -162 47q-70 47 -90 129z" />
<glyph unicode="v" horiz-adv-x="989" d="M131 967h250l115 -525l327 525h252l-684 -1020z" />
<glyph unicode="w" horiz-adv-x="1566" d="M131 967h246l110 -516l322 516h168l100 -514l328 514h248l-684 -1020l-156 641l-432 -641z" />
<glyph unicode="x" horiz-adv-x="1126" d="M-94 0l504 489l-299 478h290l191 -301l307 301h295l-492 -478l314 -489h-295l-203 313l-323 -313h-289z" />
<glyph unicode="y" horiz-adv-x="1001" d="M-92 -494l465 701l-197 760h260l121 -492l322 492h256l-973 -1461h-254z" />
<glyph unicode="z" horiz-adv-x="911" d="M-86 0l631 748h-432l47 219h837l-635 -748h457l-47 -219h-858z" />
<glyph unicode="{" horiz-adv-x="690" d="M12 489l47 218q86 0 136 30q45 31 75 94q27 57 70 246q47 209 78 293q27 74 88 137q51 53 119 78q53 20 163 21h80l-45 -209h-55q-90 0 -121 -31q-37 -37 -61 -158l-33 -149q-29 -137 -68 -228q-39 -94 -94 -149q-43 -47 -112 -84q80 -53 100 -141q25 -109 -23 -322 l-30 -147q-27 -125 -7 -158q23 -31 109 -31h57l-45 -209h-82q-104 0 -155 23q-55 20 -84 80q-33 57 -29 137q4 84 47 287q37 188 35 250q-4 61 -41 90q-35 32 -119 32z" />
<glyph unicode="|" horiz-adv-x="276" d="M-172 -328l416 1962h205l-416 -1962h-205z" />
<glyph unicode="}" horiz-adv-x="690" d="M-178 -410l45 209h55q90 0 125 31q31 31 57 158l31 147q45 209 117 320q55 88 160 143q-49 35 -72 72q-66 104 -8 389l33 149q27 127 8 158t-111 31h-57l45 209h82q104 0 155 -23q53 -20 82 -78q35 -66 31 -139q-4 -94 -45 -289q-37 -180 -37 -246q2 -63 37 -94 q37 -31 123 -30l-47 -218q-82 0 -133 -32q-51 -29 -80 -95q-35 -76 -70 -245q-55 -242 -76 -289q-27 -74 -88 -137q-57 -59 -116 -80q-53 -20 -166 -21h-80z" />
<glyph unicode="~" horiz-adv-x="1126" d="M-8 418l53 252q147 123 326 123q121 0 338 -99q55 -25 112 -24q111 0 314 161l-56 -262q-158 -117 -321 -116q-113 0 -240 57q-6 2 -37.5 16.5t-44 18.5t-38 13t-47 12t-44.5 3q-61 0 -117 -22q-46 -18 -198 -133z" />
<glyph unicode="&#xa1;" horiz-adv-x="372" d="M-125 -389l313 1212h193l-203 -1212h-303zM184 895l47 221h232l-47 -221h-232z" />
<glyph unicode="&#xa2;" horiz-adv-x="925" d="M35 729q43 205 191.5 350.5t353.5 184.5l45 211h186l-43 -205q115 -8 225 -62l-98 -188q-106 63 -227 63q-143 0 -252 -98t-142 -250q-33 -158 36 -248t206 -90q127 0 275 64l6 -182q-119 -55 -254 -70l-45 -209h-187l45 213q-178 23 -270 149q-100 134 -51 367z" />
<glyph unicode="&#xa3;" horiz-adv-x="1015" d="M-131 0l287 612h-136l50 230h196q92 195 201 344q121 170 235 241q121 76 230 76h209l-54 -241h-165q-96 0 -189 -91q-96 -92 -205 -299l-18 -30h145l-49 -230h-211l-159 -344h624l-57 -268h-934z" />
<glyph unicode="&#xa4;" horiz-adv-x="1392" d="M-70 266l275 221q-39 104 -15 222q25 123 117 233l-186 223l194 156l185 -223q139 76 299 76q158 0 260 -72l276 219l127 -156l-276 -221q41 -98 14 -223q-31 -137 -113 -234l185 -219l-195 -155l-180 219q-135 -78 -301 -78q-162 0 -266 76l-273 -217zM422 711 q-29 -131 39.5 -202t173.5 -71q111 0 207 70t127 211q23 113 -32.5 191.5t-184.5 78.5q-123 0 -214 -78.5t-116 -199.5z" />
<glyph unicode="&#xa5;" horiz-adv-x="1232" d="M2 332l43 198h408l18 86h-408l43 203h318l-242 721h252l176 -539q18 -55 31 -104q63 88 82 113l387 530h268l-549 -721h316l-43 -203h-402l-18 -86h401l-43 -198h-401l-70 -332h-229l70 332h-408z" />
<glyph unicode="&#xa6;" horiz-adv-x="276" d="M-172 -328l182 865h205l-182 -865h-205zM61 770l183 864h205l-183 -864h-205z" />
<glyph unicode="&#xa7;" horiz-adv-x="882" d="M-125 -246l45 211h313q53 0 86 23q35 20 41 47q6 31 -10 49q-23 31 -90 76q-63 43 -110 80h-21l2 14q-43 41 -68 82q-41 78 -22 168q29 123 131 194q80 59 184 72q-29 29 -39 49q-43 78 -22 170q25 119 131 195q104 74 240 73h299l-45 -210h-287q-43 0 -74 -19 q-20 -12 -27 -39q-6 -20 13 -45q20 -27 80 -65l55 -39q209 -139 172 -314q-29 -127 -139 -207q-80 -57 -166 -71q76 -96 51 -207q-25 -127 -139 -207q-109 -80 -256 -80h-328zM276 504q-4 -25 13 -45l4 -2l4 -4l4 -4h186q45 0 84 24q35 20 41 47q6 25 -4 41h-227 q-45 0 -74 -16q-25 -14 -31 -41z" />
<glyph unicode="&#xa8;" horiz-adv-x="669" d="M16 1296l39 179h230l-39 -179h-230zM385 1296l39 179h229l-39 -179h-229z" />
<glyph unicode="&#xa9;" horiz-adv-x="1556" d="M35 707q70 324 321 530q254 209 574 209q322 0 487 -209q170 -213 103 -526q-66 -315 -326 -525q-256 -207 -586 -206q-313 0 -477 206q-164 212 -96 521zM283 707q-47 -213 67 -355q111 -141 320 -141q211 0 385 143.5t219 360.5q43 215 -68 352q-113 141 -319 141 q-219 0 -387 -141q-172 -145 -217 -360zM397 708.5q35 161.5 170 272.5q129 109 299 109q166 0 252 -111q39 -49 68 -197h-225l-9 21q-37 86 -137 86q-72 0 -129 -49q-57 -51 -76 -131q-18 -78 21 -127q39 -47 114 -47q80 0 134 47q27 20 41 43l16 26h221l-27 -53 q-53 -100 -131 -162q-133 -109 -301 -108q-162 0 -247 110q-89 109 -54 270.5z" />
<glyph unicode="&#xaa;" horiz-adv-x="829" d="M-2 303q14 59 57 127q39 53 103 100q59 45 135 70q74 25 151 25h146q8 55 -15 98q-20 45 -69 45q-72 2 -119 -8q-16 -2 -108 -29l-19 178l47 23q6 0 12 4v2q31 6 67 16.5t46 12.5q35 8 119 8q78 0 133 -31q57 -31 92 -76q76 -109 49 -241l-133 -627h-233l2 8 q-74 -25 -152 -24q-76 0 -141 24q-55 20 -105 70q-45 45 -59 100q-18 57 -6 125zM233 303q-4 -25 3 -41q4 -16 22 -35q14 -14 41 -24q18 -8 53 -8q68 0 115 32q23 16 39 35q14 20 16 41l25 111h-150q-33 0 -55 -8q-57 -18 -90 -64q-13 -19 -19 -39z" />
<glyph unicode="&#xab;" horiz-adv-x="901" d="M33 649l413 481h236l-416 -481l209 -485h-233zM340 649l414 481h235l-416 -481l209 -485h-233z" />
<glyph unicode="&#xac;" horiz-adv-x="1263" d="M45 625l43 206h1192l-104 -495h-228l62 289h-965z" />
<glyph unicode="&#xad;" horiz-adv-x="1069" d="M16 532l39 177h998l-39 -177h-998z" />
<glyph unicode="&#xae;" horiz-adv-x="862" d="M35 1133q35 166 170 274q137 109 305 109q170 0 262 -109q90 -109 53 -272q-35 -166 -170 -271q-139 -106 -311 -106q-168 0 -254 106q-90 111 -55 269zM188 1133q-23 -104 33 -168q53 -66 157.5 -66t188.5 68q84 66 109 170q20 100 -35 170q-53 66 -156 65 q-106 0 -190 -65q-82 -63 -107 -174zM262 946l86 408h148q63 0 96 -35q31 -37 18 -98q-6 -31 -35 -72q-23 -27 -69 -49l-8 -2l100 -152h-168l-29 43l-8 -43h-131zM449 1208h8l16 2q4 4 4 13q2 6 -1 8t-15 2h-6z" />
<glyph unicode="&#xaf;" horiz-adv-x="1069" d="M16 1448l39 176h998l-39 -176h-998z" />
<glyph unicode="&#xb0;" horiz-adv-x="733" d="M35 1325q31 135 147 231q115 96 254 97q133 0 213 -97q76 -94 47 -231q-29 -133 -143.5 -227t-255.5 -94q-137 0 -213 94t-49 227zM235.5 1325q-12.5 -55 18.5 -94q33 -39 82 -39q55 0 102 39q47 37 60 94q12 55 -21 94q-31 37 -86 37q-49 0 -98 -37q-45 -39 -57.5 -94z " />
<glyph unicode="&#xb1;" horiz-adv-x="1071" d="M-109 0l46 219h999l-45 -219h-1000zM49 741l45 220h391l86 405h217l-86 -405h392l-45 -220h-392l-88 -405h-217l88 405h-391z" />
<glyph unicode="&#xb2;" horiz-adv-x="989" d="M-123 0l10 47l111 109q203 197 395 417q147 170 201 256q51 86 70 166q25 111 -23 176q-43 63 -141 64q-78 0 -160 -45q-84 -47 -225 -203l73 352q213 147 387 148q188 0 287 -133q94 -127 51 -332q-20 -92 -69 -188q-55 -109 -154 -230q-121 -152 -336 -358h494 l-53 -246h-918z" />
<glyph unicode="&#xb3;" horiz-adv-x="843" d="M-104 90l59 281q156 -121 301 -121q86 0 150 51q66 55 86 145q14 76 -19 132q-18 31 -45 47q-45 18 -141 28l-37 4l49 234h37q117 0 190 51q68 45 88 139q14 82 -28 136q-47 53 -144 53q-98 0 -280 -86l53 250q152 72 301 71q199 0 291 -110q94 -111 55 -297 q-20 -106 -86 -195q-55 -66 -127 -108q49 -33 70 -70q31 -53 37 -120.5t-11 -149.5q-43 -201 -196 -326q-154 -129 -346 -129q-168 0 -307 90z" />
<glyph unicode="&#xb4;" horiz-adv-x="456" d="M-12 1106l225 315h266l-327 -315h-164z" />
<glyph unicode="&#xb6;" horiz-adv-x="1167" d="M109 952q23 109 77 203t149 180t252.5 135.5t360.5 49.5q264 0 373 -25l-383 -1802h-244l346 1630h-106l-346 -1630h-250l164 768q-82 2 -159 33.5t-139.5 90t-90 154.5t-4.5 213z" />
<glyph unicode="&#xb7;" d="M16 451l39 178h230l-39 -178h-230z" />
<glyph unicode="&#xb8;" horiz-adv-x="559" d="M-12 -461l84 144q76 -41 141 -41q84 0 94 47q4 18 -11 32.5t-62.5 25.5t-124.5 15l196 238h199l-113 -127q63 -18 99 -64.5t24 -111.5q-25 -109 -119 -159t-217 -50q-100 0 -190 51z" />
<glyph unicode="&#xb9;" d="M-121 0l314 1468h229l-313 -1468h-230z" />
<glyph unicode="&#xba;" horiz-adv-x="1083" d="M35 492q47 215 221 352q174 141 393 141q215 0 330 -141.5t68 -358.5q-47 -209 -220 -348q-174 -137 -395 -137q-215 0 -328 141q-112 138 -69 351zM268 494q-27 -121 35 -199q57 -76 182 -76q117 0 213 78q92 76 119 199q25 119 -39 198q-61 78 -184 78q-115 0 -209 -78 q-92 -75 -117 -200z" />
<glyph unicode="&#xbb;" horiz-adv-x="921" d="M-88 164l416 483l-209 483h233l211 -483l-416 -483h-235zM240 164l415 483l-209 483h234l211 -483l-416 -483h-235z" />
<glyph unicode="&#xbc;" horiz-adv-x="2822" d="M1591 467l27 123l893 897h119l-170 -797h315l-47 -223h-315l-101 -467h-241l100 467h-580zM1997 690h221l62 291zM145 -82l1422 1589h202l-1421 -1589h-203zM-121 0l314 1468h229l-313 -1468h-230z" />
<glyph unicode="&#xbd;" horiz-adv-x="2603" d="M1491 0l10 47l111 109q203 197 395 417q147 170 201 256q51 86 70 166q25 111 -23 176q-43 63 -141 64q-78 0 -160 -45q-84 -47 -225 -203l73 352q213 147 387 148q188 0 287 -133q94 -127 51 -332q-20 -92 -69 -188q-55 -109 -154 -230q-121 -152 -336 -358h494 l-53 -246h-918zM145 -82l1422 1589h202l-1421 -1589h-203zM-121 0l314 1468h229l-313 -1468h-230z" />
<glyph unicode="&#xbe;" horiz-adv-x="3364" d="M2134 467l27 123l893 897h119l-170 -797h315l-47 -223h-315l-101 -467h-241l100 467h-580zM2540 690h221l62 291zM688 -82l1422 1589h202l-1421 -1589h-203zM-104 90l59 281q156 -121 301 -121q86 0 150 51q66 55 86 145q14 76 -19 132q-18 31 -45 47q-45 18 -141 28 l-37 4l49 234h37q117 0 190 51q68 45 88 139q14 82 -28 136q-47 53 -144 53q-98 0 -280 -86l53 250q152 72 301 71q199 0 291 -110q94 -111 55 -297q-20 -106 -86 -195q-55 -66 -127 -108q49 -33 70 -70q31 -53 37 -120.5t-11 -149.5q-43 -201 -196 -326 q-154 -129 -346 -129q-168 0 -307 90z" />
<glyph unicode="&#xbf;" horiz-adv-x="763" d="M-45 -92q23 98 85 178t177 184q137 127 170 279l31 143h215l-31 -143q-20 -186 -213 -363q-92 -86 -135 -143t-55 -115q-14 -66 19.5 -104.5t119.5 -38.5q109 -4 235 76l33 -176q-164 -94 -348 -95q-178 0 -255 92.5t-48 225.5zM436 770l43 207h213l-43 -207h-213z" />
<glyph unicode="&#xc0;" horiz-adv-x="1462" d="M-178 0l923 1481h170l322 -1481h-256l-104 471h-506l-293 -471h-256zM518 705h309l-82 370zM580 1898h268l78 -356h-160z" />
<glyph unicode="&#xc1;" horiz-adv-x="1462" d="M-184 0l923 1481h172l320 -1481h-256l-105 471h-505l-293 -471h-256zM512 705h309l-82 370zM743 1595l234 359h266l-336 -359h-164z" />
<glyph unicode="&#xc2;" horiz-adv-x="1462" d="M-172 0l924 1479h172l321 -1479h-256l-106 471h-506l-293 -471h-256zM446 1491l347 342h241l203 -342h-213l-143 180l-226 -180h-209zM524 702h310l-82 373z" />
<glyph unicode="&#xc3;" horiz-adv-x="1462" d="M-168 0l924 1477h170l323 -1477h-256l-106 469h-506l-293 -469h-256zM481 1444l45 207q98 98 224 98q78 0 176 -47l45 -25q33 -18 71 -18q72 0 220 135l-48 -219q-111 -90 -221 -90q-78 0 -159 41q-90 47 -134 47q-35 0 -71 -19q-31 -10 -148 -110zM528 702h310l-82 371z " />
<glyph unicode="&#xc4;" horiz-adv-x="1462" d="M-160 0l922 1477h172l321 -1477h-256l-104 469h-506l-293 -469h-256zM537 702h309l-84 371zM549 1501l47 223h229l-47 -223h-229zM918 1501l47 223h229l-47 -223h-229z" />
<glyph unicode="&#xc5;" horiz-adv-x="1462" d="M-180 0l923 1481h172l320 -1481h-256l-105 471h-505l-293 -471h-256zM516 705h309l-82 370zM657 1686q20 94 99 161q80 68 172 68q90 0 141 -68q53 -66 31 -161q-18 -90 -99 -158q-74 -66 -170 -66q-92 0 -143 66q-49 66 -31 158zM805 1686q-6 -35 10 -56q16 -25 45 -24 q35 0 60 22q29 27 34 58q8 33 -10 57q-23 25 -49 24q-23 0 -57 -24q-25 -20 -33 -57z" />
<glyph unicode="&#xc6;" horiz-adv-x="2172" d="M-147 0l1517 1468h905l-49 -231h-579l-115 -541h559l-49 -229h-559l-51 -236h598l-50 -231h-944l101 467h-461l-483 -467h-340zM866 696h312l77 369z" />
<glyph unicode="&#xc7;" horiz-adv-x="1517" d="M92 721q68 322 324 534q250 211 573 211q319 0 488 -211q94 -119 116 -307h-264q-27 88 -65 137q-111 141 -318 142q-221 0 -389 -144q-172 -143 -217 -362q-47 -215 66 -359q111 -141 319 -141q215 0 385 144q68 57 125 141h266q-100 -186 -252 -311 q-262 -209 -585 -209q-313 0 -476 211q-164 209 -96 524zM291 -496l86 154q78 -45 141 -45q86 0 94 51q4 20 -10 34.5t-61 27t-125 18.5l200 254h199l-117 -137q63 -18 99.5 -67.5t21.5 -119.5q-25 -117 -120 -171t-218 -54q-104 0 -190 55z" />
<glyph unicode="&#xc8;" horiz-adv-x="917" d="M-166 0l313 1481h828l-49 -234h-580l-115 -542h560l-50 -234h-559l-51 -238h598l-49 -233h-846zM350 1901h268l78 -357h-159z" />
<glyph unicode="&#xc9;" horiz-adv-x="917" d="M-172 0l315 1481h828l-49 -234h-580l-117 -542h559l-49 -234h-559l-51 -238h598l-49 -233h-846zM444 1593l234 359h266l-336 -359h-164z" />
<glyph unicode="&#xca;" horiz-adv-x="917" d="M-160 0l314 1479h827l-49 -234h-580l-114 -540h559l-49 -234h-560l-51 -238h598l-49 -233h-846zM158 1503l346 342h241l203 -342h-213l-143 180l-227 -180h-207z" />
<glyph unicode="&#xcb;" horiz-adv-x="917" d="M-121 0l314 1475h229l-2 -7h139l2 7h230l-3 -7h230l-49 -231h-580l-113 -539h560l-52 -231h-559l-49 -236h598l-49 -231h-846z" />
<glyph unicode="&#xcc;" horiz-adv-x="319" d="M-166 0l313 1481h248l-313 -1481h-248zM43 1901h268l78 -357h-160z" />
<glyph unicode="&#xcd;" horiz-adv-x="319" d="M-172 0l315 1481h248l-315 -1481h-248zM199 1595l233 359h266l-336 -359h-163z" />
<glyph unicode="&#xce;" horiz-adv-x="319" d="M-160 0l314 1479h247l-313 -1479h-248zM-63 1503l346 342h241l203 -342h-213l-143 180l-228 -180h-206z" />
<glyph unicode="&#xcf;" horiz-adv-x="319" d="M-158 0l316 1479h248l-316 -1479h-248zM31 1595l47 224h229l-47 -224h-229zM399 1595l47 224h230l-47 -224h-230z" />
<glyph unicode="&#xd0;" horiz-adv-x="1298" d="M-121 0l314 1466h403q281 0 436 -90q150 -88 211 -264q61 -174 19 -381q-31 -147 -115 -280q-86 -139 -205 -237.5t-276 -158.5q-92 -35 -156 -45q-76 -10 -252 -10h-379zM176 229h143q135 0 228 21q72 18 139 51q53 29 109 74q115 98 176 241h-713zM305 838h719 q6 154 -80 260q-47 57 -100 84q-53 29 -119 43q-45 10 -199 10h-135z" />
<glyph unicode="&#xd1;" horiz-adv-x="1390" d="M-154 0l320 1509l872 -989l203 957h238l-322 -1510l-874 979l-201 -946h-236zM422 1468l45 207q98 98 223 99q78 0 176 -48l45 -24q35 -18 72 -19q72 0 219 136l-47 -220q-111 -90 -221 -90q-78 0 -160 41q-90 47 -133 47q-35 0 -72 -18q-30 -11 -147 -111z" />
<glyph unicode="&#xd2;" horiz-adv-x="1556" d="M-6 733q70 326 323 533q256 213 574 213q319 0 485 -213q170 -213 103 -529q-68 -319 -326 -528q-260 -209 -588 -209q-311 0 -475 209q-164 211 -96 524zM242 733q-45 -213 65 -358q111 -141 320 -142q211 0 385 146q172 143 219 362q47 213 -66 355q-113 143 -317 143 q-221 0 -389 -141q-172 -144 -217 -365zM635 1868h266l80 -357h-162z" />
<glyph unicode="&#xd3;" horiz-adv-x="1556" d="M-16 733q68 322 323.5 535t573 213t487.5 -213t102 -531q-68 -322 -327 -528q-258 -209 -586 -209q-315 0 -477 209q-164 213 -96 524zM231 733q-45 -215 68 -358q111 -141 319.5 -141.5t385.5 145.5q174 145 219 362q45 211 -66 357q-115 143 -319 143q-219 0 -387 -141 q-171 -140 -220 -367zM784 1595l234 359h266l-336 -359h-164z" />
<glyph unicode="&#xd4;" horiz-adv-x="1556" d="M-4 733q68 319 323.5 532.5t573 213.5t487.5 -213q168 -215 101 -529q-68 -319 -326 -528q-262 -209 -588 -209q-313 0 -475 209q-164 209 -96 524zM244 733q-45 -213 65 -358q111 -141 322 -142q209 0 385 146q174 145 219 360q43 215 -68 357q-113 143 -317 143 q-217 0 -389 -141q-168 -142 -217 -365zM504 1499l346 342h244l202 -342h-213l-143 180l-227 -180h-209z" />
<glyph unicode="&#xd5;" horiz-adv-x="1556" d="M0 731q68 324 324 533q256 213 573 213q322 0 487 -213q168 -211 101 -529q-66 -317 -326 -526q-258 -209 -586 -209q-315 0 -477 209q-164 211 -96 522zM248 731q-47 -215 67 -356q111 -141 320 -141.5t385 145.5q174 143 219 360q45 211 -68 355q-111 143 -317 143 q-217 0 -389 -141q-168 -142 -217 -365zM502 1448l43 207q98 98 225 98q80 0 174 -47l47 -25q31 -18 70 -18q72 0 219 135l-47 -219q-109 -90 -221 -90q-78 0 -160 41q-90 47 -133 47q-35 0 -72 -18q-30 -13 -145 -111z" />
<glyph unicode="&#xd6;" horiz-adv-x="1556" d="M8 731q68 319 324 533q260 213 573 213q317 0 487.5 -213t102.5 -529q-68 -319 -328 -526q-258 -209 -585 -209q-311 0 -476 209q-164 209 -98 522zM256 731q-43 -217 68 -356q111 -141 319 -142q211 0 385 146q174 143 219 360q45 209 -65 355q-115 143 -320 143 q-219 0 -387 -141q-170 -140 -219 -365zM590 1491l47 223h229l-47 -223h-229zM958 1491l48 223h229l-47 -223h-230z" />
<glyph unicode="&#xd7;" horiz-adv-x="960" d="M-35 319l359 281l-222 260l195 152l219 -260l354 280l125 -147l-356 -277l221 -260l-192 -153l-222 262l-360 -283z" />
<glyph unicode="&#xd8;" horiz-adv-x="1556" d="M39 727q66 317 321 530q258 211 574 211q29 0 78 -4l2 6h196l-22 -45q137 -47 233 -168q170 -211 103 -526q-68 -319 -326 -524q-260 -209 -588 -209q-39 0 -108 8l-21 -43h-194l45 90q-117 53 -197 154q-164 209 -96 520zM287 727q-45 -213 65 -354q37 -49 92 -84 l455 942h-8q-219 0 -387 -141q-172 -142 -217 -363zM612 233q18 -2 62 -2q211 0 385 144q172 143 217 360q47 213 -66 352q-59 72 -135 107z" />
<glyph unicode="&#xd9;" horiz-adv-x="1300" d="M-49 401q-6 86 31 258l176 822h248l-177 -824q-41 -188 -14 -266q25 -74 98 -117q72 -45 191 -45q166 0 284 88q63 49 101 113q41 70 74 227l176 824h247l-176 -824q-29 -143 -77 -251q-45 -94 -91 -148q-53 -63 -110 -106q-205 -152 -475 -152q-276 0 -414 152 q-39 45 -66 106q-24 63 -26 143zM514 1823h268l78 -357h-160z" />
<glyph unicode="&#xda;" horiz-adv-x="1300" d="M-63 401q-4 90 32 261l174 821h248l-174 -824q-43 -195 -16 -266q29 -76 98 -119q78 -45 190 -45q166 0 285 90q68 49 100 111q41 72 76 229l174 824h248l-174 -824q-37 -164 -80 -253q-47 -92 -90 -148q-45 -57 -110 -106q-205 -152 -474 -152q-279 0 -415 152 q-41 47 -64 106q-22 55 -28 143zM596 1595l233 359h267l-336 -359h-164z" />
<glyph unicode="&#xdb;" horiz-adv-x="1300" d="M-53 401q-4 90 33 261l174 819h247l-174 -822q-41 -195 -16 -268q29 -76 98 -117q72 -45 193 -45q164 0 282 90q68 49 101 111q39 66 76 229l174 822h247l-174 -822q-37 -164 -80 -253q-45 -94 -90 -148q-45 -57 -110 -106q-205 -152 -473 -152q-279 0 -416 152 q-41 47 -64 106q-22 51 -28 143zM350 1513l346 342h242l203 -342h-213l-144 181l-225 -181h-209z" />
<glyph unicode="&#xdc;" horiz-adv-x="1300" d="M-37 401q-6 82 31 258l174 818h248l-174 -820q-41 -190 -15 -266q25 -76 97 -117q72 -45 192 -45q162 0 285 88q68 55 100 111q39 76 74 229l174 820h248l-174 -820q-37 -164 -80 -254q-51 -100 -90 -147q-47 -57 -111 -104q-205 -152 -473 -152q-279 0 -416 152 q-41 47 -63 104q-23 59 -27 145zM465 1491l47 223h229l-47 -223h-229zM834 1491l47 223h229l-47 -223h-229z" />
<glyph unicode="&#xdd;" horiz-adv-x="1333" d="M55 1481h305l297 -551l533 551h301l-754 -748l-155 -733h-252l155 733zM635 1595l233 359h267l-336 -359h-164z" />
<glyph unicode="&#xde;" horiz-adv-x="991" d="M-117 -2l305 1436h234l-55 -256q143 29 190 28q223 0 334 -141q109 -141 59 -377q-47 -217 -190 -358q-150 -143 -332 -144q-152 0 -258 66l-53 -254h-234zM219 483q39 -33 102.5 -53t108.5 -20q102 0 180 77q80 78 111 209q27 127 -27 211q-49 78 -155 78 q-117 0 -217 -22z" />
<glyph unicode="&#xdf;" horiz-adv-x="1191" d="M-121 -4l207 975q45 213 111.5 343t175.5 210q178 131 411 131q199 0 311.5 -117t69.5 -324q-29 -127 -116 -221q-186 -70 -209 -178q-10 -49 8 -89t72 -108q82 -102 108 -163q47 -109 21 -230q-41 -186 -195 -300.5t-371 -114.5h-293l46 217h278q106 0 175 51t85 129 q14 68 -5 120t-75 115q-53 61 -79.5 101.5t-46 107t-5.5 135.5q43 203 301 320q25 41 33 88q27 115 -24.5 178.5t-159.5 63.5q-137 0 -229.5 -103.5t-145.5 -351.5l-209 -985h-250z" />
<glyph unicode="&#xe0;" horiz-adv-x="829" d="M-45 307q12 63 57 129q41 59 103 103q59 45 135 69q72 27 151 27h146q8 55 -15 100q-20 41 -69 45q-72 2 -119 -8q-4 0 -108 -31l-19 183l47 22q6 0 12 4l3 2l61 16q37 9 51 13q33 8 119 8q80 0 131 -31q55 -29 92 -77q76 -106 49 -244l-135 -637h-233l2 8 q-74 -25 -154 -24q-78 0 -139 24q-55 23 -105 70q-41 41 -59 104q-18 57 -4 125zM190 266q4 -16 23 -35q18 -14 41 -26q18 -8 55 -8q63 0 113 34q23 16 39 35q12 18 18 43l23 111h-148q-33 0 -55 -8q-53 -18 -92 -66q-12 -16 -17 -39q-6 -23 0 -41zM303 1401h268l80 -354 h-162z" />
<glyph unicode="&#xe1;" horiz-adv-x="829" d="M-49 307q14 66 59 129q41 59 103 103q59 45 135 69q72 27 151 27h146q8 55 -15 100q-20 45 -69 45q-72 2 -119 -8q-16 -2 -50 -12t-59 -17l-18 181l47 22l12 4v2q74 20 115 29q41 10 119 10t131 -30q53 -29 92 -80q76 -104 49 -244l-135 -637h-233v8q-72 -25 -152 -24 q-78 0 -139 24q-55 23 -105 70q-45 45 -59 104q-18 57 -6 125zM186 307q-4 -25 2 -39q4 -18 23 -37q18 -14 41 -26q18 -8 55 -8q63 0 113 34q25 16 39 37q12 14 18 41l23 111h-148q-39 0 -55 -8q-57 -18 -92 -66q-13 -14 -19 -39zM338 1067l231 354h267l-336 -354h-162z" />
<glyph unicode="&#xe2;" horiz-adv-x="829" d="M-49 307q10 57 57 129q41 59 103 103q55 43 135 71q74 25 151 25h146q8 57 -15 100q-20 45 -69 45q-63 2 -119 -6q-4 0 -109 -31l-18 181l47 24q6 0 12 2l2 2q70 18 113 29q41 10 119 10q80 0 131 -30q51 -27 92 -78q78 -111 49 -246l-135 -637h-233l2 8 q-74 -25 -154 -24q-78 0 -139 24q-55 23 -105 70q-41 45 -59 104q-18 62 -4 125zM92 1100l344 340h244l203 -340h-213l-144 178l-227 -178h-207zM186 268q4 -18 23 -37q18 -14 41 -26q18 -8 55 -8q63 0 113 34q25 16 39 37q12 14 18 41l23 111h-148q-39 0 -55 -6 q-59 -23 -92 -68q-12 -16 -17 -39q-6 -23 0 -39z" />
<glyph unicode="&#xe3;" horiz-adv-x="829" d="M-47 307q14 63 57 129q37 55 103 103q59 45 135 69q74 25 151 25h146q8 59 -13 102q-23 41 -71 45q-84 0 -119 -8q-4 0 -109 -31l-18 183l47 22q8 0 14 2v4l62 16q37 9 51 13q33 8 119 8q78 0 133 -31q59 -33 90 -77q78 -111 49 -244l-135 -637h-233l2 8 q-74 -25 -152 -24q-78 0 -141 24q-55 23 -105 70q-41 45 -59 102q-18 68 -4 127zM115 1065l43 207q98 96 225 96q80 0 174 -47l45 -25q37 -16 72 -16q74 0 219 133l-47 -217q-109 -90 -221 -90q-78 0 -160 41q-86 45 -133 45q-39 0 -72 -16q-26 -11 -145 -111zM188 266 q10 -25 23 -35q18 -14 41 -26q23 -8 55 -8q66 0 113 34q25 16 39 35q12 18 18 43l25 111h-150q-33 0 -55 -8q-53 -18 -92 -66q-12 -16 -17 -39q-6 -23 0 -41z" />
<glyph unicode="&#xe4;" horiz-adv-x="829" d="M-35 305q10 61 58 129q37 55 102 103q59 45 135 69q72 27 152 27h145q8 55 -14 100q-20 41 -70 45q-72 2 -119 -8q-4 0 -108 -31l-19 183l47 22q6 0 13 2l2 4q76 18 112 29q33 8 119 8q78 0 131 -31q55 -29 92 -77q78 -111 50 -244l-136 -635h-233l2 8q-74 -25 -152 -24 q-78 0 -141 24q-55 23 -104 70q-41 45 -60 102q-18 62 -4 125zM201 266q10 -25 22 -35q18 -18 41 -26t55 -8q66 0 113 32q27 18 39 37q12 20 18 41l23 113h-147q-33 0 -56 -8q-57 -23 -92 -66q-14 -20 -16 -41q-6 -21 0 -39zM225 1077l47 221h230l-47 -221h-230zM594 1077 l47 221h229l-47 -221h-229z" />
<glyph unicode="&#xe5;" horiz-adv-x="829" d="M-51 307q14 66 59 129q41 59 103 103q55 43 135 71q74 25 151 25h146q8 57 -15 100q-20 45 -69 45q-63 2 -119 -6q-4 0 -109 -31l-18 181l47 24q6 0 12 2v4q74 16 115 29q43 8 119 8q80 0 131 -30q51 -27 92 -78q76 -109 49 -246l-137 -637h-233l2 8q-70 -25 -152 -24 q-78 0 -139 24q-61 27 -105 70q-45 49 -59 104q-18 59 -6 125zM184 307q-4 -25 2 -39q4 -18 23 -37q18 -14 41 -26q18 -8 55 -8q63 0 113 34q25 16 39 37q12 14 18 41l23 111h-148q-39 0 -55 -6q-59 -23 -92 -68q-13 -14 -19 -39zM309 1214q18 96 99 160q76 68 172 68 q86 0 141 -68q49 -66 31 -160q-23 -90 -99 -157q-76 -63 -170 -64q-96 0 -143 64q-51 71 -31 157zM457 1214q-8 -31 8 -55q18 -25 47 -24.5t57 22.5q27 23 37 57q6 35 -12 56q-18 25 -49 24q-29 0 -56 -24q-26 -19 -32 -56z" />
<glyph unicode="&#xe6;" horiz-adv-x="1460" d="M-2 319q10 53 57 127q41 57 103 101q59 45 135 69q74 25 151 25h146q8 55 -15 100q-25 43 -71 43q-61 2 -117 -6q-14 -2 -27.5 -6t-37 -11t-46.5 -13l-18 178l47 22q4 0 12 4l2 2l62 16q37 9 51 13q33 8 119 8q76 0 133 -28q55 -31 96 -86q147 123 334 122 q207 0 291 -135q72 -121 14 -385l-8 -47h-637l6 6v-6q-8 -78 45 -143q57 -70 174 -70q168 0 381 139l-51 -243q-104 -59 -201 -90q-82 -25 -202 -25q-141 0 -228 55l-8 -39h-233l2 9q-74 -25 -152 -25t-141 25q-59 23 -103 69q-43 43 -61 101q-18 65 -4 124zM233 279 q8 -20 23 -35q20 -16 41 -25q23 -8 55 -8q70 0 113 33q25 16 39 35q12 20 18 43l23 108h-148q-33 0 -55 -8q-57 -18 -92 -64q-14 -20 -17 -39q-6 -22 0 -40zM831 641h394q4 53 -33 100q-39 51 -123 52q-86 0 -149 -52q-64 -49 -89 -100z" />
<glyph unicode="&#xe7;" horiz-adv-x="1064" d="M-115 -457l84 152q82 -45 144 -45q84 0 94 51q4 20 -11.5 34.5t-61.5 27t-124 16.5l199 254h199l-115 -137q63 -18 99 -67.5t22 -117.5q-25 -117 -120 -170t-218 -53q-105 0 -191 55zM86 467q45 213 221 358q174 143 395 144q217 0 330 -144q63 -82 78 -223h-242 q-23 49 -39 72q-63 80 -184 80q-113 0 -209 -80q-90 -78 -119 -205q-23 -123 35 -203q59 -78 183 -78q115 0 213 80q37 31 73 84h242q-74 -154 -186 -246q-172 -139 -396 -139q-215 0 -327 144q-113 141 -68 356z" />
<glyph unicode="&#xe8;" horiz-adv-x="933" d="M-6 496q47 221 201 360q150 141 352 141q205 0 289 -137q74 -121 16 -389l-12 -49h-631q-8 -76 47 -146q55 -72 172 -71q168 0 383 141l-53 -246q-100 -61 -201 -92q-82 -25 -203 -24q-156 0 -241 67q-82 68 -117 182q-33 113 -2 263zM262 635h393q4 53 -32 102 q-39 51 -121 51q-86 0 -152 -53q-63 -49 -88 -100zM322 1401h268l80 -354h-162z" />
<glyph unicode="&#xe9;" horiz-adv-x="933" d="M-8 496q47 221 201 360q150 141 352 141q205 0 289 -137q74 -123 14 -389l-10 -49h-631q-8 -76 47 -146q55 -72 172 -71q168 0 383 141l-53 -246q-100 -61 -201 -92q-82 -25 -203 -24q-156 0 -241 67q-82 68 -117 182q-33 113 -2 263zM260 635h393q4 53 -32 102 q-39 51 -121 51q-86 0 -152 -53q-63 -49 -88 -100zM395 1067l232 354h266l-336 -354h-162z" />
<glyph unicode="&#xea;" horiz-adv-x="933" d="M-10 496q47 223 200 362q154 141 353 141q205 0 288 -139q74 -121 17 -389l-10 -49h-631q-10 -74 45 -146q59 -72 172 -71q164 0 383 141l-53 -246q-100 -61 -201 -92q-82 -25 -203 -24q-156 0 -241 67q-82 68 -117 182q-33 113 -2 263zM92 1100l344 340h244l203 -340 h-213l-144 178l-227 -178h-207zM258 635h393q4 53 -30 102q-41 51 -123 51q-84 0 -152 -51q-63 -53 -88 -102z" />
<glyph unicode="&#xeb;" horiz-adv-x="933" d="M4 494q47 219 200.5 360t352.5 141q205 0 289 -137q74 -121 16 -389l-10 -47h-631q-8 -80 45 -146q55 -72 174 -71q170 0 381 141l-53 -246q-100 -61 -201 -92q-80 -25 -200 -24q-158 0 -242 67q-84 66 -119 180q-33 116 -2 263zM266 1077l47 221h230l-47 -221h-230z M272 633h394q4 51 -31 102q-41 51 -123 51q-86 0 -152 -53q-63 -49 -88 -100zM635 1077l47 221h229l-47 -221h-229z" />
<glyph unicode="&#xec;" d="M-113 0l209 983h230l-209 -983h-230zM-4 1401h268l80 -354h-160z" />
<glyph unicode="&#xed;" d="M-115 0l209 983h230l-209 -983h-230zM106 1067l234 354h264l-336 -354h-162z" />
<glyph unicode="&#xee;" d="M-135 1100l346 340h242l202 -340h-213l-143 178l-225 -178h-209zM-117 0l209 983h230l-209 -983h-230z" />
<glyph unicode="&#xef;" d="M-121 0l209 983h229l-208 -983h-230zM-39 1253l47 222h230l-48 -222h-229zM330 1253l47 222h229l-47 -222h-229z" />
<glyph unicode="&#xf1;" horiz-adv-x="880" d="M-176 0l209 981h233l-8 -41q84 59 236 59q117 0 182 -49q70 -53 92 -133q23 -78 -16 -260l-119 -557h-230l119 555q29 133 2 190q-20 49 -108 50q-109 0 -213 -113l-146 -682h-233zM113 1067l43 205q98 96 225 96q80 0 174 -47l47 -25q33 -16 70 -16q74 0 219 133 l-47 -217q-109 -90 -221 -90q-76 0 -160 41q-86 45 -133 45q-39 0 -72 -16q-24 -9 -145 -109z" />
<glyph unicode="&#xf2;" horiz-adv-x="1083" d="M-6 500q43 211 219 356q176 143 395 143q217 0 330 -143t66 -362q-47 -213 -220 -355q-176 -139 -397 -139q-211 0 -328 143q-110 144 -65 357zM225 502q-27 -125 32.5 -203t182.5 -78q121 0 215 80q92 76 119 203q25 125 -39 201q-61 80 -182 79q-117 0 -209 -79 q-94 -78 -119 -203zM381 1401h268l80 -354h-160z" />
<glyph unicode="&#xf3;" horiz-adv-x="1083" d="M-8 500q43 211 219 356q176 143 395 143t330 -143q113 -143 65 -362q-47 -213 -219 -355q-176 -139 -397 -139q-211 0 -328 143q-112 140 -65 357zM223 502q-27 -125 32.5 -203t182.5 -78q117 0 215 80q92 76 119 203q25 125 -39 201q-61 80 -182 79q-117 0 -209 -79 q-94 -78 -119 -203zM453 1067l233 354h264l-336 -354h-161z" />
<glyph unicode="&#xf4;" horiz-adv-x="1083" d="M-10 500q43 215 219 356q180 145 395 145q217 0 330 -145q113 -143 65 -362q-47 -213 -219 -355q-176 -139 -397 -139q-211 0 -328 143q-110 144 -65 357zM205 1100l346 340h242l202 -340h-213l-143 178l-225 -178h-209zM221.5 502q-26.5 -125 32.5 -203t182 -78 q121 0 215 80q92 76 119 203q25 123 -37 201q-66 80 -184 79q-115 0 -209 -77q-92 -80 -118.5 -205z" />
<glyph unicode="&#xf5;" horiz-adv-x="1083" d="M-8 498q47 217 221 358q174 143 393 143q217 0 330 -143q113 -145 65 -362q-43 -209 -219 -355q-172 -139 -395 -139q-215 0 -328 143q-114 142 -67 355zM221 1067l43 205q98 96 225 96q80 0 175 -47l47 -25q33 -16 69 -16q74 0 219 133l-47 -217q-109 -90 -221 -90 q-76 0 -160 41q-86 45 -133 45q-39 0 -71 -16q-25 -9 -146 -109zM223 500q-27 -121 35 -201q59 -78 182 -78q117 0 213 80q92 76 119 201q27 119 -37 203q-63 80 -184 79q-117 0 -209 -79q-90 -76 -119 -205z" />
<glyph unicode="&#xf6;" horiz-adv-x="1083" d="M4 498q43 211 219 356q176 143 395 143q217 0 330 -143q113 -145 66 -362q-43 -211 -219 -353q-172 -139 -396 -139q-215 0 -327 143q-115 142 -68 355zM236 500q-27 -123 34 -203q57 -76 183 -76q117 0 213 80q92 76 118 201q29 121 -36 200q-63 80 -185 80 q-117 0 -209 -80q-89 -75 -118 -202zM322 1077l47 221h229l-47 -221h-229zM690 1077l47 221h230l-47 -221h-230z" />
<glyph unicode="&#xf7;" horiz-adv-x="1071" d="M12 532l47 218h1000l-47 -218h-1000zM324 164l45 217h229l-45 -217h-229zM481 903l45 217h230l-45 -217h-230z" />
<glyph unicode="&#xf8;" horiz-adv-x="1083" d="M33 492q47 217 221 358q174 143 395 143h27l129 267h192l-147 -308q76 -33 129 -102q111 -143 63 -365q-43 -213 -219 -354q-172 -139 -395 -139q-29 0 -41 2l-117 -242h-192l137 287q-70 39 -115 96q-114 142 -67 357zM264 494q-27 -123 35 -203q8 -10 25 -27l247 514 q-106 -10 -188 -80q-90 -75 -119 -204zM494 215q111 2 200 78q96 80 119 203q27 123 -37 202q-14 18 -33 33z" />
<glyph unicode="&#xf9;" horiz-adv-x="878" d="M-37 162q-25 82 17 262l118 557h230l-119 -555q-31 -141 -4 -193q18 -45 110 -45q111 0 215 111l146 682h229l-209 -981h-229l16 84q-135 -100 -270 -100q-98 0 -160 47q-70 51 -90 131zM319 1401h269l80 -354h-162z" />
<glyph unicode="&#xfa;" horiz-adv-x="878" d="M-39 162q-25 82 16 262l119 559h230l-119 -557q-31 -141 -4 -193q18 -45 110 -45q111 0 215 111l146 684h229l-209 -983h-229l16 84q-135 -100 -270 -100q-98 0 -160 47q-70 51 -90 131zM326 1067l231 354h266l-336 -354h-161z" />
<glyph unicode="&#xfb;" horiz-adv-x="878" d="M-41 162q-25 82 16 262l119 559h230l-119 -557q-31 -141 -4 -193q18 -45 110 -45q111 0 215 111l146 684h229l-209 -983h-229l16 84q-135 -100 -270 -100q-98 0 -160 47q-70 51 -90 131zM92 1100l344 340h244l203 -340h-213l-144 178l-227 -178h-207z" />
<glyph unicode="&#xfc;" horiz-adv-x="878" d="M-27 162q-20 82 17 260l119 557h229l-119 -555q-29 -139 -4 -191q23 -47 111 -47q109 0 215 111l145 682h229l-208 -979h-230l19 82q-137 -98 -271 -98q-96 0 -162 47q-70 51 -90 131zM248 1077l47 221h229l-47 -221h-229zM616 1077l48 221h229l-47 -221h-230z" />
<glyph unicode="&#xfd;" horiz-adv-x="1001" d="M-139 -494l465 707l-195 766h260l119 -496l321 496h259l-975 -1473h-254zM461 1065l233 356h267l-336 -356h-164z" />
<glyph unicode="&#xfe;" horiz-adv-x="991" d="M-168 -492l408 1926h233l-96 -459q154 31 188 31q227 0 336 -144q106 -143 57 -379q-47 -223 -192 -362q-145 -145 -330 -146q-145 0 -258 66l-112 -533h-234zM227 276q39 -35 101.5 -55t109.5 -20q102 0 180 78q80 80 111 213q27 125 -27 210q-49 78 -155 78 q-111 0 -217 -20z" />
<glyph unicode="&#xff;" horiz-adv-x="1001" d="M-127 -494l467 707l-197 764h260l119 -496l322 496h258l-975 -1471h-254zM315 1075l47 223h230l-47 -223h-230zM684 1075l47 223h230l-48 -223h-229z" />
<glyph unicode="&#x152;" horiz-adv-x="2203" d="M35 727q70 324 321 530q258 211 574 211q332 0 500 -227l49 227h827l-49 -231h-580l-114 -541h561l-49 -229h-562l-51 -236h598l-49 -231h-846l47 223q-4 -2 -10 -8l-8 -8q-256 -207 -586 -207q-313 0 -477 207q-164 211 -96 520zM283 727q-45 -211 65 -354 q115 -141 322 -142q209 0 385 146q174 145 219 358q43 215 -68 352q-115 143 -317 144q-221 0 -389 -141q-172 -144 -217 -363z" />
<glyph unicode="&#x153;" horiz-adv-x="1742" d="M35 498q47 217 221 354q174 141 393 141q217 0 330 -143q16 -20 22 -31q162 180 394 180q209 0 293 -135q72 -119 14 -385l-8 -47h-633q-4 -80 47 -143q57 -70 172 -70q170 0 381 139l-51 -243q-117 -68 -201 -90q-82 -25 -203 -25q-156 0 -241 68q-55 41 -95 116 q-6 -8 -43 -39q-174 -137 -395 -137q-215 0 -328 139q-112 142 -69 351zM268 500q-27 -123 35 -197q59 -78 182 -78q117 0 211 78q92 72 121 199q25 119 -39 200q-61 78 -184 78q-119 0 -209 -78q-92 -75 -117 -202zM1112 641h395q2 55 -32 100q-37 51 -125 52 q-82 0 -150 -52q-63 -49 -88 -100z" />
<glyph unicode="&#x178;" horiz-adv-x="1333" d="M82 1475h303l299 -549l533 549h301l-754 -746l-154 -729h-252l154 729zM463 1473l47 223h229l-47 -223h-229zM831 1473l48 223h229l-47 -223h-230z" />
<glyph unicode="&#x2c6;" horiz-adv-x="808" d="M-25 1139l340 301h242l211 -301h-213l-147 157l-224 -157h-209z" />
<glyph unicode="&#x2dc;" horiz-adv-x="776" d="M4 1112l37 174q98 84 221 84q82 0 176 -41l47 -20q31 -14 74 -15q70 0 213 113l-39 -184q-106 -78 -219 -78q-74 0 -160 37q-96 37 -135 37q-41 0 -72 -15q-28 -8 -143 -92z" />
<glyph unicode="&#x2000;" horiz-adv-x="976" />
<glyph unicode="&#x2001;" horiz-adv-x="1953" />
<glyph unicode="&#x2002;" horiz-adv-x="976" />
<glyph unicode="&#x2003;" horiz-adv-x="1953" />
<glyph unicode="&#x2004;" horiz-adv-x="651" />
<glyph unicode="&#x2005;" horiz-adv-x="487" />
<glyph unicode="&#x2006;" horiz-adv-x="325" />
<glyph unicode="&#x2007;" horiz-adv-x="325" />
<glyph unicode="&#x2008;" horiz-adv-x="243" />
<glyph unicode="&#x2009;" horiz-adv-x="389" />
<glyph unicode="&#x200a;" horiz-adv-x="108" />
<glyph unicode="&#x2010;" horiz-adv-x="1069" d="M16 532l39 177h998l-39 -177h-998z" />
<glyph unicode="&#x2011;" horiz-adv-x="1069" d="M16 532l39 177h998l-39 -177h-998z" />
<glyph unicode="&#x2012;" horiz-adv-x="1069" d="M16 532l39 177h998l-39 -177h-998z" />
<glyph unicode="&#x2013;" horiz-adv-x="987" d="M16 532l39 177h916l-39 -177h-916z" />
<glyph unicode="&#x2014;" horiz-adv-x="1540" d="M16 532l39 177h1469l-39 -177h-1469z" />
<glyph unicode="&#x2018;" horiz-adv-x="333" d="M-16 1024l41 190l213 302h120l-145 -283h45l-45 -209h-229z" />
<glyph unicode="&#x2019;" horiz-adv-x="333" d="M-25 1126l146 283h-45l45 209h229l-45 -209h-45l55 29l-219 -312h-121z" />
<glyph unicode="&#x201a;" horiz-adv-x="333" d="M-25 -307l146 282h-45l45 209h229l-45 -209h-45l55 29l-219 -311h-121z" />
<glyph unicode="&#x201c;" horiz-adv-x="538" d="M-16 1024l41 190l213 302h120l-145 -283h45l-45 -209h-229zM188 1024l41 190l213 302h121l-145 -283h45l-45 -209h-230z" />
<glyph unicode="&#x201d;" horiz-adv-x="538" d="M-25 1126l146 283h-45l45 209h229l-45 -209h-45l55 29l-219 -312h-121zM180 1126l146 283h-45l45 209h229l-45 -209h-45l55 29l-219 -312h-121z" />
<glyph unicode="&#x201e;" horiz-adv-x="333" d="M-25 -307l146 282h-45l45 209h229l-45 -209h-45l55 29l-219 -311h-121z" />
<glyph unicode="&#x2022;" horiz-adv-x="700" d="M37 698q25 119 134.5 204t240.5 85t204.5 -84t49.5 -205q-27 -121 -136.5 -204.5t-240.5 -83.5t-205 84.5t-47 203.5z" />
<glyph unicode="&#x2026;" d="M16 0l39 178h230l-39 -178h-230z" />
<glyph unicode="&#x202f;" horiz-adv-x="389" />
<glyph unicode="&#x2039;" horiz-adv-x="593" d="M33 649l413 481h236l-416 -481l209 -485h-233z" />
<glyph unicode="&#x203a;" horiz-adv-x="593" d="M-88 164l416 483l-209 483h233l211 -483l-416 -483h-235z" />
<glyph unicode="&#x2044;" horiz-adv-x="1312" d="M-156 -82l1422 1589h202l-1421 -1589h-203z" />
<glyph unicode="&#x205f;" horiz-adv-x="487" />
<glyph unicode="&#x20ac;" horiz-adv-x="1165" d="M-2 524l33 154h123v4q14 55 16 70h-125l33 151h145q88 207 252 342q219 180 479 180q162 0 303 -79l-98 -187q-115 72 -241 72q-162 0 -289 -105q-94 -76 -162 -223h594l-33 -151h-620q-6 -25 -15 -64l-2 -10h623l-33 -154h-604q-2 -147 59 -229q84 -113 258 -113 q141 0 295 82l12 -182q-172 -98 -370 -98q-281 0 -414 192q-96 137 -84 348h-135z" />
<glyph unicode="&#x2122;" horiz-adv-x="2656" d="M1143 0l318 1501l532 -600l786 600l-317 -1501h-235l198 940l-504 -377l-344 377l-198 -940h-236zM143 1239l50 231h1193l-49 -231h-477l-264 -1239h-248l264 1239h-469z" />
<glyph unicode="&#xe000;" horiz-adv-x="965" d="M0 965h965v-965h-965v965z" />
<glyph unicode="&#xfb01;" horiz-adv-x="999" d="M6 0l164 768h-129l45 217h129l8 29q51 240 172 352q125 121 269 121q59 0 151 -23l-51 -239q-70 31 -100 30q-90 0 -136 -49q-47 -53 -75 -192l-9 -29h162l-45 -217h-162l-163 -768h-230zM575 0l209 985h230l-209 -985h-230zM817 1135l47 223h230l-47 -223h-230z" />
<glyph unicode="&#xfb02;" horiz-adv-x="999" d="M6 0l164 768h-129l45 217h129l8 29q51 240 172 352q125 121 269 121q59 0 151 -23l-51 -239q-70 31 -100 30q-90 0 -136 -49q-47 -53 -75 -192l-9 -29h162l-45 -217h-162l-163 -768h-230zM575 0l314 1468h229l-313 -1468h-230z" />
<glyph unicode="&#xfb03;" horiz-adv-x="1697" d="M1288 0l209 981h230l-209 -981h-230zM1530 1130l47 224h230l-48 -224h-229zM704 0l164 768h-129l45 217h129l8 29q51 240 172 352q125 121 269 121q59 0 151 -23l-51 -239q-70 31 -100 30q-90 0 -136 -49q-47 -53 -75 -192l-9 -29h162l-45 -217h-162l-163 -768h-230zM6 0 l164 768h-129l45 217h129l8 29q51 240 172 352q125 121 269 121q59 0 151 -23l-51 -239q-70 31 -100 30q-90 0 -136 -49q-47 -53 -75 -192l-9 -29h162l-45 -217h-162l-163 -768h-230z" />
<glyph unicode="&#xfb04;" horiz-adv-x="1697" d="M1276 0l314 1468h229l-313 -1468h-230zM704 0l164 768h-129l45 217h129l8 29q51 240 172 352q125 121 269 121q59 0 151 -23l-51 -239q-70 31 -100 30q-90 0 -136 -49q-47 -53 -75 -192l-9 -29h162l-45 -217h-162l-163 -768h-230zM6 0l164 768h-129l45 217h129l8 29 q51 240 172 352q125 121 269 121q59 0 151 -23l-51 -239q-70 31 -100 30q-90 0 -136 -49q-47 -53 -75 -192l-9 -29h162l-45 -217h-162l-163 -768h-230z" />
</font>
</defs>
</svg>
