<?xml version="1.0" standalone="no"?>
<!DOCTYPE svg PUBLIC "-//W3C//DTD SVG 1.1//EN" "http://www.w3.org/Graphics/SVG/1.1/DTD/svg11.dtd" >
<svg xmlns="http://www.w3.org/2000/svg">
<metadata>
This is a custom SVG webfont generated by Font Squirrel.
Copyright   : Copyright  2012 by Tony Thomas All rights reserved
Designer    : Tony Thomas
Foundry     : MediaLoot
Foundry URL : httpwwwmedialootcom
</metadata>
<defs>
<font id="AwakeItalic" horiz-adv-x="321" >
<font-face units-per-em="2048" ascent="1526" descent="-522" />
<missing-glyph horiz-adv-x="778" />
<glyph unicode=" "  horiz-adv-x="778" />
<glyph unicode="&#x09;" horiz-adv-x="778" />
<glyph unicode="&#xa0;" horiz-adv-x="778" />
<glyph unicode="!" horiz-adv-x="393" d="M-59 0l36 170h170l-36 -170h-170zM25 305l202 1200h240l-309 -1200h-133z" />
<glyph unicode="&#x22;" horiz-adv-x="587" d="M35 1024l84 485h168l-125 -485h-127zM301 1024l84 485h168l-125 -485h-127z" />
<glyph unicode="#" horiz-adv-x="1347" d="M-6 422l35 162h219l149 360h-293l35 162h322l176 426h147l-174 -426h381l174 426h150l-174 -426h192l-35 -162h-221l-145 -360h291l-35 -162h-322l-172 -422h-149l172 422h-383l-172 -422h-150l170 422h-188zM399 584h383l146 360h-383z" />
<glyph unicode="$" horiz-adv-x="897" d="M-78 -2l37 178h283l108 512l-33 27q-117 90 -155 176q-39 84 -15 196q35 166 168 275q84 70 199 94l27 125h168l-25 -115h236l-37 -178h-236l-102 -477l39 -31q207 -160 157 -397q-37 -170 -163 -279q-90 -76 -203 -96l-37 -172h-168l35 162h-283zM319 1118 q-20 -98 80 -198l76 354q-37 -10 -67 -31q-75 -51 -89 -125zM414 188q41 18 61 37q76 53 94 140q20 102 -73 208z" />
<glyph unicode="%" horiz-adv-x="1398" d="M8 0l1215 1505h139l-1215 -1505h-139zM156 1174q31 137 139 231q109 96 231.5 96t190.5 -96q68 -94 37 -231q-29 -133 -136 -228q-113 -96 -231 -96q-123 0 -190 96q-70 97 -41 228zM289 1174q-16 -70 22 -123q39 -51 104.5 -51.5t127.5 51.5q57 51 73 123q14 72 -20 126 q-37 49 -107 50q-68 0 -124 -50q-62 -52 -76 -126zM621 328q31 135 135 227q113 94 233 94q123 0 193 -94q68 -94 39 -227q-27 -133 -138 -228q-106 -94 -229 -94q-127 0 -195 94q-67 91 -38 228zM758 326q-14 -70 20 -125q41 -53 103 -54q70 0 127 52q57 53 73.5 126.5 t-20.5 123.5q-39 51 -105 51q-72 0 -125 -51q-57 -51 -73 -123z" />
<glyph unicode="&#x26;" horiz-adv-x="1370" d="M-6 236q-16 82 4 176q16 78 55 131q39 61 94 110q49 43 121 88q90 57 133 72l19 6l-8 15q-2 4 -39 71q-12 23 -29 72q-10 33 -14 78q-4 41 6 82q14 74 53 135q39 59 94 102q113 90 256 90q70 0 125 -20q66 -25 97 -62q33 -37 53 -102q14 -59 -4 -145q-12 -57 -43 -111 q-61 -102 -168 -176q-74 -45 -113 -64l-14 -6l180 -301l14 23q14 20 41 80q25 55 41 104h170q-25 -74 -69 -166q-43 -88 -109 -164l-4 -10l192 -315h-243l-101 168l-12 -13q-88 -94 -203 -141q-102 -43 -225 -43q-193 0 -289 109q-45 51 -61 127zM197 408q-27 -123 28 -191 q57 -63 162 -63q63 0 115 18q90 33 151 96q18 18 47 51l9 7l-215 366l-11 -6l-37 -18q-29 -12 -40 -21q-100 -51 -160 -127q-37 -44 -49 -112zM512 1077q6 -35 20 -61l15 -29q10 -20 14 -31q23 -31 33 -53l6 -10l12 6q49 33 74 47q45 33 66 51q29 27 55 66q20 37 31 80 q14 76 -17 127q-35 53 -106 53q-63 0 -125 -47q-59 -47 -76 -127q-10 -41 -2 -72z" />
<glyph unicode="'" d="M35 1024l84 485h168l-125 -485h-127z" />
<glyph unicode="(" horiz-adv-x="638" d="M51 100q-37 238 15 478q57 254 188 479q131 227 405 512h99q-160 -188 -244 -328q-86 -147 -152 -321q-66 -172 -100 -349q-123 -575 76 -981h-98l-21 37q-96 184 -115 234q-28 71 -53 239z" />
<glyph unicode=")" horiz-adv-x="636" d="M-139 -410q162 199 248 344q90 152 149 318q63 168 98 332q37 168 43 356q4 195 -20 330q-29 152 -98 299h98l20 -37q37 -70 68 -129q31 -57 47 -100q33 -90 55 -242q33 -233 -18 -481q-55 -246 -174 -457q-57 -102 -141 -219q-80 -102 -277 -314h-98z" />
<glyph unicode="*" horiz-adv-x="892" d="M35 1071l293 156l-224 157l91 107l196 -160l53 262h138l-62 -262l271 158l47 -107l-295 -155l227 -156l-92 -106l-203 163l-49 -268h-139l61 260l-266 -155z" />
<glyph unicode="+" horiz-adv-x="1091" d="M49 508l35 168h391l90 424h156l-90 -424h391l-35 -168h-391l-90 -426h-156l90 426h-391z" />
<glyph unicode="," horiz-adv-x="354" d="M16 -307l152 319h-53l37 172h167l-36 -172l-207 -319h-60z" />
<glyph unicode="-" horiz-adv-x="1089" d="M47 532l39 177h936l-39 -177h-936z" />
<glyph unicode="." d="M47 0l39 178h168l-39 -178h-168z" />
<glyph unicode="/" horiz-adv-x="677" d="M-92 -164l710 1507h132l-711 -1507h-131z" />
<glyph unicode="0" horiz-adv-x="1024" d="M66 731q70 330 239 547q170 207 363 207q186 0 262 -209q76 -211 8 -541q-72 -336 -238 -545q-170 -207 -358 -206q-195 0 -272 202q-74 209 -4 545zM229 322q35 -154 150 -154t215 154q98 145 154 405q53 252 22 412q-31 156 -141 155h-8q-117 0 -218 -153 q-98 -147 -153 -408q-56 -261 -21 -411z" />
<glyph unicode="1" d="M-90 0l313 1468h168l-313 -1468h-168z" />
<glyph unicode="2" horiz-adv-x="1009" d="M-92 0l2 8l102 103q184 186 402 438q150 178 207 272q55 94 75 185q27 129 -24 204q-49 76 -162 76q-170 0 -342 -188l53 252q190 137 354 137q174 0 265 -129q88 -123 47 -324q-20 -92 -70 -188q-49 -102 -151 -232q-123 -160 -326 -358l-61 -61h526l-41 -195h-856z" />
<glyph unicode="3" horiz-adv-x="864" d="M-76 80l45 217q125 -98 275 -98q104 0 176 63q76 66 98 172q20 88 -18 156q-23 39 -54 57q-41 18 -149 33l-12 2l39 184h8q127 0 209 60q82 55 106 170q20 98 -33 161q-51 63 -161 64q-104 0 -246 -68l41 191q133 61 268 61q188 0 270 -106q88 -106 50 -287 q-25 -111 -82 -186q-59 -80 -170 -133q82 -37 106 -88q27 -47 33 -115q4 -82 -12 -148q-41 -195 -185 -317q-143 -125 -323 -125q-156 0 -279 80z" />
<glyph unicode="4" horiz-adv-x="1228" d="M12 487l19 86l880 914h74l-176 -830h315l-37 -170h-315l-104 -487h-181l105 487h-580zM315 657h314l90 428z" />
<glyph unicode="5" horiz-adv-x="921" d="M-74 84l43 207q121 -100 264 -101q127 0 228 80q102 80 127 195q25 121 -51 201q-74 80 -213 79q-119 0 -170 -18l161 760h623l-39 -182h-442l-82 -385q20 2 49 2q195 0 293 -129q100 -127 59 -328q-45 -207 -198 -336q-152 -129 -351 -129q-162 0 -301 84z" />
<glyph unicode="6" horiz-adv-x="987" d="M18 524q37 170 138 355q100 178 243 327q129 135 365 295l82 -151q-176 -106 -307 -238q-131 -127 -232 -317q133 66 238 65q160 0 243 -123q82 -119 46 -299q-39 -182 -185 -309q-147 -129 -317 -129q-186 0 -277 145q-86 137 -37 379zM193 475q-29 -129 24 -209 q51 -82 158 -82q96 0 174 72q76 68 98 176q25 109 -26.5 176.5t-161.5 67.5q-53 0 -107 -19q-61 -25 -127 -67q-18 -47 -32 -115z" />
<glyph unicode="7" horiz-adv-x="1028" d="M-39 0l817 1292h-594l41 193h871l-930 -1485h-205z" />
<glyph unicode="8" horiz-adv-x="1015" d="M-4 420q45 221 272 346q-74 78 -96 155.5t-2 172.5q35 166 180 288q141 121 318 121q168 0 260 -118.5t55 -290.5q-41 -195 -244 -328q166 -119 119 -348q-41 -182 -184 -299q-145 -119 -334 -119q-184 0 -282.5 121t-61.5 299zM186 428q-23 -106 33 -170q55 -68 164 -68 q102 0 186 60q78 61 101 160l4 20q23 104 -33 168q-53 66 -164 66q-109 0 -188 -66q-83 -66 -103 -170zM352 1087q-18 -92 33 -159q53 -68 143 -68q94 0 170 68q80 68 99 157q20 100 -29 162q-47 66 -145 66q-96 0 -172 -64q-79 -62 -99 -162z" />
<glyph unicode="9" horiz-adv-x="995" d="M123 145q174 111 313 250q147 154 226 318q-121 -68 -242 -68q-156 0 -238 125q-86 125 -49 299q41 188 184 307q145 127 316 127q190 0 282 -149q88 -147 39 -385q-55 -264 -270 -541q-207 -268 -477 -426zM319 1071q-23 -100 33 -170q53 -72 150 -72q109 0 235 80 q35 102 37 115q29 129 -22 211q-47 84 -156 84q-102 0 -176 -72q-81 -70 -101 -176z" />
<glyph unicode=":" d="M-33 84l37 170h168l-37 -170h-168zM129 850l37 170h168l-37 -170h-168z" />
<glyph unicode=";" horiz-adv-x="354" d="M-66 -225l152 315h-53l37 170h168l-37 -170l-205 -315h-62zM180 854l35 170h168l-35 -170h-168z" />
<glyph unicode="&#x3c;" horiz-adv-x="1093" d="M49 559l37 174l1030 430l-37 -180l-833 -338l688 -340l-37 -180z" />
<glyph unicode="=" horiz-adv-x="1089" d="M-2 328l37 168h936l-37 -168h-936zM98 803l37 168h936l-37 -168h-936z" />
<glyph unicode="&#x3e;" horiz-adv-x="1093" d="M-43 125l37 180l833 340l-688 338l37 180l850 -430l-37 -174z" />
<glyph unicode="?" horiz-adv-x="784" d="M102 0l31 154h152l-31 -154h-152zM164 297l26 121q16 178 201 356q184 172 209 287q16 86 -24.5 135t-139.5 49q-115 4 -219 -59l-18 119q129 82 305 81q166 0 234.5 -87t41.5 -216q-20 -94 -79.5 -171.5t-172.5 -184.5q-152 -143 -186 -311l-27 -119h-151z" />
<glyph unicode="@" horiz-adv-x="1495" d="M55 367q47 217 178 401q131 186 308 281q172 92 374 92q264 0 396 -168q135 -170 80 -428q-29 -133 -117 -258q-86 -125 -203 -205q-121 -80 -227 -80q-78 0 -107 35q-14 14 -20 61q-43 -37 -84 -59q-70 -35 -127 -35q-115 0 -170 102q-53 102 -23 246q25 117 103 234 q78 111 176 182q102 72 196 72q113 0 173 -101l32 80h168l-235 -567q-16 -41 -23 -59q-2 -8 4 -19q6 -6 17 -6q39 0 108 53q84 63 135 148q57 90 76 180q43 188 -63 313q-106 127 -303 127q-236 0 -424 -170q-193 -174 -248 -438q-55 -254 61 -395q119 -141 387 -142 q162 0 289 58q49 20 105 55q59 43 106 94l10 10h166l-20 -30q-59 -90 -179 -176q-113 -82 -237 -123q-119 -39 -272 -39q-328 0 -480 180q-152 183 -86 494zM479 342q-18 -86 8 -137q23 -49 76 -49q80 0 174 102q92 109 121 242q20 94 -8 141q-25 49 -86 49q-80 0 -164 -102 q-92 -107 -121 -246z" />
<glyph unicode="A" horiz-adv-x="1482" d="M-88 0l897 1468h131l297 -1468h-190l-101 487h-547l-297 -487h-190zM510 666h401l-104 497z" />
<glyph unicode="B" horiz-adv-x="1079" d="M-90 0l313 1468h457q160 0 248 -55q96 -59 127 -139q20 -53 20 -112q0 -42 -10 -87q-31 -139 -137 -239q-68 -61 -166 -103q78 -37 123 -100q45 -70 44 -156q0 -40 -9 -84q-25 -111 -95 -198q-66 -82 -186 -140q-115 -55 -270 -55h-459zM133 176h199q166 0 225 27 q70 31 113 84q47 63 61 125q5 25 5 48q0 41 -15 79q-31 59 -90 84q-59 27 -209 26h-186zM270 819h189q147 0 219 27q74 27 125 84q49 55 65 127q5 22 6 44q0 38 -16 79q-23 59 -76 86q-47 27 -213 26h-196z" />
<glyph unicode="C" horiz-adv-x="1538" d="M66 727q68 317 313 530q244 209 551 209t467 -209q88 -115 106 -264h-203q-31 86 -65 131q-115 156 -336 156q-233 0 -414 -156q-180 -154 -233 -397q-15 -69 -15 -132q0 -148 82 -259q117 -156 340 -156q227 0 410 158q66 55 121 137h205q-88 -156 -224 -268 q-250 -207 -563 -207q-301 0 -454 207q-109 147 -109 342q1 84 21 178z" />
<glyph unicode="D" horiz-adv-x="1318" d="M-90 0l313 1466h373q276 0 422 -90q139 -88 199 -264q34 -101 33 -211q0 -83 -19 -170q-31 -143 -113 -280q-82 -139 -198 -238q-119 -100 -265 -158q-111 -39 -149 -45q-76 -10 -248 -10h-348zM135 178h172q145 0 236 23q84 20 149 55q53 31 117 82q182 160 233 405 q14 70 15 133q0 151 -84 259q-43 59 -105 94q-59 33 -127 47q-51 10 -204 10h-166z" />
<glyph unicode="E" horiz-adv-x="937" d="M-90 0l313 1468h766l-39 -180h-579l-133 -622h559l-37 -179h-559l-66 -307h598l-39 -180h-784z" />
<glyph unicode="F" horiz-adv-x="872" d="M-90 0l313 1468h719l-39 -180h-532l-133 -622h532l-37 -179h-532l-105 -487h-186z" />
<glyph unicode="G" horiz-adv-x="1546" d="M66 727q68 317 313 530q244 209 551 209t467 -209q88 -119 106 -272h-203q-18 76 -65 137q-115 158 -336 158q-233 0 -414 -156q-184 -156 -233 -397q-15 -70 -16 -133q0 -147 83 -258q117 -156 340 -156q225 0 410 158q59 51 125 149h-309l39 179h522l-43 -197 q-20 -43 -90 -124t-142 -138q-264 -207 -563 -207q-301 0 -454 207q-109 146 -109 341q1 85 21 179z" />
<glyph unicode="H" horiz-adv-x="1302" d="M-90 0l313 1468h187l-138 -639h779l137 639h184l-313 -1468h-185l138 643h-779l-137 -643h-186z" />
<glyph unicode="I" horiz-adv-x="339" d="M-90 0l313 1468h187l-314 -1468h-186z" />
<glyph unicode="J" horiz-adv-x="731" d="M-141 -496l37 174q178 6 301 101q78 59 112 129q41 72 78 246l279 1314h186l-279 -1314q-37 -172 -75 -254q-47 -94 -88 -144q-53 -63 -103 -100q-196 -152 -448 -152z" />
<glyph unicode="K" horiz-adv-x="1304" d="M-90 0l313 1468h187l-154 -723l735 723h232l-746 -735l578 -733h-252l-557 700l-150 -700h-186z" />
<glyph unicode="L" horiz-adv-x="845" d="M-90 0l313 1468h187l-275 -1286h506l-39 -182h-692z" />
<glyph unicode="M" horiz-adv-x="1411" d="M-88 0l309 1462l502 -596l756 596l-310 -1462h-174l215 1020l-544 -422l-365 422l-215 -1020h-174z" />
<glyph unicode="N" horiz-adv-x="1411" d="M-90 0l311 1462l864 -1026l220 1032h176l-312 -1462l-868 1016l-217 -1022h-174z" />
<glyph unicode="O" horiz-adv-x="1576" d="M66 727q68 322 313 530q248 211 551 211q305 0 467 -211q112 -150 112 -348q0 -84 -20 -178q-68 -322 -318 -524q-250 -207 -563 -207q-301 0 -454 207q-109 147 -109 342q1 84 21 178zM252 727q-15 -70 -15 -133q0 -150 82 -258q117 -156 338 -156q223 0 412 160 q184 160 236 395q14 68 14 129q0 148 -84 260q-117 158 -336 158q-233 0 -414 -156q-182 -155 -233 -399z" />
<glyph unicode="P" horiz-adv-x="1005" d="M-90 0l313 1468h428q193 0 285 -114q63 -79 63 -195q0 -50 -12 -106q-27 -129 -108 -226q-78 -100 -191 -143q-119 -45 -305 -45h-150l-137 -639h-186zM270 817h222q123 0 200 64q78 61 103 176q8 36 7 67q0 165 -222 164h-209z" />
<glyph unicode="Q" horiz-adv-x="1576" d="M82 727q68 322 313 530q248 211 551 211q305 0 467 -211q112 -150 112 -348q0 -84 -20 -178q-68 -315 -315 -524q-207 -170 -463 -201l-35 -160h-174l35 158q-248 25 -383 203q-109 147 -109 342q1 84 21 178zM268 727q-15 -69 -14 -132q0 -148 82 -259q92 -123 256 -148 l26 129h175l-27 -129q172 27 319 152q184 160 236 395q14 68 14 130q0 149 -84 259q-117 158 -336 158q-233 0 -413 -156q-183 -155 -234 -399z" />
<glyph unicode="R" horiz-adv-x="1005" d="M-90 0l313 1470h428q193 0 285 -114q63 -79 63 -195q0 -50 -12 -106q-27 -127 -106 -226q-82 -100 -193 -143q-119 -45 -305 -45h-12l377 -641h-226l-313 530l-113 -530h-186zM270 819h222q123 0 200 64q78 59 103 176q8 36 7 67q0 165 -222 164h-209z" />
<glyph unicode="S" horiz-adv-x="897" d="M-84 0l39 178h352q98 0 164 49q74 59 92 140q5 23 5 44q0 112 -130 212l-127 94q-115 88 -155 176q-22 53 -22 114q0 41 9 85q33 164 166 272q127 106 303 106h303l-38 -180h-306q-106 0 -168 -43q-72 -51 -88 -125q-5 -21 -5 -41q0 -43 24 -84q35 -59 119 -120l127 -93 q166 -122 166 -302q0 -46 -11 -95q-37 -176 -164 -278q-131 -109 -299 -109h-356z" />
<glyph unicode="T" horiz-adv-x="1286" d="M184 1290l39 180h1133l-39 -180h-477l-275 -1290h-186l274 1290h-469z" />
<glyph unicode="U" horiz-adv-x="1320" d="M16 391v18q0 86 33 244l174 817h187l-174 -819q-28 -125 -28 -206q0 -51 11 -85q29 -86 107 -135q80 -49 204 -49q176 0 308 100q72 53 112 127q45 84 80 248l174 819h187l-174 -819q-35 -164 -80 -256q-45 -96 -84 -143q-49 -59 -107 -102q-193 -150 -450 -150 q-266 0 -396 150q-35 41 -59 102q-21 55 -25 139z" />
<glyph unicode="V" horiz-adv-x="1355" d="M223 1468h187l192 -1046l635 1046h184l-913 -1460z" />
<glyph unicode="W" horiz-adv-x="2007" d="M223 1468h187l192 -1046l361 594l-89 452h187l41 -223l135 223h184l-278 -446l110 -600l633 1046h187l-914 -1460l-153 795l-498 -795z" />
<glyph unicode="X" horiz-adv-x="1554" d="M-84 0l739 737l-385 731h226l307 -591l553 591h225l-698 -731l424 -737h-224l-344 594l-596 -594h-227z" />
<glyph unicode="Y" horiz-adv-x="1353" d="M166 1468h227l305 -591l555 591h224l-717 -731l-158 -737h-190l157 737z" />
<glyph unicode="Z" horiz-adv-x="1378" d="M-86 0l1149 1290h-823l39 180h1165l-1151 -1292h881l-39 -178h-1221z" />
<glyph unicode="[" horiz-adv-x="610" d="M-139 -332l411 1942h457l-35 -162h-274l-342 -1618h274l-35 -162h-456z" />
<glyph unicode="\" horiz-adv-x="677" d="M227 1343h133l70 -1507h-131z" />
<glyph unicode="]" horiz-adv-x="608" d="M-139 -332l35 162h272l342 1618h-272l34 162h455l-412 -1942h-454z" />
<glyph unicode="^" horiz-adv-x="1185" d="M-45 563l741 1075l285 -1075h-176l-174 768l-498 -768h-178z" />
<glyph unicode="_" horiz-adv-x="1308" d="M51 -227l31 137h1155l-31 -137h-1155z" />
<glyph unicode="`" horiz-adv-x="477" d="M104 1401h189l61 -316h-98z" />
<glyph unicode="a" horiz-adv-x="849" d="M27 291q10 55 53 123q41 57 94 96q53 41 125 68q70 25 141 24h176l2 12q7 31 8 60q0 45 -18 84q-29 59 -92 59h-24q-58 0 -101 -8q-16 -4 -45 -12.5t-37 -10.5l-10 136l14 8q6 0 19 6q2 2 7 2t7 2l2 2q66 16 92 25q41 8 111 8q72 0 119 -29q49 -29 84 -76q50 -74 50 -163 q0 -34 -7 -70l-135 -637h-173l7 29q-39 -20 -70 -29q-59 -16 -117 -16q-72 0 -131 24q-57 25 -94 68q-35 35 -55 98q-8 32 -8 63q0 28 6 54zM201 236q8 -27 28.5 -47.5t46.5 -32.5q27 -10 66 -11q78 0 135 43q31 20 49 48q18 25 25 57l33 147h-181q-39 0 -67 -10 q-70 -27 -111 -82q-18 -27 -24 -57q-3 -14 -3 -28t3 -27z" />
<glyph unicode="b" horiz-adv-x="1011" d="M-88 0l313 1468h172l-123 -575q143 90 322 90q170 0 248 -135q48 -87 48 -204q0 -71 -18 -152q-49 -231 -208 -371q-156 -137 -371 -137q-70 0 -207 39l-4 -23h-172zM123 182q96 -29 235 -28q121 0 217 92q96 94 127 237q13 56 13 105q0 76 -31 135q-53 92 -170 92 q-55 0 -136 -25.5t-140 -68.5z" />
<glyph unicode="c" horiz-adv-x="1085" d="M66 475q45 211 210 352q170 141 373 141.5t309 -141.5q55 -78 66 -180h-182q-12 33 -35 66q-68 92 -203 92q-129 0 -233.5 -92t-132.5 -236q-10 -45 -10 -85q0 -86 44 -148q63 -90 201 -90q133 0 240 92q37 33 69 80h183q-57 -119 -160 -205q-162 -137 -373 -137 q-199 0 -307 141q-72 95 -72 230q0 56 13 120z" />
<glyph unicode="d" horiz-adv-x="1011" d="M16 492q45 217 185 356q133 135 305 135q70 0 151.5 -23.5t130.5 -66.5l123 575h172l-313 -1468h-172l4 23q-135 -39 -221 -39q-215 0 -315 137q-66 90 -66 225q0 67 16 146zM184 483q-11 -50 -10 -94q0 -82 37 -143q55 -92 176 -92q141 0 250 28l115 539 q-41 45 -112 69.5t-128 24.5q-113 0 -205 -92.5t-123 -239.5z" />
<glyph unicode="e" horiz-adv-x="954" d="M68 227q-16 53 -16.5 118.5t16.5 141.5q45 221 192 359q143 137 328 137q190 0 266 -133q36 -61 36 -167q0 -93 -28 -220l-4 -21h-633q-5 -29 -5 -55q0 -85 50 -149q61 -84 193 -84q174 0 344 114l-37 -178q-102 -59 -178 -82q-84 -25 -193 -24q-147 0 -225 65 q-73 61 -106 178zM262 602h465q3 23 3 44q0 66 -34 116q-45 63 -141 63q-100 0 -176 -63q-80 -68 -117 -160z" />
<glyph unicode="f" horiz-adv-x="718" d="M37 0l170 801h-129l35 162h129l14 63q49 233 164 348q119 113 244 113q53 0 122 -19l-38 -176q-31 14 -72 15q-109 0 -164 -64q-53 -59 -88 -217l-14 -63h161l-34 -162h-162l-170 -801h-168z" />
<glyph unicode="g" horiz-adv-x="921" d="M-27 -209q43 193 281 256q-78 16 -113 42q-28 21 -28 58q0 9 2 19q6 43 55 80q47 37 127 59q-151 80 -151 229q0 37 10 78q35 174 159 262q121 90 303 91h369l-33 -160h-186q33 -47 49 -113q5 -22 5 -46q0 -29 -7 -60q-20 -78 -72 -148q-59 -76 -125 -112 q-74 -39 -217 -60q-109 -18 -122 -80q-4 -33 28 -55q12 -10 70 -25q57 -12 96 -22q145 -39 184 -61q33 -16 62 -64q30 -42 30 -104q0 -31 -8 -66q-31 -135 -151 -217q-119 -82 -295 -82t-264 82q-64 62 -64 156q0 30 6 63zM119 -211q-4 -19 -4 -35q0 -52 40 -83 q52 -40 169 -40q104 0 180 41q70 41 84 109q3 14 3 27q0 55 -54 90q-66 45 -193 45q-82 0 -147 -43q-62 -43 -78 -111zM303 602q-4 -20 -4 -39q0 -51 29 -88q39 -51 118 -51q76 0 142 53q63 55 80 127q4 22 4 41q0 53 -29 90q-39 51 -121 51q-78 0 -139 -53 q-60 -49 -80 -131z" />
<glyph unicode="h" horiz-adv-x="901" d="M-152 0l314 1468h172l-127 -598q51 51 104.5 77t85 30t88.5 4q104 0 164 -45q61 -47 84 -127q6 -27 6 -64q0 -75 -24 -194l-119 -551h-168l117 549q17 76 17 131q0 51 -15 84q-27 68 -129 67q-129 0 -250 -139l-148 -692h-172z" />
<glyph unicode="i" d="M-78 0l205 965h168l-205 -965h-168zM174 1182l37 172h168l-37 -172h-168z" />
<glyph unicode="j" horiz-adv-x="454" d="M-98 -358q63 25 112 82q47 57 64 135l235 1108h168l-235 -1108q-53 -248 -246 -348zM360 1186l35 168h168l-35 -168h-168z" />
<glyph unicode="k" horiz-adv-x="964" d="M-90 0l313 1468h168l-198 -933l452 428h199l-482 -471l353 -492h-223l-318 453l-96 -453h-168z" />
<glyph unicode="l" d="M-90 0l313 1468h168l-313 -1468h-168z" />
<glyph unicode="m" horiz-adv-x="1452" d="M-39 0l207 967h168l-21 -95q129 113 254 113q156 0 211 -164q166 166 353 166q72 0 138 -26.5t95 -75.5q34 -57 34 -154q0 -70 -18 -160l-122 -571h-168l122 573q11 56 11 101q0 55 -17 90q-33 66 -123 65q-111 0 -237 -122l-152 -707h-168l115 539q19 91 19 153 q0 46 -11 76q-27 66 -131 66q-57 0 -110 -27q-63 -37 -129 -100l-152 -707h-168z" />
<glyph unicode="n" horiz-adv-x="901" d="M-100 0l206 967h173l-21 -93q51 51 104.5 77t85 30t89.5 4q106 0 165 -47q61 -49 82 -125q7 -26 7 -65q0 -74 -25 -195l-119 -553h-168l119 551q16 76 16 132q0 52 -14 85q-31 66 -131 66q-127 0 -250 -140l-147 -694h-172z" />
<glyph unicode="o" horiz-adv-x="1103" d="M66 492q45 211 210 352q170 141 373 141q207 0 309 -141q72 -97 72 -231q0 -60 -14 -128q-47 -211 -211 -348q-162 -137 -373 -137q-199 0 -307 141q-72 95 -72 230q0 57 13 121zM238 494q-10 -45 -10 -86q0 -86 44 -148q63 -90 201 -90q133 0 240 92q104 90 135 234 q8 41 8 77q0 89 -49 156q-68 92 -203 92q-129 0 -233 -92t-133 -235z" />
<glyph unicode="p" horiz-adv-x="1011" d="M-92 -492l313 1469h172l-4 -23q135 39 221 39q215 0 314 -139q67 -93 67 -228q0 -66 -16 -141q-45 -219 -184 -356q-135 -137 -306 -137q-70 0 -150.5 24.5t-131.5 67.5l-123 -576h-172zM240 256q41 -45 111.5 -69.5t125.5 -24.5q115 0 207 92q90 92 123 240q11 50 11 94 q0 82 -38 143q-55 92 -176 92q-141 0 -250 -28z" />
<glyph unicode="q" horiz-adv-x="1011" d="M117 485q49 236 205 369q162 139 374 139q70 0 207 -39l4 23h172l-313 -1469h-172l123 576q-70 -43 -161 -67.5t-161 -24.5q-172 0 -248 137q-48 85 -48 203q0 70 18 153zM289 494q-12 -57 -12 -106q0 -78 30 -134q55 -92 168 -92q55 0 137 25.5t142 68.5l114 539 q-96 29 -235 28q-121 0 -217 -92q-96 -94 -127 -237z" />
<glyph unicode="r" horiz-adv-x="679" d="M-39 0l207 969h178l-14 -66q119 82 229 82h137l-34 -158h-136q-119 0 -229 -79l-80 -375l-80 -373h-178z" />
<glyph unicode="s" horiz-adv-x="753" d="M-39 0l33 158h280q61 0 107 28q51 33 59 76q2 12 3 24q0 28 -15 50q-27 35 -96 84q-147 100 -187 176q-25 48 -24 101q0 27 6 55q20 111 115 180q96 70 221 69h264l-33 -157h-252q-53 0 -92 -23q-39 -25 -49 -69q-2 -9 -2 -19q0 -25 16 -49q25 -31 88 -76l56 -39 q164 -117 163 -250q0 -25 -6 -51q-25 -121 -124 -192q-100 -76 -236 -76h-295z" />
<glyph unicode="t" horiz-adv-x="870" d="M123 817l391 359l-41 -195h287l-35 -164h-287l-102 -481q-7 -36 -7 -64q0 -108 105 -108q96 0 211 63l-35 -168q-115 -59 -231 -59q-123 0 -184 76q-23 23 -31 51q-8 18 -12 76q0 51 26 178l92 436h-147z" />
<glyph unicode="u" horiz-adv-x="899" d="M35 152q-8 28 -8 68q0 75 26 194l119 553h168l-119 -551q-16 -83 -16 -141q0 -49 12 -78q29 -61 133 -62q127 0 252 137l148 695h168l-207 -967h-168l28 135q-78 -76 -159 -115q-84 -37 -152 -36q-88 0 -145 45q-62 49 -80 123z" />
<glyph unicode="v" horiz-adv-x="1009" d="M172 967h184l117 -609l367 609h184l-629 -975z" />
<glyph unicode="w" horiz-adv-x="1587" d="M172 967h180l113 -600l360 600h127l101 -600l366 600h183l-629 -975l-148 680l-440 -680z" />
<glyph unicode="x" horiz-adv-x="1146" d="M-31 0l480 489l-275 478h213l197 -338l329 338h217l-468 -478l290 -489h-217l-211 352l-344 -352h-211z" />
<glyph unicode="y" horiz-adv-x="1021" d="M-45 -494l453 701l-183 760h191l127 -559l354 559h190l-944 -1461h-188z" />
<glyph unicode="z" horiz-adv-x="931" d="M-33 0l643 797h-456l36 170h754l-647 -797h481l-37 -170h-774z" />
<glyph unicode="{" horiz-adv-x="710" d="M49 516l35 164q68 0 125 37q57 39 92 114q37 86 74 261q49 229 76 297q29 70 81 129q51 51 105 69q45 18 151 19h50l-33 -154h-25q-104 0 -149 -43q-45 -47 -72 -180l-33 -156q-31 -139 -67 -229q-37 -88 -88 -142q-51 -57 -160 -104q115 -57 135 -158q25 -102 -22 -319 l-33 -154q-29 -135 -4 -180q27 -43 129 -43h26l-32 -154h-52q-98 0 -145 21q-47 23 -72 72q-29 59 -24 129q4 84 47 290q41 188 37 265q-4 74 -47 112q-44 37 -105 37z" />
<glyph unicode="|" horiz-adv-x="296" d="M-141 -328l415 1962h144l-416 -1962h-143z" />
<glyph unicode="}" horiz-adv-x="710" d="M-147 -410l32 154h25q106 0 151 43q41 41 70 180l33 154q47 215 112 317q63 102 201 160q-84 47 -108 94q-63 104 -2 381l32 156q29 141 7 180q-23 43 -132 43h-26l33 154h51q98 0 145 -21q45 -18 70 -69q31 -59 26 -132q-4 -96 -45 -292q-41 -193 -39 -261 q0 -74 43 -114q43 -37 109 -37l-35 -164q-66 0 -123 -37q-63 -41 -96 -117q-33 -72 -74 -260q-53 -242 -73 -292q-29 -70 -82 -129q-49 -53 -103 -72q-45 -18 -153 -19h-49z" />
<glyph unicode="~" horiz-adv-x="1146" d="M31 459l45 207q133 127 295 127q18 0 37.5 -2.5t40 -7.5t36 -8t39 -13t33.5 -14.5t35.5 -17.5t33 -16t35 -17.5t31.5 -16.5q59 -33 125 -33q125 0 277 139l-45 -213q-143 -121 -291 -120q-106 0 -226 65q-2 2 -23.5 13.5t-27.5 14.5t-25.5 12t-27.5 12t-26.5 9.5t-31 9.5 t-28.5 5t-31 2q-76 0 -131 -31q-51 -24 -149 -106z" />
<glyph unicode="&#xa1;" horiz-adv-x="393" d="M-94 -389l309 1200h133l-203 -1200h-239zM225 946l37 170h170l-37 -170h-170z" />
<glyph unicode="&#xa2;" horiz-adv-x="946" d="M66 729q43 207 191.5 352.5t352.5 178.5l45 215h125l-45 -213q133 -2 221 -52l-67 -133q-86 51 -211 51q-158 0 -277.5 -112.5t-156.5 -280.5q-37 -176 37.5 -279.5t224.5 -103.5q133 0 252 51l2 -127q-102 -51 -248 -59l-45 -217h-125l47 217q-188 23 -280 150 q-94 137 -43 362z" />
<glyph unicode="&#xa3;" horiz-adv-x="1036" d="M-92 0l293 637h-144l37 178h189q98 209 213 375q113 166 225 240q111 74 211 73h178l-41 -190h-137q-111 0 -215 -105q-102 -102 -215 -321l-39 -72h155l-36 -178h-205l-193 -422q10 2 635 2l-47 -217h-864z" />
<glyph unicode="&#xa4;" horiz-adv-x="1413" d="M-33 244l275 227q-49 106 -21 238q29 135 129 247l-180 234l141 119l181 -232q139 88 307 88q162 0 260 -84l272 228l94 -119l-276 -229q51 -100 20 -240q-31 -145 -125 -250l179 -227l-142 -119l-178 227q-133 -90 -305 -90t-266 88l-271 -225zM391 711 q-33 -154 43 -236t191 -82q125 0 232.5 81t141.5 245q27 129 -33.5 222t-203.5 93q-137 0 -238.5 -92t-132.5 -231z" />
<glyph unicode="&#xa5;" horiz-adv-x="1253" d="M35 344l33 148h407l31 149h-408l33 150h338l-236 749h183l166 -543q31 -104 41 -172q12 16 30.5 42t46 66t50.5 73l378 534h199l-555 -749h336l-33 -150h-401l-31 -149h401l-32 -148h-402l-71 -344h-168l71 344h-407z" />
<glyph unicode="&#xa6;" horiz-adv-x="296" d="M-141 -328l176 830h143l-176 -830h-143zM98 805l176 829h144l-176 -829h-144z" />
<glyph unicode="&#xa7;" horiz-adv-x="903" d="M-94 -246l35 158h280q61 0 107 29q51 35 59 73q8 43 -12 74q-23 31 -96 84q-63 43 -115 88q-53 47 -72 88q-39 74 -20 156q23 109 116 180q90 68 222 68h24q-70 70 -86 100q-37 72 -18 158q23 109 119 178q90 70 217 69h268l-35 -157h-254q-51 0 -92 -25q-39 -23 -47 -65 q-8 -35 14 -68q29 -35 86 -76l56 -39q195 -137 159 -301q-27 -117 -125 -192q-88 -63 -215 -76q109 -117 82 -238q-25 -119 -125 -190q-100 -76 -235 -76h-297zM246 504q-6 -35 16 -68q0 -2 4 -5t4 -5q4 -2 11 -12h198q51 0 105 32q49 29 59 74q8 43 -14 76h-242 q-55 0 -92 -25q-41 -24 -49 -67z" />
<glyph unicode="&#xa8;" horiz-adv-x="690" d="M47 1296l39 179h168l-39 -179h-168zM416 1296l39 179h168l-39 -179h-168z" />
<glyph unicode="&#xa9;" horiz-adv-x="1576" d="M66 707q68 322 313.5 530.5t550.5 208.5q307 0 467 -209q160 -213 92 -526q-68 -319 -315 -525q-254 -207 -566 -206q-301 0 -454 206q-156 212 -88 521zM252 707q-49 -233 67 -392q117 -156 340.5 -155.5t409.5 157.5q182 156 236 398q49 231 -70 389q-117 156 -336 156 q-233 0 -414 -156q-180 -153 -233 -397zM428 708.5q33 153.5 160 262.5q121 104 276 104q154 0 230 -106q35 -47 53 -152h-162v6q-12 25 -24 43q-43 61 -138 62q-86 0 -153 -62q-70 -63 -90 -157q-18 -98 24 -154q45 -59 133 -59q92 0 158 59q37 33 51 55l4 6h160l-8 -14 q-49 -94 -121 -156q-123 -104 -279 -104q-147 0 -229 107q-78 106 -45 259.5z" />
<glyph unicode="&#xaa;" horiz-adv-x="849" d="M27 291q10 55 53 123q41 57 94 96q53 41 125 68q70 25 141 24h176l2 12q18 80 -10 144q-29 59 -92 59q-74 2 -125 -8q-16 -4 -45 -12.5t-37 -10.5l-10 136l14 8q6 0 19 6q2 2 7 2t7 2l2 2q66 16 92 25q41 8 111 8q72 0 119 -29q49 -29 84 -76q70 -102 43 -233l-135 -637 h-173l7 29q-39 -20 -70 -29q-59 -16 -117 -16q-72 0 -131 24q-57 25 -94 68q-35 35 -55 98q-14 60 -2 117zM201 236q8 -27 28.5 -47.5t46.5 -32.5q27 -10 66 -11q78 0 135 43q31 20 49 48q18 25 25 57l33 147h-181q-39 0 -67 -10q-70 -27 -111 -82q-18 -27 -24 -57 q-6 -28 0 -55z" />
<glyph unicode="&#xab;" horiz-adv-x="921" d="M68 649l397 481h162l-398 -481l191 -485h-162zM375 649l397 481h162l-397 -481l190 -485h-162z" />
<glyph unicode="&#xac;" horiz-adv-x="1284" d="M84 662l35 169h1130l-104 -495h-166l70 326h-965z" />
<glyph unicode="&#xad;" horiz-adv-x="1089" d="M47 532l39 177h936l-39 -177h-936z" />
<glyph unicode="&#xae;" horiz-adv-x="882" d="M66 1133q37 168 161 274q127 109 283 109q160 0 240 -109q82 -106 45 -272q-35 -164 -162 -270.5t-289 -106.5q-156 0 -231 106q-80 109 -47 269zM158 1133q-25 -123 32 -205q59 -80 178 -80t214 82q98 84 125 207q25 123 -37 204.5t-174 81.5q-121 0 -217 -82 q-92 -79 -121 -208zM295 961l82 380h115q53 0 75 -30q27 -31 15 -82q-6 -35 -29 -64q-20 -25 -53 -39q-25 -8 -56 -10l93 -155h-88l-62 106l-22 -106h-70zM412 1184h41q23 0 39 12q16 10 18 35q8 41 -41 41h-37z" />
<glyph unicode="&#xaf;" horiz-adv-x="1089" d="M47 1448l39 176h936l-39 -176h-936z" />
<glyph unicode="&#xb0;" horiz-adv-x="753" d="M66 1325q31 137 139 231q109 96 231.5 96.5t190.5 -96.5q70 -94 39 -231q-27 -133 -136 -227q-106 -94 -233 -94q-123 0 -191 94q-67 96 -40 227zM205 1325q-16 -74 20 -125q37 -53 101 -53q66 0 127 51q61 53 75 127q14 72 -22 125q-39 51 -105 51q-61 0 -122 -51 q-60 -53 -74 -125z" />
<glyph unicode="&#xb1;" horiz-adv-x="1091" d="M-78 0l35 168h938l-35 -168h-938zM86 776l35 166h391l90 424h156l-90 -424h391l-35 -166h-391l-90 -426h-156l90 426h-391z" />
<glyph unicode="&#xb2;" horiz-adv-x="1009" d="M-92 0l2 8l102 103q184 186 402 438q150 178 207 272q55 94 75 185q27 129 -24 204q-49 76 -162 76q-170 0 -342 -188l53 252q190 137 354 137q174 0 265 -129q88 -123 47 -324q-20 -92 -70 -188q-49 -102 -151 -232q-123 -160 -326 -358l-61 -61h526l-41 -195h-856z" />
<glyph unicode="&#xb3;" horiz-adv-x="864" d="M-76 80l45 217q125 -98 275 -98q104 0 176 63q76 66 98 172q20 88 -18 156q-23 39 -54 57q-41 18 -149 33l-12 2l39 184h8q127 0 209 60q82 55 106 170q20 98 -33 161q-51 63 -161 64q-104 0 -246 -68l41 191q133 61 268 61q188 0 270 -106q88 -106 50 -287 q-25 -111 -82 -186q-59 -80 -170 -133q82 -37 106 -88q27 -47 33 -115q4 -82 -12 -148q-41 -195 -185 -317q-143 -125 -323 -125q-156 0 -279 80z" />
<glyph unicode="&#xb4;" horiz-adv-x="477" d="M35 1106l198 315h187l-285 -315h-100z" />
<glyph unicode="&#xb6;" horiz-adv-x="1187" d="M143 965q20 106 71.5 198t143 175t243 132.5t347.5 49.5q258 0 342 -21l-383 -1806h-182l358 1685h-168l-358 -1685h-188l168 794h-21q-170 0 -294 128.5t-79 349.5z" />
<glyph unicode="&#xb7;" d="M47 451l39 178h168l-39 -178h-168z" />
<glyph unicode="&#xb8;" horiz-adv-x="579" d="M23 -471l55 100q59 -33 127 -32q115 0 131 84q10 51 -35 77.5t-135 34.5l158 207h125l-111 -135q74 -8 116 -55.5t27 -118.5q-23 -104 -105.5 -153.5t-197.5 -49.5q-87 0 -155 41z" />
<glyph unicode="&#xb9;" d="M-90 0l313 1468h168l-313 -1468h-168z" />
<glyph unicode="&#xba;" horiz-adv-x="1103" d="M66 492q45 211 210 352q170 141 373 141q207 0 309 -141q104 -141 58 -359q-47 -211 -211 -348q-162 -137 -373 -137q-199 0 -307 141q-102 136 -59 351zM238 494q-31 -141 34 -234q63 -90 201 -90q133 0 240 92q104 90 135 234q29 139 -41 233q-68 92 -203 92 q-129 0 -233 -92t-133 -235z" />
<glyph unicode="&#xbb;" horiz-adv-x="942" d="M-33 164l398 483l-191 483h162l190 -483l-397 -483h-162zM295 164l397 483l-190 483h162l190 -483l-397 -483h-162z" />
<glyph unicode="&#xbc;" horiz-adv-x="2883" d="M1667 487l19 86l880 914h74l-176 -830h315l-37 -170h-315l-104 -487h-181l105 487h-580zM1970 657h314l90 428zM224 -82l1380 1589h129l-1380 -1589h-129zM-90 0l313 1468h168l-313 -1468h-168z" />
<glyph unicode="&#xbd;" horiz-adv-x="2664" d="M1563 0l2 8l102 103q184 186 402 438q150 178 207 272q55 94 75 185q27 129 -24 204q-49 76 -162 76q-170 0 -342 -188l53 252q190 137 354 137q174 0 265 -129q88 -123 47 -324q-20 -92 -70 -188q-49 -102 -151 -232q-123 -160 -326 -358l-61 -61h526l-41 -195h-856z M224 -82l1380 1589h129l-1380 -1589h-129zM-90 0l313 1468h168l-313 -1468h-168z" />
<glyph unicode="&#xbe;" horiz-adv-x="3426" d="M2210 487l19 86l880 914h74l-176 -830h315l-37 -170h-315l-104 -487h-181l105 487h-580zM2513 657h314l90 428zM766 -82l1380 1589h129l-1380 -1589h-129zM-76 80l45 217q125 -98 275 -98q104 0 176 63q76 66 98 172q20 88 -18 156q-23 39 -54 57q-41 18 -149 33l-12 2 l39 184h8q127 0 209 60q82 55 106 170q20 98 -33 161q-51 63 -161 64q-104 0 -246 -68l41 191q133 61 268 61q188 0 270 -106q88 -106 50 -287q-25 -111 -82 -186q-59 -80 -170 -133q82 -37 106 -88q27 -47 33 -115q4 -82 -12 -148q-41 -195 -185 -317q-143 -125 -323 -125 q-156 0 -279 80z" />
<glyph unicode="&#xbf;" horiz-adv-x="784" d="M-16 -109q20 94 79.5 172t172.5 187q150 141 184 311l26 119h154l-27 -121q-16 -178 -202 -358q-182 -170 -207 -287q-16 -84 24.5 -133t139.5 -49q113 -4 217 59l20 -121q-135 -80 -307 -80q-166 0 -233.5 87t-40.5 214zM477 821l33 156h152l-33 -156h-152z" />
<glyph unicode="&#xc0;" horiz-adv-x="1482" d="M-133 0l895 1466h131l299 -1466h-191l-100 485h-549l-295 -485h-190zM465 666h399l-102 495zM639 1898h188l64 -307h-98z" />
<glyph unicode="&#xc1;" horiz-adv-x="1482" d="M-139 0l895 1466h131l299 -1466h-191l-100 485h-549l-295 -485h-190zM459 666h399l-102 495zM801 1647l196 307h187l-283 -307h-100z" />
<glyph unicode="&#xc2;" horiz-adv-x="1482" d="M-125 0l895 1466h129l299 -1466h-188l-103 485h-547l-297 -485h-188zM471 666h401l-104 495zM520 1540l287 293h213l166 -293h-137l-152 201l-244 -201h-133z" />
<glyph unicode="&#xc3;" horiz-adv-x="1482" d="M-117 0l895 1466h131l297 -1466h-188l-103 485h-546l-295 -485h-191zM481 666h400l-103 495zM539 1542l26 125q82 82 191 82q76 0 162 -47l45 -25q35 -20 84 -20q84 0 178 86l-29 -131q-90 -76 -186 -76q-68 0 -148 41l-35 18q-59 33 -110 33q-47 0 -86 -22 q-31 -11 -92 -64z" />
<glyph unicode="&#xc4;" horiz-adv-x="1482" d="M-115 0l895 1466h131l299 -1466h-190l-100 485h-549l-295 -485h-191zM483 666h400l-103 497zM590 1556l37 168h168l-37 -168h-168zM958 1556l37 168h168l-37 -168h-168z" />
<glyph unicode="&#xc5;" horiz-adv-x="1482" d="M-135 0l895 1466h131l299 -1466h-191l-100 485h-549l-295 -485h-190zM463 666h399l-102 495zM694 1710q18 88 86 145q72 59 148 60q78 0 121 -60q43 -55 26 -145q-18 -82 -88 -143q-63 -57 -145 -57.5t-123 57.5q-43 61 -25 143zM780 1710q-12 -47 13 -80q25 -35 65 -35 q47 0 82 33q39 31 51 82q8 45 -16 80q-29 35 -68 35t-80 -35q-39 -33 -47 -80z" />
<glyph unicode="&#xc6;" horiz-adv-x="2193" d="M-84 0l1468 1468h861l-39 -180h-580l-133 -624h559l-37 -177h-559l-65 -307h598l-39 -180h-883l104 487h-505l-488 -487h-262zM793 664h407l107 501z" />
<glyph unicode="&#xc7;" horiz-adv-x="1538" d="M125 729q68 315 313 528q242 209 551 209q305 0 465 -209q88 -115 107 -262h-203q-23 74 -64 129q-115 158 -338 158q-227 0 -413 -158q-182 -156 -232 -395q-53 -233 68 -391q117 -156 338 -156q225 0 411 158q61 53 121 137h203q-82 -152 -223 -268 q-248 -207 -561 -207q-301 0 -455 207q-156 211 -88 520zM326 -510l53 98q61 -33 127 -32q115 0 133 84q8 49 -37 75.5t-133 32.5l156 205h125l-109 -133q74 -8 116 -54.5t27 -115.5q-23 -102 -105.5 -151.5t-197.5 -49.5q-94 0 -155 41z" />
<glyph unicode="&#xc8;" horiz-adv-x="937" d="M-135 0l311 1466h766l-39 -180h-579l-131 -620h559l-39 -181h-559l-66 -307h598l-37 -178h-784zM410 1901h188l64 -308h-99z" />
<glyph unicode="&#xc9;" horiz-adv-x="937" d="M-141 0l311 1466h766l-37 -180h-580l-133 -620h559l-36 -181h-559l-66 -307h598l-39 -178h-784zM502 1645l196 307h185l-281 -307h-100z" />
<glyph unicode="&#xca;" horiz-adv-x="937" d="M-129 0l311 1466h766l-39 -180h-579l-131 -620h559l-39 -181h-559l-66 -307h598l-37 -178h-784zM231 1552l287 293h213l164 -293h-137l-152 201l-244 -201h-131z" />
<glyph unicode="&#xcb;" horiz-adv-x="937" d="M-90 0l313 1475h168l-2 -7h201l2 7h168l-2 -7h229l-37 -180h-579l-133 -622h559l-39 -179h-559l-64 -307h598l-39 -180h-784z" />
<glyph unicode="&#xcc;" horiz-adv-x="339" d="M-135 0l311 1466h186l-311 -1466h-186zM102 1901h189l63 -308h-98z" />
<glyph unicode="&#xcd;" horiz-adv-x="339" d="M-141 0l311 1466h186l-311 -1466h-186zM256 1647l197 307h186l-283 -307h-100z" />
<glyph unicode="&#xce;" horiz-adv-x="339" d="M-129 0l311 1466h187l-312 -1466h-186zM10 1552l287 293h213l164 -293h-137l-152 201l-244 -201h-131z" />
<glyph unicode="&#xcf;" horiz-adv-x="339" d="M-127 0l311 1466h187l-312 -1466h-186zM72 1651l37 168h167l-36 -168h-168zM440 1651l37 168h168l-37 -168h-168z" />
<glyph unicode="&#xd0;" horiz-adv-x="1318" d="M-90 0l313 1466h373q276 0 422 -90q139 -88 199 -264q59 -178 14 -381q-31 -143 -113 -280q-82 -139 -198 -238q-119 -100 -265 -158q-111 -39 -149 -45q-76 -10 -248 -10h-348zM135 178h172q145 0 236 23q84 20 149 55q53 31 117 82q137 123 205 305h-781zM270 811h783 q20 195 -80 324q-43 59 -105 94q-59 33 -127 47q-51 10 -204 10h-166z" />
<glyph unicode="&#xd1;" horiz-adv-x="1411" d="M-123 0l311 1460l865 -1024l219 1030h176l-311 -1460l-869 1014l-217 -1020h-174zM475 1567l27 125q82 82 190 82q76 0 162 -48l47 -24q35 -20 82 -21q82 0 178 86l-28 -131q-88 -76 -187 -75q-68 0 -147 41l-35 18q-59 33 -111 33q-47 0 -86 -23q-33 -10 -92 -63z" />
<glyph unicode="&#xd2;" horiz-adv-x="1576" d="M23 725q68 322 313 530q248 211 551 211q305 0 467 -211q160 -213 92 -526q-68 -317 -316 -522q-250 -207 -565 -207q-301 0 -454 207q-156 207 -88 518zM209 725q-49 -233 67 -389q117 -158 340.5 -158t409.5 162q182 152 236 393q49 233 -70 389q-117 158 -336 158 q-233 0 -414 -156q-180 -157 -233 -399zM694 1868h187l63 -307h-98z" />
<glyph unicode="&#xd3;" horiz-adv-x="1576" d="M12 725q72 324 316 530q248 211 551 211q307 0 464 -211q162 -211 95 -526q-68 -317 -318 -522q-246 -207 -563 -207q-301 0 -455 207q-156 203 -90 518zM199 725q-49 -233 69 -389q117 -158 338 -158t412 162q184 156 233 393q49 236 -67 389q-117 158 -336 158 q-233 0 -414 -156q-182 -155 -235 -399zM842 1647l196 307h187l-283 -307h-100z" />
<glyph unicode="&#xd4;" horiz-adv-x="1576" d="M25 725q68 319 315.5 530t550.5 211q307 0 465 -211q162 -211 94 -526t-317 -522q-246 -207 -566 -207q-299 0 -452 207q-156 203 -90 518zM211 725q-49 -233 68 -389q117 -158 340 -158t409 162q186 156 236 393q49 236 -68 389q-121 158 -338 158q-231 0 -414 -156 q-182 -157 -233 -399zM578 1548l288 293h211l166 -293h-137l-152 201l-243 -201h-133z" />
<glyph unicode="&#xd5;" horiz-adv-x="1576" d="M35 727q68 319 313 528q248 211 551 211q305 0 467 -211q160 -211 92 -524q-68 -319 -315 -524q-250 -207 -565 -207q-301 0 -455 207q-156 209 -88 520zM221 727q-49 -233 68 -391q117 -156 340 -156q225 0 409 160q182 156 236 395q49 231 -70 387q-119 160 -336 160 q-231 0 -413 -158q-181 -153 -234 -397zM557 1546l27 125q82 82 190 82q76 0 162 -47l45 -25q39 -20 84 -20q82 0 178 86l-29 -131q-88 -76 -186 -76q-68 0 -147 41l-35 18q-59 33 -111 33q-47 0 -86 -22q-33 -11 -92 -64z" />
<glyph unicode="&#xd6;" horiz-adv-x="1576" d="M39 727q68 324 313 528q248 211 551 211q305 0 467 -211q160 -211 92 -524q-68 -319 -315 -524q-250 -207 -565 -207q-301 0 -455 207q-156 209 -88 520zM225 727q-49 -233 68 -391q117 -156 340 -156q225 0 409 160q182 156 236 395q49 231 -70 389q-117 158 -336 158 q-229 0 -413 -156q-181 -155 -234 -399zM633 1546l35 168h168l-35 -168h-168zM1001 1546l35 168h168l-35 -168h-168z" />
<glyph unicode="&#xd7;" horiz-adv-x="980" d="M4 297l363 303l-217 281l143 118l217 -280l358 301l88 -113l-360 -299l217 -280l-143 -119l-217 280l-363 -303z" />
<glyph unicode="&#xd8;" horiz-adv-x="1576" d="M70 727q68 322 313 530q248 211 551 211q49 0 100 -6l4 8h131l-18 -34q150 -49 248 -179q162 -211 94 -526q-68 -317 -317.5 -524t-563.5 -207q-59 0 -131 10l-22 -47h-131l39 80q-131 55 -209 164q-156 211 -88 520zM256 727q-53 -233 68 -391q49 -68 129 -111l497 1055 q-20 2 -47 2q-233 0 -414 -156q-184 -155 -233 -399zM565 188q43 -8 97 -8q223 0 411 160q184 160 233.5 395.5t-67.5 388.5q-68 90 -172 131z" />
<glyph unicode="&#xd9;" horiz-adv-x="1320" d="M-23 391q-4 90 35 260l172 817h187l-174 -819q-43 -209 -17 -291q33 -86 109 -133q84 -51 205 -51q172 0 307 100q72 55 112 129q41 72 78 246l174 819h187l-174 -819q-31 -152 -78 -254q-45 -94 -86 -145q-43 -55 -105 -100q-193 -150 -452 -150q-264 0 -394 150 q-43 49 -59 100q-21 55 -27 141zM573 1823h189l63 -307h-98z" />
<glyph unicode="&#xda;" horiz-adv-x="1320" d="M-35 391q-6 86 33 260l172 817h186l-172 -819q-45 -203 -16 -291q29 -86 106 -133q84 -51 205 -51q172 0 307 100q72 55 113 129q43 78 80 246l172 819h186l-172 -819q-37 -168 -80 -254q-37 -84 -86 -145q-47 -59 -104 -100q-193 -150 -451 -150q-266 0 -395 150 q-37 43 -59 100q-23 57 -25 141zM653 1647l197 307h186l-282 -307h-101z" />
<glyph unicode="&#xdb;" horiz-adv-x="1320" d="M-25 391q-4 98 33 260l174 817h187l-174 -819q-45 -203 -17 -291q29 -86 107 -133q84 -51 204 -51q172 0 308 100q72 55 112 129q43 78 80 246l174 819h187l-174 -819q-37 -168 -80 -254q-41 -90 -84 -145q-51 -61 -107 -100q-193 -150 -450 -150q-266 0 -396 150 q-37 43 -59 100q-21 57 -25 141zM424 1563l289 292h211l166 -292h-138l-151 200l-244 -200h-133z" />
<glyph unicode="&#xdc;" horiz-adv-x="1320" d="M-10 391q-4 86 33 260l174 817h186l-174 -819q-43 -209 -16 -291q29 -86 106 -133q80 -49 205 -49q178 0 307 98q78 59 113 129q43 78 80 246l174 819h186l-174 -819q-35 -164 -78 -254q-45 -96 -86 -143q-47 -61 -104 -102q-197 -150 -453 -150q-266 0 -395 150 q-37 43 -60 102q-20 55 -24 139zM508 1546l35 168h168l-35 -168h-168zM877 1546l34 168h168l-35 -168h-167z" />
<glyph unicode="&#xdd;" horiz-adv-x="1353" d="M115 1466h225l305 -589l557 589h223l-718 -731l-156 -735h-191l156 735zM692 1647l197 307h186l-282 -307h-101z" />
<glyph unicode="&#xde;" horiz-adv-x="1011" d="M-86 -2l305 1436h172l-59 -277q156 39 223 39q211 0 313 -139q100 -139 52 -369q-49 -221 -185 -356q-137 -137 -305 -137q-70 0 -150.5 24.5t-132.5 67.5l-61 -289h-172zM184 459q41 -43 112 -68.5t126 -25.5q115 0 207 94q90 90 121 237q31 145 -25 238q-59 94 -178 94 q-143 0 -248 -31z" />
<glyph unicode="&#xdf;" horiz-adv-x="1212" d="M-88 4l207 975q47 215 110.5 343t163.5 204q170 129 391 129q186 0 291 -112.5t62 -311.5q-23 -117 -101 -203q-197 -74 -227 -211q-2 -41 -4 -61.5t15.5 -53t30.5 -52t42 -56.5q78 -102 104 -164q41 -102 17 -221q-37 -178 -181.5 -288.5t-349.5 -110.5h-262l35 161h246 q119 0 199.5 62.5t99.5 156.5q16 76 -4.5 135.5t-77.5 129.5q-78 92 -111 165.5t-14 167.5q43 197 293 308q33 53 45 112q27 131 -29.5 207t-177.5 76q-154 0 -256 -119t-160 -383l-209 -985h-188z" />
<glyph unicode="&#xe0;" horiz-adv-x="849" d="M-18 291q12 61 53 121q37 55 94 96q49 41 125 67q68 25 139 25h178l2 12q18 80 -10 144q-29 57 -92 59q-74 2 -127 -8q-20 -4 -80 -25l-12 138l16 6q2 0 8 3l11 5q8 0 12 2l4 4q10 2 29.5 7t35 9.5t27.5 8.5q29 6 111 6q72 0 119 -27q51 -31 82 -76q72 -100 45 -233 l-136 -635h-172l7 29q-41 -20 -72 -29q-55 -16 -117 -16q-70 0 -129 24q-57 25 -94 68q-39 39 -55 96q-14 53 -2 119zM156 233q8 -29 28 -47q25 -20 47 -30q27 -10 66 -11q76 0 135 41q31 25 49 47q18 29 25 60l31 147h-179q-41 0 -67 -12q-70 -25 -111 -82q-18 -23 -24 -55 q-6 -31 0 -58zM362 1401h189l63 -307h-98z" />
<glyph unicode="&#xe1;" horiz-adv-x="849" d="M-20 291q12 61 53 121q37 55 94 96q49 41 125 67q68 25 139 25h178l2 12q18 82 -12 144q-29 57 -90 59q-74 2 -127 -8q-20 -4 -80 -25l-12 138l16 6q4 0 19 6q2 2 6 2t6 2l4 2q6 2 92 27q43 6 111 6q72 0 119 -27q51 -31 82 -76q72 -104 43 -233l-134 -635h-172l7 29 q-47 -23 -72 -29q-55 -16 -117 -16q-72 0 -129 24.5t-94 67.5q-39 39 -55 96q-16 60 -2 119zM154 233q10 -29 28 -47q25 -20 47 -30q25 -10 66 -11q80 0 135 41q31 25 49 47q18 29 25 60l31 147h-179q-41 0 -67 -12q-70 -25 -111 -82q-18 -23 -24 -55q-6 -31 0 -58z M393 1114l197 307h186l-282 -307h-101z" />
<glyph unicode="&#xe2;" horiz-adv-x="849" d="M-23 291q12 61 54 121q37 55 94 96q49 41 125 67q68 25 139 25h178l2 12q18 80 -10 144q-31 57 -92 59q-74 2 -127 -8q-20 -4 -80 -25l-12 138l16 6q6 0 19 6q2 2 6 2t6 2l4 2q10 2 29.5 7t35 9t27.5 9q39 8 110.5 8t119.5 -27q51 -31 81 -76q72 -104 43 -233l-133 -635 h-172l6 29q-41 -20 -71 -29q-55 -16 -117 -16q-70 0 -129 24q-57 25 -94 68q-39 39 -55 96q-15 53 -3 119zM152 233q8 -29 28 -47q25 -20 47 -30q27 -10 66 -11q80 0 135 41q27 16 49 47q18 29 25 60l30 147h-178q-41 0 -67 -12q-70 -25 -111 -82q-18 -23 -24 -55 q-6 -31 0 -58zM164 1147l289 293h211l165 -293h-137l-151 201l-244 -201h-133z" />
<glyph unicode="&#xe3;" horiz-adv-x="849" d="M-16 291q16 63 55 121q37 55 92 98q55 41 127 65q68 25 139 25h178l3 12q18 82 -13 144q-27 55 -90 59q-74 2 -127 -8q-16 -4 -42.5 -12.5t-37.5 -10.5l-12 136l16 6q8 4 19 8q8 0 12 2l2 4q66 16 94 25q39 8 111 8q68 0 119 -29q53 -33 82 -76q72 -104 43 -233 l-136 -635h-172l7 29q-43 -20 -70 -29q-59 -16 -117 -16q-70 0 -129 24q-55 23 -96 68q-39 41 -53 96q-16 58 -4 119zM158 291q-6 -33 2 -58q8 -29 28 -47q18 -18 48 -30q27 -10 65 -11q76 0 135 41q33 29 47 47q16 20 27 60l31 147h-181q-39 0 -67 -12q-68 -25 -109 -82 q-18 -22 -26 -55zM170 1161l27 125q82 82 190 82q76 0 162 -47l45 -25q39 -20 84 -20q84 0 178 86l-29 -131q-90 -76 -186 -76q-68 0 -147 41l-35 18q-59 33 -111 33q-41 0 -86 -22q-35 -15 -92 -64z" />
<glyph unicode="&#xe4;" horiz-adv-x="849" d="M-8 291q10 53 53 121q35 51 94 98q53 39 125 65q72 25 142 25h176l4 12q14 84 -13 144q-29 59 -92 59q-74 2 -125 -8q-16 -4 -44.5 -12.5t-37.5 -10.5l-10 136l15 8q6 0 18 6q6 0 14 4l2 2q66 16 93 25q41 8 110 8q72 0 119 -29q49 -29 84 -76q70 -102 43 -233l-135 -635 h-172l6 29q-39 -20 -70 -29q-59 -16 -117 -16q-74 0 -131 24.5t-94 67.5q-37 37 -53 96q-16 58 -4 119zM166 291q-6 -33 2 -58q10 -31 27 -47q25 -20 49 -30q23 -10 63 -11q76 0 137 41q33 29 48 47q18 29 24 60l33 147h-180q-41 0 -68 -12q-70 -27 -111 -82 q-18 -22 -24 -55zM266 1128l37 170h168l-37 -170h-168zM635 1128l37 170h168l-37 -170h-168z" />
<glyph unicode="&#xe5;" horiz-adv-x="849" d="M-23 291q12 61 54 121q37 55 94 96q49 41 125 67q68 25 139 25h178l2 12q18 82 -12 144q-29 55 -90 59q-74 2 -127 -8q-16 -4 -80 -25l-12 136l16 8q2 0 19 6q2 2 6 2t6 2l2 2q66 16 94 25q39 8 110.5 8t119.5 -27q51 -31 81 -76q72 -106 43 -233l-133 -635h-172l4 29 q-43 -20 -69 -29q-59 -16 -117 -16q-70 0 -129 24q-55 23 -96 68q-39 41 -53 96q-17 60 -3 119zM152 233q8 -29 28 -47q25 -20 47 -30q27 -10 66 -11q80 0 135 41q18 12 49 47q18 29 25 60l30 147h-178q-41 0 -67 -12q-70 -25 -111 -82q-18 -23 -24 -55q-8 -38 0 -58z M344 1237q18 84 86 145q72 59 150 60q74 0 120 -60q43 -59 25 -145q-18 -82 -86 -143q-66 -57 -147.5 -57.5t-122.5 57.5q-43 61 -25 143zM430 1237q-10 -49 12 -80q25 -35 66 -35q45 0 84 33q41 35 49 82q8 49 -16 80q-29 35 -68 35t-80 -35q-37 -31 -47 -80z" />
<glyph unicode="&#xe6;" horiz-adv-x="1480" d="M27 307q12 61 53 123q39 55 92 96q59 45 127 68q68 25 139 24h178l2 13q18 82 -12 143q-29 59 -90 60q-74 2 -127 -9q-14 -4 -40.5 -11t-39.5 -11l-12 135l16 8q6 0 19 6q2 2 6 2t6 2l4 2q10 2 29.5 7.5t35 9.5t27.5 8q39 8 111 8q68 0 119 -28q66 -39 102 -107l10 4 q2 2 4 2q143 137 328 137q195 0 266 -133q66 -117 9 -387l-5 -20h-630l-6 -31q-10 -98 49 -174q61 -84 192 -84q174 0 344 115l-37 -179q-102 -59 -178 -81q-82 -25 -192 -25q-147 0 -226 66q-2 2 -5 6t-8 8t-11 10l-17 -74h-172l7 29q-43 -20 -70 -29q-59 -16 -117 -16 q-70 0 -129 25q-55 23 -96 67q-39 41 -53 98q-16 60 -2 117zM201 252q8 -27 28 -47q16 -18 47 -33q27 -10 66 -10q78 0 135 43q31 23 47 47q20 23 27 57l31 148h-179q-39 0 -67 -11q-70 -25 -111 -84q-16 -18 -24 -55q-8 -35 0 -55zM788 618h465q14 94 -30 160 q-45 63 -142 64q-100 0 -176 -64q-80 -68 -117 -160z" />
<glyph unicode="&#xe7;" horiz-adv-x="1085" d="M-82 -471l55 98q61 -33 127 -33q115 0 131 84q10 49 -34.5 76t-135.5 35l158 205h125l-108 -133q74 -10 115.5 -56.5t27.5 -115.5q-23 -102 -106 -151.5t-197 -49.5q-92 0 -158 41zM119 477q45 209 211 350.5t372 141.5q205 0 308 -142q57 -76 67 -178h-182 q-20 45 -35 64q-68 92 -203 92q-133 0 -233 -92q-104 -90 -133 -234q-31 -141 35 -233q66 -90 202 -90q127 0 238 92q37 33 70 80h182q-57 -119 -160 -205q-160 -135 -373 -135q-199 0 -307 139q-102 135 -59 350z" />
<glyph unicode="&#xe8;" horiz-adv-x="954" d="M23 225q-31 113 0 260q45 217 192 359q143 137 328 137q190 0 266 -133q66 -115 10 -387l-6 -19h-633q-20 -121 45 -204q61 -84 193 -84q174 0 344 112l-37 -176q-98 -59 -178 -82q-84 -25 -193 -24q-147 0 -223 65q-77 61 -108 176zM219 600h463q16 90 -31 160 q-47 63 -141 63q-100 0 -176 -63q-82 -68 -115 -160zM381 1401h188l64 -307h-98z" />
<glyph unicode="&#xe9;" horiz-adv-x="954" d="M20 225q-31 113 0 260q45 221 193 359q141 135 328 135q193 0 266 -131q66 -117 8 -387l-4 -19h-633q-20 -121 45 -204q61 -84 193 -84q174 0 344 112l-37 -176q-96 -57 -178 -81.5t-193 -24.5q-147 0 -223 65q-78 61 -109 176zM215 600h465q14 94 -31 160 q-47 63 -141 63q-100 0 -176 -63q-80 -68 -117 -160zM451 1114l196 307h187l-283 -307h-100z" />
<glyph unicode="&#xea;" horiz-adv-x="954" d="M18 225q-31 113 0 260q45 217 193 359q141 135 328 135q193 0 266 -131q66 -117 8 -387l-4 -19h-633q-20 -121 45 -204q61 -84 193 -84q174 0 344 112l-37 -176q-98 -59 -178 -82q-84 -25 -193 -24q-147 0 -223 65q-78 61 -109 176zM164 1147l289 293h211l165 -293h-137 l-151 201l-244 -201h-133zM215 600h463q16 90 -31 160q-47 63 -141 63q-100 0 -176 -63q-82 -68 -115 -160z" />
<glyph unicode="&#xeb;" horiz-adv-x="954" d="M33 227q-31 111 0 258q49 221 192.5 358.5t327.5 137.5q190 0 268 -133q63 -111 8 -387l-4 -19h-632q-20 -123 43 -204q66 -84 192 -84q172 0 346 112l-39 -176q-98 -59 -176 -82q-86 -25 -192 -24q-147 0 -225 65t-109 178zM229 600h463q16 94 -30 160q-43 63 -141.5 63 t-174.5 -63q-82 -66 -117 -160zM307 1128l37 170h168l-37 -170h-168zM676 1128l37 170h168l-37 -170h-168z" />
<glyph unicode="&#xec;" d="M-82 0l205 963h168l-205 -963h-168zM57 1401h187l63 -307h-98z" />
<glyph unicode="&#xed;" d="M-84 0l205 963h168l-205 -963h-168zM164 1114l194 307h187l-281 -307h-100z" />
<glyph unicode="&#xee;" d="M-86 0l205 963h168l-205 -963h-168zM-63 1147l288 293h211l166 -293h-137l-152 201l-243 -201h-133z" />
<glyph unicode="&#xef;" d="M-90 0l205 963h168l-205 -963h-168zM2 1305l37 170h168l-37 -170h-168zM371 1305l37 170h167l-36 -170h-168z" />
<glyph unicode="&#xf1;" horiz-adv-x="901" d="M-139 0l205 965h172l-21 -93q51 51 104.5 77t85 30t89.5 4q102 0 166 -47q61 -47 81 -127q20 -74 -18 -256l-117 -553h-168l117 551q31 145 2 215q-31 66 -131 65q-127 0 -250 -139l-145 -692h-172zM168 1161l27 125q82 82 190 82q76 0 162 -47l45 -25q39 -20 84 -20 q82 0 178 86l-29 -131q-88 -76 -186 -76q-68 0 -147 41l-35 18q-59 33 -111 33q-41 0 -86 -22q-39 -17 -92 -64z" />
<glyph unicode="&#xf2;" horiz-adv-x="1103" d="M23 489q43 211 208 353q170 141 373 141q205 0 309 -141q104 -143 58 -359q-43 -209 -209 -346q-164 -137 -375 -137q-201 0 -305 141q-104 139 -59 348zM193 492q-31 -141 34.5 -231.5t202.5 -90.5q131 0 238 92q104 86 135 232q31 139 -39 233q-72 92 -205 92 q-129 0 -233 -92q-100 -90 -133 -235zM442 1401h187l63 -307h-98z" />
<glyph unicode="&#xf3;" horiz-adv-x="1103" d="M20 489q43 211 209 353q166 139 373 139t309 -139q104 -143 58 -359q-43 -209 -209 -346q-164 -137 -375 -137q-201 0 -305 141q-105 139 -60 348zM190 492q-31 -141 35 -231.5t203 -90.5q129 0 238 92q104 86 135 232q31 139 -41 233q-68 92 -203 92q-125 0 -233 -92 q-101 -90 -134 -235zM510 1114l195 307h186l-281 -307h-100z" />
<glyph unicode="&#xf4;" horiz-adv-x="1103" d="M18 489q43 211 209 353q170 139 373 139q207 0 309 -139q104 -143 58 -359q-43 -209 -209 -346q-164 -137 -375 -137q-201 0 -305 141q-105 139 -60 348zM188 492q-31 -141 35 -231.5t203 -90.5q131 0 238 92q104 86 135 232q31 139 -41 233q-70 92 -203 92 q-125 0 -233 -92q-101 -90 -134 -235zM276 1147l289 293h211l166 -293h-137l-152 201l-243 -201h-134z" />
<glyph unicode="&#xf5;" horiz-adv-x="1103" d="M25 489q45 211 210.5 352.5t372.5 141.5q203 0 310 -141q104 -143 57 -359q-47 -213 -211 -346q-162 -137 -373 -137q-199 0 -307 141q-102 135 -59 348zM197 492q-31 -141 34 -232q63 -90 203 -90q131 0 238 92q104 86 135 232q29 139 -41 233q-68 92 -203 92 q-133 0 -233 -92q-104 -92 -133 -235zM276 1161l27 125q82 82 191 82q76 0 161 -47l45 -25q39 -20 84 -20q84 0 179 86l-29 -131q-88 -76 -186 -76q-68 0 -148 41l-35 18q-59 33 -110 33q-41 0 -86 -22q-40 -17 -93 -64z" />
<glyph unicode="&#xf6;" horiz-adv-x="1103" d="M33 489q45 211 211 352.5t372 141.5q203 0 307.5 -141.5t57.5 -358.5q-43 -209 -209 -346q-164 -137 -373 -137q-199 0 -307 141q-104 139 -59 348zM203 492q-29 -137 37 -232q63 -90 200 -90q133 0 240 92q102 90 133 232q31 139 -39 233q-68 92 -203 92 q-131 0 -235 -92q-100 -90 -133 -235zM362 1128l37 170h168l-37 -170h-168zM731 1128l37 170h168l-37 -170h-168z" />
<glyph unicode="&#xf7;" horiz-adv-x="1091" d="M49 557l35 168h938l-35 -168h-938zM354 164l35 170h168l-35 -170h-168zM522 950l35 170h168l-35 -170h-168z" />
<glyph unicode="&#xf8;" horiz-adv-x="1103" d="M63 492q47 215 211 350q166 141 373 141q29 0 49 -2l131 279h131l-145 -308q88 -37 141 -110q104 -139 58 -357q-43 -209 -209 -346q-164 -137 -373 -137q-18 0 -63 4l-119 -254h-131l133 285q-78 41 -127 106q-105 138 -60 349zM233 494q-31 -141 37 -234q23 -33 60 -55 l291 616h-19q-129 0 -235 -94q-101 -86 -134 -233zM444 170h27q129 0 240 92q102 90 133 234q31 139 -39 231q-27 35 -68 61z" />
<glyph unicode="&#xf9;" horiz-adv-x="899" d="M-12 152q-18 78 18 260l119 551h168l-117 -549q-35 -152 -6 -217q31 -61 133 -62q133 0 252 137l147 691h168l-204 -963h-168l28 135q-76 -74 -161 -115q-80 -37 -152 -36q-86 0 -145 45q-60 47 -80 123zM379 1401h188l64 -307h-99z" />
<glyph unicode="&#xfa;" horiz-adv-x="899" d="M-14 152q-18 78 18 260l119 551h168l-117 -549q-35 -152 -6 -217q29 -61 133 -62q133 0 252 137l147 691h168l-204 -963h-168l28 135q-76 -74 -162 -115q-80 -37 -151 -36q-86 0 -145 45q-60 47 -80 123zM381 1114l197 307h186l-283 -307h-100z" />
<glyph unicode="&#xfb;" horiz-adv-x="899" d="M-16 152q-18 78 18 260l119 551h168l-117 -549q-35 -154 -6 -217q31 -61 133 -62q133 0 252 137l147 691h168l-204 -963h-168l28 135q-76 -74 -162 -115q-80 -37 -151 -36q-86 0 -146 45q-59 47 -79 123zM164 1147l289 293h211l165 -293h-137l-151 201l-244 -201h-133z " />
<glyph unicode="&#xfc;" horiz-adv-x="899" d="M0 152q-23 78 18 260l117 553h168l-117 -551q-33 -150 -4 -217q27 -61 131 -62q133 0 252 137l148 693h168l-205 -965h-168l29 135q-80 -76 -162 -115q-80 -37 -150 -36q-88 0 -145 45q-62 45 -80 123zM289 1128l37 170h168l-37 -170h-168zM657 1128l37 170h168l-37 -170 h-168z" />
<glyph unicode="&#xfd;" horiz-adv-x="1021" d="M-94 -494l452 699l-182 760h191l127 -557l356 557h188l-944 -1459h-188zM518 1114l197 307h186l-283 -307h-100z" />
<glyph unicode="&#xfe;" horiz-adv-x="1011" d="M-137 -492l407 1926h172l-102 -482q156 39 223 39q211 0 314 -139q100 -139 51 -369q-47 -219 -185 -354q-135 -139 -305 -139q-72 0 -151.5 24.5t-130.5 69.5l-121 -576h-172zM193 254q41 -43 111.5 -67.5t125.5 -24.5q117 0 207 92q94 96 123 238q31 145 -27 237 q-55 92 -178 92q-139 0 -248 -28z" />
<glyph unicode="&#xff;" horiz-adv-x="1021" d="M-80 -494l451 699l-183 760h193l127 -557l354 557h191l-947 -1459h-186zM358 1130l35 168h168l-35 -168h-168zM727 1130l35 168h168l-35 -168h-168z" />
<glyph unicode="&#x152;" horiz-adv-x="2224" d="M66 727q68 322 313 530q248 211 551 211q309 0 467 -211q6 -8 22.5 -33.5t28.5 -43.5l61 288h766l-39 -180h-579l-133 -624h561l-37 -177h-561l-66 -307h598l-39 -180h-784l61 285q-68 -63 -86 -78q-250 -207 -563 -207q-301 0 -454 207q-156 211 -88 520zM252 727 q-49 -238 67 -391q117 -156 338 -156q223 0 412 160q184 160 236 395q49 231 -70 389q-117 158 -336 158q-233 0 -414 -156q-182 -155 -233 -399z" />
<glyph unicode="&#x153;" horiz-adv-x="1763" d="M66 498q47 215 210 354q170 141 373 141t309 -143q18 -29 39 -66q43 53 70 78q139 137 328 137q193 0 268 -133q68 -115 8 -387l-4 -20h-635q-10 -72 1 -116t46 -89q61 -84 191 -84q178 0 344 115l-37 -179q-104 -61 -176 -81q-76 -25 -195 -25q-147 0 -225 66 q-63 55 -100 153q-33 -39 -76 -74q-164 -137 -373 -137q-201 0 -307 139q-102 140 -59 351zM238 500q-31 -141 34.5 -231.5t202.5 -90.5q133 0 238 90q104 92 135 234q31 139 -41 235q-66 92 -203 92q-133 0 -233 -92q-106 -96 -133 -237zM1069 618h467q12 98 -31 160 q-45 63 -143 64q-100 0 -176 -64q-80 -68 -117 -160z" />
<glyph unicode="&#x178;" horiz-adv-x="1353" d="M141 1466h228l305 -589l557 589h221l-717 -729l-155 -737h-191l156 737zM506 1528l35 168h168l-35 -168h-168zM874 1528l35 168h168l-35 -168h-168z" />
<glyph unicode="&#x2c6;" horiz-adv-x="829" d="M39 1139l291 301h211l164 -301h-138l-149 204l-246 -204h-133z" />
<glyph unicode="&#x2dc;" horiz-adv-x="796" d="M45 1153l27 131q84 84 190 84q74 0 162 -49l47 -25q39 -23 82 -22q86 0 178 90l-29 -137q-90 -78 -186 -78q-70 0 -147 43l-35 18q-59 33 -111 33q-47 0 -86 -22q-31 -13 -92 -66z" />
<glyph unicode="&#x2000;" horiz-adv-x="976" />
<glyph unicode="&#x2001;" horiz-adv-x="1953" />
<glyph unicode="&#x2002;" horiz-adv-x="976" />
<glyph unicode="&#x2003;" horiz-adv-x="1953" />
<glyph unicode="&#x2004;" horiz-adv-x="651" />
<glyph unicode="&#x2005;" horiz-adv-x="487" />
<glyph unicode="&#x2006;" horiz-adv-x="325" />
<glyph unicode="&#x2007;" horiz-adv-x="325" />
<glyph unicode="&#x2008;" horiz-adv-x="243" />
<glyph unicode="&#x2009;" horiz-adv-x="389" />
<glyph unicode="&#x200a;" horiz-adv-x="108" />
<glyph unicode="&#x2010;" horiz-adv-x="1089" d="M47 532l39 177h936l-39 -177h-936z" />
<glyph unicode="&#x2011;" horiz-adv-x="1089" d="M47 532l39 177h936l-39 -177h-936z" />
<glyph unicode="&#x2012;" horiz-adv-x="1089" d="M47 532l39 177h936l-39 -177h-936z" />
<glyph unicode="&#x2013;" horiz-adv-x="1007" d="M47 532l39 177h854l-39 -177h-854z" />
<glyph unicode="&#x2014;" horiz-adv-x="1560" d="M47 532l39 177h1407l-39 -177h-1407z" />
<glyph unicode="&#x2018;" horiz-adv-x="354" d="M14 1024l37 176l207 316h59l-151 -320h53l-37 -172h-168z" />
<glyph unicode="&#x2019;" horiz-adv-x="354" d="M16 1126l152 320h-53l37 172h167l-36 -172l-207 -320h-60z" />
<glyph unicode="&#x201a;" horiz-adv-x="354" d="M16 -307l152 319h-53l37 172h167l-36 -172l-207 -319h-60z" />
<glyph unicode="&#x201c;" horiz-adv-x="559" d="M14 1024l37 176l207 316h59l-151 -320h53l-37 -172h-168zM219 1024l37 176l207 316h59l-151 -320h53l-37 -172h-168z" />
<glyph unicode="&#x201d;" horiz-adv-x="559" d="M16 1126l152 320h-53l37 172h167l-36 -172l-207 -320h-60zM221 1126l152 320h-54l37 172h168l-37 -172l-206 -320h-60z" />
<glyph unicode="&#x201e;" horiz-adv-x="354" d="M16 -307l152 319h-53l37 172h167l-36 -172l-207 -319h-60z" />
<glyph unicode="&#x2022;" horiz-adv-x="720" d="M68 698q25 121 125 205t218.5 84t183 -84t40.5 -205q-27 -121 -127 -204.5t-219 -83.5t-183.5 83.5t-37.5 204.5z" />
<glyph unicode="&#x2026;" d="M47 0l39 178h168l-39 -178h-168z" />
<glyph unicode="&#x202f;" horiz-adv-x="389" />
<glyph unicode="&#x2039;" horiz-adv-x="614" d="M68 649l397 481h162l-398 -481l191 -485h-162z" />
<glyph unicode="&#x203a;" horiz-adv-x="614" d="M-33 164l398 483l-191 483h162l190 -483l-397 -483h-162z" />
<glyph unicode="&#x2044;" horiz-adv-x="1333" d="M-98 -82l1380 1589h129l-1380 -1589h-129z" />
<glyph unicode="&#x205f;" horiz-adv-x="487" />
<glyph unicode="&#x20ac;" horiz-adv-x="1185" d="M33 547l20 98h123l8 37q16 66 27 102h-127l20 97h140q92 229 254 366q211 178 456 178q154 0 269 -67l-68 -131q-98 59 -227 59q-170 0 -314 -121q-113 -94 -190 -284h602l-20 -97h-619q-12 -35 -25 -96l-10 -43h623l-21 -98h-608q-12 -193 60 -291q88 -127 276 -127 q143 0 274 68l7 -127q-141 -86 -332 -86q-270 0 -391 190q-94 143 -74 373h-133z" />
<glyph unicode="&#x2122;" horiz-adv-x="2697" d="M1198 0l309 1462l502 -596l756 596l-310 -1462h-174l215 1020l-544 -422l-365 422l-215 -1020h-174zM184 1290l39 180h1133l-39 -180h-477l-275 -1290h-186l274 1290h-469z" />
<glyph unicode="&#xe000;" horiz-adv-x="965" d="M0 965h965v-965h-965v965z" />
<glyph unicode="&#xfb01;" horiz-adv-x="1019" d="M37 0l170 801h-129l35 162h129l14 63q49 233 164 348q119 113 244 113q53 0 122 -19l-38 -176q-31 14 -72 15q-109 0 -164 -64q-53 -59 -88 -217l-14 -63h161l-34 -162h-162l-170 -801h-168zM606 0l205 963h168l-205 -963h-168zM858 1182l37 172h168l-37 -172h-168z" />
<glyph unicode="&#xfb02;" horiz-adv-x="1019" d="M37 0l170 801h-129l35 162h129l14 63q49 233 164 348q119 113 244 113q53 0 122 -19l-38 -176q-31 14 -72 15q-109 0 -164 -64q-53 -59 -88 -217l-14 -63h161l-34 -162h-162l-170 -801h-168zM606 0l314 1468h167l-313 -1468h-168z" />
<glyph unicode="&#xfb03;" horiz-adv-x="1759" d="M1360 0l205 965h168l-205 -965h-168zM1612 1182l37 172h168l-37 -172h-168zM756 0l170 801h-129l35 162h129l14 63q49 233 164 348q119 113 244 113q53 0 122 -19l-38 -176q-31 14 -72 15q-109 0 -164 -64q-53 -59 -88 -217l-14 -63h161l-34 -162h-162l-170 -801h-168z M37 0l170 801h-129l35 162h129l14 63q49 233 164 348q119 113 244 113q53 0 122 -19l-38 -176q-31 14 -72 15q-109 0 -164 -64q-53 -59 -88 -217l-14 -63h161l-34 -162h-162l-170 -801h-168z" />
<glyph unicode="&#xfb04;" horiz-adv-x="1759" d="M1348 0l313 1468h168l-313 -1468h-168zM756 0l170 801h-129l35 162h129l14 63q49 233 164 348q119 113 244 113q53 0 122 -19l-38 -176q-31 14 -72 15q-109 0 -164 -64q-53 -59 -88 -217l-14 -63h161l-34 -162h-162l-170 -801h-168zM37 0l170 801h-129l35 162h129l14 63 q49 233 164 348q119 113 244 113q53 0 122 -19l-38 -176q-31 14 -72 15q-109 0 -164 -64q-53 -59 -88 -217l-14 -63h161l-34 -162h-162l-170 -801h-168z" />
</font>
</defs>
</svg>
