<?xml version="1.0" standalone="no"?>
<!DOCTYPE svg PUBLIC "-//W3C//DTD SVG 1.1//EN" "http://www.w3.org/Graphics/SVG/1.1/DTD/svg11.dtd" >
<svg xmlns="http://www.w3.org/2000/svg">
<metadata>
This is a custom SVG webfont generated by Font Squirrel.
Copyright   : Copyright  2012 by Tony Thomas All rights reserved
Designer    : Tony Thomas
Foundry     : MediaLoot
Foundry URL : httpwwwmedialootcom
</metadata>
<defs>
<font id="AwakeRegular" horiz-adv-x="301" >
<font-face units-per-em="2048" ascent="1526" descent="-522" />
<missing-glyph horiz-adv-x="778" />
<glyph unicode=" "  horiz-adv-x="778" />
<glyph unicode="&#x09;" horiz-adv-x="778" />
<glyph unicode="&#xa0;" horiz-adv-x="778" />
<glyph unicode="!" horiz-adv-x="372" d="M61 1505h250l-53 -1202h-143zM96 0v178h180v-178h-180z" />
<glyph unicode="&#x22;" horiz-adv-x="567" d="M61 1509h179l-21 -485h-137zM328 1509h178l-21 -485h-137z" />
<glyph unicode="#" horiz-adv-x="1327" d="M61 420v170h222l69 348h-291v170h324l84 424h160l-84 -424h370l82 424h162l-84 -424h191v-170h-222l-67 -348h289v-170h-322l-82 -420h-162l84 420h-372l-82 -420h-162l82 420h-189zM444 590h373l66 348h-371z" />
<glyph unicode="$" horiz-adv-x="876" d="M61 1085q0 168 111 277q72 70 178 94v125h178v-115h236v-186h-236v-467l43 -29q244 -164 244 -399q0 -174 -106 -281q-74 -74 -181 -96v-172h-178v162h-282v186h282v502l-37 25q-135 90 -194 176q-58 83 -58 198zM238 1116q0 -63 45 -121q27 -33 67 -65v334 q-25 -8 -53 -29q-59 -47 -59 -119zM528 201q27 14 47 30q61 55 62 136q0 100 -109 196v-362z" />
<glyph unicode="%" horiz-adv-x="1378" d="M61 1171.5q0 133.5 91 233.5q90 96 215 96t215 -96q88 -96 88 -234q0 -135 -88 -229q-92 -98 -215 -98q-125 0 -215 98q-91 96 -91 229.5zM160 0l899 1505h151l-899 -1505h-151zM205 1171q0 -68 47 -118q47 -49 110 -49q68 0 113 49q47 51 47 118q0 70 -47 121 q-45 49 -113 49q-63 0 -110 -49q-47 -51 -47 -121zM707 330q0 135 88 229q90 96 217 96q125 0 215 -96t90 -229t-90 -230q-88 -94 -215 -94q-129 0 -217 94.5t-88 229.5zM854 327.5q0 -67.5 45 -118.5q47 -51 111 -51q68 0 112 49q45 51 45 121q0 74 -45 118q-45 49 -112 50 q-63 0 -111 -50q-45 -51 -45 -118.5z" />
<glyph unicode="&#x26;" horiz-adv-x="1349" d="M61 414q0 74 27 133q29 63 72 110.5t104 87.5q88 59 119 72l10 4l-6 8q-37 49 -55 72q-16 23 -45 72q-20 39 -31 78q-12 39 -12 84q0 72 26 135q29 61 74 104t109 68q63 23 131 22q70 0 131 -20q68 -23 110 -62q47 -41 76 -104q29 -57 29 -145q0 -63 -21 -113 q-18 -51 -53 -96q-29 -39 -80 -80q-55 -41 -98 -64l-8 -4l235 -287l6 15q10 25 23 78q10 35 20 108h181q-8 -84 -35 -172q-23 -82 -74 -164l-2 -6l264 -319h-256l-133 164l-6 -9q-68 -90 -174 -141q-96 -43 -219 -43q-94 0 -176 28.5t-140 80.5q-59 53 -90 129 q-33 74 -33 176zM270 410q0 -119 68 -185q70 -63 172 -63q63 0 108 18q45 16 76 41q27 20 54 53q25 33 36 52l4 4l-286 356l-6 -4q-6 -4 -32 -16.5t-38 -22.5q-49 -29 -74 -51q-31 -29 -57 -74q-25 -42 -25 -108zM430 1147q0 -39 12 -70q20 -41 35 -61q23 -33 41 -58 q31 -33 43 -53l6 -6l6 4q12 8 36 25.5t28 19.5q47 41 55 51q23 27 39 64q14 31 14 78q0 74 -43 123q-39 49 -112 49q-63 0 -113 -45q-47 -45 -47 -121z" />
<glyph unicode="'" d="M61 1509h179l-21 -485h-137z" />
<glyph unicode="(" horiz-adv-x="618" d="M61 578q0 250 86 479q82 225 299 512h111q-121 -190 -178 -334q-51 -129 -84 -317q-27 -172 -27 -347q0 -571 289 -981h-111l-28 39q-147 203 -166 234q-47 78 -105 237q-86 234 -86 478z" />
<glyph unicode=")" horiz-adv-x="616" d="M61 -410q123 201 181 351q59 162 82 313q27 166 26 330q0 188 -33 354q-31 168 -90 326q-61 156 -166 305h111l29 -39q141 -193 164 -230q57 -102 106 -239q84 -227 84 -481q0 -248 -76 -457q-37 -109 -96 -217q-57 -104 -211 -316h-111z" />
<glyph unicode="*" horiz-adv-x="872" d="M61 1075l256 152l-254 153l74 115l228 -156l-5 254h150l-6 -254l231 154l76 -115l-258 -151l258 -152l-76 -114l-233 159l8 -260h-150l5 252l-228 -151z" />
<glyph unicode="+" horiz-adv-x="1071" d="M61 504v176h392v420h165v-420h392v-176h-392v-422h-165v422h-392z" />
<glyph unicode="," horiz-adv-x="333" d="M61 -307l84 313h-51v178h178v-178h-2l-139 -313h-70z" />
<glyph unicode="-" horiz-adv-x="1069" d="M61 532v177h947v-177h-947z" />
<glyph unicode="." d="M61 0v178h179v-178h-179z" />
<glyph unicode="/" horiz-adv-x="657" d="M61 -164l394 1507h141l-393 -1507h-142z" />
<glyph unicode="0" horiz-adv-x="1003" d="M61 731q0 334 125 545q123 209 322 209q188 0 311 -211q123 -213 123 -539q0 -334 -123 -542.5t-317 -208.5q-201 0 -320 204q-121 207 -121 543zM256 733q0 -258 65.5 -407.5t178 -149.5t178.5 150q66 143 65 401q0 256 -63 408q-61 152 -170 151h-8q-113 0 -180 -149 q-66 -150 -66 -404z" />
<glyph unicode="1" d="M61 0v1468h179v-1468h-179z" />
<glyph unicode="2" horiz-adv-x="989" d="M61 0v14l82 105q166 213 308 434q111 174 149 270q35 94 35 181q0 127 -65.5 200.5t-174.5 73.5q-86 0 -163.5 -51t-143.5 -148v269q162 139 330 139q178 0 295 -129q117 -125 116 -326q0 -84 -28 -188q-33 -104 -103 -232q-92 -162 -249 -356l-43 -53h522v-203h-867z " />
<glyph unicode="3" horiz-adv-x="843" d="M61 82v227q152 -102 301 -102q100 0 158 61q61 63 62 168q0 88 -52 152q-27 35 -63 55q-45 18 -156 33l-16 2v192h12q125 0 195 58q68 55 67 166q0 96 -65 157q-66 61 -172 62q-104 0 -236 -72v201q119 63 260 63q186 0 297 -106q111 -109 111 -289q0 -111 -43 -188 q-41 -78 -133 -129q78 -33 117 -84q41 -53 57 -117q20 -68 20 -148q0 -195 -118.5 -319.5t-301.5 -124.5q-158 0 -301 82z" />
<glyph unicode="4" horiz-adv-x="1208" d="M61 483v92l691 912h79v-823h316v-181h-316v-483h-190v483h-580zM344 664h297v403z" />
<glyph unicode="5" horiz-adv-x="901" d="M61 86v217q147 -104 289 -104q123 0 207 77.5t84 190.5q0 117 -90 194.5t-227 77.5q-131 0 -172 -20v768h632v-191h-442v-372q14 2 43 2q201 0 326 -129q129 -129 129 -330q0 -205 -127 -338q-127 -129 -328 -129q-168 0 -324 86z" />
<glyph unicode="6" horiz-adv-x="966" d="M61 526q0 178 62 353q63 178 176 327q109 145 289 283l18 14l119 -160q-152 -104 -260 -237q-102 -129 -158 -301q109 59 215 59q162 0 272.5 -123t110.5 -301q0 -184 -121 -311q-121 -129 -292 -129q-190 0 -312 145q-119 143 -119 381zM256 477q0 -125 67.5 -204.5 t172.5 -79.5q92 0 155 69q59 70 60 172q0 109 -64 172q-66 66 -172 66q-53 0 -100 -19q-49 -20 -111 -65q-8 -43 -8 -111z" />
<glyph unicode="7" horiz-adv-x="1007" d="M61 1284v201h885l-618 -1485h-217l542 1284h-592z" />
<glyph unicode="8" horiz-adv-x="995" d="M61 422q0 223 195 344q-84 72 -125 152q-39 78 -39 174q0 170 121 290q119 121 295 121q172 0 289 -119q119 -119 118 -292q0 -197 -170 -326q188 -115 189 -346q0 -182 -123 -301q-121 -119 -311 -119q-184 0 -312 121q-127 123 -127 301zM260 430q0 -102 68 -166 q70 -66 174 -65q100 0 170 59q66 59 65 154v20q0 100 -67 164q-66 63 -174 63q-106 0 -170 -63q-66 -64 -66 -166zM287 1085q0 -90 65.5 -155.5t153.5 -65.5q90 0 151 66q63 63 64 153q0 96 -62 158q-61 63 -155 63.5t-155.5 -61.5t-61.5 -158z" />
<glyph unicode="9" horiz-adv-x="974" d="M61 1067q0 184 119 309q121 127 293 127q195 0 318 -149q123 -150 122 -387q0 -266 -155 -539q-152 -270 -393 -428l-121 152q156 109 264 249q115 147 154 301q-96 -61 -220 -61q-158 0 -268 125q-113 125 -113 301zM256 1069q0 -94 68 -166q70 -70 161 -69 q106 0 213 77q12 86 13 111q0 125 -66 207q-68 82 -170 82q-96 0 -158 -70q-61 -68 -61 -172z" />
<glyph unicode=":" d="M61 84v178h179v-178h-179zM61 842v178h179v-178h-179z" />
<glyph unicode=";" horiz-adv-x="333" d="M61 -225h70l139 313h2v178h-178v-178h51zM78 846v178h178v-178h-178z" />
<glyph unicode="&#x3c;" horiz-adv-x="1073" d="M61 557v178l951 430v-188l-754 -332l754 -334v-188z" />
<glyph unicode="=" horiz-adv-x="1069" d="M61 328v176h947v-176h-947zM61 795v176h947v-176h-947z" />
<glyph unicode="&#x3e;" horiz-adv-x="1073" d="M61 123v188l754 334l-754 332v188l951 -430v-178z" />
<glyph unicode="?" horiz-adv-x="763" d="M61 1303q115 84 295 83q168 0 257 -88t89 -217q0 -94 -44 -173t-134 -185q-119 -141 -118 -305v-123h-162v125q-20 180 127 356q145 170 145 283q0 82 -50 129t-147 49q-125 0 -208 -63zM244 0h162v162h-162v-162z" />
<glyph unicode="@" horiz-adv-x="1474" d="M61 367q0 217 93 401q96 188 249.5 280.5t358.5 92.5q264 0 434 -168q172 -166 172 -428q0 -135 -61 -260q-63 -131 -162 -205q-100 -80 -213 -80q-78 0 -117 35q-20 16 -33 55q-27 -29 -67 -53q-63 -35 -121 -35q-119 0 -197 104q-76 96 -75 246q0 121 53 234 q57 117 139 184q86 72 184 72q117 0 191 -92l14 71h178l-114 -569q-10 -51 -11 -57q0 -8 6.5 -14.5t14.5 -6.5q37 0 94 53q68 61 103 144q37 86 36 178q0 184 -129 307q-131 125 -327 125q-231 0 -383 -168q-154 -170 -154 -432q0 -254 145 -389q145 -139 414 -139 q160 0 273 57q45 20 92 55t86 92l8 13h178l-18 -39q-43 -94 -142 -176q-92 -80 -213 -123q-115 -39 -266 -39q-330 0 -520 180q-193 181 -193 494zM500 342q0 -84 37 -133q33 -47 81 -47q78 0 148 100q70 102 70 238q0 86 -37 137q-37 47 -92 47q-74 0 -140 -100 q-67 -109 -67 -242z" />
<glyph unicode="A" horiz-adv-x="1462" d="M61 0l588 1468h137l615 -1468h-201l-205 483h-540l-193 -483h-201zM532 672h386l-201 475z" />
<glyph unicode="B" horiz-adv-x="1058" d="M61 0v1468h463q158 0 262 -55q106 -59 158 -141q53 -86 53 -199q0 -141 -88 -242q-55 -61 -135 -98q78 -33 135 -96q88 -100 88 -242q0 -113 -53 -198q-51 -82 -158 -142q-104 -55 -262 -55h-463zM258 184h193q158 0 217 27q59 29 92 82q35 59 35 121q0 68 -37 123 q-39 55 -105 81q-74 27 -213 27h-182v-461zM258 823h182q139 0 213 27q68 29 105 82q37 55 37 123q0 61 -35 119q-33 55 -92 83q-59 27 -217 27h-193v-461z" />
<glyph unicode="C" horiz-adv-x="1517" d="M61 727q0 317 203 530q199 209 510 209q307 0 514 -209q117 -119 166 -270h-213q-43 82 -92 131q-145 154 -367 154q-229 0 -376.5 -153.5t-147.5 -391.5q0 -233 150 -385q147 -154 368 -154q225 0 373 156q53 53 92 137h215q-51 -158 -170 -274q-207 -207 -522 -207 q-301 0 -502 207q-201 211 -201 520z" />
<glyph unicode="D" horiz-adv-x="1298" d="M61 0v1466h379q279 0 443 -90q162 -90 258 -264q96 -176 96 -381q0 -145 -53 -280q-53 -139 -150 -238q-98 -100 -233 -158q-86 -35 -142 -45q-72 -10 -245 -10h-353zM258 186h168q143 0 229 23q80 20 136 55q49 27 98 80q145 158 145 399q0 236 -149 385q-51 53 -125 93 q-74 35 -135 47q-51 10 -205 10h-162v-1092z" />
<glyph unicode="E" horiz-adv-x="917" d="M61 0v1468h777v-188h-580v-608h559v-189h-559v-295h598v-188h-795z" />
<glyph unicode="F" horiz-adv-x="851" d="M61 0v1468h730v-188h-533v-608h533v-189h-533v-483h-197z" />
<glyph unicode="G" horiz-adv-x="1525" d="M61 727q0 317 203 530q199 209 510 209q307 0 514 -209q119 -121 168 -278h-213q-33 74 -94 137q-150 156 -367 156q-229 0 -376.5 -153.5t-147.5 -391.5q0 -233 150 -385q147 -154 368 -154q223 0 373 156q47 49 90 139h-307v189h532v-201q-10 -45 -63 -126t-115 -138 q-219 -207 -522 -207q-301 0 -502 207t-201 520z" />
<glyph unicode="H" horiz-adv-x="1282" d="M61 0v1468h197v-634h768v634h195v-1468h-195v639h-768v-639h-197z" />
<glyph unicode="I" horiz-adv-x="319" d="M61 0v1468h197v-1468h-197z" />
<glyph unicode="J" horiz-adv-x="710" d="M61 -311q178 4 283 98q59 53 84 125t25 244v1312h196v-1312q0 -176 -22 -254q-20 -84 -58 -144q-37 -61 -82 -102q-164 -152 -426 -152v185z" />
<glyph unicode="K" horiz-adv-x="1284" d="M61 0v1468h197v-708l576 708h243l-592 -735l738 -733h-267l-698 688v-688h-197z" />
<glyph unicode="L" horiz-adv-x="825" d="M61 0v1468h197v-1278h506v-190h-703z" />
<glyph unicode="M" horiz-adv-x="1390" d="M61 0v1468l633 -596l635 596v-1468h-184v1006l-451 -414l-448 414v-1006h-185z" />
<glyph unicode="N" horiz-adv-x="1390" d="M61 0v1468l1082 -1017v1017h186v-1468l-1083 1008v-1008h-185z" />
<glyph unicode="O" horiz-adv-x="1556" d="M61 727q0 322 203 530q205 211 510 211q309 0 514 -211q207 -211 207 -526q0 -317 -207 -524t-524 -207q-301 0 -502 207q-201 211 -201 520zM258 727q0 -233 150 -385q147 -154 368 -154t373 158q150 156 149 389q0 227 -149 383q-152 156 -367 156 q-229 0 -376.5 -153.5t-147.5 -393.5z" />
<glyph unicode="P" horiz-adv-x="985" d="M61 0v1468h435q193 0 311 -114q117 -113 117 -303q0 -127 -59.5 -227.5t-164.5 -143.5q-102 -45 -297 -45h-145v-635h-197zM258 821h215q121 0 184 62q63 57 64 172q0 225 -260 225h-203v-459z" />
<glyph unicode="Q" horiz-adv-x="1556" d="M61 727q0 322 203 530q205 211 510 211q309 0 514 -211q207 -211 207 -526q0 -317 -207 -524q-170 -170 -418 -201v-160h-184v158q-248 25 -424 203q-201 211 -201 520zM258 727q0 -233 150 -385q115 -121 278 -145v129h184v-129q162 27 279 149q150 156 149 389 q0 227 -149 383q-152 156 -367 156q-229 0 -376.5 -153.5t-147.5 -393.5z" />
<glyph unicode="R" horiz-adv-x="985" d="M61 0v1470h435q193 0 311 -114q117 -115 117 -303q0 -127 -59.5 -227.5t-164.5 -143.5q-102 -45 -297 -45h-2l514 -637h-239l-418 518v-518h-197zM258 823h215q121 0 184 62q63 57 64 172q0 225 -260 225h-203v-459z" />
<glyph unicode="S" horiz-adv-x="876" d="M61 1090q0 168 111 274t285 106h307v-188h-311q-98 0 -156 -43q-59 -47 -59 -119q0 -68 45 -121q43 -55 143 -118l145 -93q244 -156 244 -399q0 -174 -106 -280q-109 -109 -281 -109h-360v186h358q94 0 149 50q61 55 62 133q0 133 -178 249l-146 95q-135 90 -194 176 q-58 88 -58 201z" />
<glyph unicode="T" horiz-adv-x="1265" d="M61 1282v188h1143v-188h-477v-1282h-197v1282h-469z" />
<glyph unicode="U" horiz-adv-x="1300" d="M61 653v817h197v-819q0 -203 45 -286q47 -84 133 -132q88 -49 213 -49q174 0 283 99q59 53 84 125q27 76 26 243v819h197v-819q0 -156 -25 -254q-27 -96 -55 -145q-35 -55 -84 -102q-166 -150 -424 -150q-268 0 -430 150q-45 43 -82 102q-33 59 -55 141q-23 86 -23 260z " />
<glyph unicode="V" horiz-adv-x="1335" d="M61 1468h197l412 -1030l409 1030h195l-610 -1468z" />
<glyph unicode="W" horiz-adv-x="1986" d="M61 1468h197l412 -1030l229 576l-186 454h196l84 -213l86 213h195l-187 -448l234 -582l408 1030h196l-610 -1468l-324 788l-327 -788z" />
<glyph unicode="X" horiz-adv-x="1533" d="M61 0l588 737l-545 731h238l430 -583l426 583h238l-547 -731l584 -737h-236l-467 586l-469 -586h-240z" />
<glyph unicode="Y" horiz-adv-x="1333" d="M0 1468h240l428 -583l428 583h235l-567 -733v-735h-201v735z" />
<glyph unicode="Z" horiz-adv-x="1357" d="M61 0l875 1282h-819v188h1179l-874 -1284h874v-186h-1235z" />
<glyph unicode="[" horiz-adv-x="589" d="M61 -332v1942h467v-172h-274v-1598h274v-172h-467z" />
<glyph unicode="\" horiz-adv-x="657" d="M61 1343h144l391 -1507h-141z" />
<glyph unicode="]" horiz-adv-x="587" d="M61 -160h273v1598h-273v172h465v-1942h-465v172z" />
<glyph unicode="^" horiz-adv-x="1165" d="M61 563l521 1082l522 -1082h-189l-333 754l-332 -754h-189z" />
<glyph unicode="_" horiz-adv-x="1288" d="M61 -90h1166v-137h-1166v137z" />
<glyph unicode="`" horiz-adv-x="456" d="M61 1401h201l133 -316h-108z" />
<glyph unicode="a" horiz-adv-x="829" d="M61 292.5q0 61.5 29 123.5q23 51 74 98q49 43 112.5 67.5t137.5 24.5h172v6q0 80 -41 140q-39 55 -101 57q-35 0 -60.5 -1t-46 -5t-31.5 -6t-32.5 -9.5t-31.5 -11.5l-43 144l18 10q4 0 16 6l13 4h2v2q61 16 88 25q39 8 110 8q70 0 127 -29q57 -31 101 -76q49 -55 69 -108 q25 -57 25 -127v-635h-182v25q-29 -16 -58 -25q-55 -16 -114 -16q-74 0 -138 24q-57 23 -110 68q-49 43 -76 98q-29 57 -29 118.5zM246 293q0 -29 12 -53q14 -27 37 -45q27 -20 53 -31q25 -10 66 -10q33 0 67 10q35 12 56 31q23 18 36 45q12 25 13 55v141h-174 q-39 0 -64 -10q-33 -14 -53.5 -32.5t-36.5 -47.5q-12 -24 -12 -53z" />
<glyph unicode="b" horiz-adv-x="991" d="M61 0v1468h183v-567q55 41 140 63.5t157 22.5q170 0 280 -137q109 -139 109 -356q0 -236 -131 -373q-129 -137 -346 -137q-61 0 -209 36v-20h-183zM244 190q96 -29 237 -28q119 0 193 90q76 90 76 233q0 141 -70 234q-70 90 -184 90q-53 0 -128 -24.5t-124 -65.5v-529z " />
<glyph unicode="c" horiz-adv-x="1064" d="M61 475q0 213 138 352q137 141 346 142q205 0 342 -142q78 -86 108 -186h-192q-25 37 -49 66q-86 90 -219 90q-127 0 -211 -90q-82 -88 -82 -230q0 -137 84 -227q82 -88 217 -88q129 0 215 90q31 31 53 80h193q-31 -121 -119 -211q-137 -137 -348 -137q-201 0 -340 141 q-136 137 -136 350z" />
<glyph unicode="d" horiz-adv-x="991" d="M61 494q0 217 109 356q106 137 281 137q72 0 156.5 -22.5t140.5 -63.5v567h182v-1468h-182v20q-147 -37 -209 -36q-217 0 -349 137q-129 137 -129 373zM242 485q0 -143 75 -233q74 -90 193 -90q141 0 238 28v529q-49 41 -124 65.5t-130 24.5q-113 0 -183 -90 q-69 -89 -69 -234z" />
<glyph unicode="e" horiz-adv-x="933" d="M61 487q0 221 117 358.5t303 137.5q193 0 299 -133q92 -117 92 -387v-25h-632q4 -111 86 -194q82 -82 206 -82q176 0 326 119v-189q-76 -53 -164 -84q-80 -25 -188 -24q-147 0 -242 65q-92 68 -147 178q-56 113 -56 260zM244 606h452q-4 88 -63 150q-55 61 -151.5 61 t-157.5 -61q-66 -66 -80 -150z" />
<glyph unicode="f" horiz-adv-x="698" d="M61 795v172h129v57q0 233 92.5 348t223.5 115q55 0 131 -19v-188q-43 18 -82 18q-104 0 -145 -61q-41 -59 -41 -213v-57h161v-172h-161v-795h-179v795h-129z" />
<glyph unicode="g" horiz-adv-x="901" d="M61 -207q0 195 209 254q-73 15 -110 45.5t-37 77.5q0 41 39 80q39 37 104 55q-199 96 -198 305q0 172 106 264q106 90 287 91h375v-168h-179q37 -41 66 -107q20 -43 20 -106q0 -80 -41 -150q-41 -74 -102 -112q-66 -37 -207 -62q-100 -14 -100 -74q0 -29 37 -51 q8 -4 174 -45q152 -39 198 -61q43 -23 78 -64q59 -66 60 -174q0 -137 -107 -219q-102 -82 -280.5 -82t-284.5 82q-107 84 -107 221zM217 -209q0 -150 234 -149q109 0 167 39q59 37 59.5 104.5t-73.5 110.5q-76 43 -198 43q-82 0 -136 -41q-53 -44 -53 -107zM229 600 q0 -74 49.5 -123t127.5 -49q76 0 124 51q51 51 52 123q0 76 -52 127q-49 49 -127 49q-74 0 -124 -51t-50 -127z" />
<glyph unicode="h" horiz-adv-x="880" d="M0 0v1468h182v-583q37 47 84 70.5t78 26.5t88 3q109 0 178 -47q74 -49 111 -127q37 -76 37 -258v-553h-178v551q0 145 -43 211q-39 63 -140 63q-127 0 -215 -135v-690h-182z" />
<glyph unicode="i" d="M61 0v967h179v-967h-179zM61 1174v180h179v-180h-179z" />
<glyph unicode="j" horiz-adv-x="434" d="M61 -352q61 25 99 82q35 55 35 133v1106h178v-1106q0 -250 -178 -355zM195 1176v178h178v-178h-178z" />
<glyph unicode="k" horiz-adv-x="944" d="M61 0v1468h179v-919l354 418h211l-385 -473l463 -494h-238l-405 442v-442h-179z" />
<glyph unicode="l" d="M61 0v1468h179v-1468h-179z" />
<glyph unicode="m" horiz-adv-x="1431" d="M61 0v967h179v-86q98 104 225 104q160 0 246 -158q129 160 317 160q72 0 145.5 -27.5t112.5 -74.5q84 -102 84 -314v-571h-178v573q0 121 -45 184.5t-133 63.5q-109 0 -207 -119v-702h-178v539q0 158 -41 223q-39 63 -139 63q-57 0 -103 -26q-49 -29 -106 -97v-702h-179z " />
<glyph unicode="n" horiz-adv-x="880" d="M0 0v967h182v-82q37 47 84 70.5t78 26.5t88 3q109 0 178 -47q74 -49 111 -127q37 -76 37 -258v-553h-178v551q0 145 -43 211q-39 63 -140 63q-127 0 -215 -135v-690h-182z" />
<glyph unicode="o" horiz-adv-x="1083" d="M61 492q0 213 138 352q137 141 346 141q207 0 342 -141.5t135 -358.5q0 -207 -137 -348q-137 -137 -348 -137q-201 0 -340 141q-136 138 -136 351zM242 494q0 -137 84 -228q82 -88 217 -88q129 0 215 90q84 88 84 228q0 135 -88 227q-86 90 -219 90q-127 0 -211 -90 q-82 -88 -82 -229z" />
<glyph unicode="p" horiz-adv-x="991" d="M61 -492v1469h183v-21q147 37 209 37q217 0 346 -139q131 -137 131 -371q0 -217 -109 -356q-111 -139 -280 -139q-70 0 -156 23.5t-141 64.5v-568h-183zM244 258q49 -41 123.5 -65.5t128.5 -24.5q115 0 184 90q70 92 70 234q0 143 -76 233q-74 90 -193 90 q-141 0 -237 -29v-528z" />
<glyph unicode="q" horiz-adv-x="991" d="M61 483q0 233 129 371q133 139 349 139q61 0 209 -37v21h182v-1469h-182v568q-55 -41 -141.5 -64.5t-155.5 -23.5q-172 0 -281 139t-109 356zM242 492q0 -145 69 -234q70 -90 183 -90q55 0 129.5 24.5t124.5 65.5v528q-96 29 -238 29q-119 0 -193 -90q-75 -90 -75 -233z " />
<glyph unicode="r" horiz-adv-x="659" d="M61 0v969h189v-60q96 76 207 76h141v-166h-141q-115 0 -207 -76v-368v-375h-189z" />
<glyph unicode="s" horiz-adv-x="733" d="M61 0v166h287q59 0 96 29q41 29 41 69q0 39 -26 70q-35 35 -113 82q-172 102 -225 176q-53 72 -53 158q0 111 79 182q82 70 209 69h271v-165h-258q-51 0 -84 -23q-33 -25 -33 -63q0 -31 29 -64q27 -27 102 -74l63 -39q225 -139 226 -303q0 -119 -86 -194 q-88 -76 -224 -76h-301z" />
<glyph unicode="t" horiz-adv-x="849" d="M61 811l334 373v-201h287v-172h-287v-473q0 -166 129 -166q94 0 203 68v-179q-100 -61 -223 -61t-205 76q-29 29 -41 53q-14 20 -29 76q-12 45 -12 178v428h-156z" />
<glyph unicode="u" horiz-adv-x="878" d="M61 414v553h179v-551q0 -150 41 -213q41 -59 141 -60q127 0 217 133v691h178v-967h-178v125q-53 -66 -129 -105q-74 -37 -145 -36q-88 0 -158 45q-74 47 -109 125q-37 76 -37 260z" />
<glyph unicode="v" horiz-adv-x="989" d="M61 967h195l244 -594l233 594h195l-428 -983z" />
<glyph unicode="w" horiz-adv-x="1566" d="M61 967h191l237 -586l230 586h133l225 -586l236 586h192l-428 -983l-293 673l-295 -673z" />
<glyph unicode="x" horiz-adv-x="1126" d="M61 0l379 489l-379 478h226l266 -332l256 332h229l-370 -478l397 -489h-229l-283 346l-268 -346h-224z" />
<glyph unicode="y" horiz-adv-x="1001" d="M61 967h203l242 -547l233 547h201l-639 -1461h-199l306 701z" />
<glyph unicode="z" horiz-adv-x="911" d="M61 0l474 788h-453v179h768l-477 -789h477v-178h-789z" />
<glyph unicode="{" horiz-adv-x="690" d="M61 512v172q70 0 119 37q47 35 66 110q18 84 18 259q4 227 15 294q12 74 55 132q41 53 90 71q45 18 149 19h56v-164h-31q-102 0 -135 -41q-33 -43 -33 -176v-154q0 -141 -18 -229q-18 -86 -60 -144q-43 -59 -129 -100q117 -51 162 -156q45 -102 45 -319v-152 q0 -137 33 -176q31 -41 135 -41h31v-164h-56q-102 0 -151 21q-53 23 -90 74q-39 53 -53 131q-10 63 -15 288q0 188 -18.5 262t-69.5 109q-54 37 -115 37z" />
<glyph unicode="|" horiz-adv-x="276" d="M61 -328v1962h154v-1962h-154z" />
<glyph unicode="}" horiz-adv-x="690" d="M61 -246h31q102 0 137 41q31 41 31 176v152q0 209 45 317q45 104 160 158q-84 43 -121 90q-41 49 -61 141q-23 96 -23 242v154q0 135 -31 176q-33 41 -137 41h-31v164h56q102 0 151 -21q49 -18 88 -72q43 -61 56 -133q14 -78 16 -290q0 -193 16 -259q14 -74 66 -110 q47 -37 119 -37v-172q-63 0 -117 -37q-51 -35 -70 -113q-18 -88 -18 -258q-4 -240 -12 -290q-12 -74 -56 -131q-39 -55 -88 -74q-45 -18 -151 -19h-56v164z" />
<glyph unicode="~" horiz-adv-x="1126" d="M61 451v215q109 127 273 127q109 0 268 -74l80 -37q66 -31 129 -31q127 0 254 144v-222q-121 -121 -270 -120q-106 0 -242 63l-61 29q-96 47 -175 47q-72 0 -122 -29q-52 -26 -134 -112z" />
<glyph unicode="&#xa1;" horiz-adv-x="372" d="M61 -389l54 1202h143l53 -1202h-250zM96 938v178h180v-178h-180z" />
<glyph unicode="&#xa2;" horiz-adv-x="925" d="M61 729q0 207 118 352.5t315 178.5v215h135v-211q129 -2 233 -54l-43 -143q-98 53 -225 53q-156 0 -250 -110.5t-94 -274.5q0 -172 95 -273.5t243 -101.5q133 0 243 54l33 -138q-96 -53 -235 -61v-215h-135v217q-193 20 -310 150q-123 133 -123 362z" />
<glyph unicode="&#xa3;" horiz-adv-x="1015" d="M61 0l158 633h-143v186h190q53 205 131 371q84 172 176 240q94 74 199 73h182v-198h-141q-109 0 -188 -103q-80 -98 -148 -317l-20 -66h153v-186h-204l-101 -408h633v-225h-877z" />
<glyph unicode="&#xa4;" horiz-adv-x="1392" d="M61 248l226 225q-70 106 -70 236q0 137 76 245l-232 232l125 125l230 -230q119 86 286 86q166 0 279 -82l225 226l125 -125l-227 -228q70 -100 70 -237q0 -145 -70 -248l227 -225l-125 -125l-225 225q-113 -88 -287 -88q-172 0 -284 86l-224 -223zM397 711 q0 -150 92.5 -230t204.5 -80q121 0 210 79t89 239q0 125 -79.5 216t-219.5 91q-135 0 -216 -90t-81 -225z" />
<glyph unicode="&#xa5;" horiz-adv-x="1232" d="M61 1540h195l283 -543q55 -106 73 -159q4 8 31 64t51 104l269 534h208l-395 -745h332v-158h-401v-139h401v-156h-401v-342h-179v342h-407v156h407v139h-407v158h336z" />
<glyph unicode="&#xa6;" horiz-adv-x="276" d="M61 -328v836h154v-836h-154zM61 799v835h154v-835h-154z" />
<glyph unicode="&#xa7;" horiz-adv-x="882" d="M61 -80h287q59 0 96 29q41 29 41 69q0 39 -26 70q-35 35 -113 82q-72 43 -131 86h-4v2q-66 53 -90 88q-53 72 -53 158q0 111 79 182q82 70 209 70h11q-72 57 -97 90q-53 76 -53 160q0 113 82 182q78 70 207 69h272v-165h-260q-51 0 -84 -25q-31 -23 -31 -61q0 -35 29 -64 q25 -29 100 -74l64 -39q225 -137 225 -303q0 -117 -86 -194q-76 -68 -188 -76q125 -109 125 -231q0 -119 -86 -195q-88 -76 -224 -76h-301v166zM252 504q0 -31 29 -64q2 -2 10 -9t12 -11h197q53 0 94 31q41 29 41 69q0 43 -27 70h-239q-51 0 -84 -23q-33 -24 -33 -63z" />
<glyph unicode="&#xa8;" horiz-adv-x="669" d="M61 1296v179h179v-179h-179zM430 1296v179h178v-179h-178z" />
<glyph unicode="&#xa9;" horiz-adv-x="1556" d="M61 707q0 322 203 530.5t510 208.5q311 0 514 -209q207 -211 207 -526q0 -317 -207 -524t-524 -207q-301 0 -502 206q-201 212 -201 521zM258 707q0 -233 150 -385q147 -154 368 -154t373 156q150 156 149 391q0 227 -149 383q-150 154 -367 153q-229 0 -376.5 -153 t-147.5 -391zM424 709q0 156 104 264q102 104 258 104t256 -106q45 -47 82 -140l9 -20h-172l-5 8q-16 27 -32 43q-57 59 -146 60q-84 0 -137 -60q-55 -59 -55 -153q0 -90 55 -150q57 -57 143 -57t142 57q29 33 37 53l4 11h170l-7 -21q-29 -96 -90 -158q-102 -104 -260 -104 q-152 0 -254 106.5t-102 262.5z" />
<glyph unicode="&#xaa;" horiz-adv-x="829" d="M61 292.5q0 61.5 29 123.5q23 51 74 98q49 43 112.5 67.5t137.5 24.5h172v6q0 80 -41 140q-39 55 -101 57q-35 0 -60.5 -1t-46 -5t-31.5 -6t-32.5 -9.5t-31.5 -11.5l-43 144l18 10q4 0 16 6l13 4h2v2q61 16 88 25q39 8 110 8q70 0 127 -29q57 -31 101 -76q49 -55 69 -108 q25 -57 25 -127v-635h-182v25q-29 -16 -58 -25q-55 -16 -114 -16q-74 0 -138 24q-57 23 -110 68q-49 43 -76 98q-29 57 -29 118.5zM246 293q0 -29 12 -53q14 -27 37 -45q27 -20 53 -31q25 -10 66 -10q33 0 67 10q35 12 56 31q23 18 36 45q12 25 13 55v141h-174 q-39 0 -64 -10q-33 -14 -53.5 -32.5t-36.5 -47.5q-12 -24 -12 -53z" />
<glyph unicode="&#xab;" horiz-adv-x="901" d="M61 649l297 481h174l-296 -481l296 -485h-174zM369 649l297 481h174l-297 -481l297 -485h-174z" />
<glyph unicode="&#xac;" horiz-adv-x="1263" d="M61 655v176h1141v-495h-176v319h-965z" />
<glyph unicode="&#xad;" horiz-adv-x="1069" d="M61 532v177h947v-177h-947z" />
<glyph unicode="&#xae;" horiz-adv-x="862" d="M61 1133q0 166 104.5 274.5t264.5 108.5q158 0 266 -109q104 -109 104.5 -272.5t-106 -270t-270.5 -106.5q-158 0 -258 106q-105 107 -105 269zM164 1133q0 -121 75.5 -199t190.5 -78t193 80q78 82 77 201q0 117 -77 198q-78 80 -189 80q-119 0 -194 -80 q-76 -77 -76 -202zM328 958v385h121q55 0 86 -30q33 -33 32 -86q0 -35 -16 -64q-14 -25 -47 -41q-25 -8 -45 -10l125 -154h-101l-75 95v-95h-80zM408 1188h34q23 0 33 10t10 31q0 37 -45 37h-32v-78z" />
<glyph unicode="&#xaf;" horiz-adv-x="1069" d="M61 1448v176h947v-176h-947z" />
<glyph unicode="&#xb0;" horiz-adv-x="733" d="M61 1325q0 135 90.5 231.5t215.5 96.5t215 -97q90 -92 90 -231q0 -133 -88 -227t-217 -94q-127 0 -215 94q-91 96 -91 227zM211 1325q0 -72 45 -119q45 -51 109 -51q66 0 112 49q47 51 47 121q0 68 -47 119q-47 49 -112 49q-61 0 -109 -49q-45 -47 -45 -119z" />
<glyph unicode="&#xb1;" horiz-adv-x="1071" d="M61 0v176h949v-176h-949zM61 770v176h392v420h165v-420h392v-176h-392v-422h-165v422h-392z" />
<glyph unicode="&#xb2;" horiz-adv-x="989" d="M61 0v14l82 105q166 213 308 434q111 174 149 270q35 94 35 181q0 127 -65.5 200.5t-174.5 73.5q-86 0 -163.5 -51t-143.5 -148v269q162 139 330 139q178 0 295 -129q117 -125 116 -326q0 -84 -28 -188q-33 -104 -103 -232q-92 -162 -249 -356l-43 -53h522v-203h-867z " />
<glyph unicode="&#xb3;" horiz-adv-x="843" d="M61 82v227q152 -102 301 -102q100 0 158 61q61 63 62 168q0 88 -52 152q-27 35 -63 55q-45 18 -156 33l-16 2v192h12q125 0 195 58q68 55 67 166q0 96 -65 157q-66 61 -172 62q-104 0 -236 -72v201q119 63 260 63q186 0 297 -106q111 -109 111 -289q0 -111 -43 -188 q-41 -78 -133 -129q78 -33 117 -84q41 -53 57 -117q20 -68 20 -148q0 -195 -118.5 -319.5t-301.5 -124.5q-158 0 -301 82z" />
<glyph unicode="&#xb4;" horiz-adv-x="456" d="M61 1106l136 315h198l-223 -315h-111z" />
<glyph unicode="&#xb6;" horiz-adv-x="1167" d="M61 963q0 106 32 198t105.5 176t216 133.5t339.5 49.5q264 0 352 -21v-1806h-193v1675h-157v-1675h-199v790h-16q-106 0 -212 50.5t-186 164t-82 265.5z" />
<glyph unicode="&#xb7;" d="M61 451v178h179v-178h-179z" />
<glyph unicode="&#xb8;" horiz-adv-x="559" d="M61 -469l37 109q66 -35 138 -35q109 0 108 78q-2 90 -197 104l119 213h137l-81 -133q72 -8 124 -56.5t52 -117.5q0 -104 -74 -154.5t-191 -50.5q-96 0 -172 43z" />
<glyph unicode="&#xb9;" d="M61 0v1468h179v-1468h-179z" />
<glyph unicode="&#xba;" horiz-adv-x="1083" d="M61 492q0 213 138 352q137 141 346 141q207 0 342 -141.5t135 -358.5q0 -207 -137 -348q-137 -137 -348 -137q-201 0 -340 141q-136 138 -136 351zM242 494q0 -137 84 -228q82 -88 217 -88q129 0 215 90q84 88 84 228q0 135 -88 227q-86 90 -219 90q-127 0 -211 -90 q-82 -88 -82 -229z" />
<glyph unicode="&#xbb;" horiz-adv-x="921" d="M61 164l297 483l-297 483h175l296 -483l-296 -483h-175zM389 164l297 483l-297 483h174l297 -483l-297 -483h-174z" />
<glyph unicode="&#xbc;" horiz-adv-x="2822" d="M1675 483v92l691 912h79v-823h316v-181h-316v-483h-190v483h-580zM1958 664h297v403zM362 -82l1049 1589h141l-1048 -1589h-142zM61 0v1468h179v-1468h-179z" />
<glyph unicode="&#xbd;" horiz-adv-x="2603" d="M1675 0v14l82 105q166 213 308 434q111 174 149 270q35 94 35 181q0 127 -65.5 200.5t-174.5 73.5q-86 0 -163.5 -51t-143.5 -148v269q162 139 330 139q178 0 295 -129q117 -125 116 -326q0 -84 -28 -188q-33 -104 -103 -232q-92 -162 -249 -356l-43 -53h522v-203h-867z M362 -82l1049 1589h141l-1048 -1589h-142zM61 0v1468h179v-1468h-179z" />
<glyph unicode="&#xbe;" horiz-adv-x="3364" d="M2218 483v92l691 912h79v-823h316v-181h-316v-483h-190v483h-580zM2501 664h297v403zM905 -82l1049 1589h141l-1048 -1589h-142zM61 82v227q152 -102 301 -102q100 0 158 61q61 63 62 168q0 88 -52 152q-27 35 -63 55q-45 18 -156 33l-16 2v192h12q125 0 195 58 q68 55 67 166q0 96 -65 157q-66 61 -172 62q-104 0 -236 -72v201q119 63 260 63q186 0 297 -106q111 -109 111 -289q0 -111 -43 -188q-41 -78 -133 -129q78 -33 117 -84q41 -53 57 -117q20 -68 20 -148q0 -195 -118.5 -319.5t-301.5 -124.5q-158 0 -301 82z" />
<glyph unicode="&#xbf;" horiz-adv-x="763" d="M61 -106q0 -127 88.5 -215.5t256.5 -88.5q178 0 296 82l-51 131q-84 -63 -207 -63q-96 2 -146 49t-50 127q0 115 143 283q150 178 129 358v125h-164v-123q0 -168 -116 -305q-92 -109 -135.5 -186.5t-43.5 -173.5zM358 813v164h162v-164h-162z" />
<glyph unicode="&#xc0;" horiz-adv-x="1462" d="M61 0l588 1468h137l615 -1468h-201l-205 483h-540l-193 -483h-201zM428 1898h201l133 -315h-109zM532 672h386l-201 475z" />
<glyph unicode="&#xc1;" horiz-adv-x="1462" d="M61 0h201l193 483h540l205 -483h201l-615 1468h-137zM532 672l185 475l201 -475h-386zM651 1638l135 316h199l-223 -316h-111z" />
<glyph unicode="&#xc2;" horiz-adv-x="1462" d="M61 0h201l193 483h540l205 -483h201l-615 1468h-137zM377 1532l233 301h217l236 -301h-150l-192 197l-199 -197h-145zM532 672l185 475l201 -475h-386z" />
<glyph unicode="&#xc3;" horiz-adv-x="1462" d="M61 0l588 1468h137l615 -1468h-201l-205 483h-540l-193 -483h-201zM391 1526v139q66 84 178 84q78 0 174 -47l52 -25q45 -20 86 -20q84 0 163 94v-145q-76 -78 -176 -78q-70 0 -157 41l-39 18q-68 31 -115 31q-45 0 -80 -21q-31 -12 -86 -71zM532 672h386l-201 475z" />
<glyph unicode="&#xc4;" horiz-adv-x="1462" d="M61 0l588 1468h137l615 -1468h-201l-205 483h-540l-193 -483h-201zM438 1546v178h178v-178h-178zM532 672h386l-201 475zM807 1546v178h178v-178h-178z" />
<glyph unicode="&#xc5;" horiz-adv-x="1462" d="M61 0h201l193 483h540l205 -483h201l-615 1468h-137zM528 1706q0 86 57.5 147.5t139.5 61.5q78 0 137 -62q57 -57 58 -147q0 -86 -58 -145q-53 -59 -137 -60q-82 0 -139 60q-58 63 -58 145zM532 672l185 475l201 -475h-386zM625 1706q0 -47 28 -76q31 -33 70 -33 q41 0 72 31q31 35 30 78q0 45 -30 76q-33 33 -72 33q-37 0 -70 -33q-28 -29 -28 -76z" />
<glyph unicode="&#xc6;" horiz-adv-x="2172" d="M61 0l1166 1468h866v-188h-580v-610h560v-187h-560v-295h598v-188h-892v483h-498l-385 -483h-275zM819 670h391v479z" />
<glyph unicode="&#xc7;" horiz-adv-x="1517" d="M61 727q0 317 203 530q199 209 510 209q307 0 514 -209q117 -119 166 -270h-213q-43 82 -92 131q-145 154 -367 154q-229 0 -376.5 -153.5t-147.5 -391.5q0 -233 150 -385q147 -154 368 -154q225 0 373 156q53 53 92 137h215q-51 -158 -170 -274q-207 -207 -522 -207 q-301 0 -502 207q-201 211 -201 520zM524 -508q76 -43 172 -43q117 0 191 50t74 155q0 70 -52.5 118t-124.5 56l82 133h-137l-119 -213q195 -14 197 -104q0 -78 -109 -78q-72 0 -137 35z" />
<glyph unicode="&#xc8;" horiz-adv-x="917" d="M61 0v1468h777v-188h-580v-608h559v-189h-559v-295h598v-188h-795zM199 1901h200l133 -316h-108z" />
<glyph unicode="&#xc9;" horiz-adv-x="917" d="M61 0h795v188h-598v295h559v189h-559v608h580v188h-777v-1468zM352 1636l135 316h199l-223 -316h-111z" />
<glyph unicode="&#xca;" horiz-adv-x="917" d="M61 0h795v188h-598v295h559v189h-559v608h580v188h-777v-1468zM86 1544l233 301h218l235 -301h-149l-193 197l-199 -197h-145z" />
<glyph unicode="&#xcb;" horiz-adv-x="917" d="M61 0v1475h179v-7h190v7h178v-7h230v-188h-580v-608h559v-189h-559v-295h598v-188h-795z" />
<glyph unicode="&#xcc;" horiz-adv-x="319" d="M-109 1901h201l133 -316h-108zM61 0v1468h197v-1468h-197z" />
<glyph unicode="&#xcd;" horiz-adv-x="319" d="M61 0h197v1468h-197v-1468zM106 1638l136 316h198l-223 -316h-111z" />
<glyph unicode="&#xce;" horiz-adv-x="319" d="M-135 1544l233 301h217l236 -301h-150l-192 197l-199 -197h-145zM61 0h197v1468h-197v-1468z" />
<glyph unicode="&#xcf;" horiz-adv-x="319" d="M-90 1640v179h178v-179h-178zM61 0v1468h197v-1468h-197zM279 1640v179h178v-179h-178z" />
<glyph unicode="&#xd0;" horiz-adv-x="1298" d="M61 0v1466h379q279 0 443 -90q162 -90 258 -264q96 -176 96 -381q0 -145 -53 -280q-53 -139 -150 -238q-98 -100 -233 -158q-86 -35 -142 -45q-72 -10 -245 -10h-353zM258 186h168q143 0 229 23q80 20 136 55q49 27 98 80q113 121 137 295h-768v-453zM258 815h772 q-18 186 -145 313q-51 53 -125 93q-74 35 -135 47q-51 10 -205 10h-162v-463z" />
<glyph unicode="&#xd1;" horiz-adv-x="1390" d="M61 0v1468l1082 -1017v1017h186v-1468l-1083 1008v-1008h-185zM326 1550v140q66 84 178 84q78 0 174 -48l51 -24q45 -20 86 -21q84 0 164 95v-146q-76 -78 -176 -78q-70 0 -158 41l-39 19q-68 31 -114 30q-45 0 -80 -20q-31 -13 -86 -72z" />
<glyph unicode="&#xd2;" horiz-adv-x="1556" d="M61 727q0 322 203 530q205 211 510 211q309 0 514 -211q207 -211 207 -526q0 -317 -207 -524t-524 -207q-301 0 -502 207q-201 211 -201 520zM258 727q0 -233 150 -385q147 -154 368 -154t373 158q150 156 149 389q0 227 -149 383q-152 156 -367 156 q-229 0 -376.5 -153.5t-147.5 -393.5zM485 1868h201l133 -316h-108z" />
<glyph unicode="&#xd3;" horiz-adv-x="1556" d="M61 727q0 -309 201 -520q201 -207 502 -207q317 0 524 207t207 524q0 315 -207 526q-205 211 -514 211q-305 0 -510 -211q-203 -208 -203 -530zM258 727q0 240 147.5 393.5t376.5 153.5q215 0 367 -156q150 -156 149 -383q0 -233 -149 -389q-152 -158 -373 -158t-368 154 q-150 152 -150 385zM692 1638l135 316h199l-223 -316h-111z" />
<glyph unicode="&#xd4;" horiz-adv-x="1556" d="M61 727q0 -309 201 -520q201 -207 502 -207q317 0 524 207t207 524q0 315 -207 526q-205 211 -514 211q-305 0 -510 -211q-203 -208 -203 -530zM258 727q0 240 147.5 393.5t376.5 153.5q215 0 367 -156q150 -156 149 -383q0 -233 -149 -389q-152 -158 -373 -158t-368 154 q-150 152 -150 385zM434 1540l234 301h217l235 -301h-149l-193 197l-198 -197h-146z" />
<glyph unicode="&#xd5;" horiz-adv-x="1556" d="M61 727q0 322 203 530q205 211 510 211q309 0 514 -211q207 -211 207 -526q0 -317 -207 -524t-524 -207q-301 0 -502 207q-201 211 -201 520zM258 727q0 -233 150 -385q147 -154 368 -154t373 158q150 156 149 389q0 227 -149 383q-152 156 -367 156 q-229 0 -376.5 -153.5t-147.5 -393.5zM410 1530v139q66 84 178 84q78 0 174 -47l51 -25q45 -20 86 -20q84 0 164 94v-145q-76 -78 -176 -78q-70 0 -158 41l-39 18q-68 31 -115 31q-45 0 -79 -20q-31 -13 -86 -72z" />
<glyph unicode="&#xd6;" horiz-adv-x="1556" d="M61 727q0 322 203 530q205 211 510 211q309 0 514 -211q207 -211 207 -526q0 -317 -207 -524t-524 -207q-301 0 -502 207q-201 211 -201 520zM258 727q0 -233 150 -385q147 -154 368 -154t373 158q150 156 149 389q0 227 -149 383q-152 156 -367 156 q-229 0 -376.5 -153.5t-147.5 -393.5zM481 1536v178h178v-178h-178zM850 1536v178h178v-178h-178z" />
<glyph unicode="&#xd7;" horiz-adv-x="960" d="M61 301l299 299l-276 277l125 124l276 -276l295 297l119 -119l-297 -295l277 -276l-125 -125l-277 276l-299 -299z" />
<glyph unicode="&#xd8;" horiz-adv-x="1556" d="M61 727q0 322 203 530q205 211 510 211q49 0 98 -6l2 8h142l-10 -36q158 -47 282 -177q207 -211 207 -526q0 -317 -207 -524t-524 -207q-61 0 -129 10l-12 -47h-142l23 82q-139 53 -242 162q-201 211 -201 520zM258 727q0 -233 150 -385q61 -66 145 -106l270 1036 q-14 2 -41 2q-229 0 -376.5 -153.5t-147.5 -393.5zM684 197q39 -8 92 -9q221 0 373 158q150 156 149 389q0 227 -149 383q-88 88 -193 127z" />
<glyph unicode="&#xd9;" horiz-adv-x="1300" d="M61 653v817h197v-819q0 -203 45 -286q47 -84 133 -132q88 -49 213 -49q174 0 283 99q59 53 84 125q27 76 26 243v819h197v-819q0 -156 -25 -254q-27 -96 -55 -145q-35 -55 -84 -102q-166 -150 -424 -150q-268 0 -430 150q-45 43 -82 102q-33 59 -55 141q-23 86 -23 260z M371 1823h200l134 -316h-109z" />
<glyph unicode="&#xda;" horiz-adv-x="1300" d="M61 653q0 -174 23 -260q23 -82 55 -141q37 -59 82 -102q162 -150 430 -150q258 0 424 150q49 47 84 102q29 49 55 145q25 98 25 254v819h-197v-819q0 -168 -26 -243q-25 -72 -84 -125q-109 -98 -283 -99q-125 0 -213 49q-86 47 -133 132q-45 84 -45 286v819h-197v-817z M504 1638l135 316h199l-224 -316h-110z" />
<glyph unicode="&#xdb;" horiz-adv-x="1300" d="M61 653q0 -174 23 -260q23 -82 55 -141q37 -59 82 -102q162 -150 430 -150q258 0 424 150q49 47 84 102q29 49 55 145q25 98 25 254v819h-197v-819q0 -168 -26 -243q-25 -72 -84 -125q-109 -98 -283 -99q-125 0 -213 49q-86 47 -133 132q-45 84 -45 286v819h-197v-817z M279 1554l233 301h217l236 -301h-150l-192 197l-199 -197h-145z" />
<glyph unicode="&#xdc;" horiz-adv-x="1300" d="M61 653v817h197v-819q0 -203 45 -286q47 -84 133 -132q88 -49 213 -49q174 0 283 99q59 53 84 125q27 76 26 243v819h197v-819q0 -156 -25 -254q-27 -96 -55 -145q-35 -55 -84 -102q-166 -150 -424 -150q-268 0 -430 150q-45 43 -82 102q-33 59 -55 141q-23 86 -23 260z M356 1536v178h179v-178h-179zM725 1536v178h178v-178h-178z" />
<glyph unicode="&#xdd;" horiz-adv-x="1333" d="M0 1468l563 -733v-735h201v735l567 733h-235l-428 -583l-428 583h-240zM543 1638l135 316h199l-224 -316h-110z" />
<glyph unicode="&#xde;" horiz-adv-x="991" d="M61 -2v1436h183v-273q147 37 209 37q217 0 346 -139q131 -137 131 -371q0 -217 -109 -356q-111 -139 -280 -139q-70 0 -156 23.5t-141 64.5v-283h-183zM244 463q49 -41 123.5 -65.5t128.5 -24.5q115 0 184 90q70 92 70 233q0 143 -76 234q-74 90 -193 90q-141 0 -237 -29 v-528z" />
<glyph unicode="&#xdf;" horiz-adv-x="1191" d="M61 2v975q0 215 38 343t122 206q145 129 367 129q188 0 318 -114t130 -312q0 -123 -59 -207q-180 -74 -180 -205q0 -59 29.5 -104t99.5 -115q70 -74 101.5 -110.5t67 -114.5t35.5 -162q0 -180 -121.5 -290.5t-328.5 -110.5h-268v172h252q117 0 182 59t65 152 q0 76 -32.5 134t-104.5 126q-66 63 -100.5 103t-65 103.5t-30.5 128.5q0 199 227 310q20 51 20 108q0 129 -71.5 202t-190.5 73q-152 0 -227.5 -116t-75.5 -378v-985h-199z" />
<glyph unicode="&#xe0;" horiz-adv-x="829" d="M61 292.5q0 61.5 29 123.5q23 51 74 98q49 43 112.5 67.5t137.5 24.5h172v6q0 80 -41 140q-39 55 -101 57q-35 0 -60.5 -1t-46 -5t-31.5 -6t-32.5 -9.5t-31.5 -11.5l-43 144l18 10q4 0 16 6l13 4h2v2q61 16 88 25q39 8 110 8q70 0 127 -29q57 -31 101 -76q49 -55 69 -108 q25 -57 25 -127v-635h-182v25q-29 -16 -58 -25q-55 -16 -114 -16q-74 0 -138 24q-57 23 -110 68q-49 43 -76 98q-29 57 -29 118.5zM203 1401h200l134 -316h-109zM246 293q0 -29 12 -53q14 -27 37 -45q27 -20 53 -31q25 -10 66 -10q33 0 67 10q35 12 56 31q23 18 36 45 q12 25 13 55v141h-174q-39 0 -64 -10q-33 -14 -53.5 -32.5t-36.5 -47.5q-12 -24 -12 -53z" />
<glyph unicode="&#xe1;" horiz-adv-x="829" d="M61 292.5q0 -61.5 29 -118.5q27 -55 76 -98q53 -45 110 -68q63 -25 138 -24q59 0 114 16q29 8 58 25v-25h182v635q0 70 -25 127q-20 53 -69 108q-43 45 -101 76q-57 29 -127 29q-72 0 -110 -8q-27 -8 -88 -25v-2h-2l-13 -4q-12 -6 -16 -6l-18 -10l43 -144q10 4 31.5 11.5 t32.5 9.5t31.5 6t46.5 5t60 1q61 -2 101 -57q41 -59 41 -140v-6h-172q-74 0 -137.5 -24.5t-112.5 -67.5q-51 -47 -74 -98q-29 -62 -29 -123.5zM246 293q0 29 12 53q16 29 36.5 47.5t53.5 32.5q25 10 64 10h174v-141q0 -31 -13 -55q-14 -27 -36 -45q-20 -18 -56 -31 q-35 -10 -67 -10q-41 0 -66 10q-27 10 -53 31q-23 18 -37 45q-12 24 -12 53zM299 1106l135 315h199l-223 -315h-111z" />
<glyph unicode="&#xe2;" horiz-adv-x="829" d="M61 292.5q0 -61.5 29 -118.5q27 -55 76 -98q53 -45 110 -68q63 -25 138 -24q59 0 114 16q29 8 58 25v-25h182v635q0 70 -25 127q-20 53 -69 108q-43 45 -101 76q-57 29 -127 29q-72 0 -110 -8q-27 -8 -88 -25v-2h-2l-13 -4q-12 -6 -16 -6l-18 -10l43 -144q10 4 31.5 11.5 t32.5 9.5t31.5 6t46.5 5t60 1q61 -2 101 -57q41 -59 41 -140v-6h-172q-74 0 -137.5 -24.5t-112.5 -67.5q-51 -47 -74 -98q-29 -62 -29 -123.5zM61 1139l234 301h217l236 -301h-150l-192 196l-199 -196h-146zM246 293q0 29 12 53q16 29 36.5 47.5t53.5 32.5q25 10 64 10h174 v-141q0 -31 -13 -55q-14 -27 -36 -45q-20 -18 -56 -31q-35 -10 -67 -10q-41 0 -66 10q-27 10 -53 31q-23 18 -37 45q-12 24 -12 53z" />
<glyph unicode="&#xe3;" horiz-adv-x="829" d="M61 292.5q0 61.5 29 123.5q23 51 74 98q49 43 112.5 67.5t137.5 24.5h172v6q0 80 -41 140q-39 55 -101 57q-35 0 -60.5 -1t-46 -5t-31.5 -6t-32.5 -9.5t-31.5 -11.5l-43 144l18 10q4 0 16 6l13 4h2v2q61 16 88 25q39 8 110 8q70 0 127 -29q57 -31 101 -76q49 -55 69 -108 q25 -57 25 -127v-635h-182v25q-29 -16 -58 -25q-55 -16 -114 -16q-74 0 -138 24q-57 23 -110 68q-49 43 -76 98q-29 57 -29 118.5zM61 1145v139q66 84 179 84q78 0 174 -47l51 -25q45 -20 86 -20q84 0 164 94v-145q-76 -78 -176 -78q-70 0 -158 41l-39 18q-68 31 -115 31 q-45 0 -80 -20q-31 -13 -86 -72zM246 293q0 -29 12 -53q14 -27 37 -45q27 -20 53 -31q25 -10 66 -10q33 0 67 10q35 12 56 31q23 18 36 45q12 25 13 55v141h-174q-39 0 -64 -10q-33 -14 -53.5 -32.5t-36.5 -47.5q-12 -24 -12 -53z" />
<glyph unicode="&#xe4;" horiz-adv-x="829" d="M61 292.5q0 61.5 29 123.5q23 51 74 98q49 43 112.5 67.5t137.5 24.5h172v6q0 80 -41 140q-39 55 -101 57q-35 0 -60.5 -1t-46 -5t-31.5 -6t-32.5 -9.5t-31.5 -11.5l-43 144l18 10q4 0 16 6l13 4h2v2q61 16 88 25q39 8 110 8q70 0 127 -29q57 -31 101 -76q49 -55 69 -108 q25 -57 25 -127v-635h-182v25q-29 -16 -58 -25q-55 -16 -114 -16q-74 0 -138 24q-57 23 -110 68q-49 43 -76 98q-29 57 -29 118.5zM158 1120v178h178v-178h-178zM246 293q0 -29 12 -53q14 -27 37 -45q27 -20 53 -31q25 -10 66 -10q33 0 67 10q35 12 56 31q23 18 36 45 q12 25 13 55v141h-174q-39 0 -64 -10q-33 -14 -53.5 -32.5t-36.5 -47.5q-12 -24 -12 -53zM526 1120v178h179v-178h-179z" />
<glyph unicode="&#xe5;" horiz-adv-x="829" d="M61 292.5q0 -61.5 29 -118.5q27 -55 76 -98q53 -45 110 -68q63 -25 138 -24q59 0 114 16q29 8 58 25v-25h182v635q0 70 -25 127q-20 53 -69 108q-43 45 -101 76q-57 29 -127 29q-72 0 -110 -8q-27 -8 -88 -25v-2h-2l-13 -4q-12 -6 -16 -6l-18 -10l43 -144q10 4 31.5 11.5 t32.5 9.5t31.5 6t46.5 5t60 1q61 -2 101 -57q41 -59 41 -140v-6h-172q-74 0 -137.5 -24.5t-112.5 -67.5q-51 -47 -74 -98q-29 -62 -29 -123.5zM227 1233q0 86 58 147q59 61 139 61.5t137 -61.5q57 -57 57 -147q0 -86 -57 -146q-53 -59 -137 -59q-82 0 -139 59 q-58 64 -58 146zM246 293q0 29 12 53q16 29 36.5 47.5t53.5 32.5q25 10 64 10h174v-141q0 -31 -13 -55q-14 -27 -36 -45q-20 -18 -56 -31q-35 -10 -67 -10q-41 0 -66 10q-27 10 -53 31q-23 18 -37 45q-12 24 -12 53zM324 1233q0 -47 28 -76q31 -33 70 -33q41 0 72 31 q31 33 30.5 78t-30.5 76q-33 33 -72 32q-37 0 -70 -32q-28 -29 -28 -76z" />
<glyph unicode="&#xe6;" horiz-adv-x="1460" d="M61 309.5q0 61.5 29 122.5q23 51 74 98q49 43 112.5 68t137.5 25h172v6q0 80 -41 139q-39 55 -101 57q-35 0 -60.5 -1t-46 -5t-31.5 -6t-32.5 -9t-31.5 -11l-43 143l18 10q4 0 16 6l13 4h2v2q61 16 88 25q39 8 110 8q70 0 127 -28q57 -31 101 -76q10 -10 26 -31q0 2 5 6 q117 137 303 137q197 0 299 -133q92 -117 92 -387v-24h-631v-27q10 -90 84 -168q82 -82 207 -82q176 0 325 119v-188q-76 -53 -163 -84q-80 -25 -189 -25q-147 0 -241 66q-4 4 -11.5 10t-11.5 8v-68h-182v25q-29 -16 -58 -25q-55 -16 -114 -16q-74 0 -138 25q-57 23 -110 67 q-49 43 -76 98q-29 58 -29 119.5zM246 309.5q0 -28.5 12 -53.5q14 -27 37 -45q27 -20 53 -31q25 -10 66 -10q33 0 67 10q35 12 56 31q23 18 36 45q12 25 13 55v142h-174q-39 0 -64 -11q-33 -14 -53.5 -32.5t-36.5 -47.5q-12 -24 -12 -52.5zM770 623h453q-4 88 -64 149 q-55 61 -151.5 61.5t-157.5 -61.5q-66 -65 -80 -149z" />
<glyph unicode="&#xe7;" horiz-adv-x="1064" d="M61 -469q76 -43 172 -43q117 0 191 50t74 155q0 70 -52.5 118t-123.5 56l81 133h-137l-119 -213q195 -14 197 -104q0 -78 -108 -78q-72 0 -138 35zM61 475q0 213 138 352q137 141 346 142q205 0 342 -142q78 -86 108 -186h-192q-25 37 -49 66q-86 90 -219 90 q-127 0 -211 -90q-82 -88 -82 -230q0 -137 84 -227q82 -88 217 -88q129 0 215 90q31 31 53 80h193q-31 -121 -119 -211q-137 -137 -348 -137q-201 0 -340 141q-136 137 -136 350z" />
<glyph unicode="&#xe8;" horiz-adv-x="933" d="M61 487q0 221 117 358.5t303 137.5q193 0 299 -133q92 -117 92 -387v-25h-632q4 -111 86 -194q82 -82 206 -82q176 0 326 119v-189q-76 -53 -164 -84q-80 -25 -188 -24q-147 0 -242 65q-92 68 -147 178q-56 113 -56 260zM221 1401h201l133 -316h-109zM244 606h452 q-4 88 -63 150q-55 61 -151.5 61t-157.5 -61q-66 -66 -80 -150z" />
<glyph unicode="&#xe9;" horiz-adv-x="933" d="M61 487q0 -147 56 -260q55 -111 147 -178q94 -66 242 -65q109 0 188 24q88 31 164 84v189q-150 -119 -326 -119q-125 0 -206 82q-82 84 -86 194h632v25q0 270 -92 387q-106 133 -299 133q-186 0 -303 -137.5t-117 -358.5zM244 606q14 84 80 150q61 61 157.5 61t151.5 -61 q59 -61 63 -150h-452zM356 1106l136 315h198l-223 -315h-111z" />
<glyph unicode="&#xea;" horiz-adv-x="933" d="M61 487q0 -147 56 -260q55 -111 147 -178q94 -66 242 -65q109 0 188 24q88 31 164 84v189q-150 -119 -326 -119q-125 0 -206 82q-82 84 -86 194h632v25q0 270 -92 387q-106 133 -299 133q-186 0 -303 -137.5t-117 -358.5zM61 1139l234 301h217l236 -301h-150l-192 196 l-199 -196h-146zM244 606q14 84 80 150q61 61 157.5 61t151.5 -61q59 -61 63 -150h-452z" />
<glyph unicode="&#xeb;" horiz-adv-x="933" d="M61 487q0 221 117 358.5t303 137.5q193 0 299 -133q92 -117 92 -387v-25h-632q4 -111 86 -194q82 -82 206 -82q176 0 326 119v-189q-76 -53 -164 -84q-80 -25 -188 -24q-147 0 -242 65q-92 68 -147 178q-56 113 -56 260zM199 1120v178h178v-178h-178zM244 606h452 q-4 88 -63 150q-55 61 -151.5 61t-157.5 -61q-66 -66 -80 -150zM567 1120v178h178v-178h-178z" />
<glyph unicode="&#xec;" d="M-102 1401h200l133 -316h-108zM61 0h179v967h-179v-967z" />
<glyph unicode="&#xed;" d="M61 0v967h179v-967h-179zM70 1106l135 315h198l-223 -315h-110z" />
<glyph unicode="&#xee;" d="M-164 1139l234 301h217l235 -301h-149l-193 196l-198 -196h-146zM61 0v967h179v-967h-179z" />
<glyph unicode="&#xef;" d="M-123 1296v179h178v-179h-178zM61 0h179v967h-179v-967zM246 1296v179h178v-179h-178z" />
<glyph unicode="&#xf1;" horiz-adv-x="880" d="M0 0v967h182v-82q37 47 84 70.5t78 26.5t88 3q109 0 178 -47q74 -49 111 -127q37 -76 37 -258v-553h-178v551q0 145 -43 211q-39 63 -140 63q-127 0 -215 -135v-690h-182zM61 1145v139q66 84 179 84q78 0 174 -47l51 -25q45 -20 86 -20q84 0 164 94v-145 q-76 -78 -176 -78q-70 0 -158 41l-39 18q-68 31 -115 31q-45 0 -80 -20q-31 -13 -86 -72z" />
<glyph unicode="&#xf2;" horiz-adv-x="1083" d="M61 492q0 213 138 352q137 141 346 141q207 0 342 -141.5t135 -358.5q0 -207 -137 -348q-137 -137 -348 -137q-201 0 -340 141q-136 138 -136 351zM242 494q0 -137 84 -228q82 -88 217 -88q129 0 215 90q84 88 84 228q0 135 -88 227q-86 90 -219 90q-127 0 -211 -90 q-82 -88 -82 -229zM283 1401h200l133 -316h-108z" />
<glyph unicode="&#xf3;" horiz-adv-x="1083" d="M61 492q0 -213 136 -351q139 -141 340 -141q211 0 348 137q137 141 137 348q0 217 -135 358.5t-342 141.5q-209 0 -346 -141q-138 -139 -138 -352zM242 494q0 141 82 229q84 90 211 90q133 0 219 -90q88 -92 88 -227q0 -139 -84 -228q-86 -90 -215 -90q-135 0 -217 88 q-84 91 -84 228zM416 1106l135 315h199l-224 -315h-110z" />
<glyph unicode="&#xf4;" horiz-adv-x="1083" d="M61 492q0 -213 136 -351q139 -141 340 -141q211 0 348 137q137 141 137 348q0 217 -135 358.5t-342 141.5q-209 0 -346 -141q-138 -139 -138 -352zM176 1139l234 301h217l235 -301h-149l-193 196l-198 -196h-146zM242 494q0 141 82 229q84 90 211 90q133 0 219 -90 q88 -92 88 -227q0 -139 -84 -228q-86 -90 -215 -90q-135 0 -217 88q-84 91 -84 228z" />
<glyph unicode="&#xf5;" horiz-adv-x="1083" d="M61 492q0 213 138 352q137 141 346 141q207 0 342 -141.5t135 -358.5q0 -207 -137 -348q-137 -137 -348 -137q-201 0 -340 141q-136 138 -136 351zM170 1145v139q66 84 178 84q78 0 174 -47l51 -25q45 -20 86 -20q84 0 164 94v-145q-76 -78 -176 -78q-70 0 -158 41 l-38 18q-68 31 -115 31q-45 0 -80 -20q-31 -13 -86 -72zM242 494q0 -137 84 -228q82 -88 217 -88q129 0 215 90q84 88 84 228q0 135 -88 227q-86 90 -219 90q-127 0 -211 -90q-82 -88 -82 -229z" />
<glyph unicode="&#xf6;" horiz-adv-x="1083" d="M61 492q0 213 138 352q137 141 346 141q207 0 342 -141.5t135 -358.5q0 -207 -137 -348q-137 -137 -348 -137q-201 0 -340 141q-136 138 -136 351zM242 494q0 -137 84 -228q82 -88 217 -88q129 0 215 90q84 88 84 228q0 135 -88 227q-86 90 -219 90q-127 0 -211 -90 q-82 -88 -82 -229zM256 1120v178h178v-178h-178zM625 1120v178h178v-178h-178z" />
<glyph unicode="&#xf7;" horiz-adv-x="1071" d="M61 553v176h949v-176h-949zM451 164v178h178v-178h-178zM451 942v178h178v-178h-178z" />
<glyph unicode="&#xf8;" horiz-adv-x="1083" d="M61 492q0 213 138 352q137 141 346 141q31 0 47 -2l72 277h141l-80 -308q94 -37 162 -108q135 -137 135 -359q0 -207 -137 -348q-137 -137 -348 -137q-23 0 -60 4l-65 -252h-142l74 285q-80 37 -147 104q-136 138 -136 351zM242 494q0 -137 84 -228q37 -37 65 -51 l156 598h-12q-127 0 -211 -90q-82 -88 -82 -229zM522 178h21q129 0 215 90q84 88 84 228q0 135 -88 227q-33 35 -74 55z" />
<glyph unicode="&#xf9;" horiz-adv-x="878" d="M61 414v553h179v-551q0 -150 41 -213q41 -59 141 -60q127 0 217 133v691h178v-967h-178v125q-53 -66 -129 -105q-74 -37 -145 -36q-88 0 -158 45q-74 47 -109 125q-37 76 -37 260zM219 1401h201l133 -316h-109z" />
<glyph unicode="&#xfa;" horiz-adv-x="878" d="M61 414q0 -184 37 -260q35 -78 109 -125q70 -45 158 -45q72 0 145 36q76 39 129 105v-125h178v967h-178v-691q-90 -133 -217 -133q-100 0 -141 60q-41 63 -41 213v551h-179v-553zM287 1106l135 315h199l-224 -315h-110z" />
<glyph unicode="&#xfb;" horiz-adv-x="878" d="M61 414q0 -184 37 -260q35 -78 109 -125q70 -45 158 -45q72 0 145 36q76 39 129 105v-125h178v967h-178v-691q-90 -133 -217 -133q-100 0 -141 60q-41 63 -41 213v551h-179v-553zM61 1139l234 301h217l236 -301h-150l-192 196l-199 -196h-146z" />
<glyph unicode="&#xfc;" horiz-adv-x="878" d="M61 414v553h179v-551q0 -150 41 -213q41 -59 141 -60q127 0 217 133v691h178v-967h-178v125q-53 -66 -129 -105q-74 -37 -145 -36q-88 0 -158 45q-74 47 -109 125q-37 76 -37 260zM180 1120v178h178v-178h-178zM549 1120v178h178v-178h-178z" />
<glyph unicode="&#xfd;" horiz-adv-x="1001" d="M61 967l347 -760l-306 -701h199l639 1461h-201l-233 -547l-242 547h-203zM373 1106l135 315h199l-224 -315h-110z" />
<glyph unicode="&#xfe;" horiz-adv-x="991" d="M61 -492v1926h183v-478q147 37 209 37q217 0 346 -139q131 -137 131 -371q0 -217 -109 -356q-111 -139 -280 -139q-70 0 -156 23.5t-141 64.5v-568h-183zM244 258q49 -41 123.5 -65.5t128.5 -24.5q115 0 184 90q70 92 70 234q0 143 -76 233q-74 90 -193 90 q-141 0 -237 -29v-528z" />
<glyph unicode="&#xff;" horiz-adv-x="1001" d="M61 967h203l242 -547l233 547h201l-639 -1461h-199l306 701zM199 1120v178h178v-178h-178zM567 1120v178h178v-178h-178z" />
<glyph unicode="&#x152;" horiz-adv-x="2203" d="M61 727q0 322 203 530q205 211 510 211q309 0 514 -211q41 -45 60 -67v278h776v-188h-580v-610h561v-187h-561v-295h598v-188h-794v274q-37 -45 -60 -67q-207 -207 -524 -207q-301 0 -502 207q-201 211 -201 520zM258 727q0 -233 150 -385q147 -154 368 -154t373 158 q150 156 149 389q0 227 -149 383q-152 156 -367 156q-229 0 -376.5 -153.5t-147.5 -393.5z" />
<glyph unicode="&#x153;" horiz-adv-x="1742" d="M61 498q0 215 138 354q137 141 346 141q205 0 342 -143q25 -25 49 -59q25 41 49 71q117 137 303 137q195 0 301 -133q92 -119 92 -387v-24h-634q4 -66 24.5 -108t63.5 -87q82 -82 204 -82q180 0 326 119v-188q-86 -61 -162 -84q-74 -25 -190 -25q-147 0 -242 66 q-78 57 -131 147q-25 -37 -55 -68q-137 -137 -348 -137q-203 0 -340 139q-136 142 -136 351zM242 500q0 -137 84 -226q82 -88 217 -88q129 0 215 88q84 90 84 228q0 135 -88 229q-86 90 -219 90q-127 0 -211 -90q-82 -90 -82 -231zM1051 623h454q-6 86 -63 149 q-57 61 -154 62q-96 0 -158 -62q-65 -65 -79 -149z" />
<glyph unicode="&#x178;" horiz-adv-x="1333" d="M0 1468h240l428 -583l428 583h235l-567 -733v-735h-201v735zM356 1518v178h179v-178h-179zM725 1518v178h178v-178h-178z" />
<glyph unicode="&#x2c6;" horiz-adv-x="808" d="M61 1139l234 301h217l236 -301h-150l-192 196l-199 -196h-146z" />
<glyph unicode="&#x2dc;" horiz-adv-x="776" d="M61 1145v139q66 84 179 84q78 0 174 -47l51 -25q45 -20 86 -20q84 0 164 94v-145q-76 -78 -176 -78q-70 0 -158 41l-39 18q-68 31 -115 31q-45 0 -80 -20q-31 -13 -86 -72z" />
<glyph unicode="&#x2000;" horiz-adv-x="976" />
<glyph unicode="&#x2001;" horiz-adv-x="1953" />
<glyph unicode="&#x2002;" horiz-adv-x="976" />
<glyph unicode="&#x2003;" horiz-adv-x="1953" />
<glyph unicode="&#x2004;" horiz-adv-x="651" />
<glyph unicode="&#x2005;" horiz-adv-x="487" />
<glyph unicode="&#x2006;" horiz-adv-x="325" />
<glyph unicode="&#x2007;" horiz-adv-x="325" />
<glyph unicode="&#x2008;" horiz-adv-x="243" />
<glyph unicode="&#x2009;" horiz-adv-x="389" />
<glyph unicode="&#x200a;" horiz-adv-x="108" />
<glyph unicode="&#x2010;" horiz-adv-x="1069" d="M61 532v177h947v-177h-947z" />
<glyph unicode="&#x2011;" horiz-adv-x="1069" d="M61 532v177h947v-177h-947z" />
<glyph unicode="&#x2012;" horiz-adv-x="1069" d="M61 532v177h947v-177h-947z" />
<glyph unicode="&#x2013;" horiz-adv-x="987" d="M61 532v177h865v-177h-865z" />
<glyph unicode="&#x2014;" horiz-adv-x="1540" d="M61 532v177h1418v-177h-1418z" />
<glyph unicode="&#x2018;" horiz-adv-x="333" d="M61 1024v178l142 314h69l-84 -314h52v-178h-179z" />
<glyph unicode="&#x2019;" horiz-adv-x="333" d="M61 1126l84 314h-51v178h178v-178h-2l-139 -314h-70z" />
<glyph unicode="&#x201a;" horiz-adv-x="333" d="M61 -307l84 313h-51v178h178v-178h-2l-139 -313h-70z" />
<glyph unicode="&#x201c;" horiz-adv-x="538" d="M61 1024v178l142 314h69l-84 -314h52v-178h-179zM266 1024v178l142 314h69l-84 -314h51v-178h-178z" />
<glyph unicode="&#x201d;" horiz-adv-x="538" d="M61 1126l84 314h-51v178h178v-178h-2l-139 -314h-70zM266 1126l84 314h-51v178h178v-178h-2l-139 -314h-70z" />
<glyph unicode="&#x201e;" horiz-adv-x="333" d="M61 -307l84 313h-51v178h178v-178h-2l-139 -313h-70z" />
<glyph unicode="&#x2022;" horiz-adv-x="700" d="M61 698.5q0 120.5 84 204.5t205 84t205 -84t84 -204.5t-84 -204.5t-205 -84t-205 84t-84 204.5z" />
<glyph unicode="&#x2026;" d="M61 0v178h179v-178h-179z" />
<glyph unicode="&#x202f;" horiz-adv-x="389" />
<glyph unicode="&#x2039;" horiz-adv-x="593" d="M61 649l297 481h174l-296 -481l296 -485h-174z" />
<glyph unicode="&#x203a;" horiz-adv-x="593" d="M61 164l297 483l-297 483h175l296 -483l-296 -483h-175z" />
<glyph unicode="&#x2044;" horiz-adv-x="1312" d="M61 -82l1049 1589h141l-1048 -1589h-142z" />
<glyph unicode="&#x205f;" horiz-adv-x="487" />
<glyph unicode="&#x20ac;" horiz-adv-x="1165" d="M61 543v108h123v31q0 35 4 96h-127v107h142q39 219 176 362q174 178 422 178q158 0 289 -69l-43 -142q-104 61 -242 62q-172 0 -285 -117q-90 -94 -127 -274h600v-107h-618q-4 -29 -4 -90v-37h622v-108h-608q27 -182 119 -281q117 -125 301 -125q147 0 262 72l37 -137 q-129 -88 -320 -88q-274 0 -436 190q-127 143 -153 369h-134z" />
<glyph unicode="&#x2122;" horiz-adv-x="2656" d="M1327 0v1468l633 -596l635 596v-1468h-184v1006l-451 -414l-448 414v-1006h-185zM61 1282v188h1143v-188h-477v-1282h-197v1282h-469z" />
<glyph unicode="&#xe000;" horiz-adv-x="965" d="M0 965h965v-965h-965v965z" />
<glyph unicode="&#xfb01;" horiz-adv-x="999" d="M61 795v172h129v57q0 233 92.5 348t223.5 115q55 0 131 -19v-188q-43 18 -82 18q-104 0 -145 -61q-41 -59 -41 -213v-57h161v-172h-161v-795h-179v795h-129zM760 0h178v967h-178v-967zM760 1174h178v180h-178v-180z" />
<glyph unicode="&#xfb02;" horiz-adv-x="999" d="M61 795v172h129v57q0 233 92.5 348t223.5 115q55 0 131 -19v-188q-43 18 -82 18q-104 0 -145 -61q-41 -59 -41 -213v-57h161v-172h-161v-795h-179v795h-129zM760 0v1468h178v-1468h-178z" />
<glyph unicode="&#xfb03;" horiz-adv-x="1697" d="M1458 0v967h179v-967h-179zM1458 1174v180h179v-180h-179zM759 795v172h129v57q0 233 92.5 348t223.5 115q55 0 131 -19v-188q-43 18 -82 18q-104 0 -145 -61q-41 -59 -41 -213v-57h161v-172h-161v-795h-179v795h-129zM61 795v172h129v57q0 233 92.5 348t223.5 115 q55 0 131 -19v-188q-43 18 -82 18q-104 0 -145 -61q-41 -59 -41 -213v-57h161v-172h-161v-795h-179v795h-129z" />
<glyph unicode="&#xfb04;" horiz-adv-x="1697" d="M1458 0v1468h179v-1468h-179zM759 795v172h129v57q0 233 92.5 348t223.5 115q55 0 131 -19v-188q-43 18 -82 18q-104 0 -145 -61q-41 -59 -41 -213v-57h161v-172h-161v-795h-179v795h-129zM61 795v172h129v57q0 233 92.5 348t223.5 115q55 0 131 -19v-188q-43 18 -82 18 q-104 0 -145 -61q-41 -59 -41 -213v-57h161v-172h-161v-795h-179v795h-129z" />
</font>
</defs>
</svg>
